<svg width="30" height="30" viewBox="0 0 30 30" fill="none" xmlns="http://www.w3.org/2000/svg">
<rect width="30" height="30" rx="15" fill="#00B2A1"/>
<path fill-rule="evenodd" clip-rule="evenodd" d="M8.43758 15C8.43758 15.1243 8.48696 15.2436 8.57487 15.3315C8.66278 15.4194 8.78201 15.4688 8.90633 15.4688L19.9623 15.4688L17.012 18.4181C16.9684 18.4617 16.9338 18.5135 16.9102 18.5704C16.8866 18.6273 16.8745 18.6884 16.8745 18.75C16.8745 18.8116 16.8866 18.8727 16.9102 18.9296C16.9338 18.9866 16.9684 19.0383 17.012 19.0819C17.0555 19.1255 17.1073 19.16 17.1642 19.1836C17.2212 19.2072 17.2822 19.2193 17.3438 19.2193C17.4055 19.2193 17.4665 19.2072 17.5234 19.1836C17.5804 19.16 17.6321 19.1255 17.6757 19.0819L21.4257 15.3319C21.4694 15.2883 21.504 15.2366 21.5276 15.1797C21.5513 15.1227 21.5634 15.0617 21.5634 15C21.5634 14.9383 21.5513 14.8773 21.5276 14.8203C21.504 14.7634 21.4694 14.7117 21.4257 14.6681L17.6757 10.9181C17.6321 10.8745 17.5804 10.84 17.5234 10.8164C17.4665 10.7928 17.4055 10.7807 17.3438 10.7807C17.2822 10.7807 17.2212 10.7928 17.1642 10.8164C17.1073 10.84 17.0555 10.8745 17.012 10.9181C16.9684 10.9617 16.9338 11.0135 16.9102 11.0704C16.8866 11.1273 16.8745 11.1884 16.8745 11.25C16.8745 11.3116 16.8866 11.3727 16.9102 11.4296C16.9338 11.4866 16.9684 11.5383 17.012 11.5819L19.9623 14.5313L8.90633 14.5313C8.78201 14.5313 8.66278 14.5806 8.57487 14.6685C8.48696 14.7565 8.43758 14.8757 8.43758 15Z" fill="white"/>
</svg>
