<svg width="100" height="100" viewBox="0 0 100 100" fill="none" xmlns="http://www.w3.org/2000/svg">
<path fill-rule="evenodd" clip-rule="evenodd" d="M24.1208 17.6687C23.8328 17.6687 23.5565 17.5542 23.3528 17.3505C23.1491 17.1468 23.0346 16.8706 23.0346 16.5825V11.0862C23.0346 10.7981 23.1491 10.5218 23.3528 10.3181C23.5565 10.1144 23.8328 10 24.1208 10C24.4089 10 24.6852 10.1144 24.8889 10.3181C25.0926 10.5218 25.2071 10.7981 25.2071 11.0862V16.5825C25.2071 16.8706 25.0926 17.1468 24.8889 17.3505C24.6852 17.5542 24.4089 17.6687 24.1208 17.6687ZM88.2075 54.9043H62.1384V62.3666L68.6558 62.3666V56.9355H70.8282V62.3666H73.0007V56.9355H75.1731V62.3666H88.9138C89.0712 62.3648 89.2272 62.3973 89.3709 62.4618C89.5145 62.5262 89.6424 62.6212 89.7457 62.74C89.8491 62.8588 89.9253 62.9987 89.9692 63.1499C90.0131 63.3011 90.0236 63.4601 90 63.6157C89.1201 69.2749 86.7413 72.1426 82.7875 72.1426C82.052 72.1423 81.3204 72.0362 80.6151 71.8275V72.1426C80.6136 74.1683 80.0972 76.1605 79.1142 77.9318C78.1313 79.7031 76.7141 81.1955 74.9959 82.2685C73.2776 83.3416 71.3148 83.9602 69.2918 84.0662C67.2688 84.1721 65.252 83.7621 63.4311 82.8744C62.1018 85.2165 60.177 87.1654 57.8516 88.5236C55.5262 89.8818 52.883 90.601 50.1901 90.6083C47.499 90.5991 44.858 89.879 42.5347 88.5209C40.2114 87.1628 38.2883 85.2149 36.96 82.8744C35.139 83.7621 33.1223 84.1721 31.0993 84.0662C29.0762 83.9602 27.1134 83.3416 25.3952 82.2685C23.677 81.1955 22.2598 79.7031 21.2768 77.9318C20.2938 76.1605 19.7774 74.1683 19.776 72.1426V71.8167C19.0706 72.0261 18.3393 72.1358 17.6035 72.1426H17.4841C16.5805 72.175 15.6797 72.0242 14.836 71.6994C13.9922 71.3746 13.2229 70.8825 12.5743 70.2525C9.99999 67.7325 10 63.6266 10 63.4528C10 63.1647 10.1145 62.8885 10.3182 62.6848C10.5219 62.481 10.7981 62.3666 11.0862 62.3666H12.1724V33.0387C12.1724 32.7506 12.2869 32.4743 12.4906 32.2706C12.6943 32.0669 12.9706 31.9525 13.2587 31.9525H23.0674V23.4691H25.2398V31.9525H28.4657C28.7538 31.9525 29.0301 32.0669 29.2338 32.2706C29.4375 32.4743 29.5519 32.7506 29.5519 33.0387V40.6422H27.3795V34.1249H14.3449V62.3666H20.8623V55.8493H17.6035V53.6768H20.8623V50.4182H17.6035V48.2457H20.8623V44.9871H17.6035V42.8147H21.9415L21.9485 42.8146H42.5864V11.3143C42.5864 11.0262 42.7009 10.7499 42.9046 10.5462C43.1083 10.3425 43.3846 10.2281 43.6726 10.2281H61.0521C61.3402 10.2281 61.6165 10.3425 61.8202 10.5462C62.0239 10.7499 62.1384 11.0262 62.1384 11.3143V35.2111H59.9659V12.4005H44.7589V43.8774L44.7591 43.9008V62.3666L59.9659 62.3666V54.9043H56.1098C55.9475 54.9048 55.7871 54.869 55.6405 54.7994C55.4939 54.7299 55.3647 54.6284 55.2625 54.5024C55.1607 54.374 55.0892 54.2243 55.0535 54.0644C55.0178 53.9045 55.0187 53.7386 55.0561 53.5791L58.5429 38.2308C58.5981 37.9858 58.7364 37.7675 58.9345 37.613C59.1325 37.4585 59.378 37.3774 59.6291 37.3836H84.7533C85.0044 37.3774 85.2499 37.4585 85.4479 37.613C85.646 37.7675 85.7844 37.9858 85.8395 38.2308L89.2937 53.5791C89.3297 53.7394 89.3288 53.9057 89.2912 54.0657C89.2536 54.2256 89.1801 54.3749 89.0765 54.5024C88.9719 54.6313 88.8393 54.7346 88.6887 54.8042C88.538 54.8739 88.3734 54.9081 88.2075 54.9043ZM23.0347 62.3666V44.9871L24.1208 44.9871L42.5864 44.9871V62.3666H23.0347ZM65.8887 52.7318H78.2033L77.6732 46.9966H66.4177L65.8887 52.7318ZM86.8497 52.7318H80.385L79.8549 46.9966H85.5495L86.8497 52.7318ZM85.057 44.8242H79.6542L79.1673 39.556H83.8626L85.057 44.8242ZM67.104 39.556H76.9856L77.4725 44.8242H66.6181L67.104 39.556ZM63.707 52.7318L64.236 46.9966H58.7725L57.4675 52.7318H63.707ZM64.9224 39.556L64.4364 44.8242H59.2668L60.4655 39.556H64.9224ZM13.9918 27.9431C14.1556 28.0364 14.3409 28.0855 14.5294 28.0855C14.7239 28.0824 14.9145 28.0301 15.0833 27.9334L20.786 24.5336C20.9101 24.4608 21.0185 24.3641 21.105 24.2491C21.1914 24.134 21.2541 24.003 21.2895 23.8636C21.3248 23.7241 21.3321 23.579 21.311 23.4367C21.2898 23.2944 21.2406 23.1577 21.1662 23.0346C21.0174 22.7887 20.7773 22.6117 20.4984 22.5425C20.2195 22.4733 19.9245 22.5175 19.678 22.6653L13.9754 26.0651C13.7277 26.2121 13.5485 26.4514 13.4772 26.7305C13.4059 27.0095 13.4483 27.3055 13.5952 27.5533C13.6913 27.7154 13.828 27.8497 13.9918 27.9431ZM33.5818 28.129C33.3868 28.1289 33.1955 28.0764 33.0279 27.9769L27.3795 24.577C27.162 24.4189 27.0109 24.1857 26.9555 23.9225C26.9001 23.6594 26.9442 23.3851 27.0793 23.1526C27.2145 22.9201 27.4311 22.7461 27.6872 22.6641C27.9433 22.5821 28.2207 22.598 28.4657 22.7087L34.1684 26.1086C34.373 26.23 34.5321 26.4153 34.6212 26.636C34.7104 26.8567 34.7246 27.1005 34.6616 27.33C34.5987 27.5595 34.4622 27.762 34.273 27.9063C34.0838 28.0507 33.8524 28.1289 33.6144 28.129H33.5818ZM24.1208 22.1765C23.8328 22.1765 23.5565 22.062 23.3528 21.8583C23.1491 21.6546 23.0346 21.3784 23.0346 21.0903V20.0041C23.0346 19.716 23.1491 19.4397 23.3528 19.236C23.5565 19.0323 23.8328 18.9178 24.1208 18.9178C24.4089 18.9178 24.6852 19.0323 24.8889 19.236C25.0926 19.4397 25.2071 19.716 25.2071 20.0041V21.0903C25.2071 21.3784 25.0926 21.6546 24.8889 21.8583C24.6852 22.062 24.4089 22.1765 24.1208 22.1765ZM38.3938 80.8758C38.3283 80.7379 38.2344 80.6153 38.1184 80.5161C38.0024 80.4169 37.8667 80.3433 37.7203 80.3001C37.6195 80.2842 37.5169 80.2842 37.4161 80.3001C37.2128 80.2994 37.0133 80.3559 36.8404 80.463C35.3597 81.3724 33.6633 81.8707 31.926 81.9065C30.1886 81.9423 28.4731 81.5144 26.9562 80.6669C25.4392 79.8193 24.1755 78.5827 23.2953 77.0844C22.4151 75.5861 21.9502 73.8803 21.9484 72.1426C21.952 71.4969 22.0175 70.8531 22.1439 70.22C22.1741 70.0157 22.1455 69.8071 22.0614 69.6186C21.9773 69.4301 21.8413 69.2694 21.6692 69.1554C21.497 69.0414 21.296 68.9788 21.0896 68.975C20.8832 68.9712 20.68 69.0262 20.5037 69.1337C19.6324 69.674 18.6288 69.9634 17.6035 69.9701C16.9661 70.0207 16.3253 69.9345 15.7239 69.7172C15.1225 69.4998 14.5746 69.1565 14.1168 68.7101C13.0791 67.5478 12.4331 66.0886 12.2702 64.539H87.6103C86.5567 69.3727 84.3734 69.9701 82.7766 69.9701C81.7582 69.9819 80.757 69.7072 79.8873 69.1772C79.7111 69.0697 79.5078 69.0146 79.3014 69.0185C79.095 69.0223 78.894 69.0849 78.7219 69.1988C78.5498 69.3128 78.4137 69.4735 78.3296 69.662C78.2455 69.8506 78.2169 70.0592 78.2471 70.2634C78.3672 70.8826 78.429 71.5118 78.4318 72.1426C78.4223 73.8766 77.9518 75.5769 77.0685 77.0691C76.1852 78.5613 74.9208 79.7917 73.4052 80.6341C71.8895 81.4765 70.177 81.9006 68.4434 81.8629C66.7097 81.8252 65.0173 81.327 63.5397 80.4195C63.4098 80.3388 63.2642 80.2864 63.1126 80.2658C62.9609 80.2452 62.8067 80.2569 62.6599 80.3001C62.5135 80.3433 62.3778 80.4169 62.2618 80.5161C62.1457 80.6153 62.0519 80.7379 61.9864 80.8758C60.9338 83.1151 59.2655 85.0085 57.1766 86.3348C55.0877 87.661 52.6645 88.3653 50.1901 88.3653C47.7157 88.3653 45.2925 87.661 43.2036 86.3348C41.1146 85.0085 39.4464 83.1151 38.3938 80.8758ZM44.759 77.5736C42.4543 77.5736 40.2441 76.6581 38.6144 75.0285C36.9848 73.3988 36.0692 71.1886 36.0692 68.8839C36.0692 68.5958 36.1837 68.3195 36.3874 68.1158C36.5911 67.9121 36.8674 67.7977 37.1555 67.7977C37.4435 67.7977 37.7198 67.9121 37.9235 68.1158C38.1272 68.3195 38.2417 68.5958 38.2417 68.8839C38.2417 70.6124 38.9283 72.2701 40.1506 73.4923C41.3728 74.7146 43.0305 75.4012 44.759 75.4012C45.0471 75.4012 45.3233 75.5157 45.5271 75.7194C45.7308 75.9231 45.8452 76.1993 45.8452 76.4874C45.8452 76.7755 45.7308 77.0518 45.5271 77.2555C45.3233 77.4592 45.0471 77.5736 44.759 77.5736ZM66.8015 75.083C67.0052 75.2868 67.2815 75.4012 67.5696 75.4012C69.01 75.4012 70.3914 74.829 71.4099 73.8105C72.4285 72.7919 73.0007 71.4105 73.0007 69.9701C73.0007 69.682 72.8862 69.4058 72.6825 69.2021C72.4788 68.9984 72.2025 68.8839 71.9145 68.8839C71.6264 68.8839 71.3501 68.9984 71.1464 69.2021C70.9427 69.4058 70.8282 69.682 70.8282 69.9701C70.8282 70.8344 70.4849 71.6632 69.8738 72.2743C69.2627 72.8854 68.4338 73.2288 67.5696 73.2288C67.2815 73.2288 67.0052 73.3432 66.8015 73.5469C66.5978 73.7506 66.4834 74.0269 66.4834 74.315C66.4834 74.6031 66.5978 74.8793 66.8015 75.083ZM26.2935 48.2457H30.6383V50.4182H26.2935V48.2457ZM39.3278 48.2457H34.9829V50.4182H39.3278V48.2457ZM26.2935 53.6769H30.6383V55.8493H26.2935V53.6769ZM39.3278 53.6769H34.9829V55.8493H39.3278V53.6769ZM17.6035 37.3836H24.1208V39.556H17.6035V37.3836ZM48.0177 15.6592H56.7074V17.8316H48.0177V15.6592ZM56.7074 22.1765H48.0177V24.3489H56.7074V22.1765ZM48.0177 35.2111H56.7074V37.3836H48.0177V35.2111ZM56.7074 28.6938H48.0177V30.8662H56.7074V28.6938ZM48.0177 41.7284H55.6212V43.9009H48.0177V41.7284ZM54.535 48.2457H48.0177V50.4182H54.535V48.2457ZM48.0177 53.6768H53.4487V55.8493H48.0177V53.6768Z" fill="url(#paint0_linear_1254_4091)"/>
<defs>
<linearGradient id="paint0_linear_1254_4091" x1="50.0061" y1="10" x2="50.0061" y2="90.6083" gradientUnits="userSpaceOnUse">
<stop stop-color="#00B2A1"/>
<stop offset="1" stop-color="#835DD0"/>
</linearGradient>
</defs>
</svg>
