<svg width="100" height="100" viewBox="0 0 100 100" fill="none" xmlns="http://www.w3.org/2000/svg">
<path fill-rule="evenodd" clip-rule="evenodd" d="M39.1226 29.8177H44.3326V27.4559H39.1237C38.0122 27.4547 36.9465 27.0126 36.1606 26.2267C35.3746 25.4407 34.9325 24.3751 34.9314 23.2635C34.9325 22.152 35.3746 21.0864 36.1606 20.3004C36.9465 19.5144 38.0122 19.0724 39.1237 19.0712C39.8701 19.0751 40.6013 19.2822 41.2389 19.6701C41.4206 19.7767 41.6273 19.8331 41.8378 19.8335C42.0285 19.8333 42.2164 19.7874 42.3856 19.6995C42.5639 19.6065 42.7153 19.4694 42.8254 19.3011C42.9355 19.1328 43.0006 18.9392 43.0144 18.7385C43.2703 15.1609 46.2812 12.3586 49.8664 12.3586C53.4517 12.3586 56.462 15.1609 56.7179 18.7385C56.7315 18.939 56.7964 19.1326 56.9062 19.3008C57.016 19.4691 57.1671 19.6063 57.3451 19.6995C57.5149 19.7878 57.7036 19.8337 57.895 19.8335C58.1055 19.8328 58.3122 19.7764 58.4939 19.6701C59.1323 19.2815 59.8645 19.0745 60.6118 19.0712C61.7234 19.0724 62.789 19.5144 63.575 20.3004C64.3609 21.0864 64.803 22.152 64.8042 23.2635C64.803 24.3751 64.3609 25.4407 63.575 26.2267C62.789 27.0126 61.7234 27.4547 60.6118 27.4559H56.7462V29.8155H60.6118C62.3487 29.8132 64.0138 29.1222 65.2419 27.8939C66.4699 26.6656 67.1607 25.0004 67.1628 23.2635C67.16 21.5271 66.4689 19.8626 65.2409 18.6349C64.0129 17.4073 62.3483 16.7166 60.6118 16.7143C60.059 16.7153 59.5086 16.7885 58.9747 16.932L58.8178 16.974L58.7748 16.8172C57.6816 12.8034 54.019 10 49.868 10C45.7171 10 42.054 12.8034 40.9613 16.8172L40.9183 16.974L40.7615 16.932C40.2273 16.7885 39.6768 16.7153 39.1237 16.7143C37.3872 16.7163 35.7223 17.4069 34.4941 18.6346C33.266 19.8623 32.5749 21.527 32.5723 23.2635C32.5737 25.0007 33.2642 26.6664 34.4922 27.8951C35.7202 29.1238 37.3855 29.8153 39.1226 29.8177ZM48.6871 65.0621H51.0462V67.4212H48.6871V65.0621ZM62.1172 83.8644H64.4764V86.2235H62.1172V83.8644ZM53.6575 26.3669L49.6862 36.9577L47.4762 36.1258L50.8519 27.1292H48.5249C48.3501 27.1296 48.1775 27.0912 48.0194 27.0166C47.8614 26.942 47.722 26.8332 47.6112 26.698C47.5002 26.5631 47.4207 26.4051 47.3785 26.2355C47.3363 26.066 47.3325 25.8892 47.3673 25.718L48.6784 19.1632L50.9913 19.6266L49.9628 24.77H52.5528C52.7434 24.77 52.9311 24.8162 53.0999 24.9047C53.2687 24.9932 53.4135 25.1213 53.5219 25.278C53.631 25.435 53.7003 25.6161 53.7239 25.8058C53.7475 25.9955 53.7247 26.188 53.6575 26.3669ZM27.0041 60.6586C28.5313 60.5239 30.0167 60.0878 31.3744 59.3754C32.732 58.663 33.9349 57.6884 34.9134 56.5081C36.8838 54.1436 37.8535 50.7957 37.5715 47.3215C37.2889 43.8255 35.7747 40.6938 33.4194 38.7294C33.2074 38.5533 32.9404 38.4569 32.6648 38.4572C32.5556 38.4573 32.447 38.4723 32.3419 38.5018C32.1571 38.5544 31.988 38.6513 31.8492 38.7842C31.7103 38.917 31.6061 39.0818 31.5454 39.2641L30.965 41.0063L26.9311 34.9552C26.8238 34.7935 26.6782 34.6608 26.5072 34.569C26.3362 34.4771 26.1452 34.4289 25.9511 34.4287C25.835 34.4297 25.7198 34.4481 25.6092 34.4832C25.3663 34.5555 25.1533 34.7045 25.0021 34.908C24.851 35.1115 24.7698 35.3584 24.7707 35.6118V41.5219L11.8126 33.2739C11.6234 33.1528 11.4035 33.0884 11.1788 33.0883C11.0177 33.0886 10.8584 33.122 10.7107 33.1862C10.5629 33.2504 10.4299 33.3442 10.3197 33.4618C10.1318 33.6618 10.0195 33.9211 10.0023 34.1951C9.98512 34.469 10.0641 34.7403 10.2255 34.9623L19.8118 48.1453L12.3527 49.2102C12.098 49.2473 11.8624 49.3664 11.6815 49.5494C11.5007 49.7325 11.3844 49.9695 11.3504 50.2246C11.3172 50.4795 11.368 50.7382 11.4952 50.9617C11.6223 51.1851 11.8188 51.361 12.0549 51.4627L19.8542 54.8051L18.4005 56.2593C18.2847 56.3753 18.1942 56.514 18.1349 56.6668C18.0755 56.8196 18.0486 56.9831 18.0559 57.1468C18.0637 57.3106 18.1053 57.4711 18.1782 57.6181C18.2511 57.765 18.3537 57.8952 18.4795 58.0005C20.6029 59.7705 23.1803 60.7059 25.9288 60.7059C26.2778 60.7076 26.6404 60.6912 27.0041 60.6586ZM21.2225 57.0613L21.0417 56.9524L22.7524 55.2417C22.889 55.1055 22.9901 54.9378 23.0465 54.7533C23.103 54.5688 23.1133 54.3732 23.0763 54.1839C23.0401 53.9947 22.9579 53.8173 22.837 53.6673C22.7162 53.5173 22.5604 53.3993 22.3833 53.3236L16.8488 50.9509L22.0854 50.2039C22.2864 50.1745 22.4765 50.094 22.6375 49.9701C22.7984 49.8461 22.9248 49.6829 23.0045 49.4961C23.0834 49.3088 23.1126 49.1043 23.0895 48.9024C23.0663 48.7005 22.9915 48.508 22.8722 48.3435L16.2891 39.2897L16.5069 39.0561L25.3135 44.6607C25.5031 44.7812 25.7232 44.8451 25.9478 44.8448C26.146 44.8446 26.341 44.795 26.5151 44.7005C26.7004 44.5986 26.8549 44.4489 26.9626 44.2669C27.0702 44.085 27.1271 43.8774 27.1271 43.666V39.5042L30.3394 44.3204C30.4475 44.4825 30.594 44.6152 30.7658 44.7068C30.9377 44.7984 31.1296 44.846 31.3243 44.8453C31.3755 44.8453 31.4266 44.8421 31.4773 44.8355C31.696 44.8055 31.9019 44.7151 32.0719 44.5745C32.242 44.4339 32.3694 44.2486 32.4399 44.0395L33.1679 41.8562L33.3541 42.1203C34.4103 43.6159 35.0555 45.4807 35.2194 47.5104C35.4508 50.3743 34.6782 53.1026 33.1009 54.9946C32.3205 55.9362 31.3611 56.7139 30.2782 57.2824C29.1954 57.851 28.0106 58.1993 26.7923 58.307C26.5043 58.3337 26.2124 58.3473 25.9244 58.3473C24.2702 58.3472 22.6464 57.9031 21.2225 57.0613ZM31.3655 47.6481C32.0902 48.3728 32.4978 49.3554 32.499 50.3802C32.4978 51.4051 32.0902 52.3877 31.3655 53.1124C30.6408 53.8371 29.6582 54.2447 28.6333 54.2459C27.6084 54.2447 26.6259 53.8371 25.9012 53.1124C25.1765 52.3877 24.7688 51.4051 24.7677 50.3802C24.7688 49.3554 25.1765 48.3728 25.9012 47.6481C26.6259 46.9234 27.6084 46.5157 28.6333 46.5146C29.6582 46.5157 30.6408 46.9234 31.3655 47.6481ZM27.5689 49.3156C27.2866 49.5981 27.1278 49.9809 27.1274 50.3802H27.1279C27.1283 50.7794 27.2871 51.1621 27.5693 51.4445C27.8515 51.7268 28.2341 51.8856 28.6333 51.8862C29.0327 51.8858 29.4155 51.727 29.6979 51.4447C29.9803 51.1624 30.1393 50.7796 30.1398 50.3802C30.1394 49.9808 29.9806 49.5979 29.6981 49.3155C29.4157 49.033 29.0328 48.8742 28.6333 48.8737C28.234 48.8743 27.8512 49.0332 27.5689 49.3156ZM78.7424 26.1154C72.4326 26.1154 67.4906 28.9929 67.4906 32.6669C67.4906 33.4395 67.7225 34.2044 68.1799 34.9416L68.1902 34.958L71.2495 44.137C71.464 44.7794 71.7101 45.4094 72.0118 46.1575C73.8684 50.7309 73.3936 52.9958 72.6069 56.7455L72.6031 56.7635C72.2328 58.5297 71.8136 60.5322 71.5495 63.1696L71.5239 63.4271C71.5256 63.4452 71.5256 63.4635 71.5239 63.4816L71.5179 63.5758L70.1083 64.2803L66.3385 60.5105C66.2913 60.4634 66.2352 60.4262 66.1735 60.4009C66.1119 60.3756 66.0458 60.3627 65.9792 60.3629C65.9124 60.3629 65.8463 60.3757 65.7843 60.4005C65.6912 60.4386 65.6117 60.5036 65.5558 60.5873C65.4999 60.6709 65.4703 60.7692 65.4707 60.8698V63.9656L65.2257 63.8235C60.5591 61.1177 55.2613 59.6911 49.8671 59.6878C32.9796 59.6878 19.2304 73.3831 19.1417 90.2498H21.5014C21.5101 89.0667 21.6103 87.8259 21.8242 86.3613L21.8444 86.2214H48.5228C49.5477 86.2202 50.5302 85.8126 51.2549 85.0879C51.9796 84.3632 52.3873 83.3806 52.3884 82.3557V79.6694C52.3873 78.6445 51.9796 77.6619 51.2549 76.9372C50.5302 76.2125 49.5477 75.8049 48.5228 75.8037H40.4648C40.0654 75.8033 39.6825 75.6444 39.4 75.362C39.1176 75.0796 38.9587 74.6966 38.9583 74.2972C38.9589 73.8979 39.1178 73.5151 39.4002 73.2328C39.6826 72.9505 40.0655 72.7917 40.4648 72.7912H41.808C42.8329 72.7901 43.8154 72.3824 44.5401 71.6577C45.2649 70.933 45.6725 69.9505 45.6736 68.9256C45.6725 67.9007 45.2649 66.9181 44.5401 66.1934C43.8154 65.4687 42.8329 65.0611 41.808 65.0599H37.932L37.8629 64.7485C41.6795 62.9562 45.7177 62.0475 49.866 62.0475C55.8376 62.0475 61.5718 63.9155 66.4529 67.4501L66.8607 67.7458H63.2956C61.9146 67.7473 60.5907 68.2966 59.6143 69.2732C58.6379 70.2497 58.0887 71.5737 58.0873 72.9546C58.0887 74.3355 58.6379 75.6595 59.6143 76.636C60.5907 77.6125 61.9146 78.1618 63.2956 78.1634H64.6409C65.04 78.1641 65.4226 78.323 65.7048 78.6053C65.987 78.8876 66.1458 79.2702 66.1463 79.6694C66.1475 80.6943 66.5551 81.6768 67.2798 82.4015C68.0045 83.1262 68.9871 83.5339 70.012 83.535H77.3562L77.3867 83.6597C77.9249 85.8151 78.2089 88.0262 78.2327 90.2477H80.5935C80.5789 86.5825 79.9029 82.9501 78.5981 79.5251C77.319 76.1678 75.4607 73.0611 73.1078 70.3461L72.958 70.1724L78.2605 68.049C78.3604 68.0094 78.4451 67.9389 78.5023 67.8479C78.5595 67.7568 78.5862 67.6499 78.5785 67.5427C78.5715 67.4358 78.5309 67.3339 78.4624 67.2515C78.394 67.1691 78.3012 67.1106 78.1974 67.0842L73.2101 65.8374V64.5923L73.2907 64.5449C73.4135 64.4816 73.5241 64.397 73.6174 64.295L76.0778 61.2874C76.9048 60.2772 77.7491 59.2934 78.4947 58.4247L78.505 58.4127C81.3013 55.1519 83.9425 52.0719 85.8617 47.928C87.2357 44.9619 88.0799 41.1456 88.825 37.7779L88.8262 37.7723L88.8355 37.7306L88.8357 37.7296C89.0702 36.6697 89.3346 35.4749 89.6032 34.3966L89.6065 34.3825L89.6124 34.3689C89.8617 33.8332 89.9939 33.2506 90.0001 32.6598C89.9936 28.9929 85.051 26.1154 78.7424 26.1154ZM41.8091 67.4191C42.2085 67.4195 42.5914 67.5784 42.8739 67.8608C43.1563 68.1432 43.3152 68.5262 43.3156 68.9256C43.315 69.325 43.1561 69.7078 42.8737 69.9902C42.5913 70.2726 42.2085 70.4315 41.8091 70.4321H40.467C39.4421 70.4333 38.4595 70.8409 37.7348 71.5656C37.0101 72.2903 36.6025 73.2729 36.6014 74.2978C36.6025 75.3226 37.0101 76.3052 37.7348 77.0299C38.4595 77.7546 39.4421 78.1623 40.467 78.1634H48.525C48.9241 78.1641 49.3067 78.323 49.5889 78.6053C49.871 78.8876 50.0298 79.2702 50.0304 79.6694V82.3552C50.03 82.7544 49.8713 83.1372 49.5891 83.4196C49.3069 83.702 48.9242 83.861 48.525 83.8617H22.2985L22.348 83.6597C23.9612 77.1346 27.8345 71.3923 33.2802 67.4523L33.3232 67.4213L41.8091 67.4191ZM76.5781 80.9581L76.6555 81.1759H70.0131C69.6136 81.1755 69.2307 81.0166 68.9483 80.7342C68.6658 80.4517 68.507 80.0688 68.5066 79.6694C68.5054 78.6445 68.0978 77.6619 67.3731 76.9372C66.6484 76.2125 65.6658 75.8049 64.6409 75.8037H63.2977C62.5427 75.8029 61.8189 75.5027 61.2848 74.969C60.7507 74.4354 60.45 73.7118 60.4486 72.9568C60.4494 72.2014 60.7499 71.4772 61.284 70.9431C61.8182 70.4089 62.5424 70.1085 63.2977 70.1076H69.6336L69.681 70.1539C72.7691 73.1869 75.1276 76.8821 76.5781 80.9603V80.9581ZM76.4219 67.6946L72.2268 69.3731L72.1506 69.2926C70.4779 67.5287 68.6033 65.9679 66.5656 64.6423L66.491 64.5939V62.0948L69.6499 65.2576C69.6971 65.305 69.7533 65.3427 69.8152 65.3683C69.8771 65.3939 69.9434 65.407 70.0103 65.4068C70.089 65.4064 70.1666 65.3877 70.2368 65.3523L71.984 64.4779L72.0624 64.5324C72.0771 64.5416 72.0918 64.5509 72.1071 64.5596L72.1876 64.607V66.2403C72.1874 66.3538 72.2252 66.4641 72.295 66.5536C72.3647 66.6431 72.4625 66.7067 72.5726 66.7341L76.4219 67.6946ZM86.3969 37.8006C85.6303 41.2579 84.9023 44.3248 83.7574 46.8386L83.7138 46.9344H78.2333V47.9509H83.2189L83.092 48.1905C81.353 51.4697 79.0968 54.1006 76.7077 56.8855L76.6838 56.9138C76.0849 57.6101 75.4691 58.3294 74.8555 59.066L74.5696 58.9304C74.6586 58.4798 74.7476 58.0499 74.8339 57.633L74.8344 57.6304L74.8348 57.6287L74.8914 57.3548L74.917 57.2323C75.3253 55.2842 75.6172 53.7788 75.6488 52.14L75.652 51.9766H77.9066V50.9607H75.6199L75.6085 50.8098C75.4756 49.0676 75.0281 47.3095 74.2005 45.2705C73.9462 44.6428 73.7001 44.027 73.4889 43.3905L73.2167 42.5738H81.9367V41.5573H72.8769L71.61 37.7641L71.9464 37.9106C73.9065 38.7664 76.2542 39.2173 78.7396 39.2173C81.4902 39.2173 84.126 38.6488 86.1622 37.616L86.4704 37.4597L86.3969 37.8006ZM85.1082 35.5443C83.4084 36.3937 81.1472 36.8614 78.7413 36.8614C76.3353 36.8614 74.0747 36.3937 72.3744 35.5443C70.7693 34.7424 69.8486 33.6932 69.8486 32.6691C69.8486 31.6449 70.7693 30.5958 72.3744 29.7938C74.0747 28.9444 76.3359 28.4767 78.7413 28.4767C81.1467 28.4767 83.4084 28.9444 85.1082 29.7938C86.7132 30.5958 87.6339 31.6449 87.6339 32.6691C87.6339 33.6932 86.7132 34.7402 85.1082 35.5422V35.5443ZM79.4127 30.6502V29.307C82.858 29.307 85.4562 30.7515 85.4562 32.6647C85.4562 34.5779 82.858 36.0224 79.4127 36.0224V34.6792C82.1034 34.6792 84.1135 33.6153 84.1135 32.6647C84.1135 31.7141 82.1034 30.6502 79.4127 30.6502ZM73.369 32.6669C73.369 31.7162 75.3791 30.6524 78.0698 30.6524V29.307C74.6245 29.307 72.0264 30.7509 72.0264 32.6647C72.0264 34.5785 74.6245 36.0224 78.0698 36.0224V34.6814C75.3791 34.6814 73.369 33.6175 73.369 32.6669ZM76.7267 31.9955H80.7557V33.3387H76.7267V31.9955Z" fill="url(#paint0_linear_1254_3710)"/>
<defs>
<linearGradient id="paint0_linear_1254_3710" x1="50.0001" y1="10" x2="50.0001" y2="90.2498" gradientUnits="userSpaceOnUse">
<stop stop-color="#00B2A1"/>
<stop offset="1" stop-color="#835DD0"/>
</linearGradient>
</defs>
</svg>
