<svg width="100" height="100" viewBox="0 0 100 100" fill="none" xmlns="http://www.w3.org/2000/svg">
<path fill-rule="evenodd" clip-rule="evenodd" d="M31.8182 51.2121V67.4727L48.0788 51.2121H83.9394C85.5468 51.2121 87.0883 50.5736 88.2249 49.437C89.3615 48.3004 90 46.7589 90 45.1515V16.0606C90 14.4532 89.3615 12.9117 88.2249 11.7751C87.0883 10.6385 85.5468 10 83.9394 10H16.0606C14.4532 10 12.9117 10.6385 11.7751 11.7751C10.6385 12.9117 10 14.4532 10 16.0606V45.1515C10 46.7589 10.6385 48.3004 11.7751 49.437C12.9117 50.5736 14.4532 51.2121 16.0606 51.2121H31.8182ZM13.4893 13.4893C14.1713 12.8074 15.0962 12.4242 16.0606 12.4242H83.9394C84.9038 12.4242 85.8287 12.8074 86.5107 13.4893C87.1926 14.1713 87.5758 15.0962 87.5758 16.0606V45.1515C87.5758 46.1159 87.1926 47.0408 86.5107 47.7228C85.8287 48.4047 84.9038 48.7879 83.9394 48.7879H47.0727L34.2424 61.6182V48.7879H16.0606C15.0962 48.7879 14.1713 48.4047 13.4893 47.7228C12.8074 47.0408 12.4242 46.1159 12.4242 45.1515V16.0606C12.4242 15.0962 12.8074 14.1713 13.4893 13.4893ZM60.8153 68.2787C63.0841 70.5451 66.3862 71.0731 68.1816 71.1846V78.5352C67.7479 78.8787 67.3379 79.0909 66.6271 79.0909C65.6968 79.0909 65.2816 78.7303 64.6543 78.1818C63.8846 77.5061 62.924 76.6667 61.0846 76.6667C59.2515 76.6667 58.2942 77.5034 57.5258 78.175L57.518 78.1818L57.5119 78.1871C56.888 78.7296 56.4726 79.0909 55.5453 79.0909C54.6172 79.0909 54.2048 78.7321 53.5771 78.1858L53.5725 78.1818L53.5706 78.1802C52.8013 77.5047 51.8468 76.6667 50.0059 76.6667C48.1697 76.6667 47.2123 77.5034 46.444 78.175L46.4362 78.1818L46.4301 78.1871C45.8062 78.7296 45.3907 79.0909 44.4634 79.0909C43.5331 79.0909 43.118 78.7303 42.4907 78.1818L42.4888 78.1802C41.7194 77.5047 40.7649 76.6667 38.924 76.6667C37.0879 76.6667 36.1306 77.5034 35.3622 78.175L35.3544 78.1818L35.3483 78.1871C34.7244 78.7296 34.3089 79.0909 33.3816 79.0909C32.4513 79.0909 32.0362 78.7303 31.4089 78.1818C30.6392 77.5061 29.6786 76.6667 27.8392 76.6667C26.0097 76.6667 25.0526 77.5 24.282 78.1709L24.2695 78.1818L24.2634 78.1871C23.6395 78.7296 23.224 79.0909 22.2967 79.0909C21.3664 79.0909 20.9513 78.7303 20.324 78.1818C19.5543 77.5061 18.5937 76.6667 16.7544 76.6667C14.9182 76.6667 13.9577 77.5062 13.1887 78.1783L13.1846 78.1818L13.1786 78.1871C12.5547 78.7296 12.1392 79.0909 11.2119 79.0909V81.5152C13.0481 81.5152 14.0054 80.6784 14.7738 80.0068L14.7816 80L14.7877 79.9947C15.4116 79.4522 15.8271 79.0909 16.7544 79.0909C17.6847 79.0909 18.0998 79.4515 18.7271 80L18.7337 80.0059C19.5053 80.6806 20.4596 81.5152 22.2967 81.5152C24.133 81.5152 25.0903 80.6784 25.8587 80.0068L25.8665 80L25.8725 79.9947C26.4964 79.4522 26.9119 79.0909 27.8392 79.0909C28.7695 79.0909 29.1846 79.4515 29.8119 80L29.8185 80.0058C30.5901 80.6806 31.5445 81.5152 33.3816 81.5152C35.2178 81.5152 36.1751 80.6785 36.9435 80.0069L36.9513 80C37.5786 79.4546 37.9967 79.0909 38.924 79.0909C39.8513 79.0909 40.2664 79.4515 40.8968 80L40.8987 80.0017C41.668 80.6772 42.6225 81.5152 44.4634 81.5152C46.2996 81.5152 47.257 80.6784 48.0253 80.0068L48.0331 80L48.0392 79.9947C48.6631 79.4522 49.0786 79.0909 50.0059 79.0909C50.9339 79.0909 51.3463 79.4498 51.974 79.996L51.9786 80L51.9805 80.0017C52.7499 80.6772 53.7044 81.5152 55.5453 81.5152C57.3814 81.5152 58.3387 80.6785 59.1071 80.0069L59.1149 80L59.127 79.9895C59.7475 79.4499 60.1603 79.0909 61.0846 79.0909C62.0149 79.0909 62.4301 79.4515 63.0574 80C63.8271 80.6758 64.7846 81.5152 66.6271 81.5152C68.4662 81.5152 69.4629 80.6425 70.1929 80.0034L70.1968 80L70.2089 79.9895C70.8294 79.4499 71.2422 79.0909 72.1665 79.0909C73.0968 79.0909 73.5119 79.4515 74.1392 80C74.8695 80.6424 75.8634 81.5152 77.7059 81.5152C79.545 81.5152 80.5416 80.6426 81.2716 80.0035L81.2755 80L81.2877 79.9895C81.9082 79.4499 82.3209 79.0909 83.2452 79.0909C84.1755 79.0909 84.5907 79.4515 85.218 80C85.9877 80.6758 86.9483 81.5152 88.7877 81.5152V79.0909C87.8574 79.0909 87.4422 78.7303 86.8149 78.1818C86.0452 77.5061 85.0846 76.6667 83.2452 76.6667C81.4091 76.6667 80.4124 77.5393 79.6825 78.1784L79.6786 78.1818L79.6785 78.1819C79.0513 78.7273 78.6331 79.0909 77.7059 79.0909C76.7786 79.0909 76.3634 78.7303 75.7362 78.1818C75.0059 77.5394 74.0059 76.6667 72.1665 76.6667C71.5582 76.6667 71.0464 76.7588 70.6059 76.9064V71.1844C72.4033 71.0723 75.7039 70.5435 77.9697 68.2879C81.033 65.2275 80.912 60.2756 80.8979 59.6969C80.8973 59.6734 80.8969 59.6571 80.8969 59.6485L80.8363 58.5667L79.7515 58.506C79.5303 58.4939 74.3 58.2424 71.1152 61.4303C70.3687 62.1753 69.8115 63.033 69.3958 63.9126C68.9791 63.0305 68.4206 62.1696 67.6728 61.4212C64.6134 58.3588 59.6635 58.4815 59.0825 58.496L59.0604 58.4965L59.0335 58.497L57.9516 58.5575L57.891 59.6394C57.8789 59.8606 57.6274 65.0909 60.8153 68.2787ZM62.5304 66.5636C64.1607 68.1969 66.6759 68.6363 68.1425 68.7484C68.0304 67.2818 67.591 64.7666 65.9577 63.1363C64.3244 61.506 61.8092 61.0545 60.3425 60.9454C60.4577 62.4121 60.8971 64.9303 62.5304 66.5636ZM78.4422 60.9485C76.9755 61.0637 74.4605 61.5031 72.8272 63.1363C71.1848 64.7788 70.7485 67.2848 70.6394 68.7485C72.106 68.6363 74.6212 68.197 76.2576 66.5636C77.8928 64.9314 78.3297 62.4277 78.4422 60.9485ZM49.9998 90H20.9089V87.5757H49.9998V90ZM16.0604 90H11.2119V87.5757H16.0604V90ZM88.7881 90H86.3639V87.5757H88.7881V90ZM83.9396 90H81.5154V87.5757H83.9396V90ZM79.0911 90H76.6669V87.5757H79.0911V90ZM74.2426 90H71.8184V87.5757H74.2426V90ZM69.3942 90H66.9699V87.5757H69.3942V90ZM64.5457 90H62.1214V87.5757H64.5457V90ZM59.6972 90H57.2729V87.5757H59.6972V90ZM21.7727 43.5849L20.0576 41.8697L30.6121 31.3152L35.4606 36.1636L45.1576 26.4667L54.8545 36.1636L69.4 21.6182L74.2485 26.4667L78.2394 22.4758L79.9545 24.1909L74.2485 29.897L69.4 25.0485L54.8545 39.5939L45.1576 29.897L35.4606 39.5939L30.6121 34.7455L21.7727 43.5849ZM25.7635 18.2L20.1665 29.3939H31.3604L25.7635 18.2ZM25.7635 23.6182L27.4392 26.9697H24.0877L25.7635 23.6182Z" fill="url(#paint0_linear_1198_11681)"/>
<defs>
<linearGradient id="paint0_linear_1198_11681" x1="50" y1="10" x2="50" y2="90" gradientUnits="userSpaceOnUse">
<stop stop-color="#00B2A1"/>
<stop offset="1" stop-color="#835DD0"/>
</linearGradient>
</defs>
</svg>
