<svg width="40" height="40" viewBox="0 0 40 40" fill="none" xmlns="http://www.w3.org/2000/svg">
<g clip-path="url(#clip0_1380_156)">
<path d="M16.9005 11.2495C17.5477 11.2495 18.0724 10.7248 18.0724 10.0776V4.94773L21.9467 10.558C22.2886 11.0523 22.8603 11.262 23.4026 11.0928C23.9556 10.9202 24.3129 10.4038 24.3129 9.7775C24.3129 9.77375 24.3129 9.76992 24.3129 9.76617L24.2297 1.16062C24.2235 0.517187 23.7 0 23.0581 0C23.0543 0 23.0504 0 23.0465 7.8125e-05C22.3994 0.00640625 21.8798 0.536094 21.8861 1.18328L21.9367 6.41898L17.8648 0.522656C17.5734 0.100703 17.0413 -0.0828125 16.5518 0.0698437C16.0622 0.2225 15.7286 0.675781 15.7286 1.18859V10.0777C15.7286 10.7248 16.2532 11.2495 16.9005 11.2495V11.2495Z" fill="black"/>
<path d="M32.2317 38.3192L21.0555 15.1457C20.86 14.7405 20.4499 14.4829 19.9999 14.4829C19.55 14.4829 19.1399 14.7405 18.9444 15.1457L7.76837 38.3192C7.54056 38.7916 7.65431 39.3578 8.04697 39.7056C8.43955 40.0532 9.01548 40.0978 9.45681 39.8146L20 33.0487L30.5432 39.8145C30.7371 39.9389 30.957 40.0001 31.176 40.0001C31.4553 40.0001 31.7331 39.9005 31.9531 39.7055C32.3457 39.3578 32.4595 38.7916 32.2317 38.3192V38.3192ZM18.8281 20.7823V31.0159L11.6806 35.6026L18.8281 20.7823ZM21.1719 31.0159V20.7823L28.3195 35.6026L21.1719 31.0159Z" fill="black"/>
</g>
<defs>
<clipPath id="clip0_1380_156">
<rect width="40" height="40" fill="white"/>
</clipPath>
</defs>
</svg>
