<svg width="1440" height="239" viewBox="0 0 1440 239" fill="none" xmlns="http://www.w3.org/2000/svg">
<path d="M3.5964 238.442C1.7982 238.442 0 237.003 0 234.845V177.303C0 175.505 1.43856 173.707 3.5964 173.707C5.39461 173.707 7.19281 175.145 7.19281 177.303V234.845C7.19281 237.003 5.39461 238.442 3.5964 238.442Z" fill="url(#paint0_linear_1004_6073)"/>
<path d="M20.4995 238.442C18.7013 238.442 16.9031 237.003 16.9031 234.845V131.269C16.9031 129.471 18.3416 127.672 20.4995 127.672C22.6573 127.672 24.0959 129.111 24.0959 131.269V234.845C24.0959 237.003 22.2977 238.442 20.4995 238.442Z" fill="url(#paint1_linear_1004_6073)"/>
<path d="M37.4027 238.441C35.6045 238.441 33.8063 237.003 33.8063 234.845V106.453C33.8063 104.655 35.2448 102.857 37.4027 102.857C39.2009 102.857 40.9991 104.295 40.9991 106.453V235.205C40.6394 237.003 39.2009 238.441 37.4027 238.441Z" fill="url(#paint2_linear_1004_6073)"/>
<path d="M53.946 238.442C52.1478 238.442 50.3496 237.003 50.3496 234.845V92.0681C50.3496 90.2699 51.7882 88.4717 53.946 88.4717C55.7442 88.4717 57.5424 89.9102 57.5424 92.0681V234.845C57.5424 237.003 56.1039 238.442 53.946 238.442Z" fill="url(#paint3_linear_1004_6073)"/>
<path d="M70.8492 238.441C69.051 238.441 67.2528 237.003 67.2528 234.845V84.5153C67.2528 82.7171 68.6914 80.9189 70.8492 80.9189C72.6474 80.9189 74.4456 82.3575 74.4456 84.5153V234.845C74.4456 237.003 73.0071 238.441 70.8492 238.441Z" fill="url(#paint4_linear_1004_6073)"/>
<path d="M87.7523 238.441C85.9541 238.441 84.1559 237.003 84.1559 234.845V80.5593C84.1559 78.7611 85.5944 76.9629 87.7523 76.9629C89.5505 76.9629 91.3487 78.4015 91.3487 80.5593V234.845C91.3487 237.003 89.9101 238.441 87.7523 238.441Z" fill="url(#paint5_linear_1004_6073)"/>
<path d="M104.655 238.441C102.857 238.441 101.059 237.003 101.059 234.845V80.5593C101.059 78.7611 102.497 76.9629 104.655 76.9629C106.813 76.9629 108.252 78.4015 108.252 80.5593V234.845C108.252 237.003 106.813 238.441 104.655 238.441Z" fill="url(#paint6_linear_1004_6073)"/>
<path d="M121.558 238.441C119.76 238.441 117.962 237.003 117.962 234.845V83.4362C117.962 81.638 119.401 79.8398 121.558 79.8398C123.357 79.8398 125.155 81.2784 125.155 83.4362V235.204C125.155 237.003 123.357 238.441 121.558 238.441Z" fill="url(#paint7_linear_1004_6073)"/>
<path d="M138.462 238.442C136.663 238.442 134.865 237.003 134.865 234.845V92.0681C134.865 90.2699 136.304 88.4717 138.462 88.4717C140.26 88.4717 142.058 89.9102 142.058 92.0681V234.845C142.058 237.003 140.26 238.442 138.462 238.442Z" fill="url(#paint8_linear_1004_6073)"/>
<path d="M155.365 238.442C153.567 238.442 151.768 237.003 151.768 234.845V104.655C151.768 102.857 153.207 101.059 155.365 101.059C157.523 101.059 158.961 102.498 158.961 104.655V234.845C158.961 237.003 157.163 238.442 155.365 238.442Z" fill="url(#paint9_linear_1004_6073)"/>
<path d="M172.268 238.441C170.47 238.441 168.671 237.003 168.671 234.845V126.234C168.671 124.435 170.11 122.637 172.268 122.637C174.066 122.637 175.864 124.076 175.864 126.234V234.845C175.864 237.003 174.066 238.441 172.268 238.441Z" fill="url(#paint10_linear_1004_6073)"/>
<path d="M189.171 238.441C187.373 238.441 185.574 237.003 185.574 234.845V155.364C185.574 153.566 187.013 151.768 189.171 151.768C191.329 151.768 192.767 153.207 192.767 155.364V234.845C192.408 237.003 190.969 238.441 189.171 238.441Z" fill="url(#paint11_linear_1004_6073)"/>
<path d="M205.714 238.441C203.916 238.441 202.118 237.003 202.118 234.845V183.057C202.118 181.259 203.556 179.46 205.714 179.46C207.513 179.46 209.311 180.899 209.311 183.057V234.845C209.311 237.003 207.872 238.441 205.714 238.441Z" fill="url(#paint12_linear_1004_6073)"/>
<path d="M222.617 238.442C220.819 238.442 219.021 237.003 219.021 234.845V200.679C219.021 198.881 220.46 197.083 222.617 197.083C224.416 197.083 226.214 198.522 226.214 200.679V234.845C226.214 237.003 224.775 238.442 222.617 238.442Z" fill="url(#paint13_linear_1004_6073)"/>
<path d="M239.52 238.442C237.722 238.442 235.924 237.003 235.924 234.845V213.986C235.924 212.188 237.363 210.39 239.52 210.39C241.678 210.39 243.117 211.828 243.117 213.986V234.845C243.117 237.003 241.678 238.442 239.52 238.442Z" fill="url(#paint14_linear_1004_6073)"/>
<path d="M256.424 238.441C254.625 238.441 252.827 237.003 252.827 234.845V219.74C252.827 217.942 254.266 216.144 256.424 216.144C258.222 216.144 260.02 217.582 260.02 219.74V234.845C260.02 237.003 258.581 238.441 256.424 238.441Z" fill="url(#paint15_linear_1004_6073)"/>
<path d="M273.327 238.442C271.528 238.442 269.73 237.003 269.73 234.845V222.617C269.73 220.819 271.169 219.021 273.327 219.021C275.125 219.021 276.923 220.46 276.923 222.617V234.845C276.923 237.003 275.125 238.442 273.327 238.442Z" fill="url(#paint16_linear_1004_6073)"/>
<path d="M290.23 238.441C288.432 238.441 286.633 237.003 286.633 234.845V225.494C286.633 223.696 288.072 221.898 290.23 221.898C292.028 221.898 293.826 223.337 293.826 225.494V234.845C293.826 237.003 292.028 238.441 290.23 238.441Z" fill="url(#paint17_linear_1004_6073)"/>
<path d="M307.133 238.442C305.335 238.442 303.536 237.003 303.536 234.845V222.617C303.536 220.819 304.975 219.021 307.133 219.021C308.931 219.021 310.729 220.46 310.729 222.617V234.845C310.729 237.003 308.931 238.442 307.133 238.442Z" fill="url(#paint18_linear_1004_6073)"/>
<path d="M324.036 238.441C322.238 238.441 320.439 237.003 320.439 234.845V216.144C320.439 214.346 321.878 212.547 324.036 212.547C325.834 212.547 327.632 213.986 327.632 216.144V234.845C327.632 237.003 325.834 238.441 324.036 238.441Z" fill="url(#paint19_linear_1004_6073)"/>
<path d="M340.939 238.442C339.141 238.442 337.343 237.003 337.343 234.845V202.837C337.343 201.039 338.781 199.241 340.939 199.241C342.737 199.241 344.535 200.679 344.535 202.837V234.845C344.176 237.003 342.737 238.442 340.939 238.442Z" fill="url(#paint20_linear_1004_6073)"/>
<path d="M357.483 238.441C355.684 238.441 353.886 237.003 353.886 234.845V180.539C353.886 178.741 355.325 176.943 357.483 176.943C359.281 176.943 361.079 178.381 361.079 180.539V234.845C361.079 237.003 359.64 238.441 357.483 238.441Z" fill="url(#paint21_linear_1004_6073)"/>
<path d="M374.386 238.442C372.587 238.442 370.789 237.003 370.789 234.845V153.207C370.789 151.409 372.228 149.61 374.386 149.61C376.543 149.61 377.982 151.049 377.982 153.207V234.845C377.982 237.003 376.543 238.442 374.386 238.442Z" fill="url(#paint22_linear_1004_6073)"/>
<path d="M391.289 238.442C389.49 238.442 387.692 237.003 387.692 234.845V111.129C387.692 109.331 389.131 107.533 391.289 107.533C393.087 107.533 394.885 108.971 394.885 111.129V234.845C394.885 237.003 393.446 238.442 391.289 238.442Z" fill="url(#paint23_linear_1004_6073)"/>
<path d="M408.192 238.442C406.394 238.442 404.595 237.003 404.595 234.845V62.218C404.595 60.4198 406.034 58.6216 408.192 58.6216C409.99 58.6216 411.788 60.0601 411.788 62.218V234.845C411.788 237.003 410.35 238.442 408.192 238.442Z" fill="url(#paint24_linear_1004_6073)"/>
<path d="M425.095 238.442C423.297 238.442 421.499 237.003 421.499 234.845V25.5344C421.499 23.7362 422.937 21.938 425.095 21.938C426.893 21.938 428.691 23.3765 428.691 25.5344V234.845C428.691 237.003 426.893 238.442 425.095 238.442Z" fill="url(#paint25_linear_1004_6073)"/>
<path d="M441.998 238.441C440.2 238.441 438.402 237.003 438.402 234.845V7.1926C438.402 5.39439 439.84 3.59619 441.998 3.59619C444.156 3.59619 445.594 5.03475 445.594 7.1926V234.845C445.594 237.003 443.796 238.441 441.998 238.441Z" fill="url(#paint26_linear_1004_6073)"/>
<path d="M458.901 238.442C457.103 238.442 455.305 237.003 455.305 234.845V3.5964C455.305 1.7982 456.743 0 458.901 0C461.059 0 462.498 1.43856 462.498 3.5964V234.845C462.498 237.003 460.699 238.442 458.901 238.442Z" fill="url(#paint27_linear_1004_6073)"/>
<path d="M475.804 238.441C474.006 238.441 472.208 237.003 472.208 234.845V8.99093C472.208 7.19273 473.646 5.39453 475.804 5.39453C477.962 5.39453 479.401 6.83309 479.401 8.99093V235.205C479.401 237.003 477.602 238.441 475.804 238.441Z" fill="url(#paint28_linear_1004_6073)"/>
<path d="M492.707 238.442C490.909 238.442 489.111 237.003 489.111 234.845V33.8064C489.111 32.0082 490.549 30.21 492.707 30.21C494.865 30.21 496.304 31.6485 496.304 33.8064V234.845C495.944 237.003 494.505 238.442 492.707 238.442Z" fill="url(#paint29_linear_1004_6073)"/>
<path d="M509.251 238.442C507.452 238.442 505.654 237.003 505.654 234.845V88.112C505.654 86.3138 507.093 84.5156 509.251 84.5156C511.409 84.5156 512.847 85.9542 512.847 88.112V235.205C512.847 237.003 511.409 238.442 509.251 238.442Z" fill="url(#paint30_linear_1004_6073)"/>
<path d="M526.154 238.442C524.356 238.442 522.557 237.003 522.557 234.845V157.163C522.557 155.365 523.996 153.566 526.154 153.566C527.952 153.566 529.75 155.005 529.75 157.163V234.845C529.75 237.003 528.312 238.442 526.154 238.442Z" fill="url(#paint31_linear_1004_6073)"/>
<path d="M543.057 238.442C541.259 238.442 539.46 237.003 539.46 234.845V196.004C539.46 194.206 540.899 192.408 543.057 192.408C544.855 192.408 546.653 193.846 546.653 196.004V234.845C546.653 237.003 545.215 238.442 543.057 238.442Z" fill="url(#paint32_linear_1004_6073)"/>
<path d="M559.96 238.442C558.162 238.442 556.364 237.003 556.364 234.845V213.986C556.364 212.188 557.802 210.39 559.96 210.39C561.758 210.39 563.557 211.828 563.557 213.986V234.845C563.557 237.003 562.118 238.442 559.96 238.442Z" fill="url(#paint33_linear_1004_6073)"/>
<path d="M576.863 238.441C575.065 238.441 573.267 237.003 573.267 234.845V216.144C573.267 214.346 574.705 212.547 576.863 212.547C578.661 212.547 580.46 213.986 580.46 216.144V234.845C580.46 237.003 578.661 238.441 576.863 238.441Z" fill="url(#paint34_linear_1004_6073)"/>
<path d="M593.766 238.442C591.968 238.442 590.17 237.003 590.17 234.845V213.986C590.17 212.188 591.608 210.39 593.766 210.39C595.564 210.39 597.363 211.828 597.363 213.986V234.845C597.363 237.003 595.564 238.442 593.766 238.442Z" fill="url(#paint35_linear_1004_6073)"/>
<path d="M610.669 238.442C608.871 238.442 607.073 237.003 607.073 234.845V202.837C607.073 201.039 608.512 199.241 610.669 199.241C612.468 199.241 614.266 200.679 614.266 202.837V234.845C614.266 237.003 612.468 238.442 610.669 238.442Z" fill="url(#paint36_linear_1004_6073)"/>
<path d="M627.572 238.441C625.774 238.441 623.976 237.003 623.976 234.845V178.382C623.976 176.583 625.415 174.785 627.572 174.785C629.371 174.785 631.169 176.224 631.169 178.382V235.205C631.169 237.003 629.371 238.441 627.572 238.441Z" fill="url(#paint37_linear_1004_6073)"/>
<path d="M644.475 238.442C642.677 238.442 640.879 237.003 640.879 234.845V134.506C640.879 132.707 642.317 130.909 644.475 130.909C646.274 130.909 648.072 132.348 648.072 134.506V234.845C647.712 237.003 646.274 238.442 644.475 238.442Z" fill="url(#paint38_linear_1004_6073)"/>
<path d="M661.379 238.441C659.58 238.441 657.782 237.003 657.782 234.845V106.453C657.782 104.655 659.221 102.857 661.379 102.857C663.536 102.857 664.975 104.295 664.975 106.453V234.845C664.615 237.003 663.177 238.441 661.379 238.441Z" fill="url(#paint39_linear_1004_6073)"/>
<path d="M677.922 238.442C676.124 238.442 674.326 237.003 674.326 234.845V94.5857C674.326 92.7875 675.764 90.9893 677.922 90.9893C680.08 90.9893 681.518 92.4278 681.518 94.5857V234.845C681.518 237.003 680.08 238.442 677.922 238.442Z" fill="url(#paint40_linear_1004_6073)"/>
<path d="M694.825 238.442C693.027 238.442 691.229 237.003 691.229 234.845V88.112C691.229 86.3138 692.667 84.5156 694.825 84.5156C696.623 84.5156 698.422 85.9542 698.422 88.112V235.205C698.422 237.003 696.983 238.442 694.825 238.442Z" fill="url(#paint41_linear_1004_6073)"/>
<path d="M711.728 238.441C709.93 238.441 708.132 237.003 708.132 234.845V86.6731C708.132 84.8749 709.57 83.0767 711.728 83.0767C713.526 83.0767 715.325 84.5152 715.325 86.6731V235.205C715.325 237.003 713.886 238.441 711.728 238.441Z" fill="url(#paint42_linear_1004_6073)"/>
<path d="M1436.4 238.442C1438.2 238.442 1440 237.003 1440 234.845V177.303C1440 175.505 1438.56 173.707 1436.4 173.707C1434.61 173.707 1432.81 175.145 1432.81 177.303V234.845C1433.17 237.003 1434.61 238.442 1436.4 238.442Z" fill="url(#paint43_linear_1004_6073)"/>
<path d="M1419.86 238.442C1421.66 238.442 1423.46 237.003 1423.46 234.845V131.269C1423.46 129.471 1422.02 127.672 1419.86 127.672C1417.7 127.672 1416.26 129.111 1416.26 131.269V234.845C1416.26 237.003 1417.7 238.442 1419.86 238.442Z" fill="url(#paint44_linear_1004_6073)"/>
<path d="M1402.96 238.441C1404.76 238.441 1406.55 237.003 1406.55 234.845V106.453C1406.55 104.655 1405.11 102.857 1402.96 102.857C1401.16 102.857 1399.36 104.295 1399.36 106.453V235.205C1399.36 237.003 1400.8 238.441 1402.96 238.441Z" fill="url(#paint45_linear_1004_6073)"/>
<path d="M1386.05 238.442C1387.85 238.442 1389.65 237.003 1389.65 234.845V92.0681C1389.65 90.2699 1388.21 88.4717 1386.05 88.4717C1384.26 88.4717 1382.46 89.9102 1382.46 92.0681V234.845C1382.46 237.003 1383.9 238.442 1386.05 238.442Z" fill="url(#paint46_linear_1004_6073)"/>
<path d="M1369.15 238.441C1370.95 238.441 1372.75 237.003 1372.75 234.845V84.5153C1372.75 82.7171 1371.31 80.9189 1369.15 80.9189C1366.99 80.9189 1365.55 82.3575 1365.55 84.5153V234.845C1365.55 237.003 1367.35 238.441 1369.15 238.441Z" fill="url(#paint47_linear_1004_6073)"/>
<path d="M1352.25 238.441C1354.05 238.441 1355.84 237.003 1355.84 234.845V80.5593C1355.84 78.7611 1354.41 76.9629 1352.25 76.9629C1350.45 76.9629 1348.65 78.4015 1348.65 80.5593V234.845C1348.65 237.003 1350.45 238.441 1352.25 238.441Z" fill="url(#paint48_linear_1004_6073)"/>
<path d="M1335.34 238.441C1337.14 238.441 1338.94 237.003 1338.94 234.845V80.5593C1338.94 78.7611 1337.5 76.9629 1335.34 76.9629C1333.19 76.9629 1331.75 78.4015 1331.75 80.5593V234.845C1331.75 237.003 1333.55 238.441 1335.34 238.441Z" fill="url(#paint49_linear_1004_6073)"/>
<path d="M1318.44 238.441C1320.24 238.441 1322.04 237.003 1322.04 234.845V83.4362C1322.04 81.638 1320.6 79.8398 1318.44 79.8398C1316.64 79.8398 1314.84 81.2784 1314.84 83.4362V235.204C1314.84 237.003 1316.64 238.441 1318.44 238.441Z" fill="url(#paint50_linear_1004_6073)"/>
<path d="M1301.54 238.442C1303.34 238.442 1305.14 237.003 1305.14 234.845V92.0681C1305.14 90.2699 1303.7 88.4717 1301.54 88.4717C1299.74 88.4717 1297.94 89.9102 1297.94 92.0681V234.845C1298.3 237.003 1299.74 238.442 1301.54 238.442Z" fill="url(#paint51_linear_1004_6073)"/>
<path d="M1284.64 238.442C1286.43 238.442 1288.23 237.003 1288.23 234.845V104.655C1288.23 102.857 1286.79 101.059 1284.64 101.059C1282.48 101.059 1281.04 102.498 1281.04 104.655V234.845C1281.4 237.003 1282.84 238.442 1284.64 238.442Z" fill="url(#paint52_linear_1004_6073)"/>
<path d="M1268.09 238.441C1269.89 238.441 1271.69 237.003 1271.69 234.845V126.234C1271.69 124.435 1270.25 122.637 1268.09 122.637C1266.29 122.637 1264.5 124.076 1264.5 126.234V234.845C1264.5 237.003 1265.93 238.441 1268.09 238.441Z" fill="url(#paint53_linear_1004_6073)"/>
<path d="M1251.19 238.441C1252.99 238.441 1254.79 237.003 1254.79 234.845V155.364C1254.79 153.566 1253.35 151.768 1251.19 151.768C1249.39 151.768 1247.59 153.207 1247.59 155.364V234.845C1247.59 237.003 1249.03 238.441 1251.19 238.441Z" fill="url(#paint54_linear_1004_6073)"/>
<path d="M1234.29 238.441C1236.08 238.441 1237.88 237.003 1237.88 234.845V183.057C1237.88 181.259 1236.44 179.46 1234.29 179.46C1232.49 179.46 1230.69 180.899 1230.69 183.057V234.845C1230.69 237.003 1232.13 238.441 1234.29 238.441Z" fill="url(#paint55_linear_1004_6073)"/>
<path d="M1217.38 238.442C1219.18 238.442 1220.98 237.003 1220.98 234.845V200.679C1220.98 198.881 1219.54 197.083 1217.38 197.083C1215.58 197.083 1213.79 198.522 1213.79 200.679V234.845C1213.79 237.003 1215.58 238.442 1217.38 238.442Z" fill="url(#paint56_linear_1004_6073)"/>
<path d="M1200.48 238.442C1202.28 238.442 1204.08 237.003 1204.08 234.845V213.986C1204.08 212.188 1202.64 210.39 1200.48 210.39C1198.68 210.39 1196.88 211.828 1196.88 213.986V234.845C1196.88 237.003 1198.68 238.442 1200.48 238.442Z" fill="url(#paint57_linear_1004_6073)"/>
<path d="M1183.58 238.441C1185.37 238.441 1187.17 237.003 1187.17 234.845V219.74C1187.17 217.942 1185.73 216.144 1183.58 216.144C1181.78 216.144 1179.98 217.582 1179.98 219.74V234.845C1179.98 237.003 1181.78 238.441 1183.58 238.441Z" fill="url(#paint58_linear_1004_6073)"/>
<path d="M1166.67 238.442C1168.47 238.442 1170.27 237.003 1170.27 234.845V222.617C1170.27 220.819 1168.83 219.021 1166.67 219.021C1164.88 219.021 1163.08 220.46 1163.08 222.617V234.845C1163.08 237.003 1164.88 238.442 1166.67 238.442Z" fill="url(#paint59_linear_1004_6073)"/>
<path d="M1149.77 238.441C1151.57 238.441 1153.37 237.003 1153.37 234.845V225.494C1153.37 223.696 1151.93 221.898 1149.77 221.898C1147.61 221.898 1146.17 223.337 1146.17 225.494V234.845C1146.53 237.003 1147.97 238.441 1149.77 238.441Z" fill="url(#paint60_linear_1004_6073)"/>
<path d="M1132.87 238.442C1134.67 238.442 1136.46 237.003 1136.46 234.845V222.617C1136.46 220.819 1135.02 219.021 1132.87 219.021C1131.07 219.021 1129.27 220.46 1129.27 222.617V234.845C1129.63 237.003 1131.07 238.442 1132.87 238.442Z" fill="url(#paint61_linear_1004_6073)"/>
<path d="M1116.32 238.441C1118.12 238.441 1119.92 237.003 1119.92 234.845V216.144C1119.92 214.346 1118.48 212.547 1116.32 212.547C1114.17 212.547 1112.73 213.986 1112.73 216.144V234.845C1112.73 237.003 1114.17 238.441 1116.32 238.441Z" fill="url(#paint62_linear_1004_6073)"/>
<path d="M1099.42 238.442C1101.22 238.442 1103.02 237.003 1103.02 234.845V202.837C1103.02 201.039 1101.58 199.241 1099.42 199.241C1097.62 199.241 1095.82 200.679 1095.82 202.837V234.845C1095.82 237.003 1097.26 238.442 1099.42 238.442Z" fill="url(#paint63_linear_1004_6073)"/>
<path d="M1082.52 238.441C1084.32 238.441 1086.11 237.003 1086.11 234.845V180.539C1086.11 178.741 1084.68 176.943 1082.52 176.943C1080.72 176.943 1078.92 178.381 1078.92 180.539V234.845C1078.92 237.003 1080.36 238.441 1082.52 238.441Z" fill="url(#paint64_linear_1004_6073)"/>
<path d="M1065.61 238.442C1067.41 238.442 1069.21 237.003 1069.21 234.845V153.207C1069.21 151.409 1067.77 149.61 1065.61 149.61C1063.46 149.61 1062.02 151.049 1062.02 153.207V234.845C1062.02 237.003 1063.82 238.442 1065.61 238.442Z" fill="url(#paint65_linear_1004_6073)"/>
<path d="M1048.71 238.442C1050.51 238.442 1052.31 237.003 1052.31 234.845V111.129C1052.31 109.331 1050.87 107.533 1048.71 107.533C1046.91 107.533 1045.11 108.971 1045.11 111.129V234.845C1045.11 237.003 1046.91 238.442 1048.71 238.442Z" fill="url(#paint66_linear_1004_6073)"/>
<path d="M1031.81 238.442C1033.61 238.442 1035.4 237.003 1035.4 234.845V62.218C1035.4 60.4198 1033.97 58.6216 1031.81 58.6216C1029.65 58.6216 1028.21 60.0601 1028.21 62.218V234.845C1028.21 237.003 1030.01 238.442 1031.81 238.442Z" fill="url(#paint67_linear_1004_6073)"/>
<path d="M1014.91 238.442C1016.7 238.442 1018.5 237.003 1018.5 234.845V25.5344C1018.5 23.7362 1017.06 21.938 1014.91 21.938C1012.75 21.938 1011.31 23.3765 1011.31 25.5344V234.845C1011.31 237.003 1013.11 238.442 1014.91 238.442Z" fill="url(#paint68_linear_1004_6073)"/>
<path d="M998.002 238.441C999.8 238.441 1001.6 237.003 1001.6 234.845V7.1926C1001.6 5.39439 1000.16 3.59619 998.002 3.59619C996.204 3.59619 994.406 5.03475 994.406 7.1926V234.845C994.765 237.003 996.204 238.441 998.002 238.441Z" fill="url(#paint69_linear_1004_6073)"/>
<path d="M981.099 238.442C982.897 238.442 984.695 237.003 984.695 234.845V3.5964C984.695 1.7982 983.257 0 981.099 0C978.941 0 977.502 1.43856 977.502 3.5964V234.845C977.862 237.003 979.301 238.442 981.099 238.442Z" fill="url(#paint70_linear_1004_6073)"/>
<path d="M964.555 238.441C966.354 238.441 968.152 237.003 968.152 234.845V8.99093C968.152 7.19273 966.713 5.39453 964.555 5.39453C962.757 5.39453 960.959 6.83309 960.959 8.99093V235.205C960.959 237.003 962.398 238.441 964.555 238.441Z" fill="url(#paint71_linear_1004_6073)"/>
<path d="M947.652 238.442C949.45 238.442 951.249 237.003 951.249 234.845V33.8064C951.249 32.0082 949.81 30.21 947.652 30.21C945.854 30.21 944.056 31.6485 944.056 33.8064V234.845C944.056 237.003 945.494 238.442 947.652 238.442Z" fill="url(#paint72_linear_1004_6073)"/>
<path d="M930.749 238.442C932.547 238.442 934.346 237.003 934.346 234.845V88.112C934.346 86.3138 932.907 84.5156 930.749 84.5156C928.591 84.5156 927.153 85.9542 927.153 88.112V235.205C927.153 237.003 928.591 238.442 930.749 238.442Z" fill="url(#paint73_linear_1004_6073)"/>
<path d="M913.846 238.442C915.644 238.442 917.442 237.003 917.442 234.845V157.163C917.442 155.365 916.004 153.566 913.846 153.566C912.048 153.566 910.25 155.005 910.25 157.163V234.845C910.25 237.003 912.048 238.442 913.846 238.442Z" fill="url(#paint74_linear_1004_6073)"/>
<path d="M896.943 238.442C898.741 238.442 900.54 237.003 900.54 234.845V196.004C900.54 194.206 899.101 192.408 896.943 192.408C895.145 192.408 893.347 193.846 893.347 196.004V234.845C893.347 237.003 895.145 238.442 896.943 238.442Z" fill="url(#paint75_linear_1004_6073)"/>
<path d="M880.04 238.442C881.838 238.442 883.636 237.003 883.636 234.845V213.986C883.636 212.188 882.198 210.39 880.04 210.39C878.242 210.39 876.443 211.828 876.443 213.986V234.845C876.443 237.003 878.242 238.442 880.04 238.442Z" fill="url(#paint76_linear_1004_6073)"/>
<path d="M863.137 238.441C864.935 238.441 866.733 237.003 866.733 234.845V216.144C866.733 214.346 865.295 212.547 863.137 212.547C861.339 212.547 859.541 213.986 859.541 216.144V234.845C859.541 237.003 861.339 238.441 863.137 238.441Z" fill="url(#paint77_linear_1004_6073)"/>
<path d="M846.234 238.442C848.032 238.442 849.83 237.003 849.83 234.845V213.986C849.83 212.188 848.392 210.39 846.234 210.39C844.436 210.39 842.637 211.828 842.637 213.986V234.845C842.997 237.003 844.436 238.442 846.234 238.442Z" fill="url(#paint78_linear_1004_6073)"/>
<path d="M829.331 238.442C831.129 238.442 832.927 237.003 832.927 234.845V202.837C832.927 201.039 831.488 199.241 829.331 199.241C827.532 199.241 825.734 200.679 825.734 202.837V234.845C826.094 237.003 827.532 238.442 829.331 238.442Z" fill="url(#paint79_linear_1004_6073)"/>
<path d="M812.787 238.441C814.585 238.441 816.384 237.003 816.384 234.845V178.382C816.384 176.583 814.945 174.785 812.787 174.785C810.629 174.785 809.191 176.224 809.191 178.382V235.205C809.191 237.003 810.629 238.441 812.787 238.441Z" fill="url(#paint80_linear_1004_6073)"/>
<path d="M795.884 238.442C797.682 238.442 799.481 237.003 799.481 234.845V134.506C799.481 132.707 798.042 130.909 795.884 130.909C794.086 130.909 792.288 132.348 792.288 134.506V234.845C792.288 237.003 793.726 238.442 795.884 238.442Z" fill="url(#paint81_linear_1004_6073)"/>
<path d="M778.981 238.441C780.779 238.441 782.577 237.003 782.577 234.845V106.453C782.577 104.655 781.139 102.857 778.981 102.857C777.183 102.857 775.385 104.295 775.385 106.453V234.845C775.385 237.003 776.823 238.441 778.981 238.441Z" fill="url(#paint82_linear_1004_6073)"/>
<path d="M762.078 238.442C763.876 238.442 765.674 237.003 765.674 234.845V94.5857C765.674 92.7875 764.236 90.9893 762.078 90.9893C759.92 90.9893 758.481 92.4278 758.481 94.5857V234.845C758.481 237.003 759.92 238.442 762.078 238.442Z" fill="url(#paint83_linear_1004_6073)"/>
<path d="M745.175 238.442C746.973 238.442 748.771 237.003 748.771 234.845V88.112C748.771 86.3138 747.332 84.5156 745.175 84.5156C743.376 84.5156 741.578 85.9542 741.578 88.112V235.205C741.578 237.003 743.376 238.442 745.175 238.442Z" fill="url(#paint84_linear_1004_6073)"/>
<path d="M728.272 238.441C730.07 238.441 731.868 237.003 731.868 234.845V86.6731C731.868 84.8749 730.43 83.0767 728.272 83.0767C726.473 83.0767 724.675 84.5152 724.675 86.6731V235.205C724.675 237.003 726.473 238.441 728.272 238.441Z" fill="url(#paint85_linear_1004_6073)"/>
<defs>
<linearGradient id="paint0_linear_1004_6073" x1="3.5964" y1="173.707" x2="3.5964" y2="238.442" gradientUnits="userSpaceOnUse">
<stop stop-color="#00B2A1"/>
<stop offset="1" stop-color="#835DD0"/>
</linearGradient>
<linearGradient id="paint1_linear_1004_6073" x1="20.4995" y1="127.672" x2="20.4995" y2="238.442" gradientUnits="userSpaceOnUse">
<stop stop-color="#00B2A1"/>
<stop offset="1" stop-color="#835DD0"/>
</linearGradient>
<linearGradient id="paint2_linear_1004_6073" x1="37.4027" y1="102.857" x2="37.4027" y2="238.441" gradientUnits="userSpaceOnUse">
<stop stop-color="#00B2A1"/>
<stop offset="1" stop-color="#835DD0"/>
</linearGradient>
<linearGradient id="paint3_linear_1004_6073" x1="53.946" y1="88.4717" x2="53.946" y2="238.442" gradientUnits="userSpaceOnUse">
<stop stop-color="#00B2A1"/>
<stop offset="1" stop-color="#835DD0"/>
</linearGradient>
<linearGradient id="paint4_linear_1004_6073" x1="70.8492" y1="80.9189" x2="70.8492" y2="238.441" gradientUnits="userSpaceOnUse">
<stop stop-color="#00B2A1"/>
<stop offset="1" stop-color="#835DD0"/>
</linearGradient>
<linearGradient id="paint5_linear_1004_6073" x1="87.7523" y1="76.9629" x2="87.7523" y2="238.441" gradientUnits="userSpaceOnUse">
<stop stop-color="#00B2A1"/>
<stop offset="1" stop-color="#835DD0"/>
</linearGradient>
<linearGradient id="paint6_linear_1004_6073" x1="104.655" y1="76.9629" x2="104.655" y2="238.441" gradientUnits="userSpaceOnUse">
<stop stop-color="#00B2A1"/>
<stop offset="1" stop-color="#835DD0"/>
</linearGradient>
<linearGradient id="paint7_linear_1004_6073" x1="121.558" y1="79.8398" x2="121.558" y2="238.441" gradientUnits="userSpaceOnUse">
<stop stop-color="#00B2A1"/>
<stop offset="1" stop-color="#835DD0"/>
</linearGradient>
<linearGradient id="paint8_linear_1004_6073" x1="138.462" y1="88.4717" x2="138.462" y2="238.442" gradientUnits="userSpaceOnUse">
<stop stop-color="#00B2A1"/>
<stop offset="1" stop-color="#835DD0"/>
</linearGradient>
<linearGradient id="paint9_linear_1004_6073" x1="155.365" y1="101.059" x2="155.365" y2="238.442" gradientUnits="userSpaceOnUse">
<stop stop-color="#00B2A1"/>
<stop offset="1" stop-color="#835DD0"/>
</linearGradient>
<linearGradient id="paint10_linear_1004_6073" x1="172.268" y1="122.637" x2="172.268" y2="238.441" gradientUnits="userSpaceOnUse">
<stop stop-color="#00B2A1"/>
<stop offset="1" stop-color="#835DD0"/>
</linearGradient>
<linearGradient id="paint11_linear_1004_6073" x1="189.171" y1="151.768" x2="189.171" y2="238.441" gradientUnits="userSpaceOnUse">
<stop stop-color="#00B2A1"/>
<stop offset="1" stop-color="#835DD0"/>
</linearGradient>
<linearGradient id="paint12_linear_1004_6073" x1="205.714" y1="179.46" x2="205.714" y2="238.441" gradientUnits="userSpaceOnUse">
<stop stop-color="#00B2A1"/>
<stop offset="1" stop-color="#835DD0"/>
</linearGradient>
<linearGradient id="paint13_linear_1004_6073" x1="222.617" y1="197.083" x2="222.617" y2="238.442" gradientUnits="userSpaceOnUse">
<stop stop-color="#00B2A1"/>
<stop offset="1" stop-color="#835DD0"/>
</linearGradient>
<linearGradient id="paint14_linear_1004_6073" x1="239.52" y1="210.39" x2="239.52" y2="238.442" gradientUnits="userSpaceOnUse">
<stop stop-color="#00B2A1"/>
<stop offset="1" stop-color="#835DD0"/>
</linearGradient>
<linearGradient id="paint15_linear_1004_6073" x1="256.424" y1="216.144" x2="256.424" y2="238.441" gradientUnits="userSpaceOnUse">
<stop stop-color="#00B2A1"/>
<stop offset="1" stop-color="#835DD0"/>
</linearGradient>
<linearGradient id="paint16_linear_1004_6073" x1="273.327" y1="219.021" x2="273.327" y2="238.442" gradientUnits="userSpaceOnUse">
<stop stop-color="#00B2A1"/>
<stop offset="1" stop-color="#835DD0"/>
</linearGradient>
<linearGradient id="paint17_linear_1004_6073" x1="290.23" y1="221.898" x2="290.23" y2="238.441" gradientUnits="userSpaceOnUse">
<stop stop-color="#00B2A1"/>
<stop offset="1" stop-color="#835DD0"/>
</linearGradient>
<linearGradient id="paint18_linear_1004_6073" x1="307.133" y1="219.021" x2="307.133" y2="238.442" gradientUnits="userSpaceOnUse">
<stop stop-color="#00B2A1"/>
<stop offset="1" stop-color="#835DD0"/>
</linearGradient>
<linearGradient id="paint19_linear_1004_6073" x1="324.036" y1="212.547" x2="324.036" y2="238.441" gradientUnits="userSpaceOnUse">
<stop stop-color="#00B2A1"/>
<stop offset="1" stop-color="#835DD0"/>
</linearGradient>
<linearGradient id="paint20_linear_1004_6073" x1="340.939" y1="199.241" x2="340.939" y2="238.442" gradientUnits="userSpaceOnUse">
<stop stop-color="#00B2A1"/>
<stop offset="1" stop-color="#835DD0"/>
</linearGradient>
<linearGradient id="paint21_linear_1004_6073" x1="357.483" y1="176.943" x2="357.483" y2="238.441" gradientUnits="userSpaceOnUse">
<stop stop-color="#00B2A1"/>
<stop offset="1" stop-color="#835DD0"/>
</linearGradient>
<linearGradient id="paint22_linear_1004_6073" x1="374.386" y1="149.61" x2="374.386" y2="238.442" gradientUnits="userSpaceOnUse">
<stop stop-color="#00B2A1"/>
<stop offset="1" stop-color="#835DD0"/>
</linearGradient>
<linearGradient id="paint23_linear_1004_6073" x1="391.289" y1="107.533" x2="391.289" y2="238.442" gradientUnits="userSpaceOnUse">
<stop stop-color="#00B2A1"/>
<stop offset="1" stop-color="#835DD0"/>
</linearGradient>
<linearGradient id="paint24_linear_1004_6073" x1="408.192" y1="58.6216" x2="408.192" y2="238.442" gradientUnits="userSpaceOnUse">
<stop stop-color="#00B2A1"/>
<stop offset="1" stop-color="#835DD0"/>
</linearGradient>
<linearGradient id="paint25_linear_1004_6073" x1="425.095" y1="21.938" x2="425.095" y2="238.441" gradientUnits="userSpaceOnUse">
<stop stop-color="#00B2A1"/>
<stop offset="1" stop-color="#835DD0"/>
</linearGradient>
<linearGradient id="paint26_linear_1004_6073" x1="441.998" y1="3.59619" x2="441.998" y2="238.441" gradientUnits="userSpaceOnUse">
<stop stop-color="#00B2A1"/>
<stop offset="1" stop-color="#835DD0"/>
</linearGradient>
<linearGradient id="paint27_linear_1004_6073" x1="458.901" y1="0" x2="458.901" y2="238.442" gradientUnits="userSpaceOnUse">
<stop stop-color="#00B2A1"/>
<stop offset="1" stop-color="#835DD0"/>
</linearGradient>
<linearGradient id="paint28_linear_1004_6073" x1="475.804" y1="5.39453" x2="475.804" y2="238.441" gradientUnits="userSpaceOnUse">
<stop stop-color="#00B2A1"/>
<stop offset="1" stop-color="#835DD0"/>
</linearGradient>
<linearGradient id="paint29_linear_1004_6073" x1="492.707" y1="30.21" x2="492.707" y2="238.442" gradientUnits="userSpaceOnUse">
<stop stop-color="#00B2A1"/>
<stop offset="1" stop-color="#835DD0"/>
</linearGradient>
<linearGradient id="paint30_linear_1004_6073" x1="509.251" y1="84.5156" x2="509.251" y2="238.442" gradientUnits="userSpaceOnUse">
<stop stop-color="#00B2A1"/>
<stop offset="1" stop-color="#835DD0"/>
</linearGradient>
<linearGradient id="paint31_linear_1004_6073" x1="526.154" y1="153.566" x2="526.154" y2="238.442" gradientUnits="userSpaceOnUse">
<stop stop-color="#00B2A1"/>
<stop offset="1" stop-color="#835DD0"/>
</linearGradient>
<linearGradient id="paint32_linear_1004_6073" x1="543.057" y1="192.408" x2="543.057" y2="238.442" gradientUnits="userSpaceOnUse">
<stop stop-color="#00B2A1"/>
<stop offset="1" stop-color="#835DD0"/>
</linearGradient>
<linearGradient id="paint33_linear_1004_6073" x1="559.96" y1="210.39" x2="559.96" y2="238.442" gradientUnits="userSpaceOnUse">
<stop stop-color="#00B2A1"/>
<stop offset="1" stop-color="#835DD0"/>
</linearGradient>
<linearGradient id="paint34_linear_1004_6073" x1="576.863" y1="212.547" x2="576.863" y2="238.441" gradientUnits="userSpaceOnUse">
<stop stop-color="#00B2A1"/>
<stop offset="1" stop-color="#835DD0"/>
</linearGradient>
<linearGradient id="paint35_linear_1004_6073" x1="593.766" y1="210.39" x2="593.766" y2="238.442" gradientUnits="userSpaceOnUse">
<stop stop-color="#00B2A1"/>
<stop offset="1" stop-color="#835DD0"/>
</linearGradient>
<linearGradient id="paint36_linear_1004_6073" x1="610.669" y1="199.241" x2="610.669" y2="238.442" gradientUnits="userSpaceOnUse">
<stop stop-color="#00B2A1"/>
<stop offset="1" stop-color="#835DD0"/>
</linearGradient>
<linearGradient id="paint37_linear_1004_6073" x1="627.572" y1="174.785" x2="627.572" y2="238.441" gradientUnits="userSpaceOnUse">
<stop stop-color="#00B2A1"/>
<stop offset="1" stop-color="#835DD0"/>
</linearGradient>
<linearGradient id="paint38_linear_1004_6073" x1="644.475" y1="130.909" x2="644.475" y2="238.442" gradientUnits="userSpaceOnUse">
<stop stop-color="#00B2A1"/>
<stop offset="1" stop-color="#835DD0"/>
</linearGradient>
<linearGradient id="paint39_linear_1004_6073" x1="661.379" y1="102.857" x2="661.379" y2="238.441" gradientUnits="userSpaceOnUse">
<stop stop-color="#00B2A1"/>
<stop offset="1" stop-color="#835DD0"/>
</linearGradient>
<linearGradient id="paint40_linear_1004_6073" x1="677.922" y1="90.9893" x2="677.922" y2="238.442" gradientUnits="userSpaceOnUse">
<stop stop-color="#00B2A1"/>
<stop offset="1" stop-color="#835DD0"/>
</linearGradient>
<linearGradient id="paint41_linear_1004_6073" x1="694.825" y1="84.5156" x2="694.825" y2="238.442" gradientUnits="userSpaceOnUse">
<stop stop-color="#00B2A1"/>
<stop offset="1" stop-color="#835DD0"/>
</linearGradient>
<linearGradient id="paint42_linear_1004_6073" x1="711.728" y1="83.0767" x2="711.728" y2="238.441" gradientUnits="userSpaceOnUse">
<stop stop-color="#00B2A1"/>
<stop offset="1" stop-color="#835DD0"/>
</linearGradient>
<linearGradient id="paint43_linear_1004_6073" x1="1436.4" y1="173.707" x2="1436.4" y2="238.442" gradientUnits="userSpaceOnUse">
<stop stop-color="#00B2A1"/>
<stop offset="1" stop-color="#835DD0"/>
</linearGradient>
<linearGradient id="paint44_linear_1004_6073" x1="1419.86" y1="127.672" x2="1419.86" y2="238.442" gradientUnits="userSpaceOnUse">
<stop stop-color="#00B2A1"/>
<stop offset="1" stop-color="#835DD0"/>
</linearGradient>
<linearGradient id="paint45_linear_1004_6073" x1="1402.96" y1="102.857" x2="1402.96" y2="238.441" gradientUnits="userSpaceOnUse">
<stop stop-color="#00B2A1"/>
<stop offset="1" stop-color="#835DD0"/>
</linearGradient>
<linearGradient id="paint46_linear_1004_6073" x1="1386.05" y1="88.4717" x2="1386.05" y2="238.442" gradientUnits="userSpaceOnUse">
<stop stop-color="#00B2A1"/>
<stop offset="1" stop-color="#835DD0"/>
</linearGradient>
<linearGradient id="paint47_linear_1004_6073" x1="1369.15" y1="80.9189" x2="1369.15" y2="238.441" gradientUnits="userSpaceOnUse">
<stop stop-color="#00B2A1"/>
<stop offset="1" stop-color="#835DD0"/>
</linearGradient>
<linearGradient id="paint48_linear_1004_6073" x1="1352.25" y1="76.9629" x2="1352.25" y2="238.441" gradientUnits="userSpaceOnUse">
<stop stop-color="#00B2A1"/>
<stop offset="1" stop-color="#835DD0"/>
</linearGradient>
<linearGradient id="paint49_linear_1004_6073" x1="1335.34" y1="76.9629" x2="1335.34" y2="238.441" gradientUnits="userSpaceOnUse">
<stop stop-color="#00B2A1"/>
<stop offset="1" stop-color="#835DD0"/>
</linearGradient>
<linearGradient id="paint50_linear_1004_6073" x1="1318.44" y1="79.8398" x2="1318.44" y2="238.441" gradientUnits="userSpaceOnUse">
<stop stop-color="#00B2A1"/>
<stop offset="1" stop-color="#835DD0"/>
</linearGradient>
<linearGradient id="paint51_linear_1004_6073" x1="1301.54" y1="88.4717" x2="1301.54" y2="238.442" gradientUnits="userSpaceOnUse">
<stop stop-color="#00B2A1"/>
<stop offset="1" stop-color="#835DD0"/>
</linearGradient>
<linearGradient id="paint52_linear_1004_6073" x1="1284.64" y1="101.059" x2="1284.64" y2="238.442" gradientUnits="userSpaceOnUse">
<stop stop-color="#00B2A1"/>
<stop offset="1" stop-color="#835DD0"/>
</linearGradient>
<linearGradient id="paint53_linear_1004_6073" x1="1268.09" y1="122.637" x2="1268.09" y2="238.441" gradientUnits="userSpaceOnUse">
<stop stop-color="#00B2A1"/>
<stop offset="1" stop-color="#835DD0"/>
</linearGradient>
<linearGradient id="paint54_linear_1004_6073" x1="1251.19" y1="151.768" x2="1251.19" y2="238.441" gradientUnits="userSpaceOnUse">
<stop stop-color="#00B2A1"/>
<stop offset="1" stop-color="#835DD0"/>
</linearGradient>
<linearGradient id="paint55_linear_1004_6073" x1="1234.29" y1="179.46" x2="1234.29" y2="238.441" gradientUnits="userSpaceOnUse">
<stop stop-color="#00B2A1"/>
<stop offset="1" stop-color="#835DD0"/>
</linearGradient>
<linearGradient id="paint56_linear_1004_6073" x1="1217.38" y1="197.083" x2="1217.38" y2="238.442" gradientUnits="userSpaceOnUse">
<stop stop-color="#00B2A1"/>
<stop offset="1" stop-color="#835DD0"/>
</linearGradient>
<linearGradient id="paint57_linear_1004_6073" x1="1200.48" y1="210.39" x2="1200.48" y2="238.442" gradientUnits="userSpaceOnUse">
<stop stop-color="#00B2A1"/>
<stop offset="1" stop-color="#835DD0"/>
</linearGradient>
<linearGradient id="paint58_linear_1004_6073" x1="1183.58" y1="216.144" x2="1183.58" y2="238.441" gradientUnits="userSpaceOnUse">
<stop stop-color="#00B2A1"/>
<stop offset="1" stop-color="#835DD0"/>
</linearGradient>
<linearGradient id="paint59_linear_1004_6073" x1="1166.67" y1="219.021" x2="1166.67" y2="238.442" gradientUnits="userSpaceOnUse">
<stop stop-color="#00B2A1"/>
<stop offset="1" stop-color="#835DD0"/>
</linearGradient>
<linearGradient id="paint60_linear_1004_6073" x1="1149.77" y1="221.898" x2="1149.77" y2="238.441" gradientUnits="userSpaceOnUse">
<stop stop-color="#00B2A1"/>
<stop offset="1" stop-color="#835DD0"/>
</linearGradient>
<linearGradient id="paint61_linear_1004_6073" x1="1132.87" y1="219.021" x2="1132.87" y2="238.442" gradientUnits="userSpaceOnUse">
<stop stop-color="#00B2A1"/>
<stop offset="1" stop-color="#835DD0"/>
</linearGradient>
<linearGradient id="paint62_linear_1004_6073" x1="1116.32" y1="212.547" x2="1116.32" y2="238.441" gradientUnits="userSpaceOnUse">
<stop stop-color="#00B2A1"/>
<stop offset="1" stop-color="#835DD0"/>
</linearGradient>
<linearGradient id="paint63_linear_1004_6073" x1="1099.42" y1="199.241" x2="1099.42" y2="238.442" gradientUnits="userSpaceOnUse">
<stop stop-color="#00B2A1"/>
<stop offset="1" stop-color="#835DD0"/>
</linearGradient>
<linearGradient id="paint64_linear_1004_6073" x1="1082.52" y1="176.943" x2="1082.52" y2="238.441" gradientUnits="userSpaceOnUse">
<stop stop-color="#00B2A1"/>
<stop offset="1" stop-color="#835DD0"/>
</linearGradient>
<linearGradient id="paint65_linear_1004_6073" x1="1065.61" y1="149.61" x2="1065.61" y2="238.442" gradientUnits="userSpaceOnUse">
<stop stop-color="#00B2A1"/>
<stop offset="1" stop-color="#835DD0"/>
</linearGradient>
<linearGradient id="paint66_linear_1004_6073" x1="1048.71" y1="107.533" x2="1048.71" y2="238.442" gradientUnits="userSpaceOnUse">
<stop stop-color="#00B2A1"/>
<stop offset="1" stop-color="#835DD0"/>
</linearGradient>
<linearGradient id="paint67_linear_1004_6073" x1="1031.81" y1="58.6216" x2="1031.81" y2="238.442" gradientUnits="userSpaceOnUse">
<stop stop-color="#00B2A1"/>
<stop offset="1" stop-color="#835DD0"/>
</linearGradient>
<linearGradient id="paint68_linear_1004_6073" x1="1014.91" y1="21.938" x2="1014.91" y2="238.441" gradientUnits="userSpaceOnUse">
<stop stop-color="#00B2A1"/>
<stop offset="1" stop-color="#835DD0"/>
</linearGradient>
<linearGradient id="paint69_linear_1004_6073" x1="998.002" y1="3.59619" x2="998.002" y2="238.441" gradientUnits="userSpaceOnUse">
<stop stop-color="#00B2A1"/>
<stop offset="1" stop-color="#835DD0"/>
</linearGradient>
<linearGradient id="paint70_linear_1004_6073" x1="981.099" y1="0" x2="981.099" y2="238.442" gradientUnits="userSpaceOnUse">
<stop stop-color="#00B2A1"/>
<stop offset="1" stop-color="#835DD0"/>
</linearGradient>
<linearGradient id="paint71_linear_1004_6073" x1="964.555" y1="5.39453" x2="964.555" y2="238.441" gradientUnits="userSpaceOnUse">
<stop stop-color="#00B2A1"/>
<stop offset="1" stop-color="#835DD0"/>
</linearGradient>
<linearGradient id="paint72_linear_1004_6073" x1="947.652" y1="30.21" x2="947.652" y2="238.442" gradientUnits="userSpaceOnUse">
<stop stop-color="#00B2A1"/>
<stop offset="1" stop-color="#835DD0"/>
</linearGradient>
<linearGradient id="paint73_linear_1004_6073" x1="930.749" y1="84.5156" x2="930.749" y2="238.442" gradientUnits="userSpaceOnUse">
<stop stop-color="#00B2A1"/>
<stop offset="1" stop-color="#835DD0"/>
</linearGradient>
<linearGradient id="paint74_linear_1004_6073" x1="913.846" y1="153.566" x2="913.846" y2="238.442" gradientUnits="userSpaceOnUse">
<stop stop-color="#00B2A1"/>
<stop offset="1" stop-color="#835DD0"/>
</linearGradient>
<linearGradient id="paint75_linear_1004_6073" x1="896.943" y1="192.408" x2="896.943" y2="238.442" gradientUnits="userSpaceOnUse">
<stop stop-color="#00B2A1"/>
<stop offset="1" stop-color="#835DD0"/>
</linearGradient>
<linearGradient id="paint76_linear_1004_6073" x1="880.04" y1="210.39" x2="880.04" y2="238.442" gradientUnits="userSpaceOnUse">
<stop stop-color="#00B2A1"/>
<stop offset="1" stop-color="#835DD0"/>
</linearGradient>
<linearGradient id="paint77_linear_1004_6073" x1="863.137" y1="212.547" x2="863.137" y2="238.441" gradientUnits="userSpaceOnUse">
<stop stop-color="#00B2A1"/>
<stop offset="1" stop-color="#835DD0"/>
</linearGradient>
<linearGradient id="paint78_linear_1004_6073" x1="846.234" y1="210.39" x2="846.234" y2="238.442" gradientUnits="userSpaceOnUse">
<stop stop-color="#00B2A1"/>
<stop offset="1" stop-color="#835DD0"/>
</linearGradient>
<linearGradient id="paint79_linear_1004_6073" x1="829.331" y1="199.241" x2="829.331" y2="238.442" gradientUnits="userSpaceOnUse">
<stop stop-color="#00B2A1"/>
<stop offset="1" stop-color="#835DD0"/>
</linearGradient>
<linearGradient id="paint80_linear_1004_6073" x1="812.787" y1="174.785" x2="812.787" y2="238.441" gradientUnits="userSpaceOnUse">
<stop stop-color="#00B2A1"/>
<stop offset="1" stop-color="#835DD0"/>
</linearGradient>
<linearGradient id="paint81_linear_1004_6073" x1="795.884" y1="130.909" x2="795.884" y2="238.442" gradientUnits="userSpaceOnUse">
<stop stop-color="#00B2A1"/>
<stop offset="1" stop-color="#835DD0"/>
</linearGradient>
<linearGradient id="paint82_linear_1004_6073" x1="778.981" y1="102.857" x2="778.981" y2="238.441" gradientUnits="userSpaceOnUse">
<stop stop-color="#00B2A1"/>
<stop offset="1" stop-color="#835DD0"/>
</linearGradient>
<linearGradient id="paint83_linear_1004_6073" x1="762.078" y1="90.9893" x2="762.078" y2="238.442" gradientUnits="userSpaceOnUse">
<stop stop-color="#00B2A1"/>
<stop offset="1" stop-color="#835DD0"/>
</linearGradient>
<linearGradient id="paint84_linear_1004_6073" x1="745.175" y1="84.5156" x2="745.175" y2="238.442" gradientUnits="userSpaceOnUse">
<stop stop-color="#00B2A1"/>
<stop offset="1" stop-color="#835DD0"/>
</linearGradient>
<linearGradient id="paint85_linear_1004_6073" x1="728.272" y1="83.0767" x2="728.272" y2="238.441" gradientUnits="userSpaceOnUse">
<stop stop-color="#00B2A1"/>
<stop offset="1" stop-color="#835DD0"/>
</linearGradient>
</defs>
</svg>
