<svg fill="none" height="64" viewBox="0 0 191 64" width="191" xmlns="http://www.w3.org/2000/svg" xmlns:xlink="http://www.w3.org/1999/xlink"><clipPath id="a"><path d="m10.24 10.24h170.47v43.5405h-170.47z"/></clipPath><g clip-path="url(#a)"><path d="m30.5458 23.0451h-10.24c-.6789 0-1.33-.2697-1.8101-.7498s-.7499-1.1312-.7499-1.8102c0-.6789.2698-1.3301.7499-1.8102s1.1312-.7498 1.8101-.7498h10.24c.679 0 1.3301.2697 1.8102.7498s.7498 1.1313.7498 1.8102c0 .679-.2697 1.3301-.7498 1.8102s-1.1312.7498-1.8102.7498z" fill="#835dd0"/><path d="m26.2656 38.4102h-13.5424c-.6789 0-1.3301-.2697-1.8102-.7498s-.7498-1.1312-.7498-1.8102c0-.6789.2697-1.3301.7498-1.8102s1.1313-.7498 1.8102-.7498h13.5424c.679 0 1.3301.2697 1.8102.7498s.7498 1.1313.7498 1.8102c0 .679-.2697 1.3301-.7498 1.8102s-1.1312.7498-1.8102.7498z" fill="#835dd0"/><path d="m20.2956 53.7753h-.2406c-.679 0-1.3301-.2697-1.8102-.7498s-.7498-1.1312-.7498-1.8102c0-.6789.2697-1.3301.7498-1.8102.4801-.48 1.1312-.7498 1.8102-.7498h.2509c.6789 0 1.3301.2698 1.8102.7498.4801.4801.7498 1.1313.7498 1.8102 0 .679-.2697 1.3301-.7498 1.8102s-1.1313.7498-1.8102.7498z" fill="#835dd0"/><path d="m31.2627 15.36h-4.2036c-.6789 0-1.33-.2697-1.8101-.7498s-.7499-1.1313-.7499-1.8102c0-.679.2698-1.3301.7499-1.8102s1.1312-.7498 1.8101-.7498h4.2036c.6789 0 1.3301.2697 1.8102.7498s.7498 1.1312.7498 1.8102c0 .6789-.2697 1.3301-.7498 1.8102s-1.1313.7498-1.8102.7498z" fill="#00b2a1"/><path d="m27.648 30.7251h-12.713c-.679 0-1.3301-.2697-1.8102-.7498s-.7498-1.1312-.7498-1.8102.2697-1.3301.7498-1.8102 1.1312-.7498 1.8102-.7498h12.6976c.6789 0 1.3301.2697 1.8102.7498s.7498 1.1312.7498 1.8102-.2697 1.3301-.7498 1.8102-1.1313.7498-1.8102.7498z" fill="#00b2a1"/><path d="m20.9561 46.0953h-5.3248c-.679 0-1.3301-.2697-1.8102-.7498s-.7498-1.1312-.7498-1.8102c0-.6789.2697-1.3301.7498-1.8102.4801-.48 1.1312-.7498 1.8102-.7498h5.3248c.679 0 1.3301.2698 1.8102.7498.4801.4801.7498 1.1313.7498 1.8102 0 .679-.2697 1.3301-.7498 1.8102s-1.1312.7498-1.8102.7498z" fill="#00b2a1"/><g fill="#002c77"><path d="m41.3185 43.5968c-.3495.9342-.8901 1.7852-1.5873 2.4986-.2739-.23-.5611-.4437-.8601-.64.6368-.5737 1.1207-1.2969 1.408-2.1044zm2.3705-.4403h-4.1779v-7.3421h4.1677zm-1.0649-6.4615h-2.089v1.2852h2.0736zm0 2.1248h-2.089v1.3056h2.0736zm0 2.1248h-2.089v1.3312h2.0736zm.1536 2.3809c.4992.5599.9227 1.183 1.2595 1.8534l-.9216.4813c-.3287-.6936-.7395-1.3451-1.2237-1.9405zm6.9068-4.2138h-1.3875v5.6729c0 .5837-.1382.8961-.512 1.0855-.5721.1806-1.1731.2518-1.7715.2099-.0752-.3719-.2046-.7307-.384-1.065.6042.0256 1.152.0256 1.3158 0 .1639-.0256.256-.0614.256-.2457v-4.2855c-.6524 1.4242-1.594 2.697-2.7648 3.7377-.2167-.2903-.4677-.5534-.7475-.7834 1.2493-.9011 2.4064-2.601 3.1181-4.3418h-2.7904v-1.024h3.2051v-2.6982h1.0752v2.6982h1.3875z"/><path d="m61.0458 35.84v10.2092h-1.024v-.5478h-7.5059v.5939h-.9933v-10.24zm-1.024 8.8064v-7.9514h-7.5059v7.9667zm-.3277-1.7972h-1.5872v.937c0 .384-.0922.512-.3738.5939-.4599.0916-.9298.1226-1.3977.0922-.0495-.2051-.1288-.4018-.2355-.5837h.9369c.1178 0 .1587-.0461.1587-.1485v-.9011h-4.3264v-.6298h4.3264v-.3942h.9114v.384h1.5872zm-1.2954-2.0992c.4031.304.7753.647 1.1111 1.024l-.5735.4404c-.1431-.1702-.2952-.3325-.4557-.4864-1.9814.0563-3.9782.1126-5.4015.1382l-.0461-.6195h2.7545v-.4813h-2.391v-2.3552h2.391v-.4096h-2.7801v-.64h2.7801v-.4813h.896v.4813h2.8365v.64h-2.8365v.4096h2.4884v2.3552zm-3.4662 3.538c-.2542-.3993-.5588-.7641-.9063-1.0855l.6759-.3533c.3631.3006.6881.6445.9677 1.024zm-.6861-4.9613h1.536v-.4301h-1.536zm1.536.9216v-.4403h-1.536v.4403zm.896-1.3517v.4301h1.6128v-.4301zm1.6128 1.3517v-.4403h-1.6128v.4403zm-.384.9574-.2099-.1741.4301-.2816h-1.449v.4813z"/><path d="m65.065 40.6681c-.6659-.4986-1.3855-.921-2.1453-1.2595l.5683-.8141c.77.3004 1.4992.6961 2.1709 1.1776zm-1.7613 4.5415c.8165-1.1828 1.5521-2.4196 2.2016-3.7018l.7936.7271c-.6042 1.2134-1.3722 2.6112-2.048 3.7068zm.8602-9.728c.7729.3154 1.5093.7137 2.1964 1.1878l-.6297.9011c-.665-.5232-1.3946-.9586-2.1709-1.2953zm8.2995 10.5677c-.1307-.3776-.2916-.744-.4813-1.0957-4.1319.512-4.6541.5939-5.0022.7577-.0615-.2304-.2458-.7782-.3738-1.0854.2457-.0563.4659-.3277.7475-.7578.5635-.8494 1.0436-1.7513 1.4336-2.6931h-2.4064v-1.024h2.8826v-1.8893h-2.3911v-1.024h2.3911v-1.879h1.111v1.879h2.4832v1.024h-2.4832v1.8893h2.9287v1.024h-3.2205c-.5268 1.1267-1.1468 2.2073-1.8535 3.2307l3.2512-.3379c-.2918-.4761-.6144-.9472-.9216-1.3773l.8755-.4198c.8148.9997 1.4868 2.1077 1.9969 3.2922z"/><path d="m80.7629 35.4048c0 .4454 0 1.0547-.082 1.7408.1639 1.4592.8756 6.1133 4.946 7.9206-.3193.2554-.5884.5679-.7936.9216-2.7392-1.2953-4.009-3.8605-4.608-5.9494-.2866 1.2561-.831 2.439-1.5986 3.4737-.7677 1.0347-1.7419 1.8987-2.8609 2.5372-.241-.3428-.5451-.6364-.896-.8653 4.7718-2.473 4.6438-7.9104 4.6796-9.7792z"/><path d="m93.4145 36.5721c1.1457 1.0114 2.1759 2.1464 3.072 3.3844l-.9114.6758c-.2052-.3312-.431-.6493-.6758-.9523-6.4205.3379-7.168.3584-7.68.5478-.0972-.3609-.2134-.7163-.3482-1.0649.3726-.1301.7021-.3604.9523-.6656.9715-.9778 1.8302-2.0615 2.56-3.2308l1.0854.466c-.8286 1.1573-1.7627 2.2354-2.7903 3.2204l5.4272-.2201c-.512-.5581-1.024-1.1213-1.536-1.5872zm-5.6832 4.5415h7.5878v4.9459h-1.1776v-.5939h-5.3094v.6195h-1.1008zm1.1008 1.024v2.263h5.3094v-2.263z"/><path d="m99.7325 40.5402c-.4976-.4797-1.0593-.8881-1.6691-1.2135l.599-.7475c.6185.2913 1.1925.6689 1.7046 1.1213zm-1.4336 4.8537c.5459-1.2066 1.0295-2.4404 1.449-3.6966l.8601.5581c-.374 1.2032-.8755 2.6009-1.3414 3.6864zm1.6281-7.8489c-.4752-.5083-1.022-.9447-1.623-1.2954l.6298-.7117c.6049.3178 1.1632.7175 1.6592 1.1879zm1.367 2.2016c-.095.5473-.267 1.0783-.512 1.5769-.157-.1324-.329-.2458-.512-.3379.218-.4317.36-.8976.42-1.3773zm1.536-.4659c-.036-.1024-.072-.2356-.128-.3636-.673.0489-1.338.1673-1.986.3533-.059-.1785-.136-.3501-.231-.512.222-.0749.413-.2183.548-.4096.243-.2534.466-.5256.666-.8141-.347.0104-.692.0655-1.024.1639-.055-.1791-.13-.351-.226-.512.144 0 .236-.1383.364-.3175.303-.4443.539-.9308.701-1.4438l.64.2201c-.197.4701-.451.9138-.758 1.321l.666-.0358c.11-.1652.211-.3361.302-.512l.609.2713c-.384.6388-.833 1.236-1.341 1.7818l.85-.1024c-.056-.1075-.128-.2355-.19-.3379l.512-.1741c.213.3676.385.7573.512 1.1622zm5.519 4.4083c-.011.1384-.035.2754-.071.4096-.2.9676-.43 1.4848-.732 1.7152-.286.1953-.628.2907-.973.2713-.348 0-1.06 0-1.782-.0358-.031-.2955-.131-.5795-.292-.8295.712.0717 1.47.082 1.761.082.176.027.355-.0016.512-.082.223-.2264.369-.5162.42-.8294h-6.036c.203-.6049.374-1.2201.512-1.8432h5.12v-.512h-5.504v-.6502h6.512v1.8073h-5.273l-.138.512zm-6.604-2.56c-.025-.4701-.104-.9357-.236-1.3876l.512-.1279c.143.4346.232.8851.266 1.3414zm1.024-.2816c-.072-.4353-.192-.8613-.359-1.2698l.466-.1638c.184.3855.317.7935.394 1.2134zm3.174-3.6967h-2.775v-.6093h1.178c-.113-.3055-.25-.6017-.41-.8857l.712-.1639c.19.2847.346.5905.466.9114l-.512.1382h1.362zm-2.463 2.1709h2.207v1.7152h-2.207zm2.197-1.2493h-2.171v-.5478h2.171zm-2.171.3124h2.171v.5478h-2.171zm.65 2.1145h.83v-.6451h-.83zm2.591-.7834c-.091.545-.255 1.0753-.487 1.577-.157-.1362-.328-.2547-.512-.3533.225-.4236.367-.8856.42-1.3619zm1.536-.3942c-.036-.1075-.082-.2611-.143-.4096-.673.0622-1.339.1786-1.992.3482-.036-.0922-.154-.3584-.22-.512.174 0 .338-.1741.548-.3943.228-.2553.442-.5237.64-.8038-.347.0065-.692.0598-1.024.1587-.057-.1757-.128-.3469-.21-.512.117 0 .235-.128.348-.3021.305-.4447.545-.9309.711-1.4438l.63.2202c-.196.469-.45.9111-.758 1.3158l.681-.0307c.093-.1792.195-.3533.277-.512l.619.2662c-.379.6439-.829 1.2433-1.341 1.7869l.85-.1024c-.056-.1178-.128-.2355-.184-.3431l.476-.174c.246.3816.439.795.573 1.2288zm-1.111 1.9098c-.025-.5192-.106-1.0341-.241-1.536l.512-.1178c.146.4742.236.964.266 1.4592zm1.121-1.8279c.224.4543.385.9365.481 1.4336l-.512.2202c-.08-.5139-.228-1.0149-.44-1.4899z"/><path d="m113.751 41.5898.256.9574c-1.224.5837-2.529 1.193-3.543 1.6435l-.435-1.0854c.42-.1485.957-.3584 1.536-.6042v-3.3587h-1.326v-1.024h1.326v-2.5907h1.024v2.5907h1.162v1.024h-1.178v2.9389zm5.299 3.2972c.64 0 .758-.2918.85-1.5667.296.1841.619.319.958.3994-.149 1.6077-.477 2.135-1.736 2.135h-2.683c-1.439 0-1.843-.3635-1.843-1.7612v-3.3741l-.809.3481-.405-.9677 1.214-.512v-3.072h1.024v2.6625l1.305-.5479v-3.2102h1.024v2.775l1.567-.6656.804.2714-.046.174c-.071 1.7071-.258 3.4074-.558 5.0893l-.891-.2457c.201-1.3416.323-2.694.363-4.0499l-1.249.4863v4.1882h-1.024v-3.7581l-1.295.5939v3.8298c0 .6554.128.7834.875.7834z"/><path d="m125.926 43.7043c-1.269.4403-2.621.896-3.671 1.2339l-.261-1.1059c.425-.1178.937-.256 1.495-.4352v-2.9594h-1.259v-1.024h1.249v-2.3244h-1.377v-1.024h3.712v1.024h-1.296v2.3244h1.111v1.024h-1.111v2.6368c.4-.128.82-.256 1.214-.3993zm6.897 1.024v.9933h-7.455v-.9933h3.385v-1.3773h-2.535v-1.024h2.535v-1.1776h-2.427v-5.2531h5.975v5.2531h-2.442v1.1776h2.59v1.024h-2.59v1.3875zm-5.504-6.656h1.536v-1.2595h-1.536zm0 2.1504h1.536v-1.2749h-1.536zm3.942-3.4099h-1.495v1.2595h1.495zm0 2.135h-1.495v1.2749h1.495z"/><path d="m141.312 37.12c.009.0936.009.188 0 .2816.63.64 1.879 1.024 3.415 1.1315-.241.2609-.436.5603-.579.8858-1.148-.0992-2.239-.5457-3.128-1.28-.42.5376-1.341 1.024-3.348 1.3158-.142-.294-.326-.565-.548-.8038h-2.965v-.8499h3.385v.768c2.529-.3277 2.8-.978 2.8-1.4797v-.1536h-.993c-.237.3959-.522.7606-.85 1.0854-.252-.2099-.525-.3934-.814-.5478.627-.5853 1.09-1.3251 1.341-2.1453l.968.2099c-.072.1946-.143.384-.225.5837h3.64l.154-.0512.747.2458c-.287.6054-.63 1.183-1.024 1.7254l-.865-.3226c.185-.2584.356-.5267.512-.8038h-1.623zm-.092 7.0707c1.121.3619 2.22.7876 3.292 1.2749l-.983.5939c-1.011-.5177-2.061-.9576-3.139-1.3158l.676-.553h-3.487l.968.4455c-1.131.6307-2.334 1.1208-3.584 1.4592-.252-.2882-.52-.5617-.804-.8192 1.166-.2013 2.296-.5667 3.359-1.0855h-1.879v-4.6899h7.608v4.6899zm-3.978-7.3625h-2.857v-.8141h2.857zm-.512 4.0294h5.473v-.6656h-5.499zm0 1.3056h5.473v-.6554h-5.499zm0 1.3414h5.473v-.6656h-5.499z"/><path d="m150.267 38.1849h-4.199v-.8652h1.987c-.226-.5423-.492-1.0677-.794-1.5719l.779-.4352c.305.4927.575 1.0059.809 1.536l-.773.4762h2.181zm-3.733 1.536v-.855h3.313v.855zm0 .6861h3.328v.8397h-3.343zm3.328 4.992h-2.473v.512h-.87v-3.9424h3.328zm-2.473-2.56v1.6691h1.608v-1.6691zm8.151-6.8608c-.081 4.3162-.092 8.6579.456 8.8167.145-.4987.209-1.0172.19-1.536.172.2942.37.5718.594.8294-.139 1.6589-.62 2.048-1.224 1.7715-1.132-.3942-1.111-4.3008-1.096-8.8781h-1.73v3.2922h1.367v1.024h-1.367v4.7616h-1.024v-4.7565h-1.449v-1.024h1.449v-3.2921h-1.296v-1.024z"/><path d="m168.023 37.4118v5.5808h-1.137v-.6297h-3.031v3.7069h-1.131v-3.7069h-3.021v.6861h-1.085v-5.632h4.096v-2.048h1.131v2.048zm-5.309 3.8912v-2.8211h-3.021v2.8211zm4.162 0v-2.8211h-3.031v2.8211z"/><path d="m172.017 39.6186c-.173 1.5858-.492 3.1523-.953 4.6796l-1.085-.4556c.492-1.4328.82-2.9169.978-4.4237zm2.007-.978v5.5655c0 .5478.128.64.747.64h1.956c.666 0 .773-.384.855-2.3091.312.2129.659.3705 1.024.4659-.128 2.1913-.445 2.8569-1.797 2.8569h-2.13c-1.362 0-1.746-.3737-1.746-1.6537v-5.5655zm.097-2.9542c1.138.7309 2.204 1.5674 3.185 2.4986l-.809.8294c-.948-.9706-1.991-1.8436-3.113-2.6061zm5.048 3.3946c.67 1.3865 1.185 2.8425 1.536 4.3417l-1.085.4557c-.323-1.5153-.813-2.9903-1.459-4.3981z"/><path d="m46.4589 19.6813v1.6537h-2.7597v8.704h-2.048v-8.704h-2.7546v-1.6742z"/><path d="m48.302 23.6851c.2942-.6093.7568-1.1216 1.3329-1.4763.5762-.3548 1.2419-.5372 1.9184-.5256.5582-.0133 1.1109.1134 1.6076.3686.4342.2256.8121.5458 1.106.937v-1.1725h2.0889v8.192h-2.0889v-1.2032c-.2862.4036-.6656.732-1.106.9575-.5009.2598-1.0589.39-1.623.3788-.6684.0065-1.3244-.1802-1.8893-.5376-.5781-.3668-1.044-.8859-1.3466-1.5001-.3474-.6922-.523-1.4579-.512-2.2323-.0076-.7594.168-1.5093.512-2.1863zm5.6679.9421c-.1814-.3472-.4586-.635-.7987-.8294-.3276-.1921-.7006-.2929-1.0803-.2919-.3756-.004-.7452.0933-1.0701.2816-.3338.1985-.608.4832-.7936.8243-.2087.3938-.3127.8345-.3021 1.28-.0101.4504.0938.896.3021 1.2954.1854.3526.4633.6482.8038.855.3196.1939.6861.2966 1.0599.297.3797.001.7527-.0998 1.0803-.2918.3401-.1944.6173-.4823.7987-.8295.1954-.4039.2968-.8467.2968-1.2953 0-.4487-.1014-.8915-.2968-1.2954z"/><path d="m60.8307 21.8163v8.192h-2.048v-8.192z"/><path d="m74.6292 21.8163-2.4013 8.192h-2.2374l-1.5002-5.7344-1.4951 5.7652h-2.2527l-2.4116-8.192h2.0992l1.4541 6.2566 1.5719-6.2566h2.1913l1.536 6.2412 1.4541-6.2412z"/><path d="m76.0883 23.6851c.2942-.6093.7567-1.1216 1.3329-1.4763.5761-.3548 1.2418-.5372 1.9183-.5256.5583-.0133 1.111.1134 1.6077.3686.4341.2256.8121.5458 1.1059.937v-1.1725h2.089v8.192h-2.089v-1.2032c-.2862.4036-.6656.732-1.1059.9575-.5009.2598-1.0589.39-1.6231.3788-.6683.0065-1.3244-.1802-1.8892-.5376-.5794-.3654-1.0456-.8848-1.3466-1.5001-.3474-.6922-.523-1.4579-.512-2.2323-.0077-.7594.168-1.5093.512-2.1863zm5.6678.9421c-.1828-.3462-.4596-.6337-.7987-.8294-.3291-.1928-.704-.2935-1.0854-.2919-.3738-.0033-.7417.0939-1.065.2816-.3349.1971-.6094.4822-.7936.8243-.2087.3938-.3127.8345-.3021 1.28-.01.4504.0939.896.3021 1.2954.1853.3511.4611.6463.7987.855.3196.1939.6861.2966 1.0599.297.3814.0017.7563-.0991 1.0854-.2918.3391-.1958.6159-.4833.7987-.8295.1954-.4039.2969-.8467.2969-1.2953 0-.4487-.1015-.8915-.2969-1.2954z"/><path d="m93.4656 22.6253c.6243.7022.9479 1.6215.9011 2.56v4.8537h-2.048v-4.5363c.0301-.549-.1534-1.0884-.512-1.5053-.1727-.175-.3808-.3112-.6104-.3995-.2295-.0883-.4753-.1266-.7208-.1125-.2494-.0142-.499.024-.7327.1122s-.4463.2244-.6241.3998c-.3605.4158-.5442.956-.512 1.5053v4.5363h-2.048v-8.192h2.048v1.024c.2833-.3743.6543-.6732 1.0803-.8704.4432-.2033.9256-.3064 1.4132-.3021.4369-.0173.8726.0561 1.2798.2156.4071.1595.7767.4016 1.0856.7112z"/><path d="m107.172 22.8045c-.219-.42-.558-.7657-.973-.9933-.447-.2366-.948-.3547-1.454-.3431-.572-.0106-1.136.1326-1.633.4148-.478.2804-.863.6929-1.111 1.1878-.267.5599-.405 1.172-.405 1.792s.138 1.2321.405 1.792c.254.4972.647.9098 1.131 1.1878.517.2843 1.1.4273 1.69.4148.701.0303 1.39-.1933 1.94-.6298.524-.4535.875-1.0738.993-1.7562h-3.553v-1.5872h5.601v1.8074c-.14.7264-.445 1.4111-.89 2.0019-.463.6213-1.065 1.1261-1.757 1.4746-.746.3753-1.571.565-2.406.5529-.946.0147-1.879-.2164-2.708-.6707-.792-.4391-1.447-1.0874-1.895-1.8739-.4534-.839-.6908-1.7778-.6908-2.7315 0-.9538.2374-1.8925.6908-2.7315.446-.7906 1.102-1.4427 1.895-1.8842.825-.4506 1.752-.6816 2.693-.6707 1.074-.0268 2.132.2692 3.036.8499.857.5642 1.488 1.4127 1.782 2.3962z"/><path d="m113.797 19.6915v10.3475h-2.094v-10.3424z"/><path d="m117.847 29.7677c-.546-.2229-1.021-.5912-1.372-1.065-.338-.4831-.517-1.0593-.512-1.6486h2.222c.003.1921.045.3816.122.5574s.189.3344.328.4666c.314.2606.715.3923 1.122.3686.41.0249.815-.0987 1.142-.3481.134-.1097.242-.249.314-.4071s.106-.3307.1-.5043c.009-.2781-.092-.5485-.281-.7526-.199-.2051-.44-.3641-.707-.466-.38-.1466-.768-.2731-1.162-.3788-.558-.1589-1.106-.3539-1.639-.5837-.425-.2-.796-.5005-1.08-.8755-.322-.4569-.48-1.0087-.45-1.5668-.012-.5661.147-1.1226.455-1.5974.323-.4583.771-.8139 1.29-1.024.602-.2508 1.249-.3746 1.9-.3635.93-.0406 1.846.2336 2.601.7782.331.2594.601.5883.791.9633.19.3751.296.7873.31 1.2076h-2.279c-.007-.171-.052-.3383-.131-.4904-.078-.152-.189-.2852-.324-.3902-.319-.2456-.715-.3691-1.116-.3482-.351-.018-.697.0911-.973.3072-.124.1148-.221.2556-.284.4123s-.09.3254-.08.4939c-.003.128.019.2554.067.3743.047.1189.119.2267.21.3169.197.1889.428.3383.681.4404.375.1517.757.2834 1.147.3942.563.1573 1.114.3558 1.648.5939.433.2019.81.508 1.096.8909.319.4469.481.9871.461 1.536 0 .5418-.149 1.0732-.43 1.536-.304.491-.74.8854-1.26 1.1366-.615.2934-1.29.4373-1.971.4199-.671.006-1.337-.1246-1.956-.384z"/><path d="m129.234 22.1133c.445-.7878 1.096-1.4393 1.884-1.8842.818-.4517 1.739-.6829 2.673-.6707 1.08-.0217 2.141.2873 3.041.8857.868.592 1.51 1.4599 1.823 2.4628h-2.376c-.217-.4683-.575-.8569-1.024-1.1111-.455-.2538-.969-.3827-1.49-.3737-.556-.0042-1.103.1427-1.582.4249-.473.2842-.855.6983-1.101 1.193-.253.5636-.383 1.1743-.383 1.792s.13 1.2284.383 1.792c.244.4973.626.9134 1.101 1.1981.487.2867 1.043.4338 1.608.4249.521.0099 1.036-.121 1.49-.3789.448-.2595.806-.651 1.024-1.1212h2.386c-.307 1.0059-.948 1.8767-1.818 2.4678-.85.5372-1.827.8397-2.831.8766-1.005.0368-2.001-.1932-2.888-.6667-.786-.4423-1.438-1.09-1.884-1.8739-.451-.84-.686-1.7784-.686-2.7315 0-.9532.235-1.8915.686-2.7315z"/><path d="m148.378 26.5523h-6.006c.021.5274.245 1.0263.624 1.3926.365.3409.848.5248 1.347.512.344.0279.689-.051.987-.226.297-.175.534-.4375.677-.7519h2.243c-.233.7813-.712 1.4659-1.367 1.9507-.717.5225-1.587.791-2.473.7629-.743.0177-1.477-.1588-2.13-.512-.623-.3441-1.131-.8618-1.465-1.4899-.357-.6849-.533-1.4498-.512-2.2221-.02-.777.156-1.5467.512-2.2374.327-.6251.831-1.1398 1.449-1.4797.661-.3533 1.402-.5297 2.151-.512.73-.0108 1.451.1655 2.094.512.608.3261 1.108.8225 1.438 1.4285.352.654.528 1.3877.512 2.1299-.01.2491-.037.4971-.081.7424zm-2.095-1.3926c.005-.2432-.044-.4843-.143-.7064s-.246-.4197-.43-.5788c-.387-.3223-.879-.4933-1.382-.4812-.476-.0123-.939.156-1.296.471-.365.3389-.595.7995-.645 1.2954z"/><path d="m157.235 22.6304c.315.3492.558.7577.713 1.2017.156.4439.222.9143.193 1.3839v4.823h-2.073v-4.5363c.031-.5476-.153-1.0857-.512-1.5001-.173-.1756-.381-.3122-.61-.4005-.23-.0883-.476-.1263-.721-.1115-.25-.0159-.5.0216-.734.1098-.234.0883-.446.2254-.623.4022-.361.4133-.545.9522-.512 1.5001v4.5363h-2.074v-8.192h2.074v1.024c.281-.3589.645-.6451 1.06-.8345.442-.2074.925-.3124 1.413-.3072.442-.0262.884.0405 1.298.1957.415.1552.792.3955 1.108.7054z"/><path d="m162.903 23.5264v3.9526c-.01.1083.003.2174.037.3205.034.1032.09.198.163.2786.193.1459.435.2136.676.1894h.962v1.7715h-1.326c-1.748 0-2.621-.8533-2.621-2.56v-3.9577h-.963v-1.6743h.978v-2.048h2.094v2.048h1.838v1.6999z"/><path d="m174.167 26.5523h-5.995c.021.5274.244 1.0263.624 1.3927.364.3408.848.5247 1.347.512.342.0223.684-.061.978-.2386.293-.1776.526-.441.665-.7547h2.238c-.228.7819-.707 1.4672-1.362 1.9507-.717.5225-1.587.7909-2.473.7629-.743.0177-1.477-.1588-2.13-.512-.622-.3441-1.131-.8618-1.464-1.4899-.358-.6849-.534-1.4498-.512-2.2221-.018-.7767.158-1.5456.512-2.2374.331-.6237.836-1.1377 1.454-1.4797.66-.3534 1.401-.5297 2.15-.512.73-.0108 1.451.1654 2.094.512.608.3261 1.108.8225 1.439 1.4285.351.654.527 1.3877.512 2.1299-.005.2542-.031.5076-.077.7577zm-2.089-1.3926c.002-.2398-.048-.4772-.147-.6956-.099-.2185-.245-.4126-.426-.569-.385-.3241-.875-.4954-1.378-.4813-.476-.0133-.939.1551-1.295.471-.365.3389-.595.7995-.645 1.2954z"/><path d="m179.236 22.0775c.45-.2526.959-.3815 1.474-.3738v2.1914h-.547c-.276-.0443-.559-.0212-.823.0674-.265.0886-.505.2399-.698.4412-.194.2012-.336.4463-.415.7144-.078.268-.09.5511-.036.825v4.096h-2.073v-8.192h2.073v1.2748c.252-.4325.612-.7924 1.045-1.0444z"/></g><path d="m58.7162 20.4236c-.1379-.1362-.2474-.2984-.3222-.4773-.0747-.1788-.1132-.3707-.1132-.5646 0-.1938.0385-.3857.1132-.5646.0748-.1789.1843-.3411.3222-.4773.3015-.2671.6904-.4145 1.0931-.4145.4028 0 .7916.1474 1.0931.4145.138.1362.2475.2984.3222.4773.0748.1789.1133.3708.1133.5646 0 .1939-.0385.3858-.1133.5646-.0747.1789-.1842.3411-.3222.4773-.3015.2671-.6903.4145-1.0931.4145-.4027 0-.7916-.1474-1.0931-.4145z" fill="#00b2a1"/></g></svg>