<svg width="336" height="634" viewBox="0 0 336 634" fill="none" xmlns="http://www.w3.org/2000/svg">
<line x1="167.989" y1="175" x2="167.989" y2="491" stroke="black"/>
<line x1="143.489" y1="55.5" x2="82.4893" y2="55.5" stroke="black"/>
<line x1="239.005" y1="96.5" x2="193.489" y2="96.5" stroke="black"/>
<path d="M69.2119 154V144H143.859" stroke="black"/>
<path d="M29.2554 490V470H306.723V490" stroke="black"/>
<line x1="99.3047" y1="470" x2="99.3047" y2="491" stroke="black"/>
<line x1="237.674" y1="470" x2="237.674" y2="491" stroke="black"/>
<rect x="44.4893" width="50" height="96" rx="12" fill="#00B2A1"/>
<path d="M76.4813 20.84V20.136H71.6013C71.8733 19.432 72.1133 18.68 72.3053 17.912L71.5853 17.752C71.1533 19.64 70.4013 21.432 69.3613 22.632C69.5373 22.728 69.8413 22.968 69.9533 23.08C70.4493 22.472 70.9133 21.704 71.2973 20.84H76.4813ZM76.0653 24.76V24.056H70.7373V24.76H76.0653ZM63.6493 23.384H65.8893V24.888H63.6493V23.384ZM65.8893 18.968V20.392H63.6493V18.968H65.8893ZM68.4013 22.744H63.6493V21.032H68.4013V22.744ZM69.5053 24.888H66.5773V23.384H69.0893V20.392H66.5773V18.968H69.3453V18.296H62.9293V25.56H69.5053V24.888ZM64.8333 27.544H67.4573V31H64.8333V27.544ZM70.8173 27.544V31H68.1933V27.544H70.8173ZM74.2093 27.544V31H71.5373V27.544H74.2093ZM74.9613 31V26.872H64.0973V31H62.2733V31.704H76.7373V31H74.9613ZM63.4253 43.8H75.5213V45.304H76.2893V43.112H70.2253C70.0493 42.68 69.7133 42.072 69.4093 41.64L68.6893 41.848C68.9453 42.216 69.1853 42.712 69.3773 43.112H62.6733V45.352H63.4253V43.8ZM68.3373 45.96C67.9853 46.728 67.5053 47.432 66.9293 48.056C66.5453 47.496 65.9693 46.776 65.4253 46.216C65.5053 46.136 65.5853 46.04 65.6493 45.96H68.3373ZM68.8013 45.304L68.6733 45.352H66.1453C66.3693 45.016 66.5933 44.712 66.7693 44.376L66.0333 44.264C65.4253 45.416 64.1613 46.808 62.3693 47.784C62.5293 47.88 62.7373 48.072 62.8333 48.248C63.6813 47.768 64.4013 47.208 65.0093 46.632C65.5693 47.224 66.1453 47.96 66.4653 48.52C65.2653 49.672 63.7453 50.52 62.2893 50.968C62.4333 51.112 62.6093 51.384 62.7053 51.56C65.3453 50.632 68.0973 48.632 69.2653 45.544L68.8013 45.304ZM65.4733 48.312C64.2893 48.536 63.2333 48.728 62.4013 48.856L62.5933 49.464C63.4893 49.304 64.4813 49.096 65.5213 48.856L65.4733 48.312ZM66.7053 52.632C65.8733 53.592 64.4333 54.488 63.1213 55.064C63.2653 55.192 63.5373 55.496 63.6493 55.624C64.9613 54.968 66.4813 53.96 67.3933 52.872L66.7053 52.632ZM74.9133 52.024V51.32H64.0493V52.024H69.1053V56.168H69.8733V52.024H74.9133ZM71.4733 53.048C72.7853 53.832 74.4493 54.952 75.2813 55.656L75.8093 55.096C74.9293 54.424 73.2493 53.336 71.9533 52.584L71.4733 53.048ZM74.9613 44.984L74.8173 45.032H70.4333V45.704H74.3693C73.8413 46.584 73.0733 47.576 72.3373 48.248C71.6173 47.544 71.0093 46.728 70.5773 45.848L69.9693 46.072C70.5133 47.208 71.3293 48.264 72.3053 49.128H66.8333V49.816H72.3693V49.176C73.4733 50.136 74.7693 50.872 76.1613 51.32C76.2733 51.112 76.4973 50.856 76.6573 50.696C75.2333 50.296 73.9213 49.592 72.8173 48.696C73.7613 47.8 74.8013 46.504 75.4413 45.304L74.9613 44.984ZM69.1373 65.752C69.1053 68.04 69.0733 76.232 62.3373 79.528C62.5293 79.672 62.7853 79.896 62.9293 80.088C67.2653 77.896 68.9133 73.736 69.5373 70.328C70.2093 73.32 71.8253 78.024 76.2253 80.04C76.3533 79.832 76.5773 79.576 76.7853 79.416C71.0253 76.856 70.0813 69.544 69.8573 67.944C69.9373 67.032 69.9373 66.264 69.9533 65.752H69.1373Z" fill="white"/>
<rect x="143.489" y="212" width="50" height="96" rx="12" fill="#00B2A1"/>
<path d="M168.265 233.976H165.289V232.152H167.785V231.448H165.289V229.656H164.569V231.448H161.993V232.152H164.569V233.976H161.321V234.68H168.265V233.976ZM163.961 236.936C163.849 236.36 163.481 235.512 163.113 234.872L162.537 235.048C162.889 235.704 163.241 236.584 163.353 237.16L163.961 236.936ZM168.313 240.76V240.056H165.289V238.072H167.929V237.368H166.345C166.633 236.696 166.953 235.832 167.225 235.064L166.537 234.888C166.345 235.608 165.961 236.68 165.657 237.368H161.865V238.072H164.569V240.056H161.353V240.76H164.569V244.152H165.289V240.76H168.313ZM171.145 232.84V229.672H170.409V232.84H168.441V233.56H170.409V234.504C170.409 235.464 170.377 236.488 170.249 237.512C169.737 237.048 169.193 236.616 168.681 236.232L168.201 236.696C168.841 237.176 169.497 237.752 170.105 238.36C169.753 240.28 168.969 242.168 167.305 243.752C167.481 243.864 167.769 244.088 167.913 244.232C169.513 242.68 170.329 240.856 170.745 239C171.369 239.656 171.897 240.328 172.233 240.872L172.777 240.328C172.361 239.672 171.689 238.904 170.905 238.136C171.097 236.904 171.145 235.688 171.145 234.504V233.56H173.209C173.193 239.368 173.129 243.528 174.809 243.96C175.449 244.152 175.753 243.592 175.865 241.336C175.721 241.256 175.481 241.08 175.337 240.936C175.273 242.232 175.145 243.224 175.017 243.192C173.849 242.952 173.929 238.808 173.945 232.84H171.145ZM175.209 254.68H167.337V255.416H175.209V254.68ZM164.889 253.656C164.057 254.824 162.489 256.264 161.161 257.176C161.305 257.32 161.529 257.624 161.641 257.784C163.017 256.776 164.617 255.288 165.625 253.944L164.889 253.656ZM165.561 257.048C164.425 258.888 162.665 260.728 161.001 261.928C161.161 262.072 161.449 262.408 161.561 262.552C162.265 261.992 162.985 261.336 163.689 260.6V268.232H164.441V259.768C165.113 258.984 165.753 258.136 166.281 257.304L165.561 257.048ZM175.689 259.064H166.633V259.8H172.377V267.048C172.377 267.32 172.265 267.384 171.961 267.4C171.673 267.432 170.569 267.432 169.305 267.4C169.433 267.624 169.561 267.928 169.593 268.12C171.225 268.12 172.089 268.12 172.537 268.008C172.985 267.88 173.145 267.608 173.145 267.048V259.8H175.689V259.064ZM167.657 286.12C169.049 289.192 171.769 291.208 175.481 291.992C175.593 291.8 175.785 291.496 175.961 291.32C173.961 290.952 172.249 290.232 170.905 289.16C172.153 288.552 173.625 287.672 174.729 286.872L174.089 286.456C173.177 287.176 171.625 288.088 170.393 288.744C169.561 288.008 168.905 287.128 168.425 286.12H175.577V285.4H165.081V283.72H173.545V283.048H165.081V281.4H173.545V280.744H165.081V279.048H174.089V278.36H164.313V285.4H161.417V286.12H164.201V290.312C164.201 290.936 163.689 291.256 163.417 291.4C163.577 291.592 163.753 291.96 163.801 292.152L163.881 292.088C164.233 291.896 165.065 291.672 169.785 290.376C169.769 290.216 169.769 289.912 169.769 289.704L164.953 290.936V286.12H167.657Z" fill="white"/>
<rect x="143.489" y="328" width="50" height="120" rx="12" fill="#00B2A1"/>
<path d="M165.657 354.04V355.848H162.761V354.04H165.657ZM169.257 355.848H166.361V354.04H169.257V355.848ZM166.361 358.424V356.504H169.257V358.424H166.361ZM162.761 358.424V356.504H165.657V358.424H162.761ZM162.041 360.136H162.761V359.096H169.257V359.896H169.993V353.384H162.041V360.136ZM168.521 351.352H163.369V349.192H168.521V351.352ZM162.649 348.52V352.008H169.257V348.52H162.649ZM161.561 347.144H170.281V346.456H161.561V347.144ZM172.281 347.592H171.561V356.328H172.281V347.592ZM174.361 345.976V359.064C174.361 359.336 174.249 359.432 173.961 359.432C173.705 359.448 172.793 359.464 171.737 359.432C171.849 359.656 171.961 359.976 172.009 360.184C173.369 360.2 174.105 360.184 174.521 360.04C174.921 359.912 175.113 359.656 175.113 359.048V345.976H174.361ZM168.265 373.976H165.289V372.152H167.785V371.448H165.289V369.656H164.569V371.448H161.993V372.152H164.569V373.976H161.321V374.68H168.265V373.976ZM163.961 376.936C163.849 376.36 163.481 375.512 163.113 374.872L162.537 375.048C162.889 375.704 163.241 376.584 163.353 377.16L163.961 376.936ZM168.313 380.76V380.056H165.289V378.072H167.929V377.368H166.345C166.633 376.696 166.953 375.832 167.225 375.064L166.537 374.888C166.345 375.608 165.961 376.68 165.657 377.368H161.865V378.072H164.569V380.056H161.353V380.76H164.569V384.152H165.289V380.76H168.313ZM171.145 372.84V369.672H170.409V372.84H168.441V373.56H170.409V374.504C170.409 375.464 170.377 376.488 170.249 377.512C169.737 377.048 169.193 376.616 168.681 376.232L168.201 376.696C168.841 377.176 169.497 377.752 170.105 378.36C169.753 380.28 168.969 382.168 167.305 383.752C167.481 383.864 167.769 384.088 167.913 384.232C169.513 382.68 170.329 380.856 170.745 379C171.369 379.656 171.897 380.328 172.233 380.872L172.777 380.328C172.361 379.672 171.689 378.904 170.905 378.136C171.097 376.904 171.145 375.688 171.145 374.504V373.56H173.209C173.193 379.368 173.129 383.528 174.809 383.96C175.449 384.152 175.753 383.592 175.865 381.336C175.721 381.256 175.481 381.08 175.337 380.936C175.273 382.232 175.145 383.224 175.017 383.192C173.849 382.952 173.929 378.808 173.945 372.84H171.145ZM175.209 394.68H167.337V395.416H175.209V394.68ZM164.889 393.656C164.057 394.824 162.489 396.264 161.161 397.176C161.305 397.32 161.529 397.624 161.641 397.784C163.017 396.776 164.617 395.288 165.625 393.944L164.889 393.656ZM165.561 397.048C164.425 398.888 162.665 400.728 161.001 401.928C161.161 402.072 161.449 402.408 161.561 402.552C162.265 401.992 162.985 401.336 163.689 400.6V408.232H164.441V399.768C165.113 398.984 165.753 398.136 166.281 397.304L165.561 397.048ZM175.689 399.064H166.633V399.8H172.377V407.048C172.377 407.32 172.265 407.384 171.961 407.4C171.673 407.432 170.569 407.432 169.305 407.4C169.433 407.624 169.561 407.928 169.593 408.12C171.225 408.12 172.089 408.12 172.537 408.008C172.985 407.88 173.145 407.608 173.145 407.048V399.8H175.689V399.064ZM167.657 426.12C169.049 429.192 171.769 431.208 175.481 431.992C175.593 431.8 175.785 431.496 175.961 431.32C173.961 430.952 172.249 430.232 170.905 429.16C172.153 428.552 173.625 427.672 174.729 426.872L174.089 426.456C173.177 427.176 171.625 428.088 170.393 428.744C169.561 428.008 168.905 427.128 168.425 426.12H175.577V425.4H165.081V423.72H173.545V423.048H165.081V421.4H173.545V420.744H165.081V419.048H174.089V418.36H164.313V425.4H161.417V426.12H164.201V430.312C164.201 430.936 163.689 431.256 163.417 431.4C163.577 431.592 163.753 431.96 163.801 432.152L163.881 432.088C164.233 431.896 165.065 431.672 169.785 430.376C169.769 430.216 169.769 429.912 169.769 429.704L164.953 430.936V426.12H167.657Z" fill="white"/>
<rect x="143.489" y="490" width="50" height="144" rx="12" fill="#835DD0"/>
<path d="M166.281 514.824C165.641 515.016 164.969 515.224 164.329 515.416V511.752H166.217V511.016H164.329V507.672H163.577V511.016H161.385V511.752H163.577V515.64C162.681 515.912 161.849 516.152 161.193 516.328L161.449 517.08C162.089 516.888 162.809 516.648 163.577 516.424V521.128C163.577 521.368 163.481 521.448 163.257 521.448C163.065 521.464 162.361 521.464 161.529 521.448C161.625 521.656 161.753 521.96 161.785 522.152C162.873 522.168 163.481 522.152 163.833 522.024C164.169 521.88 164.329 521.672 164.329 521.112V516.184C165.001 515.96 165.689 515.736 166.377 515.528L166.281 514.824ZM173.753 514.488C173.113 516.168 172.057 517.576 170.809 518.696C169.641 517.528 168.745 516.104 168.153 514.488H173.753ZM174.249 513.72L174.089 513.752H171.193V511.064H175.177V510.328H171.193V507.672H170.425V510.328H166.473V511.064H170.425V513.752H166.809V514.488H167.385C168.041 516.312 168.985 517.896 170.217 519.16C168.809 520.28 167.177 521.048 165.561 521.48C165.689 521.656 165.881 521.96 165.977 522.184C167.641 521.672 169.305 520.856 170.777 519.688C172.009 520.824 173.497 521.672 175.225 522.184C175.353 521.976 175.545 521.688 175.737 521.528C174.025 521.064 172.553 520.264 171.337 519.208C172.825 517.864 174.041 516.12 174.729 513.96L174.249 513.72ZM175.513 533H171.705V533.72H175.513V533ZM171.385 534.776C171.113 534.184 170.457 533.304 169.817 532.648L169.289 532.968C169.913 533.624 170.569 534.552 170.841 535.144L171.385 534.776ZM164.041 531.688C163.433 532.824 162.233 534.152 161.113 535C161.257 535.144 161.481 535.4 161.593 535.56C162.761 534.648 164.025 533.208 164.777 531.928L164.041 531.688ZM164.537 534.792C163.689 536.616 162.265 538.36 160.825 539.496C161.001 539.656 161.241 539.992 161.353 540.136C161.913 539.656 162.489 539.08 163.017 538.424V546.2H163.737V537.512C164.313 536.728 164.841 535.88 165.241 535.016L164.537 534.792ZM166.105 537.528C166.057 540.472 165.897 542.44 164.793 543.576C164.937 543.688 165.177 543.896 165.273 544.04C166.505 542.776 166.697 540.664 166.745 537.528H166.105ZM171.353 536.36V535.624H168.537V531.848H167.833V535.624H165.321V536.36H167.833V546.152H168.537V536.36H171.353ZM170.521 542.856C170.361 542.856 170.329 542.744 170.329 542.344V537.544H169.673V542.328C169.673 543.192 169.817 543.464 170.521 543.464H171.257C171.465 543.464 171.689 543.464 171.833 543.416C171.817 543.272 171.769 542.984 171.753 542.808C171.609 542.84 171.385 542.856 171.257 542.856H170.521ZM175.737 536.664H171.337V537.384H173.449V544.968C173.449 545.176 173.385 545.24 173.129 545.256C172.921 545.272 172.121 545.272 171.193 545.24C171.305 545.48 171.417 545.784 171.449 546.008C172.585 546.008 173.289 545.992 173.689 545.864C174.057 545.72 174.185 545.48 174.185 544.952V537.384H175.737V536.664ZM163.065 563.976C163.097 563.272 163.113 562.584 163.113 561.976V560.824H166.057V563.976H163.065ZM166.057 557.016V560.088H163.113V557.016H166.057ZM166.793 556.296H162.393V561.976C162.393 564.344 162.297 567.512 161.161 569.816C161.337 569.864 161.657 570.056 161.801 570.2C162.569 568.648 162.889 566.616 163.017 564.712H166.057V569.112C166.057 569.368 165.977 569.432 165.737 569.448C165.529 569.464 164.825 569.464 163.977 569.448C164.089 569.656 164.185 569.976 164.217 570.168C165.337 570.184 165.945 570.168 166.297 570.04C166.649 569.896 166.793 569.656 166.793 569.128V556.296ZM174.521 562.424C174.089 564.056 173.401 565.48 172.553 566.664C171.673 565.432 170.985 563.976 170.505 562.424H174.521ZM174.921 561.672L174.777 561.704H169.241V557.064H174.185V559.432C174.185 559.624 174.121 559.688 173.865 559.688C173.641 559.704 172.857 559.704 171.769 559.688C171.881 559.896 172.009 560.136 172.057 560.376C173.257 560.376 174.009 560.376 174.425 560.248C174.825 560.12 174.921 559.896 174.921 559.432V556.344H168.489V570.168H169.241V562.424H169.817C170.361 564.2 171.129 565.848 172.121 567.224C171.305 568.2 170.377 568.968 169.433 569.464C169.593 569.608 169.801 569.848 169.897 570.024C170.841 569.48 171.737 568.744 172.553 567.8C173.369 568.808 174.297 569.64 175.321 570.2C175.449 570.008 175.673 569.752 175.849 569.608C174.777 569.064 173.817 568.264 172.985 567.24C174.057 565.832 174.905 564.024 175.369 561.848L174.921 561.672ZM162.137 582.776C163.513 583.416 165.097 584.488 165.865 585.272L166.377 584.68C166.025 584.328 165.513 583.928 164.921 583.544C165.913 582.84 166.985 581.8 167.673 580.808L167.145 580.472L167.017 580.52H161.465V581.208H166.441C165.881 581.896 165.081 582.648 164.329 583.176C163.769 582.84 163.161 582.52 162.601 582.28L162.137 582.776ZM171.305 588.616C171.401 588.088 171.481 587.528 171.545 586.952H170.761C170.697 587.528 170.617 588.072 170.505 588.616H167.497V589.336H170.329C169.801 591.176 168.745 592.712 166.393 593.56C166.537 593.704 166.777 593.992 166.857 594.168C169.449 593.176 170.585 591.448 171.145 589.336H174.329C174.057 591.928 173.769 592.968 173.433 593.304C173.289 593.432 173.145 593.448 172.873 593.448C172.617 593.448 171.913 593.432 171.161 593.368C171.273 593.576 171.353 593.896 171.369 594.104C172.089 594.168 172.793 594.152 173.145 594.152C173.561 594.12 173.801 594.04 174.057 593.816C174.521 593.352 174.825 592.152 175.145 589.032C175.145 588.888 175.177 588.616 175.177 588.616H171.305ZM169.449 582.088H173.369C172.937 583.08 172.297 583.896 171.497 584.584C170.633 583.864 169.929 583.032 169.449 582.104V582.088ZM175.609 582.088V581.4H169.913C170.233 580.904 170.505 580.392 170.729 579.864L169.977 579.656C169.321 581.24 168.185 582.68 166.921 583.64C167.129 583.752 167.433 583.976 167.561 584.12C168.057 583.72 168.537 583.224 169.001 582.68C169.497 583.544 170.153 584.328 170.937 585.016C169.961 585.704 168.793 586.232 167.497 586.6C167.625 586.2 167.769 585.816 167.881 585.432L167.369 585.256L167.257 585.288H161.321V586.008H163.945C163.337 587.864 162.265 589.832 161.225 590.888C161.369 591.032 161.593 591.352 161.689 591.56C162.617 590.552 163.577 588.76 164.233 587V593.192C164.233 593.352 164.169 593.4 163.993 593.416C163.801 593.416 163.177 593.416 162.425 593.4C162.537 593.608 162.649 593.928 162.681 594.104C163.641 594.104 164.201 594.104 164.537 593.992C164.889 593.848 164.969 593.64 164.969 593.176V586.008H166.953C166.665 587 166.249 588.088 165.849 588.792L166.425 589.096C166.793 588.488 167.145 587.608 167.465 586.712C167.625 586.888 167.817 587.144 167.881 587.288C169.225 586.84 170.473 586.248 171.513 585.48C172.649 586.328 173.961 586.984 175.385 587.368C175.497 587.16 175.721 586.888 175.897 586.712C174.489 586.392 173.193 585.8 172.089 585.016C172.985 584.232 173.721 583.272 174.201 582.088H175.609ZM163.321 607.336H167.929V608.568L164.361 608.824L164.425 609.432L167.929 609.176V609.752C167.929 610.632 168.169 610.92 169.225 610.92H173.449C174.073 610.92 174.681 610.92 174.937 610.856C174.905 610.712 174.873 610.472 174.841 610.264C174.537 610.328 173.801 610.344 173.385 610.344H169.289C168.745 610.344 168.665 610.216 168.665 609.752V609.128L173.017 608.808L172.969 608.216L168.665 608.52V607.336H174.409C174.185 607.944 173.897 608.6 173.641 609.032L174.281 609.24C174.649 608.632 175.049 607.656 175.401 606.808L174.889 606.632L174.729 606.664H168.665V605.432H174.345V604.792H168.665V603.672H167.913V606.664H162.585V610.68C162.585 612.776 162.441 615.656 161.209 617.736C161.369 617.816 161.673 618.056 161.801 618.2C163.113 616.008 163.321 612.888 163.321 610.68V607.336ZM174.473 616.2C174.953 616.2 175.161 615.96 175.193 614.984C175.017 614.936 174.809 614.872 174.681 614.76C174.633 615.592 174.569 615.752 174.377 615.752H173.577C173.337 615.752 173.289 615.704 173.289 615.4V611.96H169.897V613.32C169.897 614.184 169.689 615.24 168.585 616.04C168.729 616.152 168.969 616.392 169.065 616.552C170.297 615.608 170.569 614.36 170.569 613.352V612.616H172.633V615.384C172.633 616.04 172.825 616.2 173.497 616.2H174.473ZM167.929 612.648C167.609 613.736 167.145 614.616 166.537 615.352C166.073 614.76 165.705 613.992 165.417 613.032C165.497 612.904 165.577 612.776 165.657 612.648H167.929ZM171.961 617.272C169.897 617.272 168.201 617 166.969 615.848C167.769 614.888 168.377 613.672 168.729 612.12L168.313 611.976L168.185 612.008H165.993C166.169 611.624 166.329 611.24 166.473 610.84L165.801 610.68C165.273 612.28 164.329 613.656 163.161 614.584C163.321 614.68 163.593 614.936 163.705 615.048C164.169 614.648 164.601 614.168 165.017 613.624C165.305 614.536 165.673 615.256 166.089 615.832C165.209 616.728 164.105 617.32 162.921 617.672C163.065 617.816 163.241 618.072 163.305 618.248C164.505 617.832 165.625 617.224 166.537 616.312C167.817 617.64 169.609 617.96 171.929 617.96H175.625C175.657 617.752 175.785 617.448 175.913 617.272H171.961Z" fill="white"/>
<rect x="212.489" y="490" width="50" height="144" rx="12" fill="#835DD0"/>
<path d="M239.185 511.4H242.833C242.433 513.816 241.841 515.816 240.913 517.448C240.065 515.816 239.473 513.864 239.073 511.72L239.185 511.4ZM244.721 511.4V510.68H239.425C239.729 509.768 239.969 508.808 240.193 507.816L239.425 507.688C238.929 510.152 238.145 512.552 237.025 514.28V513.592H234.641V509.672H237.729V508.92H230.401V509.672H233.889V519.032C233.201 519.208 232.513 519.352 231.905 519.48V512.376H231.185V519.656L230.161 519.88L230.337 520.648C232.273 520.2 235.105 519.512 237.777 518.856L237.697 518.136L234.641 518.856V514.328H236.993C236.881 514.504 236.753 514.696 236.625 514.84C236.817 514.952 237.153 515.192 237.297 515.32C237.777 514.632 238.209 513.816 238.609 512.92C239.041 514.888 239.649 516.664 240.481 518.168C239.521 519.592 238.257 520.712 236.593 521.544C236.737 521.72 236.977 522.024 237.057 522.216C238.673 521.336 239.921 520.248 240.897 518.888C241.793 520.312 242.913 521.464 244.337 522.2C244.465 521.976 244.705 521.704 244.881 521.56C243.425 520.872 242.257 519.688 241.345 518.2C242.449 516.408 243.137 514.168 243.601 511.4H244.721ZM244.689 533.576V532.92H239.553C239.761 532.536 239.937 532.152 240.081 531.736L239.345 531.592C238.945 532.744 238.209 533.832 237.329 534.568C237.505 534.648 237.793 534.904 237.937 535.016C238.369 534.632 238.785 534.136 239.153 533.576H244.689ZM240.529 534.136C241.121 534.632 241.825 535.304 242.177 535.736L242.705 535.288C242.337 534.84 241.617 534.2 241.057 533.736L240.529 534.136ZM237.441 533.576V532.904H232.961C233.153 532.52 233.345 532.152 233.505 531.752L232.801 531.576C232.241 532.952 231.361 534.28 230.337 535.176C230.529 535.304 230.801 535.544 230.929 535.672C231.489 535.112 232.065 534.376 232.561 533.576H237.441ZM233.569 534.008C234.097 534.536 234.753 535.224 235.089 535.656L235.633 535.256C235.297 534.808 234.609 534.12 234.097 533.656L233.569 534.008ZM237.905 539.304H242.513V541.72C242.513 541.864 242.465 541.928 242.273 541.928C242.097 541.944 241.505 541.944 240.785 541.928C240.897 542.12 241.009 542.36 241.073 542.568C241.969 542.568 242.529 542.568 242.865 542.44C243.201 542.328 243.281 542.136 243.281 541.72V538.6H237.905V537.08H244.257V536.376H237.905V535.288H237.105V536.376H230.641V537.08H237.105V538.6H231.857V542.552H232.641V539.304H237.105V540.84C235.649 542.696 232.881 544.296 230.241 544.952C230.433 545.112 230.641 545.4 230.737 545.608C233.057 544.92 235.505 543.56 237.105 541.832V546.152H237.905V541.864C239.281 543.256 241.601 544.792 244.385 545.56C244.481 545.352 244.705 545.048 244.865 544.888C241.793 544.136 239.153 542.424 237.905 540.872V539.304ZM232.193 565.832C232.289 565.24 232.401 564.52 232.481 563.848H236.001V560.504H233.281C234.801 559.544 236.113 558.264 236.849 556.632L236.385 556.376L236.241 556.408H231.793V557.096H235.793C235.345 557.864 234.705 558.552 233.953 559.176C233.473 558.632 232.625 557.96 231.905 557.512L231.425 557.944C232.145 558.408 232.929 559.064 233.393 559.592C232.337 560.328 231.137 560.904 230.001 561.256C230.161 561.4 230.353 561.672 230.449 561.848C231.105 561.64 231.761 561.352 232.417 561V561.16H235.281V563.192H231.905C231.777 564.232 231.553 565.592 231.377 566.488H235.265C235.089 568.264 234.897 569 234.625 569.24C234.513 569.368 234.353 569.384 234.049 569.384C233.761 569.384 232.849 569.368 231.921 569.288C232.049 569.48 232.145 569.752 232.161 569.976C233.025 570.024 233.889 570.04 234.273 570.008C234.721 570.008 234.961 569.928 235.201 569.704C235.601 569.368 235.777 568.456 236.001 566.184C236.033 566.088 236.049 565.832 236.049 565.832H232.193ZM242.641 565.048L242.513 565.08H236.881V565.704H242.113C241.649 566.504 241.009 567.208 240.241 567.784C239.281 567.192 238.289 566.616 237.409 566.12L237.025 566.52C237.857 567.016 238.801 567.576 239.713 568.152C238.641 568.84 237.409 569.32 236.209 569.608C236.353 569.752 236.513 570.008 236.577 570.2C237.889 569.832 239.185 569.304 240.305 568.536C241.297 569.176 242.161 569.768 242.785 570.232L243.185 569.72C242.593 569.288 241.745 568.744 240.833 568.152C241.793 567.384 242.593 566.44 243.089 565.256L242.641 565.048ZM243.697 557.4C243.089 557.992 242.081 558.824 241.265 559.368C240.769 559.048 240.337 558.664 239.921 558.264C240.721 557.704 241.713 556.92 242.449 556.2L241.857 555.784C241.297 556.408 240.289 557.256 239.505 557.816C238.913 557.176 238.433 556.456 238.081 555.688L237.441 555.896C238.337 557.784 239.857 559.384 241.729 560.488H241.377V560.472H237.761V561.784C237.761 562.568 237.505 563.448 236.193 564.136C236.353 564.232 236.593 564.488 236.705 564.616C238.113 563.848 238.449 562.76 238.449 561.8V561.128H241.057V563.08C241.057 563.832 241.217 564.104 241.969 564.104H243.489C243.777 564.104 244.097 564.104 244.257 564.072C244.241 563.896 244.209 563.672 244.209 563.496C244.017 563.528 243.665 563.544 243.473 563.544H242.033C241.793 563.544 241.745 563.448 241.745 563.096V560.504C242.561 560.968 243.425 561.352 244.337 561.624C244.449 561.448 244.641 561.176 244.801 561.016C243.729 560.744 242.721 560.296 241.809 559.736C242.609 559.208 243.569 558.488 244.273 557.8L243.697 557.4ZM242.817 581.192V583.176H232.625V581.192H242.817ZM243.569 583.864V580.488H231.857V585.144C231.857 587.704 231.713 591.224 230.097 593.768C230.289 593.848 230.641 594.04 230.753 594.168C232.417 591.56 232.625 587.8 232.625 585.144V583.864H243.569ZM236.641 586.488H240.337V588.52H236.641V586.488ZM242.993 589.48C242.321 590.04 241.169 590.792 240.289 591.288C239.665 590.696 239.169 589.992 238.785 589.208H244.609V588.52H241.073V586.488H244.001V585.8H241.073V584.216H240.337V585.8H236.641V584.216H235.905V585.8H233.281V586.488H235.905V588.52H232.785V589.208H234.769V592.36C234.769 593 234.289 593.32 234.017 593.448C234.145 593.608 234.321 593.944 234.385 594.136C234.657 593.944 235.105 593.816 239.425 592.696C239.393 592.536 239.393 592.232 239.409 592.024L235.521 592.952V589.208H238.065C239.153 591.736 241.361 593.496 244.289 594.216C244.385 593.992 244.593 593.72 244.753 593.56C243.201 593.224 241.841 592.6 240.753 591.72C241.665 591.224 242.769 590.552 243.585 589.896L242.993 589.48ZM232.321 607.336H236.929V608.568L233.361 608.824L233.425 609.432L236.929 609.176V609.752C236.929 610.632 237.169 610.92 238.225 610.92H242.449C243.073 610.92 243.681 610.92 243.937 610.856C243.905 610.712 243.873 610.472 243.841 610.264C243.537 610.328 242.801 610.344 242.385 610.344H238.289C237.745 610.344 237.665 610.216 237.665 609.752V609.128L242.017 608.808L241.969 608.216L237.665 608.52V607.336H243.409C243.185 607.944 242.897 608.6 242.641 609.032L243.281 609.24C243.649 608.632 244.049 607.656 244.401 606.808L243.889 606.632L243.729 606.664H237.665V605.432H243.345V604.792H237.665V603.672H236.913V606.664H231.585V610.68C231.585 612.776 231.441 615.656 230.209 617.736C230.369 617.816 230.673 618.056 230.801 618.2C232.113 616.008 232.321 612.888 232.321 610.68V607.336ZM243.473 616.2C243.953 616.2 244.161 615.96 244.193 614.984C244.017 614.936 243.809 614.872 243.681 614.76C243.633 615.592 243.569 615.752 243.377 615.752H242.577C242.337 615.752 242.289 615.704 242.289 615.4V611.96H238.897V613.32C238.897 614.184 238.689 615.24 237.585 616.04C237.729 616.152 237.969 616.392 238.065 616.552C239.297 615.608 239.569 614.36 239.569 613.352V612.616H241.633V615.384C241.633 616.04 241.825 616.2 242.497 616.2H243.473ZM236.929 612.648C236.609 613.736 236.145 614.616 235.537 615.352C235.073 614.76 234.705 613.992 234.417 613.032C234.497 612.904 234.577 612.776 234.657 612.648H236.929ZM240.961 617.272C238.897 617.272 237.201 617 235.969 615.848C236.769 614.888 237.377 613.672 237.729 612.12L237.313 611.976L237.185 612.008H234.993C235.169 611.624 235.329 611.24 235.473 610.84L234.801 610.68C234.273 612.28 233.329 613.656 232.161 614.584C232.321 614.68 232.593 614.936 232.705 615.048C233.169 614.648 233.601 614.168 234.017 613.624C234.305 614.536 234.673 615.256 235.089 615.832C234.209 616.728 233.105 617.32 231.921 617.672C232.065 617.816 232.241 618.072 232.305 618.248C233.505 617.832 234.625 617.224 235.537 616.312C236.817 617.64 238.609 617.96 240.929 617.96H244.625C244.657 617.752 244.785 617.448 244.913 617.272H240.961Z" fill="white"/>
<rect x="281.489" y="490" width="50" height="144" rx="12" fill="#835DD0"/>
<path d="M310.201 541.608V542.952H302.953V541.608H310.201ZM302.953 544.92V543.576H310.201V544.92H302.953ZM302.201 546.152H302.953V545.544H310.201V546.088H310.985V540.984H302.201V546.152ZM308.665 539.32C309.017 538.824 309.465 538.072 309.833 537.384L309.161 537.096C308.905 537.656 308.441 538.536 308.105 539.08L308.665 539.32ZM303.129 537.4C303.593 537.976 304.073 538.776 304.233 539.304L304.857 539.032C304.681 538.488 304.201 537.736 303.721 537.16L303.129 537.4ZM301.929 536.856H306.121V539.48H301.929V536.856ZM311.033 539.48H306.809V536.856H311.033V539.48ZM301.225 540.088H311.753V536.248H301.225V540.088ZM303.993 534.648C304.937 534.088 305.801 533.448 306.521 532.696C307.225 533.416 308.153 534.072 309.145 534.648H303.993ZM306.505 531.672C304.985 533.656 302.121 535.112 299.241 535.944C299.385 536.088 299.641 536.408 299.737 536.552C301.113 536.104 302.505 535.512 303.769 534.776V535.272H309.305V534.744C310.601 535.48 312.041 536.072 313.353 536.44C313.465 536.248 313.657 535.976 313.849 535.832C311.369 535.208 308.489 533.8 306.953 532.216C307.033 532.12 307.113 532.008 307.193 531.912L306.505 531.672ZM303.433 557.64C303.177 557.08 302.649 556.264 302.185 555.624L301.561 555.944C302.025 556.568 302.537 557.448 302.809 558.024L303.433 557.64ZM306.121 558.424H299.609V559.112H306.121V558.424ZM305.385 562.536H300.313V563.208H305.385V562.536ZM304.713 565.304V568.472H301.161V565.304H304.713ZM305.417 564.616H300.473V569.96H301.161V569.16H305.417V564.616ZM300.313 561.128H305.433V560.472H300.313V561.128ZM313.689 561.336H310.201V555.976H309.433V561.336H306.089V562.088H309.433V570.168H310.201V562.088H313.689V561.336ZM300.473 581.896H312.521V583.848H313.289V581.176H307.225C307.033 580.728 306.665 580.04 306.329 579.544L305.609 579.768C305.865 580.184 306.169 580.728 306.361 581.176H299.721V583.848H300.473V581.896ZM312.057 587.736C311.401 586.92 310.057 585.688 308.921 584.808L308.345 585.192C308.841 585.592 309.385 586.056 309.913 586.552L302.841 587.064C303.913 586.296 304.985 585.32 305.993 584.264H311.865V583.56H301.273V584.264H304.937C303.945 585.368 302.761 586.344 302.377 586.6C301.945 586.936 301.593 587.16 301.289 587.192C301.401 587.4 301.497 587.784 301.545 587.96C301.977 587.8 302.633 587.752 310.505 587.128C310.889 587.496 311.241 587.88 311.465 588.184L312.057 587.736ZM306.873 592.984V590.408H312.073V589.704H306.873V587.736H306.105V589.704H300.921V590.408H306.105V592.984H299.465V593.704H313.577V592.984H306.873Z" fill="white"/>
<rect x="73.4893" y="490" width="50" height="144" rx="12" fill="#835DD0"/>
<path d="M92.6173 510.36H96.5693C96.3453 512.904 95.5133 514.072 92.2173 514.648C92.3453 514.808 92.5373 515.064 92.6013 515.256C96.1533 514.584 97.0813 513.256 97.3533 510.36H99.8333V513.288C99.8333 514.264 100.121 514.6 101.113 514.6H104.137C104.633 514.6 105.113 514.6 105.353 514.536C105.321 514.344 105.289 514.056 105.257 513.832C104.985 513.88 104.425 513.912 104.089 513.912H101.113C100.681 513.912 100.585 513.752 100.585 513.304V510.36H104.281V512.6H105.049V509.624H99.2413C98.9853 509.048 98.5213 508.232 98.1373 507.624L97.3693 507.832C97.7053 508.392 98.0733 509.064 98.3293 509.624H91.8653V513.032H92.6173V510.36ZM98.8893 517.08H103.785V516.36H93.0173V517.08H98.1053V521.08H91.8013V521.816H105.257V521.08H98.8893V517.08ZM96.9053 533.048V534.696H92.8093V533.048H96.9053ZM92.8093 537.048V535.32H96.9053V537.048H92.8093ZM97.6413 537.688V532.408H92.0573V546.184H92.8093V537.688H97.6413ZM100.633 539.704V541.464H96.2653V539.704H100.633ZM96.2653 544.024V542.136H100.633V544.024H96.2653ZM101.369 539.032H95.5293V545.496H96.2653V544.68H101.369V539.032ZM100.025 537.048V535.32H104.249V537.048H100.025ZM104.249 533.048V534.696H100.025V533.048H104.249ZM105.017 532.408H99.2893V537.704H104.249V544.984C104.249 545.256 104.153 545.352 103.865 545.352C103.577 545.368 102.617 545.384 101.545 545.352C101.657 545.592 101.801 545.944 101.833 546.152C103.145 546.152 103.961 546.152 104.409 546.024C104.857 545.88 105.017 545.592 105.017 544.984V532.408ZM100.425 557.48V557.592C100.425 558.536 100.073 559.832 95.7853 560.504C95.9293 560.664 96.1373 560.92 96.2173 561.112C99.1613 560.584 100.361 559.768 100.841 558.92C101.801 559.96 103.433 560.696 105.337 560.984C105.433 560.808 105.641 560.52 105.785 560.36C103.705 560.136 101.913 559.384 101.065 558.36C101.129 558.088 101.145 557.848 101.145 557.608V557.48H104.185C103.913 558.008 103.577 558.568 103.305 558.968L103.929 559.176C104.345 558.648 104.825 557.752 105.225 556.984L104.713 556.792L104.585 556.824H98.6813C98.8413 556.488 98.9693 556.168 99.0813 555.816L98.3613 555.656C97.9773 556.872 97.3213 558.008 96.5053 558.824C96.6813 558.92 96.9853 559.128 97.1133 559.24C97.5613 558.776 97.9933 558.152 98.3613 557.48H100.425ZM94.2333 565.72H102.921V567.096H94.2333V565.72ZM94.2333 563.8H102.921V565.128H94.2333V563.8ZM94.2333 561.88H102.921V563.208H94.2333V561.88ZM93.4813 567.688H103.689V561.272H93.4813V567.688ZM95.4013 556.728H91.7053V557.384H95.4013V556.728ZM95.8173 559.24H91.3533V559.896H95.8173V559.24ZM96.2013 567.96C95.0333 568.584 93.0813 569.16 91.4813 569.528C91.6573 569.672 91.9453 569.976 92.0573 570.136C93.6253 569.688 95.6253 568.984 96.9053 568.264L96.2013 567.96ZM100.153 568.408C101.977 568.952 103.737 569.608 104.825 570.104L105.513 569.624C104.361 569.096 102.473 568.456 100.697 567.96L100.153 568.408ZM94.9053 581.64C94.6333 581.064 94.1373 580.248 93.6733 579.608L93.1133 579.944C93.5453 580.568 94.0573 581.448 94.2813 582.024L94.9053 581.64ZM97.0813 582.424H91.3533V583.112H97.0813V582.424ZM96.4413 585.128V584.472H91.9933V585.128H96.4413ZM95.7693 589.304V592.472H92.6173V589.304H95.7693ZM96.4413 588.616H91.9773V593.96H92.6173V593.16H96.4413V588.616ZM91.9933 587.208H96.4573V586.536H91.9933V587.208ZM97.2093 580.632V581.368H99.4493V586.424H97.0493V587.16H99.4493V594.168H100.185V587.16H102.649V586.424H100.185V581.368H103.289C103.273 588.392 103.193 593.4 104.777 593.816C105.385 594.024 105.721 593.528 105.849 591.32C105.721 591.224 105.481 591.032 105.337 590.856C105.273 592.072 105.145 593.08 105.017 593.048C103.929 592.808 104.009 587.848 104.057 580.632H97.2093ZM93.3213 607.336H97.9293V608.568L94.3613 608.824L94.4253 609.432L97.9293 609.176V609.752C97.9293 610.632 98.1693 610.92 99.2253 610.92H103.449C104.073 610.92 104.681 610.92 104.937 610.856C104.905 610.712 104.873 610.472 104.841 610.264C104.537 610.328 103.801 610.344 103.385 610.344H99.2893C98.7453 610.344 98.6653 610.216 98.6653 609.752V609.128L103.017 608.808L102.969 608.216L98.6653 608.52V607.336H104.409C104.185 607.944 103.897 608.6 103.641 609.032L104.281 609.24C104.649 608.632 105.049 607.656 105.401 606.808L104.889 606.632L104.729 606.664H98.6653V605.432H104.345V604.792H98.6653V603.672H97.9133V606.664H92.5853V610.68C92.5853 612.776 92.4413 615.656 91.2093 617.736C91.3693 617.816 91.6733 618.056 91.8013 618.2C93.1133 616.008 93.3213 612.888 93.3213 610.68V607.336ZM104.473 616.2C104.953 616.2 105.161 615.96 105.193 614.984C105.017 614.936 104.809 614.872 104.681 614.76C104.633 615.592 104.569 615.752 104.377 615.752H103.577C103.337 615.752 103.289 615.704 103.289 615.4V611.96H99.8973V613.32C99.8973 614.184 99.6893 615.24 98.5853 616.04C98.7293 616.152 98.9693 616.392 99.0653 616.552C100.297 615.608 100.569 614.36 100.569 613.352V612.616H102.633V615.384C102.633 616.04 102.825 616.2 103.497 616.2H104.473ZM97.9293 612.648C97.6093 613.736 97.1453 614.616 96.5373 615.352C96.0733 614.76 95.7053 613.992 95.4173 613.032C95.4973 612.904 95.5773 612.776 95.6573 612.648H97.9293ZM101.961 617.272C99.8973 617.272 98.2013 617 96.9693 615.848C97.7693 614.888 98.3773 613.672 98.7293 612.12L98.3133 611.976L98.1853 612.008H95.9933C96.1693 611.624 96.3293 611.24 96.4733 610.84L95.8013 610.68C95.2733 612.28 94.3293 613.656 93.1613 614.584C93.3213 614.68 93.5933 614.936 93.7053 615.048C94.1693 614.648 94.6013 614.168 95.0173 613.624C95.3053 614.536 95.6733 615.256 96.0893 615.832C95.2093 616.728 94.1053 617.32 92.9213 617.672C93.0653 617.816 93.2413 618.072 93.3053 618.248C94.5053 617.832 95.6253 617.224 96.5373 616.312C97.8173 617.64 99.6093 617.96 101.929 617.96H105.625C105.657 617.752 105.785 617.448 105.913 617.272H101.961Z" fill="white"/>
<rect x="4.48926" y="490" width="50" height="144" rx="12" fill="#835DD0"/>
<path d="M34.7053 511.672C34.4333 513.832 34.0173 515.624 33.3453 517.128C32.7373 515.624 32.3373 513.896 32.0493 511.992C32.0813 511.896 32.1293 511.784 32.1613 511.672H34.7053ZM29.2973 515.608H26.7533V514.344H29.2973V515.608ZM23.6653 514.344H26.0973V515.608H23.6653V514.344ZM27.8413 518.056C27.6973 518.664 27.3133 519.336 26.4493 519.976C25.8093 519.704 25.1373 519.448 24.5133 519.24C24.7533 518.904 24.9933 518.488 25.2493 518.056H27.8413ZM24.0653 512.296V511.048H26.0973V512.296H24.0653ZM26.0973 509.368V510.44H24.0653V509.368H26.0973ZM28.9293 509.368V510.44H26.7533V509.368H28.9293ZM26.7533 512.296V511.048H28.9293V512.296H26.7533ZM36.7373 511.672V510.968H32.3853C32.6893 509.96 32.9453 508.904 33.1693 507.816L32.4653 507.672C31.9533 510.312 31.1533 512.92 30.0013 514.664V513.752H26.7533V512.904H29.6173V511.064H30.5613V510.424H29.6173V508.76H26.7533V507.672H26.0973V508.76H23.4093V510.424H22.3213V511.064H23.4093V512.904H26.0973V513.752H22.9773V516.2H25.4413C25.2653 516.6 25.0413 517.016 24.8333 517.432H22.2413V518.056H24.4653C24.1293 518.616 23.7933 519.144 23.4733 519.56C24.2093 519.784 25.0253 520.056 25.8093 520.376C24.9613 520.824 23.8253 521.256 22.2413 521.608C22.3853 521.736 22.5613 521.992 22.6253 522.152C24.4013 521.736 25.6653 521.24 26.5453 520.696C27.3613 521.064 28.1133 521.448 28.6413 521.768L29.1533 521.256C28.6413 520.952 27.9373 520.6 27.1693 520.264C28.0493 519.544 28.4013 518.776 28.5453 518.056H30.4013V517.432H28.6093C28.6253 517.32 28.6253 517.192 28.6253 517.08V516.664H27.9533V517.08C27.9533 517.192 27.9533 517.304 27.9373 517.432H25.6013C25.8093 517.016 26.0173 516.6 26.2093 516.2H30.0013V514.712C30.1933 514.824 30.4493 515.048 30.5773 515.16C30.9613 514.568 31.2973 513.896 31.6013 513.144C31.9213 514.904 32.3533 516.52 32.9453 517.912C32.0653 519.496 30.8333 520.696 29.0413 521.56C29.2013 521.688 29.4413 522.008 29.5213 522.168C31.1693 521.272 32.4013 520.136 33.3133 518.68C34.0653 520.152 35.0413 521.32 36.3053 522.072C36.4173 521.88 36.6573 521.608 36.8333 521.48C35.5053 520.76 34.4813 519.528 33.7133 517.96C34.5773 516.28 35.0893 514.216 35.4253 511.672H36.7373ZM32.2893 534.152C32.1453 533.48 31.7773 532.44 31.4893 531.624L30.7853 531.832C31.0733 532.648 31.4093 533.704 31.5533 534.376L32.2893 534.152ZM36.0013 534.696H27.4573V535.448H36.0013V534.696ZM30.5293 543.608C30.3533 541.976 29.8413 539.016 29.2813 536.712L28.5773 536.856C29.1213 539.128 29.6013 542.152 29.7613 543.832L30.5293 543.608ZM26.3373 531.736C25.3933 534.248 23.8413 536.712 22.1773 538.328C22.3373 538.472 22.5933 538.856 22.6573 539.016C23.3453 538.344 23.9853 537.528 24.5933 536.632V546.152H25.3613V535.416C26.0173 534.312 26.6093 533.144 27.0733 531.944L26.3373 531.736ZM33.0893 544.76C33.6973 542.568 34.4013 539.192 34.8333 536.696L34.0333 536.536C33.6653 538.984 32.9773 542.568 32.3533 544.76H26.7053V545.496H36.7213V544.76H33.0893ZM26.8333 565.432V559.992C27.2493 559.4 27.6013 558.776 27.9213 558.136L27.2333 557.96C26.4813 559.512 25.2973 561.064 24.0813 562.104C24.2573 562.216 24.5293 562.472 24.6573 562.584C25.1533 562.136 25.6653 561.592 26.1293 560.984V565.432H26.8333ZM24.8653 569.72C25.8413 568.984 26.4653 567.752 26.8653 566.68L26.2413 566.44C25.8573 567.464 25.2013 568.664 24.2733 569.352L24.8653 569.72ZM32.3853 561.064H29.5693V560.024H32.3853V561.064ZM32.3853 562.664H29.5693V561.624H32.3853V562.664ZM32.3853 564.328H29.5693V563.224H32.3853V564.328ZM28.8813 565.416H29.5693V564.936H36.3693V564.328H33.0733V563.224H35.6813V562.664H33.0733V561.624H35.6173V561.064H33.0733V560.024H36.0493V559.416H32.9133L33.2333 559.224C33.0093 558.824 32.5613 558.232 32.1133 557.816L31.5853 558.12C31.9693 558.488 32.3373 559 32.5773 559.416H29.7773C30.0013 558.984 30.2413 558.568 30.4333 558.12L29.7453 557.944C29.1373 559.368 28.1293 560.808 27.0733 561.784C27.2653 561.88 27.5373 562.104 27.6653 562.232C28.0813 561.832 28.4813 561.336 28.8813 560.792V565.416ZM32.6573 567.032C32.0493 566.504 30.8653 565.848 29.9213 565.4L29.4413 565.88C30.4173 566.328 31.5693 567.048 32.1613 567.56L32.6573 567.032ZM29.6653 569.352C28.9133 569.352 28.7853 569.288 28.7853 568.952V566.424H28.0653V568.952C28.0653 569.832 28.4013 570.024 29.6493 570.024H32.5453C33.5693 570.024 33.8253 569.688 33.9053 568.136C33.6973 568.088 33.4093 567.992 33.2333 567.848C33.1853 569.192 33.0733 569.352 32.4813 569.352H29.6653ZM33.5213 566.584C34.4653 567.512 35.5053 568.824 35.9213 569.688L36.5773 569.32C36.1133 568.456 35.0893 567.192 34.1133 566.28L33.5213 566.584ZM30.7693 557C30.5293 556.504 30.0813 555.832 29.6653 555.352L29.0573 555.624C29.3613 556.024 29.7133 556.552 29.9533 557H23.3453V561.864C23.3453 564.2 23.2333 567.416 22.0813 569.72C22.2573 569.8 22.5613 570.04 22.6893 570.184C23.9053 567.752 24.0653 564.296 24.0653 561.864V557.688H36.6573V557H30.7693ZM29.9053 588.408V585.32H34.7533V588.408H29.9053ZM24.7693 588.408C24.8173 587.8 24.8333 587.192 24.8333 586.632V585.32H29.1373V588.408H24.7693ZM29.1373 581.576V584.584H24.8333V581.576H29.1373ZM34.7533 584.584H29.9053V581.576H34.7533V584.584ZM35.5213 580.84H24.0653V586.632C24.0653 588.888 23.8893 591.72 22.1133 593.72C22.2893 593.816 22.5933 594.088 22.7053 594.264C23.9533 592.84 24.4813 590.952 24.7053 589.144H29.1373V594.04H29.9053V589.144H34.7533V592.92C34.7533 593.24 34.6413 593.336 34.3373 593.336C34.0173 593.352 32.9133 593.368 31.6653 593.336C31.7773 593.544 31.9213 593.88 31.9373 594.088C33.5053 594.104 34.3853 594.104 34.8653 593.96C35.3293 593.816 35.5213 593.56 35.5213 592.92V580.84ZM24.3213 607.336H28.9293V608.568L25.3613 608.824L25.4253 609.432L28.9293 609.176V609.752C28.9293 610.632 29.1693 610.92 30.2253 610.92H34.4493C35.0733 610.92 35.6813 610.92 35.9373 610.856C35.9053 610.712 35.8733 610.472 35.8413 610.264C35.5373 610.328 34.8013 610.344 34.3853 610.344H30.2893C29.7453 610.344 29.6653 610.216 29.6653 609.752V609.128L34.0173 608.808L33.9693 608.216L29.6653 608.52V607.336H35.4093C35.1853 607.944 34.8973 608.6 34.6413 609.032L35.2813 609.24C35.6493 608.632 36.0493 607.656 36.4013 606.808L35.8893 606.632L35.7293 606.664H29.6653V605.432H35.3453V604.792H29.6653V603.672H28.9133V606.664H23.5853V610.68C23.5853 612.776 23.4413 615.656 22.2093 617.736C22.3693 617.816 22.6733 618.056 22.8013 618.2C24.1133 616.008 24.3213 612.888 24.3213 610.68V607.336ZM35.4733 616.2C35.9533 616.2 36.1613 615.96 36.1933 614.984C36.0173 614.936 35.8093 614.872 35.6813 614.76C35.6333 615.592 35.5693 615.752 35.3773 615.752H34.5773C34.3373 615.752 34.2893 615.704 34.2893 615.4V611.96H30.8973V613.32C30.8973 614.184 30.6893 615.24 29.5853 616.04C29.7293 616.152 29.9693 616.392 30.0653 616.552C31.2973 615.608 31.5693 614.36 31.5693 613.352V612.616H33.6333V615.384C33.6333 616.04 33.8253 616.2 34.4973 616.2H35.4733ZM28.9293 612.648C28.6093 613.736 28.1453 614.616 27.5373 615.352C27.0733 614.76 26.7053 613.992 26.4173 613.032C26.4973 612.904 26.5773 612.776 26.6573 612.648H28.9293ZM32.9613 617.272C30.8973 617.272 29.2013 617 27.9693 615.848C28.7693 614.888 29.3773 613.672 29.7293 612.12L29.3133 611.976L29.1853 612.008H26.9933C27.1693 611.624 27.3293 611.24 27.4733 610.84L26.8013 610.68C26.2733 612.28 25.3293 613.656 24.1613 614.584C24.3213 614.68 24.5933 614.936 24.7053 615.048C25.1693 614.648 25.6013 614.168 26.0173 613.624C26.3053 614.536 26.6733 615.256 27.0893 615.832C26.2093 616.728 25.1053 617.32 23.9213 617.672C24.0653 617.816 24.2413 618.072 24.3053 618.248C25.5053 617.832 26.6253 617.224 27.5373 616.312C28.8173 617.64 30.6093 617.96 32.9293 617.96H36.6253C36.6573 617.752 36.7853 617.448 36.9133 617.272H32.9613Z" fill="white"/>
<path d="M143.489 96H193.489V180C193.489 186.627 188.117 192 181.489 192H155.489C148.862 192 143.489 186.627 143.489 180V96Z" fill="#00B2A1"/>
<path d="M164.953 116.712H165.705V115.544H168.057V114.872H165.705V113.672H164.953V114.872H161.545V115.544H164.953V116.712ZM163.897 123.608V122.424H168.073V123.608H163.897ZM163.897 120.696H168.073V121.864H163.897V120.696ZM173.097 120.696V121.864H168.825V120.696H173.097ZM173.097 123.608H168.825V122.424H173.097V123.608ZM168.825 125.816H174.473V125.208H168.825V124.184H173.849V120.12H168.825V119.208H175.497V118.568H168.825V117.464C170.793 117.336 172.617 117.192 174.041 116.984L173.465 116.456C171.001 116.808 166.393 117.048 162.601 117.112C162.665 117.272 162.761 117.512 162.761 117.672C164.457 117.656 166.297 117.608 168.073 117.512V118.568H161.513V119.208H168.073V120.12H163.161V124.184H168.073V125.208H162.585V125.816H168.073V127.016H161.433V127.656H175.545V127.016H168.825V125.816ZM172.025 114.872V113.688H171.273V114.872H168.841V115.544H171.273V116.312H172.025V115.544H175.561V114.872H172.025ZM173.241 149.032H168.825V147.56H173.241V149.032ZM168.825 145.512H173.241V146.888H168.825V145.512ZM164.089 142.888V141.512H168.057V142.888H164.089ZM173.001 141.512V142.888H168.825V141.512H173.001ZM175.657 146.888H173.993V144.872H168.825V143.496H173.769V140.888H168.825V139.768H175.385V139.096H168.825V137.688H168.057V139.096H161.657V139.768H168.057V140.888H163.337V143.496H168.057V144.872H162.857V145.512H168.057V146.888H161.385V147.56H168.057V149.032H162.697V149.672H168.057V151.112C168.057 151.416 167.961 151.496 167.657 151.512C167.401 151.528 166.409 151.544 165.337 151.512C165.449 151.72 165.577 152.024 165.625 152.216C166.953 152.216 167.769 152.216 168.217 152.088C168.633 151.96 168.825 151.736 168.825 151.096V149.672H173.241V150.408H173.993V147.56H175.657V146.888ZM167.657 170.12C169.049 173.192 171.769 175.208 175.481 175.992C175.593 175.8 175.785 175.496 175.961 175.32C173.961 174.952 172.249 174.232 170.905 173.16C172.153 172.552 173.625 171.672 174.729 170.872L174.089 170.456C173.177 171.176 171.625 172.088 170.393 172.744C169.561 172.008 168.905 171.128 168.425 170.12H175.577V169.4H165.081V167.72H173.545V167.048H165.081V165.4H173.545V164.744H165.081V163.048H174.089V162.36H164.313V169.4H161.417V170.12H164.201V174.312C164.201 174.936 163.689 175.256 163.417 175.4C163.577 175.592 163.753 175.96 163.801 176.152L163.881 176.088C164.233 175.896 165.065 175.672 169.785 174.376C169.769 174.216 169.769 173.912 169.769 173.704L164.953 174.936V170.12H167.657Z" fill="white"/>
<path d="M143.489 12C143.489 5.37258 148.862 0 155.489 0H181.489C188.117 0 193.489 5.37258 193.489 12V96H143.489V12Z" fill="black"/>
<path d="M164.953 20.712H165.705V19.544H168.057V18.872H165.705V17.672H164.953V18.872H161.545V19.544H164.953V20.712ZM163.897 27.608V26.424H168.073V27.608H163.897ZM163.897 24.696H168.073V25.864H163.897V24.696ZM173.097 24.696V25.864H168.825V24.696H173.097ZM173.097 27.608H168.825V26.424H173.097V27.608ZM168.825 29.816H174.473V29.208H168.825V28.184H173.849V24.12H168.825V23.208H175.497V22.568H168.825V21.464C170.793 21.336 172.617 21.192 174.041 20.984L173.465 20.456C171.001 20.808 166.393 21.048 162.601 21.112C162.665 21.272 162.761 21.512 162.761 21.672C164.457 21.656 166.297 21.608 168.073 21.512V22.568H161.513V23.208H168.073V24.12H163.161V28.184H168.073V29.208H162.585V29.816H168.073V31.016H161.433V31.656H175.545V31.016H168.825V29.816ZM172.025 18.872V17.688H171.273V18.872H168.841V19.544H171.273V20.312H172.025V19.544H175.561V18.872H172.025ZM173.241 53.032H168.825V51.56H173.241V53.032ZM168.825 49.512H173.241V50.888H168.825V49.512ZM164.089 46.888V45.512H168.057V46.888H164.089ZM173.001 45.512V46.888H168.825V45.512H173.001ZM175.657 50.888H173.993V48.872H168.825V47.496H173.769V44.888H168.825V43.768H175.385V43.096H168.825V41.688H168.057V43.096H161.657V43.768H168.057V44.888H163.337V47.496H168.057V48.872H162.857V49.512H168.057V50.888H161.385V51.56H168.057V53.032H162.697V53.672H168.057V55.112C168.057 55.416 167.961 55.496 167.657 55.512C167.401 55.528 166.409 55.544 165.337 55.512C165.449 55.72 165.577 56.024 165.625 56.216C166.953 56.216 167.769 56.216 168.217 56.088C168.633 55.96 168.825 55.736 168.825 55.096V53.672H173.241V54.408H173.993V51.56H175.657V50.888ZM172.201 75.608V76.952H164.953V75.608H172.201ZM164.953 78.92V77.576H172.201V78.92H164.953ZM164.201 80.152H164.953V79.544H172.201V80.088H172.985V74.984H164.201V80.152ZM170.665 73.32C171.017 72.824 171.465 72.072 171.833 71.384L171.161 71.096C170.905 71.656 170.441 72.536 170.105 73.08L170.665 73.32ZM165.129 71.4C165.593 71.976 166.073 72.776 166.233 73.304L166.857 73.032C166.681 72.488 166.201 71.736 165.721 71.16L165.129 71.4ZM163.929 70.856H168.121V73.48H163.929V70.856ZM173.033 73.48H168.809V70.856H173.033V73.48ZM163.225 74.088H173.753V70.248H163.225V74.088ZM165.993 68.648C166.937 68.088 167.801 67.448 168.521 66.696C169.225 67.416 170.153 68.072 171.145 68.648H165.993ZM168.505 65.672C166.985 67.656 164.121 69.112 161.241 69.944C161.385 70.088 161.641 70.408 161.737 70.552C163.113 70.104 164.505 69.512 165.769 68.776V69.272H171.305V68.744C172.601 69.48 174.041 70.072 175.353 70.44C175.465 70.248 175.657 69.976 175.849 69.832C173.369 69.208 170.489 67.8 168.953 66.216C169.033 66.12 169.113 66.008 169.193 65.912L168.505 65.672Z" fill="white"/>
<rect x="44.4893" y="154" width="50" height="144" rx="12" fill="#00B2A1"/>
<path d="M65.9533 174.712H66.7053V173.544H69.0573V172.872H66.7053V171.672H65.9533V172.872H62.5453V173.544H65.9533V174.712ZM64.8973 181.608V180.424H69.0733V181.608H64.8973ZM64.8973 178.696H69.0733V179.864H64.8973V178.696ZM74.0973 178.696V179.864H69.8253V178.696H74.0973ZM74.0973 181.608H69.8253V180.424H74.0973V181.608ZM69.8253 183.816H75.4733V183.208H69.8253V182.184H74.8493V178.12H69.8253V177.208H76.4973V176.568H69.8253V175.464C71.7933 175.336 73.6173 175.192 75.0413 174.984L74.4653 174.456C72.0013 174.808 67.3933 175.048 63.6013 175.112C63.6653 175.272 63.7613 175.512 63.7613 175.672C65.4573 175.656 67.2973 175.608 69.0733 175.512V176.568H62.5133V177.208H69.0733V178.12H64.1613V182.184H69.0733V183.208H63.5853V183.816H69.0733V185.016H62.4333V185.656H76.5453V185.016H69.8253V183.816ZM73.0253 172.872V171.688H72.2733V172.872H69.8413V173.544H72.2733V174.312H73.0253V173.544H76.5613V172.872H73.0253ZM74.2413 207.032H69.8253V205.56H74.2413V207.032ZM69.8253 203.512H74.2413V204.888H69.8253V203.512ZM65.0893 200.888V199.512H69.0573V200.888H65.0893ZM74.0013 199.512V200.888H69.8253V199.512H74.0013ZM76.6573 204.888H74.9933V202.872H69.8253V201.496H74.7693V198.888H69.8253V197.768H76.3853V197.096H69.8253V195.688H69.0573V197.096H62.6573V197.768H69.0573V198.888H64.3373V201.496H69.0573V202.872H63.8573V203.512H69.0573V204.888H62.3853V205.56H69.0573V207.032H63.6973V207.672H69.0573V209.112C69.0573 209.416 68.9613 209.496 68.6573 209.512C68.4013 209.528 67.4093 209.544 66.3373 209.512C66.4493 209.72 66.5773 210.024 66.6253 210.216C67.9533 210.216 68.7693 210.216 69.2173 210.088C69.6333 209.96 69.8253 209.736 69.8253 209.096V207.672H74.2413V208.408H74.9933V205.56H76.6573V204.888ZM73.2013 229.608V230.952H65.9533V229.608H73.2013ZM65.9533 232.92V231.576H73.2013V232.92H65.9533ZM65.2013 234.152H65.9533V233.544H73.2013V234.088H73.9853V228.984H65.2013V234.152ZM71.6653 227.32C72.0173 226.824 72.4653 226.072 72.8333 225.384L72.1613 225.096C71.9053 225.656 71.4413 226.536 71.1053 227.08L71.6653 227.32ZM66.1293 225.4C66.5933 225.976 67.0733 226.776 67.2333 227.304L67.8573 227.032C67.6813 226.488 67.2013 225.736 66.7213 225.16L66.1293 225.4ZM64.9293 224.856H69.1213V227.48H64.9293V224.856ZM74.0333 227.48H69.8093V224.856H74.0333V227.48ZM64.2253 228.088H74.7533V224.248H64.2253V228.088ZM66.9933 222.648C67.9373 222.088 68.8013 221.448 69.5213 220.696C70.2253 221.416 71.1533 222.072 72.1453 222.648H66.9933ZM69.5053 219.672C67.9853 221.656 65.1213 223.112 62.2413 223.944C62.3853 224.088 62.6413 224.408 62.7373 224.552C64.1133 224.104 65.5053 223.512 66.7693 222.776V223.272H72.3053V222.744C73.6013 223.48 75.0413 224.072 76.3533 224.44C76.4653 224.248 76.6573 223.976 76.8493 223.832C74.3693 223.208 71.4893 221.8 69.9533 220.216C70.0333 220.12 70.1133 220.008 70.1933 219.912L69.5053 219.672ZM73.4893 246.04C72.8173 245.336 71.4413 244.344 70.3213 243.688L69.8573 244.184C70.9933 244.856 72.3533 245.896 73.0093 246.616L73.4893 246.04ZM67.4253 252.232C67.1533 251.768 65.9693 249.944 65.5693 249.416V249.016H67.5213V248.28H65.5693V245.128C66.2893 244.936 66.9613 244.712 67.4893 244.456L66.9293 243.832C65.9693 244.312 64.2413 244.776 62.7693 245.064C62.8653 245.256 62.9613 245.528 63.0093 245.688C63.6013 245.576 64.2253 245.464 64.8333 245.32V248.28H62.4813V249.016H64.7373C64.1933 251 63.1053 253.288 62.1453 254.504C62.3053 254.68 62.5453 255.016 62.6413 255.224C63.4093 254.2 64.2253 252.44 64.8333 250.712V258.2H65.5693V250.456C66.0333 251.272 66.6413 252.376 66.8653 252.872L67.4253 252.232ZM68.4173 249.016C68.2253 250.6 67.8253 252.696 67.0893 253.912L67.7133 254.184C68.4333 252.92 68.8333 250.776 69.0253 249.16L68.4173 249.016ZM71.6653 257.384C71.0253 257.384 70.8973 257.256 70.8973 256.648V254.888C73.0093 252.184 74.5293 248.792 75.6653 244.808L74.9293 244.664C73.9853 248.104 72.6893 251.16 70.8973 253.64V246.952H70.1613V254.6C69.2813 255.672 68.2893 256.616 67.1853 257.416C67.3773 257.544 67.6813 257.8 67.8253 257.944C68.6733 257.288 69.4413 256.568 70.1613 255.768V256.616C70.1613 257.768 70.4653 258.056 71.6173 258.056H73.9213C75.0093 258.056 75.2173 257.432 75.3133 255.208C75.1053 255.16 74.8173 255.032 74.6413 254.888C74.5773 256.952 74.4813 257.384 73.8893 257.384H71.6653ZM74.4013 249.368C75.1693 250.888 75.8413 252.888 76.0333 254.232L76.7533 254.024C76.5293 252.712 75.8573 250.696 75.0733 249.176L74.4013 249.368ZM73.8093 277.992V279.176H65.2813V277.992H73.8093ZM65.2813 281.032V279.768H73.8093V281.032H65.2813ZM64.5293 282.2H65.2813V281.64H73.8093V282.168H74.5773V277.368H64.5293V282.2ZM69.8253 271.224H73.7453V272.376H69.8253V271.224ZM69.8253 269.464H73.7453V270.584H69.8253V269.464ZM69.8253 275.816V274.68H75.5213V274.072H69.8253V272.984H74.4973V271.224H76.5133V270.584H74.4973V268.856H69.8253V267.656H69.0573V268.856H64.2093V269.464H69.0573V270.584H62.4813V271.224H69.0573V272.376H64.0173V272.984H69.0573V274.072H63.5213V274.68H69.0573V275.816H62.4653V276.472H76.5453V275.816H69.8253Z" fill="white"/>
<rect x="238.489" y="24" width="50" height="144" rx="12" fill="#00B2A1"/>
<path d="M259.953 44.712H260.705V43.544H263.057V42.872H260.705V41.672H259.953V42.872H256.545V43.544H259.953V44.712ZM258.897 51.608V50.424H263.073V51.608H258.897ZM258.897 48.696H263.073V49.864H258.897V48.696ZM268.097 48.696V49.864H263.825V48.696H268.097ZM268.097 51.608H263.825V50.424H268.097V51.608ZM263.825 53.816H269.473V53.208H263.825V52.184H268.849V48.12H263.825V47.208H270.497V46.568H263.825V45.464C265.793 45.336 267.617 45.192 269.041 44.984L268.465 44.456C266.001 44.808 261.393 45.048 257.601 45.112C257.665 45.272 257.761 45.512 257.761 45.672C259.457 45.656 261.297 45.608 263.073 45.512V46.568H256.513V47.208H263.073V48.12H258.161V52.184H263.073V53.208H257.585V53.816H263.073V55.016H256.433V55.656H270.545V55.016H263.825V53.816ZM267.025 42.872V41.688H266.273V42.872H263.841V43.544H266.273V44.312H267.025V43.544H270.561V42.872H267.025ZM268.241 77.032H263.825V75.56H268.241V77.032ZM263.825 73.512H268.241V74.888H263.825V73.512ZM259.089 70.888V69.512H263.057V70.888H259.089ZM268.001 69.512V70.888H263.825V69.512H268.001ZM270.657 74.888H268.993V72.872H263.825V71.496H268.769V68.888H263.825V67.768H270.385V67.096H263.825V65.688H263.057V67.096H256.657V67.768H263.057V68.888H258.337V71.496H263.057V72.872H257.857V73.512H263.057V74.888H256.385V75.56H263.057V77.032H257.697V77.672H263.057V79.112C263.057 79.416 262.961 79.496 262.657 79.512C262.401 79.528 261.409 79.544 260.337 79.512C260.449 79.72 260.577 80.024 260.625 80.216C261.953 80.216 262.769 80.216 263.217 80.088C263.633 79.96 263.825 79.736 263.825 79.096V77.672H268.241V78.408H268.993V75.56H270.657V74.888ZM267.201 99.608V100.952H259.953V99.608H267.201ZM259.953 102.92V101.576H267.201V102.92H259.953ZM259.201 104.152H259.953V103.544H267.201V104.088H267.985V98.984H259.201V104.152ZM265.665 97.32C266.017 96.824 266.465 96.072 266.833 95.384L266.161 95.096C265.905 95.656 265.441 96.536 265.105 97.08L265.665 97.32ZM260.129 95.4C260.593 95.976 261.073 96.776 261.233 97.304L261.857 97.032C261.681 96.488 261.201 95.736 260.721 95.16L260.129 95.4ZM258.929 94.856H263.121V97.48H258.929V94.856ZM268.033 97.48H263.809V94.856H268.033V97.48ZM258.225 98.088H268.753V94.248H258.225V98.088ZM260.993 92.648C261.937 92.088 262.801 91.448 263.521 90.696C264.225 91.416 265.153 92.072 266.145 92.648H260.993ZM263.505 89.672C261.985 91.656 259.121 93.112 256.241 93.944C256.385 94.088 256.641 94.408 256.737 94.552C258.113 94.104 259.505 93.512 260.769 92.776V93.272H266.305V92.744C267.601 93.48 269.041 94.072 270.353 94.44C270.465 94.248 270.657 93.976 270.849 93.832C268.369 93.208 265.489 91.8 263.953 90.216C264.033 90.12 264.113 90.008 264.193 89.912L263.505 89.672ZM269.585 114.92C269.121 114.552 268.193 114.024 267.457 113.704L267.025 114.136C267.745 114.456 268.641 115.016 269.137 115.4L269.585 114.92ZM259.585 119.016H261.521V118.28H259.585V115.112C260.257 114.92 260.897 114.712 261.409 114.488L260.849 113.832C259.857 114.344 258.001 114.792 256.465 115.096C256.561 115.288 256.673 115.544 256.737 115.736C257.409 115.624 258.129 115.48 258.833 115.304V118.28H256.337V119.016H258.721C258.145 121.016 257.009 123.304 256.033 124.504C256.177 124.664 256.385 125 256.497 125.208C257.313 124.152 258.193 122.376 258.833 120.632V128.2H259.585V121.208C260.129 121.88 260.849 122.856 261.121 123.32L261.601 122.616C261.329 122.248 260.097 120.872 259.585 120.36V119.016ZM265.985 116.328V117.672C265.985 118.488 266.257 118.648 267.297 118.648H269.457C270.225 118.648 270.449 118.36 270.513 117.272C270.321 117.208 270.049 117.128 269.889 117C269.841 117.912 269.777 118.024 269.345 118.024H267.313C266.769 118.024 266.673 117.96 266.673 117.672V116.328H270.433V115.688H265.697C265.793 115.336 265.825 114.984 265.825 114.648V113.688H265.121V114.648C265.121 114.984 265.089 115.32 264.961 115.688H261.681V116.328H264.673C264.209 117.064 263.329 117.816 261.665 118.424C261.793 118.552 261.985 118.808 262.081 118.968C264.049 118.232 265.025 117.288 265.489 116.328H265.985ZM269.041 123.688V125.016H263.297V123.688H269.041ZM263.297 126.872V125.608H269.041V126.872H263.297ZM262.577 128.136H263.297V127.464H269.041V128.088H269.777V123.08H262.577V128.136ZM264.049 121.56C263.505 121.56 263.393 121.432 263.393 120.984V120.44H269.889V119.816H263.393V118.872H262.689V120.968C262.689 121.848 262.961 122.136 264.017 122.136H268.689C269.361 122.136 270.017 122.136 270.257 122.072C270.241 121.928 270.209 121.704 270.177 121.496C269.857 121.56 269.073 121.56 268.625 121.56H264.049ZM268.081 142.376C267.809 142.904 267.473 143.448 267.057 143.944L263.985 144.136C264.625 143.208 265.537 141.704 266.129 140.76H270.721V140.024H266.721L267.169 139.848C267.025 139.256 266.609 138.328 266.177 137.656L265.473 137.88C265.857 138.536 266.241 139.416 266.385 140.024H261.969V140.76H265.265C264.689 141.688 263.601 143.496 263.265 143.864C263.025 144.136 262.641 144.216 262.369 144.28C262.449 144.456 262.593 144.856 262.641 145.048C262.897 144.952 263.313 144.888 266.449 144.664C265.249 145.992 263.665 147.192 262.001 148.024C262.161 148.184 262.369 148.44 262.465 148.6C265.137 147.24 267.505 145 268.817 142.648L268.081 142.376ZM261.473 145.08C261.185 144.632 260.001 142.792 259.585 142.232V141.544H261.505V140.808H259.585V137.672H258.849V140.808H256.593V141.544H258.753C258.257 143.896 257.169 146.6 256.145 147.992C256.321 148.168 256.529 148.472 256.625 148.68C257.457 147.512 258.273 145.512 258.849 143.528V152.136H259.585V143.224C260.065 144.04 260.721 145.176 260.961 145.688L261.473 145.08ZM269.393 145.112C267.969 147.896 264.881 150.264 261.201 151.56C261.361 151.72 261.569 152.008 261.665 152.168C263.713 151.432 265.521 150.408 267.041 149.128C268.193 150.04 269.489 151.24 270.161 151.992L270.737 151.432C270.065 150.68 268.721 149.56 267.585 148.648C268.625 147.672 269.505 146.584 270.161 145.4L269.393 145.112Z" fill="white"/>
</svg>
