<svg width="920" height="420" viewBox="0 0 920 420" fill="none" xmlns="http://www.w3.org/2000/svg">
<line x1="460.5" y1="120" x2="460.5" y2="360" stroke="black"/>
<line x1="380" y1="30.5" x2="255" y2="30.5" stroke="black"/>
<line x1="665" y1="60.5" x2="540" y2="60.5" stroke="black"/>
<path d="M175 100V90H380" stroke="black"/>
<path d="M79 360V340H841V360" stroke="black"/>
<line x1="270.5" y1="339" x2="270.5" y2="360" stroke="black"/>
<line x1="650.5" y1="339" x2="650.5" y2="360" stroke="black"/>
<rect x="95" width="160" height="60" rx="12" fill="#00B2A1"/>
<path d="M162.78 26.72V25.14H157.28C157.58 24.32 157.84 23.46 158.04 22.6L156.42 22.28C155.92 24.56 155.02 26.76 153.76 28.2C154.16 28.44 154.84 28.92 155.14 29.2C155.68 28.52 156.18 27.66 156.62 26.72H162.78ZM162.3 31.66V30.08H155.56V31.66H162.3ZM147.28 29.6H149.34V30.98H147.28V29.6ZM149.34 24.38V25.64H147.28V24.38H149.34ZM152.14 28.36H147.28V26.88H152.14V28.36ZM154.26 30.98H150.86V29.6H153.68V25.64H150.86V24.38H154.1V22.94H145.58V32.44H154.26V30.98ZM148.88 35.14H151.12V38.38H148.88V35.14ZM155.1 35.14V38.38H152.84V35.14H155.1ZM159.1 35.14V38.38H156.8V35.14H159.1ZM160.94 38.38V33.66H147.14V38.38H144.98V40.02H163.04V38.38H160.94ZM171.06 36.06C170.06 37.1 168.28 38.04 166.6 38.64C166.98 38.94 167.6 39.64 167.86 40C169.6 39.22 171.56 38 172.74 36.66L171.06 36.06ZM177.32 37.16C178.96 37.98 181.08 39.24 182.12 40.1L183.4 38.76C182.26 37.92 180.12 36.74 178.5 35.98L177.32 37.16ZM168.66 34.12C169.76 33.58 170.82 32.88 171.76 32.06L171.74 32.86H178.48V32.16C179.38 32.94 180.42 33.62 181.56 34.12H168.66ZM170.38 28.08H173.02C172.66 28.76 172.2 29.4 171.66 30.02C171.28 29.44 170.72 28.78 170.22 28.26L170.38 28.08ZM180.4 27.9C179.92 28.7 179.3 29.52 178.64 30.18C177.98 29.48 177.44 28.72 176.98 27.9H180.4ZM182.28 26.76H183.58V23.78H176.26C176.04 23.26 175.72 22.62 175.42 22.12L173.6 22.52C173.8 22.9 174.02 23.34 174.18 23.78H166.4V26.98H168.18V25.32H181.72V26.38L181.68 26.36L181.36 26.46H176.3V27.64L175.36 27.92C175.94 29.18 176.7 30.32 177.62 31.32H172.52C173.6 30.22 174.48 28.88 175.06 27.32L174.04 26.8L173.76 26.88H171.46C171.7 26.58 171.9 26.28 172.08 25.96L170.44 25.66C169.68 26.94 168.16 28.34 165.88 29.3C166.22 29.52 166.7 30.08 166.9 30.44C167.82 30.02 168.6 29.54 169.28 29.04C169.82 29.64 170.36 30.36 170.72 30.94C169.3 32.16 167.58 33.06 165.82 33.6C166.14 33.9 166.56 34.52 166.74 34.92C167.26 34.74 167.8 34.54 168.32 34.28V35.7H174.06V40.56H175.94V35.7H181.78V34.22C182.18 34.4 182.58 34.52 183 34.66C183.24 34.2 183.72 33.56 184.1 33.2C182.46 32.78 181 32.06 179.76 31.12C180.88 30.06 182.04 28.5 182.76 27.06L182.28 26.76ZM169.62 30.36C168.26 30.64 167 30.88 166.02 31.04L166.36 32.26C167.42 32.02 168.52 31.74 169.72 31.42L169.62 30.36ZM194.84 22.28C194.78 25.48 195 34.8 186.82 39.04C187.44 39.44 188.04 40.04 188.36 40.52C192.88 38.02 195 33.98 196 30.22C197.06 33.8 199.24 38.2 203.94 40.42C204.2 39.92 204.76 39.26 205.3 38.84C198.32 35.74 197.1 27.76 196.82 25.26C196.92 24.08 196.94 23.04 196.96 22.28H194.84Z" fill="white"/>
<rect x="380" y="160" width="160" height="60" rx="12" fill="#00B2A1"/>
<path d="M438.8 196.72V195.14H435.38V193.38H438.26V191.8H436.72C437.02 191.08 437.34 190.2 437.68 189.38L436.1 188.98C435.9 189.8 435.54 191 435.2 191.8H432.42L433.58 191.36C433.44 190.7 433.02 189.68 432.56 188.92H438.68V187.34H435.32V185.72H438.1V184.16H435.32V182.22H433.6V184.16H430.7V185.72H433.6V187.34H430.02V188.92H432.36L431.2 189.34C431.62 190.08 432 191.1 432.14 191.8H430.6V193.38H433.66V195.14H430V196.72H433.66V200.52H435.38V196.72H438.8ZM442.74 186.08V182.26H441.02V186.08H438.9V187.82H441.02V188.32C441.02 189.32 441 190.36 440.88 191.44C440.38 191.06 439.84 190.66 439.36 190.32L438.32 191.6C439.04 192.14 439.84 192.76 440.58 193.4C440.12 195.58 439.2 197.76 437.34 199.48C437.76 199.74 438.46 200.28 438.76 200.62C440.52 198.96 441.5 196.9 442.06 194.76C442.62 195.36 443.12 195.9 443.46 196.38L444.6 194.94C444.1 194.28 443.34 193.52 442.46 192.74C442.68 191.24 442.74 189.7 442.74 188.32V187.82H444.54C444.52 194.16 444.52 199.72 446.44 200.36C447.54 200.8 448.32 200.06 448.46 196.98C448.18 196.78 447.7 196.16 447.4 195.74C447.34 197.24 447.24 198.62 447.1 198.58C446.16 198.34 446.2 192.1 446.32 186.08H442.74ZM468.5 183.38H458.8V185.16H468.5V183.38ZM455.28 182.2C454.3 183.64 452.38 185.42 450.72 186.5C451.06 186.86 451.56 187.58 451.78 188C453.62 186.7 455.7 184.72 457.06 182.94L455.28 182.2ZM456.06 186.48C454.72 188.74 452.56 191.02 450.52 192.48C450.9 192.84 451.56 193.66 451.8 194.06C452.44 193.54 453.12 192.92 453.78 192.26V200.62H455.64V190.2C456.46 189.2 457.2 188.16 457.82 187.14L456.06 186.48ZM469.06 188.84H457.96V190.62H464.28V198.3C464.28 198.58 464.16 198.68 463.78 198.68C463.42 198.7 462.08 198.7 460.8 198.66C461.06 199.2 461.32 199.98 461.4 200.52C463.26 200.52 464.44 200.5 465.18 200.22C465.94 199.92 466.18 199.38 466.18 198.32V190.62H469.06V188.84ZM487.62 193.38C486.68 194.16 485.22 195.1 483.92 195.84C483.14 195.12 482.52 194.3 482 193.38H487.62ZM487.66 193.38H489.9V191.74H477.42V190.3H487.32V188.84H477.42V187.44H487.32V185.96H477.42V184.52H487.9V182.98H475.54V191.74H472.1V193.38H475.2V197.32C475.2 198.12 474.64 198.58 474.22 198.76C474.54 199.22 474.9 200.16 475.02 200.64L475.16 200.52C475.66 200.28 476.76 200.02 481.84 198.76C481.84 198.38 481.9 197.62 481.98 197.14L477.04 198.22V193.38H480.06C481.76 197.1 484.68 199.48 489.2 200.48C489.42 199.98 489.96 199.22 490.36 198.8C488.32 198.44 486.58 197.78 485.18 196.82C486.48 196.16 487.96 195.26 489.14 194.4L487.66 193.38Z" fill="white"/>
<rect x="380" y="260" width="160" height="60" rx="12" fill="#00B2A1"/>
<path d="M424.38 293.44V295.02H421.84V293.44H424.38ZM428.62 295.02H426.04V293.44H428.62V295.02ZM426.04 298.12V296.42H428.62V298.12H426.04ZM421.84 298.12V296.42H424.38V298.12H421.84ZM420.14 300.52H421.84V299.58H428.62V300.34H430.38V291.98H420.14V300.52ZM427.84 289.28H422.5V287.38H427.84V289.28ZM420.82 285.92V290.72H429.6V285.92H420.82ZM419.66 284.7H430.62V283.12H419.66V284.7ZM433.36 284.62H431.72V295.68H433.36V284.62ZM435.14 282.62V298.26C435.14 298.62 435 298.72 434.66 298.74C434.3 298.74 433.16 298.76 431.96 298.7C432.22 299.22 432.5 300.08 432.58 300.58C434.26 300.6 435.34 300.54 436.02 300.22C436.68 299.92 436.94 299.38 436.94 298.26V282.62H435.14ZM449.3 296.72V295.14H445.88V293.38H448.76V291.8H447.22C447.52 291.08 447.84 290.2 448.18 289.38L446.6 288.98C446.4 289.8 446.04 291 445.7 291.8H442.92L444.08 291.36C443.94 290.7 443.52 289.68 443.06 288.92H449.18V287.34H445.82V285.72H448.6V284.16H445.82V282.22H444.1V284.16H441.2V285.72H444.1V287.34H440.52V288.92H442.86L441.7 289.34C442.12 290.08 442.5 291.1 442.64 291.8H441.1V293.38H444.16V295.14H440.5V296.72H444.16V300.52H445.88V296.72H449.3ZM453.24 286.08V282.26H451.52V286.08H449.4V287.82H451.52V288.32C451.52 289.32 451.5 290.36 451.38 291.44C450.88 291.06 450.34 290.66 449.86 290.32L448.82 291.6C449.54 292.14 450.34 292.76 451.08 293.4C450.62 295.58 449.7 297.76 447.84 299.48C448.26 299.74 448.96 300.28 449.26 300.62C451.02 298.96 452 296.9 452.56 294.76C453.12 295.36 453.62 295.9 453.96 296.38L455.1 294.94C454.6 294.28 453.84 293.52 452.96 292.74C453.18 291.24 453.24 289.7 453.24 288.32V287.82H455.04C455.02 294.16 455.02 299.72 456.94 300.36C458.04 300.8 458.82 300.06 458.96 296.98C458.68 296.78 458.2 296.16 457.9 295.74C457.84 297.24 457.74 298.62 457.6 298.58C456.66 298.34 456.7 292.1 456.82 286.08H453.24ZM479 283.38H469.3V285.16H479V283.38ZM465.78 282.2C464.8 283.64 462.88 285.42 461.22 286.5C461.56 286.86 462.06 287.58 462.28 288C464.12 286.7 466.2 284.72 467.56 282.94L465.78 282.2ZM466.56 286.48C465.22 288.74 463.06 291.02 461.02 292.48C461.4 292.84 462.06 293.66 462.3 294.06C462.94 293.54 463.62 292.92 464.28 292.26V300.62H466.14V290.2C466.96 289.2 467.7 288.16 468.32 287.14L466.56 286.48ZM479.56 288.84H468.46V290.62H474.78V298.3C474.78 298.58 474.66 298.68 474.28 298.68C473.92 298.7 472.58 298.7 471.3 298.66C471.56 299.2 471.82 299.98 471.9 300.52C473.76 300.52 474.94 300.5 475.68 300.22C476.44 299.92 476.68 299.38 476.68 298.32V290.62H479.56V288.84ZM498.12 293.38C497.18 294.16 495.72 295.1 494.42 295.84C493.64 295.12 493.02 294.3 492.5 293.38H498.12ZM498.16 293.38H500.4V291.74H487.92V290.3H497.82V288.84H487.92V287.44H497.82V285.96H487.92V284.52H498.4V282.98H486.04V291.74H482.6V293.38H485.7V297.32C485.7 298.12 485.14 298.58 484.72 298.76C485.04 299.22 485.4 300.16 485.52 300.64L485.66 300.52C486.16 300.28 487.26 300.02 492.34 298.76C492.34 298.38 492.4 297.62 492.48 297.14L487.54 298.22V293.38H490.56C492.26 297.1 495.18 299.48 499.7 300.48C499.92 299.98 500.46 299.22 500.86 298.8C498.82 298.44 497.08 297.78 495.68 296.82C496.98 296.16 498.46 295.26 499.64 294.4L498.16 293.38Z" fill="white"/>
<rect x="380" y="360" width="160" height="60" rx="12" fill="#835DD0"/>
<path d="M415.32 390.84L413.28 391.38V387.86H415.38V386.14H413.28V382.24H411.46V386.14H409V387.86H411.46V391.88C410.46 392.12 409.54 392.34 408.78 392.52L409.26 394.3C409.96 394.12 410.68 393.92 411.46 393.7V398.44C411.46 398.72 411.34 398.82 411.06 398.82C410.82 398.84 409.98 398.84 409.1 398.82C409.34 399.28 409.58 400.06 409.66 400.5C411.02 400.52 411.92 400.46 412.5 400.18C413.08 399.9 413.28 399.4 413.28 398.44V393.18C414.04 392.96 414.8 392.74 415.56 392.52L415.32 390.84ZM423.98 391.36C423.32 392.96 422.3 394.34 421.06 395.48C419.92 394.3 419.02 392.94 418.38 391.36H423.98ZM425.14 389.6L424.82 389.66H421.98V386.92H426.6V385.22H421.98V382.22H420.14V385.22H415.66V386.92H420.14V389.66H416.02V391.36H416.82L416.56 391.44C417.32 393.44 418.36 395.16 419.66 396.6C418.14 397.66 416.38 398.42 414.52 398.88C414.86 399.28 415.32 400.08 415.52 400.56C417.52 399.98 419.38 399.1 421 397.9C422.44 399.1 424.16 400.02 426.16 400.6C426.42 400.12 426.94 399.38 427.36 399.02C425.46 398.52 423.82 397.74 422.44 396.7C424.2 395.02 425.54 392.84 426.34 390.08L425.14 389.6ZM447.88 383.78H443.16V385.42H447.88V383.78ZM442.98 385.8C442.64 385.1 441.92 384.04 441.24 383.28L440.08 383.9C440.74 384.7 441.44 385.82 441.76 386.52L442.98 385.8ZM433.18 382.24C432.48 383.56 431.1 385.18 429.8 386.18C430.12 386.52 430.56 387.18 430.8 387.56C432.28 386.38 433.86 384.52 434.88 382.84L433.18 382.24ZM435.7 389.88C435.68 393.28 435.54 395.38 434.34 396.68C434.68 396.92 435.12 397.46 435.28 397.78C436.82 396.24 437.04 393.68 437.06 389.88H435.7ZM442.04 395.86C441.88 395.86 441.86 395.7 441.86 395.2V389.88H440.5V395.16C440.5 396.66 440.74 397.18 442.08 397.18H442.64C442.94 397.18 443.22 397.16 443.44 397.08C443.4 396.76 443.34 396.12 443.3 395.76C443.12 395.82 442.84 395.86 442.66 395.86H442.04ZM448.18 388.46H442.72V386.98H439.56V382.36H437.92V386.98H435.2L435.26 386.84L433.58 386.3C432.64 388.44 431.06 390.54 429.44 391.92C429.76 392.3 430.32 393.2 430.48 393.6C430.98 393.14 431.48 392.64 431.96 392.08V400.6H433.68V389.72C434.22 388.88 434.7 388 435.12 387.14V388.7H437.92V400.52H439.56V388.7H442.68V390.14H444.72V398.28C444.72 398.52 444.64 398.58 444.36 398.6C444.1 398.6 443.2 398.6 442.28 398.58C442.52 399.1 442.76 399.88 442.82 400.38C444.18 400.38 445.1 400.36 445.72 400.04C446.32 399.76 446.48 399.24 446.48 398.28V390.14H448.16L448.18 388.46ZM453.74 392.18C453.78 391.44 453.78 390.72 453.78 390.08V389.24H456.34V392.18H453.74ZM456.34 384.66V387.5H453.78V384.66H456.34ZM458.06 382.94H452.1V390.08C452.1 393 452 396.98 450.68 399.74C451.12 399.92 451.88 400.34 452.2 400.62C453.08 398.78 453.46 396.3 453.64 393.94H456.34V398.44C456.34 398.72 456.24 398.8 456 398.82C455.74 398.82 454.94 398.84 454.12 398.8C454.34 399.26 454.58 400.12 454.62 400.58C455.96 400.6 456.78 400.56 457.34 400.24C457.9 399.94 458.06 399.38 458.06 398.48V382.94ZM461.3 391.48H461.66C462.26 393.44 463.08 395.24 464.14 396.78C463.3 397.76 462.34 398.58 461.3 399.12V391.48ZM466.82 391.48C466.42 392.92 465.84 394.2 465.14 395.34C464.34 394.18 463.7 392.88 463.24 391.48H466.82ZM467.74 389.72L467.44 389.78H461.3V384.72H466.46V386.8C466.46 387.04 466.36 387.1 466.04 387.1C465.76 387.12 464.64 387.12 463.54 387.08C463.76 387.52 464.04 388.18 464.12 388.66C465.6 388.66 466.66 388.66 467.36 388.4C468.06 388.16 468.24 387.68 468.24 386.82V382.98H459.54V400.58H461.3V399.16C461.68 399.48 462.14 400.08 462.38 400.5C463.42 399.88 464.34 399.1 465.18 398.14C466.06 399.14 467.08 399.98 468.22 400.6C468.5 400.14 469 399.5 469.42 399.16C468.22 398.6 467.16 397.76 466.24 396.76C467.44 394.98 468.34 392.78 468.82 390.1L467.74 389.72ZM485.02 393.32C485.12 392.7 485.2 392.08 485.26 391.42H483.42C483.36 392.08 483.28 392.7 483.18 393.32H479.98V394.88H482.78C482.16 396.7 480.94 398.2 478.34 399.14C478.72 399.46 479.22 400.14 479.44 400.58C482.6 399.34 484 397.34 484.68 394.88H487.58C487.32 397.22 487.04 398.24 486.7 398.54C486.52 398.72 486.36 398.76 486.06 398.76C485.72 398.76 484.98 398.74 484.2 398.66C484.46 399.14 484.66 399.86 484.7 400.38C485.6 400.42 486.42 400.42 486.92 400.38C487.46 400.3 487.86 400.18 488.26 399.78C488.82 399.18 489.18 397.64 489.52 394.06C489.56 393.8 489.58 393.32 489.58 393.32H485.02ZM486.52 385.82C486.1 386.66 485.54 387.4 484.84 388.02C484.02 387.36 483.34 386.64 482.82 385.82H486.52ZM489.94 385.82V384.26H483.64C483.94 383.74 484.22 383.22 484.46 382.68L482.72 382.2C481.92 384.08 480.5 385.88 478.92 387.02C479.38 387.26 480.1 387.78 480.46 388.08C480.86 387.74 481.26 387.36 481.66 386.92C482.16 387.68 482.76 388.38 483.44 389.02C482.54 389.54 481.52 389.96 480.38 390.28C480.44 390 480.5 389.74 480.56 389.48L479.44 389.08L479.16 389.18H477.92L478.78 388.24C478.36 387.92 477.82 387.54 477.18 387.18C478.36 386.26 479.56 385.02 480.3 383.84L479.1 383.1L478.8 383.16H472.22V384.74H477.48C476.98 385.34 476.38 385.94 475.76 386.42C475.16 386.12 474.52 385.84 473.96 385.62L472.8 386.82C474.24 387.44 475.98 388.38 477.08 389.18H471.98V390.8H474.76C474.04 392.64 472.9 394.54 471.7 395.6C472.02 396.08 472.46 396.84 472.64 397.38C473.66 396.38 474.6 394.76 475.34 393.04V398.46C475.34 398.7 475.26 398.74 475.02 398.76C474.78 398.78 473.98 398.78 473.18 398.74C473.42 399.24 473.66 400 473.72 400.5C474.96 400.5 475.78 400.46 476.36 400.2C476.96 399.88 477.1 399.38 477.1 398.48V390.8H478.64C478.38 391.9 478.08 393.02 477.76 393.8L479.04 394.44C479.42 393.58 479.8 392.4 480.14 391.22C480.36 391.52 480.56 391.82 480.66 392.04C482.22 391.56 483.66 390.96 484.88 390.16C486.16 391.02 487.62 391.66 489.22 392.08C489.46 391.6 490 390.88 490.38 390.52C488.9 390.2 487.52 389.7 486.34 389.02C487.26 388.14 488.02 387.08 488.56 385.82H489.94ZM498.9 393.98H500.88C500.6 394.9 500.2 395.72 499.7 396.42C499.32 395.84 498.96 395.16 498.7 394.34L498.9 393.98ZM501.72 392.64L501.44 392.68H499.54C499.72 392.28 499.88 391.9 500.02 391.48L498.58 391.12C498.06 392.82 497.08 394.34 495.92 395.46C496.2 393.74 496.26 392.02 496.26 390.62V387.28H500.86V388.38L497.14 388.62L497.22 389.82L500.86 389.6V389.68C500.86 391.16 501.3 391.78 503.24 391.78H507.88C508.74 391.78 509.7 391.76 510.12 391.64C510.04 391.26 510 390.78 509.96 390.28C509.52 390.4 508.4 390.44 507.72 390.44H503.46C502.74 390.44 502.62 390.24 502.62 389.7V389.48L507.54 389.18L507.48 387.98L502.62 388.28V387.28H508.6C508.42 387.92 508.18 388.58 507.94 389.02L509.48 389.48C509.96 388.62 510.46 387.28 510.86 386.1L509.54 385.76L509.22 385.84H502.72V384.76H509.34V383.38H502.72V382.22H500.86V385.84H494.5V390.62C494.5 393.24 494.34 396.9 492.78 399.52C493.14 399.72 493.92 400.3 494.2 400.64C495.02 399.32 495.54 397.66 495.82 396C496.12 396.28 496.5 396.64 496.66 396.86C497.04 396.5 497.42 396.1 497.78 395.64C498.08 396.36 498.4 396.98 498.76 397.48C497.84 398.38 496.72 399.02 495.48 399.38C495.78 399.7 496.14 400.3 496.3 400.68C497.64 400.2 498.78 399.54 499.76 398.62C501.3 399.94 503.34 400.28 505.94 400.28H510.74C510.82 399.84 511.06 399.12 511.3 398.74C510.36 398.76 506.72 398.78 506.02 398.76C503.92 398.76 502.1 398.52 500.74 397.48C501.64 396.3 502.28 394.8 502.64 392.88L501.72 392.64ZM509.26 397.84C510.1 397.84 510.46 397.4 510.56 395.92C510.2 395.84 509.7 395.7 509.44 395.48C509.38 396.6 509.3 396.82 509.1 396.82H508.48C508.24 396.82 508.2 396.76 508.2 396.38V392.68H503.66V394.18C503.66 395.14 503.46 396.34 502.14 397.28C502.42 397.46 503.06 398.02 503.28 398.32C504.8 397.16 505.14 395.54 505.14 394.22V394.08H506.8V396.36C506.8 397.5 507.12 397.84 508.22 397.84H509.26Z" fill="white"/>
<rect x="570" y="360" width="160" height="60" rx="12" fill="#835DD0"/>
<path d="M610.6 387.62H614C613.64 389.98 613.14 391.98 612.32 393.68C611.48 391.98 610.9 390.04 610.48 387.94L610.6 387.62ZM617.18 387.62V385.88H611.18C611.48 384.8 611.76 383.68 611.98 382.52L610.14 382.2C609.62 385.12 608.78 387.92 607.48 389.9V389.28H604.98V385.32H608.16V383.52H599.08V385.32H603.16V396.04L601.48 396.4V388.04H599.8V396.72L598.68 396.94L599.02 398.8C601.52 398.26 605.02 397.44 608.3 396.66L608.12 394.98L604.98 395.64V391.04H607.2C607.6 391.36 608.1 391.78 608.32 392.06C608.68 391.56 609.02 391.04 609.36 390.46C609.82 392.32 610.42 394.02 611.22 395.5C610.16 396.98 608.74 398.12 606.88 398.98C607.24 399.36 607.78 400.2 607.96 400.62C609.72 399.7 611.14 398.58 612.26 397.2C613.28 398.6 614.52 399.74 616.08 400.56C616.34 400.06 616.92 399.36 617.34 398.98C615.72 398.22 614.4 397.04 613.38 395.54C614.6 393.42 615.36 390.8 615.86 387.62H617.18ZM624.68 385L623.94 385.62C624.6 386.24 625.46 387.1 625.86 387.64L627.06 386.58C626.7 386.16 626.06 385.52 625.46 385H628.82V383.54H624.04C624.22 383.2 624.36 382.88 624.5 382.54L622.84 382.06C622.22 383.68 621.1 385.3 619.92 386.36C620.28 386.64 620.92 387.28 621.18 387.58C621.88 386.9 622.58 386 623.22 385H624.68ZM630.14 392.42H634.58V394.36C634.58 394.56 634.5 394.62 634.26 394.62C634.06 394.64 633.26 394.64 632.52 394.6C632.74 395.02 633.04 395.6 633.16 396.08C634.26 396.08 635.1 396.06 635.72 395.82C636.3 395.58 636.48 395.2 636.48 394.36V390.84H630.14V389.54H637.56V387.92H630.14V386.74H630.06C630.56 386.26 631.04 385.66 631.48 385H633.42L632.56 385.7C633.28 386.28 634.16 387.1 634.6 387.64L635.86 386.54C635.46 386.1 634.76 385.48 634.12 385H638.04V383.54H632.3C632.44 383.18 632.6 382.84 632.72 382.48L631.02 382.06C630.54 383.5 629.62 384.88 628.54 385.78C628.88 386 629.44 386.44 629.78 386.74H628.16V387.92H620.42V389.54H628.16V390.84H621.76V396.1H623.72V392.42H628.16V394C626.42 396.06 623.2 397.7 619.92 398.42C620.3 398.8 620.84 399.52 621.08 399.98C623.7 399.26 626.26 397.9 628.16 396.14V400.56H630.14V396.2C631.82 397.68 634.3 399.16 637.14 399.88C637.4 399.4 637.94 398.64 638.32 398.24C634.82 397.56 631.76 395.88 630.14 394.24V392.42ZM655.1 395.2C654.66 395.88 654.12 396.48 653.5 397.02C652.38 396.36 651.22 395.74 650.22 395.2H655.1ZM656.24 393.84L655.96 393.88H649.32V395.2H650.02L649.18 396.16C650.1 396.68 651.14 397.28 652.16 397.9C651.02 398.52 649.72 398.98 648.3 399.24C648.6 399.58 648.96 400.18 649.12 400.6C650.8 400.2 652.32 399.62 653.62 398.78C654.74 399.46 655.74 400.1 656.44 400.62L657.4 399.4C656.76 398.96 655.86 398.4 654.88 397.82C655.92 396.88 656.74 395.7 657.28 394.22L656.24 393.84ZM657.38 384.34C656.76 384.98 655.74 385.9 654.88 386.54C654.42 386.2 654 385.86 653.6 385.46C654.44 384.88 655.44 384.1 656.28 383.32L654.94 382.36C654.4 383 653.48 383.84 652.68 384.46C652.16 383.78 651.72 383.06 651.36 382.3L649.88 382.74C650.88 384.94 652.36 386.76 654.28 388.14H650.12V389.64C650.12 390.58 649.9 391.62 648.42 392.44V388.22H645.6C647.28 387.02 648.7 385.46 649.56 383.5L648.38 382.94L648.08 383H642.78V384.48H647.1C646.66 385.1 646.14 385.7 645.52 386.22C644.92 385.72 644 385.1 643.26 384.68L642.2 385.68C642.88 386.1 643.7 386.68 644.26 387.18C643.14 387.92 641.86 388.52 640.6 388.9C640.94 389.22 641.38 389.88 641.6 390.28C642.28 390.04 642.98 389.74 643.66 389.4V389.68H646.76V391.48H643C642.84 392.96 642.54 394.8 642.28 396.02H646.66C646.5 397.7 646.3 398.46 646.04 398.7C645.86 398.86 645.66 398.88 645.32 398.88C644.92 398.88 643.88 398.86 642.82 398.76C643.12 399.2 643.34 399.86 643.38 400.34C644.46 400.38 645.48 400.4 646.02 400.34C646.64 400.3 647.06 400.18 647.44 399.8C647.94 399.28 648.16 398.08 648.4 395.32C648.44 395.1 648.46 394.62 648.46 394.62H644.08C644.18 394.08 644.26 393.48 644.34 392.9H648.42V392.58C648.78 392.84 649.32 393.36 649.54 393.64C651.3 392.62 651.7 391.02 651.7 389.68V389.6H654.04V391.18C654.04 392.56 654.32 393.12 655.72 393.12H657.18C657.58 393.12 658.02 393.1 658.24 393.02C658.18 392.64 658.14 392.1 658.12 391.72C657.9 391.78 657.42 391.8 657.14 391.8H655.9C655.62 391.8 655.56 391.66 655.56 391.2V388.94C656.36 389.4 657.24 389.78 658.16 390.06C658.42 389.62 658.92 388.94 659.28 388.6C658.14 388.3 657.08 387.86 656.12 387.34C656.96 386.76 657.94 386 658.74 385.28L657.38 384.34ZM676.96 384.74V386.44H665.66V384.74H676.96ZM678.82 388.02V383.14H663.8V388.96C663.8 392.14 663.62 396.56 661.64 399.64C662.12 399.82 662.94 400.3 663.3 400.6C665.36 397.34 665.66 392.38 665.66 388.96V388.02H678.82ZM677.62 394.7C676.94 395.26 675.9 395.96 674.98 396.48C674.44 395.96 673.98 395.36 673.62 394.7H677.62ZM670.7 391.36H674.26V393.14H670.7V391.36ZM677.72 394.7H679.96V393.14H676V391.36H679.14V389.78H676V388.04H674.26V389.78H670.7V388.04H669V389.78H666.22V391.36H669V393.14H665.72V394.7H667.7V397.44C667.7 398.36 667.08 398.88 666.68 399.1C666.96 399.44 667.3 400.18 667.42 400.64V400.62C667.82 400.36 668.46 400.18 673.18 399.1C673.16 398.72 673.22 398.02 673.3 397.54L669.42 398.36V394.7H671.84C673.2 397.7 675.56 399.7 679.08 400.58C679.32 400.08 679.8 399.4 680.2 399.04C678.62 398.72 677.28 398.18 676.16 397.42C677.1 396.94 678.18 396.28 679.06 395.62L677.72 394.7ZM688.9 393.98H690.88C690.6 394.9 690.2 395.72 689.7 396.42C689.32 395.84 688.96 395.16 688.7 394.34L688.9 393.98ZM691.72 392.64L691.44 392.68H689.54C689.72 392.28 689.88 391.9 690.02 391.48L688.58 391.12C688.06 392.82 687.08 394.34 685.92 395.46C686.2 393.74 686.26 392.02 686.26 390.62V387.28H690.86V388.38L687.14 388.62L687.22 389.82L690.86 389.6V389.68C690.86 391.16 691.3 391.78 693.24 391.78H697.88C698.74 391.78 699.7 391.76 700.12 391.64C700.04 391.26 700 390.78 699.96 390.28C699.52 390.4 698.4 390.44 697.72 390.44H693.46C692.74 390.44 692.62 390.24 692.62 389.7V389.48L697.54 389.18L697.48 387.98L692.62 388.28V387.28H698.6C698.42 387.92 698.18 388.58 697.94 389.02L699.48 389.48C699.96 388.62 700.46 387.28 700.86 386.1L699.54 385.76L699.22 385.84H692.72V384.76H699.34V383.38H692.72V382.22H690.86V385.84H684.5V390.62C684.5 393.24 684.34 396.9 682.78 399.52C683.14 399.72 683.92 400.3 684.2 400.64C685.02 399.32 685.54 397.66 685.82 396C686.12 396.28 686.5 396.64 686.66 396.86C687.04 396.5 687.42 396.1 687.78 395.64C688.08 396.36 688.4 396.98 688.76 397.48C687.84 398.38 686.72 399.02 685.48 399.38C685.78 399.7 686.14 400.3 686.3 400.68C687.64 400.2 688.78 399.54 689.76 398.62C691.3 399.94 693.34 400.28 695.94 400.28H700.74C700.82 399.84 701.06 399.12 701.3 398.74C700.36 398.76 696.72 398.78 696.02 398.76C693.92 398.76 692.1 398.52 690.74 397.48C691.64 396.3 692.28 394.8 692.64 392.88L691.72 392.64ZM699.26 397.84C700.1 397.84 700.46 397.4 700.56 395.92C700.2 395.84 699.7 395.7 699.44 395.48C699.38 396.6 699.3 396.82 699.1 396.82H698.48C698.24 396.82 698.2 396.76 698.2 396.38V392.68H693.66V394.18C693.66 395.14 693.46 396.34 692.14 397.28C692.42 397.46 693.06 398.02 693.28 398.32C694.8 397.16 695.14 395.54 695.14 394.22V394.08H696.8V396.36C696.8 397.5 697.12 397.84 698.22 397.84H699.26Z" fill="white"/>
<rect x="760" y="360" width="160" height="60" rx="12" fill="#835DD0"/>
<path d="M822.88 395.18V396.28H815.22V395.18H822.88ZM815.22 398.68V397.56H822.88V398.68H815.22ZM813.38 400.56H815.22V399.94H822.88V400.48H824.78V393.9H813.38V400.56ZM812.66 387.9C813.66 387.52 814.64 387.1 815.56 386.58V387.06H822.48V386.48C823.5 387.04 824.6 387.52 825.68 387.9H812.66ZM824.12 391.88H822C822.36 391.3 822.8 390.46 823.24 389.6L821.68 389.16C821.46 389.84 821.04 390.86 820.68 391.5L821.92 391.88H819.68V389.12H824.12V391.88ZM814.8 389.64C815.22 390.34 815.6 391.26 815.74 391.88H813.82V389.12H818.16V391.88H815.8L817.12 391.44C816.98 390.84 816.54 389.92 816.1 389.24L814.8 389.64ZM816.92 385.78C817.72 385.28 818.46 384.7 819.12 384.1C819.74 384.7 820.48 385.26 821.32 385.78H816.92ZM818.74 382.12C816.92 384.46 813.38 386.18 809.76 387.1C810.08 387.42 810.6 388.18 810.76 388.54C811.26 388.4 811.74 388.24 812.24 388.06V393.1H825.76V387.92C826.26 388.1 826.78 388.26 827.26 388.4C827.54 387.96 828.06 387.3 828.44 386.96C825.32 386.28 821.94 384.78 820.08 383.06C820.2 382.94 820.3 382.8 820.4 382.68L818.74 382.12ZM839.58 385.56H835.08L836.54 384.74C836.22 384.02 835.6 382.96 835.04 382.12L833.58 382.86C834.12 383.68 834.72 384.82 835.04 385.56H831.32V387.04H839.58V385.56ZM838.7 390.86H832.18V392.3H838.7V390.86ZM837.14 395.06V397.92H833.9V395.06H837.14ZM838.74 393.56H832.3V400.32H833.9V399.42H838.74V393.56ZM832.18 389.68H838.74V388.22H832.18V389.68ZM849.08 388.98H845.16V382.6H843.24V388.98H839.54V390.8H843.24V400.58H845.16V390.8H849.08V388.98ZM854.24 385.6H867.7V387.54H869.6V383.92H862.34C862.14 383.34 861.74 382.58 861.4 382L859.58 382.5C859.82 382.94 860.06 383.44 860.24 383.92H852.42V387.54H854.24V385.6ZM864.32 388.72L863.04 389.56C863.46 389.92 863.94 390.32 864.4 390.72L857.56 391.2C858.56 390.46 859.54 389.6 860.46 388.72H864.32ZM868.3 392.28C867.5 391.26 865.84 389.78 864.48 388.72H867.6V387.12H854.52V388.72H858.08C857.08 389.68 856.1 390.46 855.7 390.72C855.18 391.12 854.74 391.38 854.34 391.44C854.54 391.9 854.78 392.74 854.86 393.1C855.56 392.82 856.58 392.76 865.74 392C866.2 392.48 866.58 392.9 866.86 393.28L868.3 392.28ZM861.92 398.38V396.12H868.14V394.52H861.92V392.68H860.02V394.52H854.02V396.12H860.02V398.38H852.26V400.02H869.82V398.38H861.92Z" fill="white"/>
<rect x="190" y="360" width="160" height="60" rx="12" fill="#835DD0"/>
<path d="M221.34 386.1H225.22C225 388.78 224.22 389.94 219.62 390.5C219.96 390.88 220.36 391.58 220.5 392.04C225.76 391.24 226.84 389.54 227.12 386.1H229.28V388.96C229.28 390.76 229.8 391.38 231.78 391.38H235.06C235.78 391.38 236.54 391.36 236.92 391.26C236.84 390.82 236.78 390.1 236.74 389.6C236.34 389.7 235.52 389.74 235.02 389.74H231.8C231.24 389.74 231.12 389.54 231.12 388.98V386.1H234.54V388.6H236.46V384.42H229.36C229.06 383.7 228.58 382.8 228.2 382.08L226.24 382.62C226.52 383.16 226.82 383.82 227.06 384.42H219.5V389.06H221.34V386.1ZM229.06 394.58H234.72V392.86H221.46V394.58H227.12V398.4H219.5V400.16H236.62V398.4H229.06V394.58ZM246.42 384.42V385.8H242.64V384.42H246.42ZM242.64 388.6V387.12H246.42V388.6H242.64ZM248.18 389.98V383.02H240.8V400.58H242.64V389.98H248.18ZM251.54 388.64V387.12H255.44V388.64H251.54ZM255.44 384.42V385.8H251.54V384.42H255.44ZM246.92 397.34V395.68H250.98V397.34H246.92ZM250.98 392.76V394.32H246.92V392.76H250.98ZM257.32 383.02H249.76V390.02H255.44V398.24C255.44 398.58 255.34 398.68 254.98 398.7C254.66 398.7 253.7 398.72 252.72 398.68V391.36H245.22V399.74H246.92V398.74H252.32C252.56 399.26 252.82 400.06 252.9 400.56C254.58 400.56 255.68 400.54 256.38 400.24C257.1 399.92 257.32 399.32 257.32 398.26V383.02ZM266.34 383.32H261.44V384.72H266.34V383.32ZM273.32 384.9H276.1C275.82 385.4 275.52 385.92 275.26 386.28L276.72 386.8C277.28 386.06 277.96 384.9 278.46 383.84L277.18 383.42L276.92 383.5H270.68C270.82 383.16 270.94 382.84 271.06 382.5L269.4 382.14C268.96 383.54 268.14 384.92 267.1 385.82C267.52 386.02 268.2 386.5 268.5 386.76C269.02 386.26 269.52 385.62 269.96 384.9H271.62V385.16C271.62 386.02 271.16 387.14 266.82 387.7V386.38H261.02V387.84H266.1C266.44 388.18 266.86 388.8 267.04 389.22C270.48 388.74 272.06 387.88 272.78 386.96C274.04 388.12 275.86 388.84 278.14 389.16C278.32 388.68 278.78 388.02 279.14 387.64C276.5 387.48 274.36 386.8 273.28 385.7C273.32 385.52 273.32 385.36 273.32 385.22V384.9ZM265.42 395H274.8V396.16H265.42V395ZM265.42 392.74H274.8V393.86H265.42V392.74ZM265.42 390.48H274.8V391.62H265.42V390.48ZM276.66 397.34V389.3H263.62V397.34H266.84C265.46 398.12 263.12 398.8 261.08 399.2C261.48 399.54 262.14 400.22 262.46 400.6C264.46 400.04 266.96 399.08 268.58 398.1L266.92 397.34H272.9L271.74 398.28C273.8 398.98 275.9 399.88 277.12 400.54L278.8 399.52C277.44 398.86 275.22 398.02 273.16 397.34H276.66ZM289.16 385.56H285.42L286.74 384.74C286.46 384.02 285.86 382.96 285.36 382.12L284.02 382.86C284.52 383.68 285.08 384.82 285.38 385.56H281.96V387.04H289.16V385.56ZM288.44 389.68V388.22H282.76V389.68H288.44ZM286.98 395.06V397.92H284.22V395.06H286.98ZM288.46 393.56H282.76V400.32H284.22V399.42H288.46V393.56ZM282.76 392.3H288.46V390.86H282.76V392.3ZM289.4 383.3V385.06H291.64V390.7H289.16V392.42H291.64V400.58H293.38V392.42H295.72V390.7H293.38V385.06H296.34C296.32 392.9 296.28 399.6 298.22 400.28C299.26 400.72 300.08 400.08 300.32 397.24C300.04 396.96 299.58 396.28 299.3 395.82C299.24 397.16 299.1 398.46 298.98 398.42C298.04 398.14 298.06 390.7 298.2 383.3H289.4ZM308.9 393.98H310.88C310.6 394.9 310.2 395.72 309.7 396.42C309.32 395.84 308.96 395.16 308.7 394.34L308.9 393.98ZM311.72 392.64L311.44 392.68H309.54C309.72 392.28 309.88 391.9 310.02 391.48L308.58 391.12C308.06 392.82 307.08 394.34 305.92 395.46C306.2 393.74 306.26 392.02 306.26 390.62V387.28H310.86V388.38L307.14 388.62L307.22 389.82L310.86 389.6V389.68C310.86 391.16 311.3 391.78 313.24 391.78H317.88C318.74 391.78 319.7 391.76 320.12 391.64C320.04 391.26 320 390.78 319.96 390.28C319.52 390.4 318.4 390.44 317.72 390.44H313.46C312.74 390.44 312.62 390.24 312.62 389.7V389.48L317.54 389.18L317.48 387.98L312.62 388.28V387.28H318.6C318.42 387.92 318.18 388.58 317.94 389.02L319.48 389.48C319.96 388.62 320.46 387.28 320.86 386.1L319.54 385.76L319.22 385.84H312.72V384.76H319.34V383.38H312.72V382.22H310.86V385.84H304.5V390.62C304.5 393.24 304.34 396.9 302.78 399.52C303.14 399.72 303.92 400.3 304.2 400.64C305.02 399.32 305.54 397.66 305.82 396C306.12 396.28 306.5 396.64 306.66 396.86C307.04 396.5 307.42 396.1 307.78 395.64C308.08 396.36 308.4 396.98 308.76 397.48C307.84 398.38 306.72 399.02 305.48 399.38C305.78 399.7 306.14 400.3 306.3 400.68C307.64 400.2 308.78 399.54 309.76 398.62C311.3 399.94 313.34 400.28 315.94 400.28H320.74C320.82 399.84 321.06 399.12 321.3 398.74C320.36 398.76 316.72 398.78 316.02 398.76C313.92 398.76 312.1 398.52 310.74 397.48C311.64 396.3 312.28 394.8 312.64 392.88L311.72 392.64ZM319.26 397.84C320.1 397.84 320.46 397.4 320.56 395.92C320.2 395.84 319.7 395.7 319.44 395.48C319.38 396.6 319.3 396.82 319.1 396.82H318.48C318.24 396.82 318.2 396.76 318.2 396.38V392.68H313.66V394.18C313.66 395.14 313.46 396.34 312.14 397.28C312.42 397.46 313.06 398.02 313.28 398.32C314.8 397.16 315.14 395.54 315.14 394.22V394.08H316.8V396.36C316.8 397.5 317.12 397.84 318.22 397.84H319.26Z" fill="white"/>
<rect y="360" width="160" height="60" rx="12" fill="#835DD0"/>
<path d="M39.32 395.62V394.3H37.48V393.62H36V394.3H33.8C34 393.92 34.2 393.56 34.38 393.2H38.72V391.4C39.08 391.68 39.52 392.12 39.74 392.36C40.08 391.76 40.4 391.1 40.7 390.38C41.06 392.1 41.48 393.7 42.06 395.12C41.14 396.7 39.9 397.94 38.18 398.88C37.58 398.54 36.86 398.2 36.06 397.88C36.82 397.14 37.18 396.36 37.36 395.62H39.32ZM35.8 395.62C35.6 396.16 35.24 396.74 34.5 397.26C33.82 397.02 33.12 396.78 32.44 396.58C32.62 396.28 32.84 395.96 33.04 395.62H35.8ZM31.4 390.98H33.48V392.08H31.4V390.98ZM37.1 390.98V392.08H34.92V390.98H37.1ZM44.14 387.68C43.9 389.82 43.54 391.66 42.94 393.24C42.36 391.62 41.92 389.78 41.62 387.84L41.68 387.68H44.14ZM31.68 387.86V386.8H33.48V387.86H31.68ZM33.48 384.7V385.62H31.68V384.7H33.48ZM36.88 384.7V385.62H34.92V384.7H36.88ZM34.92 387.86V386.8H36.88V387.86H34.92ZM47.2 387.68V386.04H42.16C42.46 384.88 42.72 383.7 42.94 382.52L41.38 382.22C40.84 385.42 39.96 388.6 38.72 390.82V389.86H34.92V389.1H38.36V386.9H39.46V385.52H38.36V383.46H34.92V382.22H33.48V383.46H30.24V385.52H28.88V386.9H30.24V389.1H33.48V389.86H29.86V393.2H32.72C32.54 393.56 32.34 393.92 32.14 394.3H29V395.62H31.34C30.96 396.22 30.56 396.8 30.2 397.26C31.08 397.5 32.04 397.8 33 398.14C31.96 398.6 30.58 399.02 28.72 399.34C29 399.66 29.36 400.2 29.48 400.56C31.88 400.1 33.56 399.5 34.74 398.84C35.7 399.24 36.58 399.66 37.22 400.04L37.76 399.56C38.02 399.92 38.3 400.38 38.42 400.64C40.32 399.64 41.76 398.4 42.86 396.82C43.7 398.38 44.8 399.64 46.2 400.52C46.46 400.04 47 399.4 47.38 399.06C45.84 398.24 44.68 396.9 43.8 395.2C44.8 393.16 45.4 390.7 45.74 387.68H47.2ZM63 385.1C62.8 384.24 62.38 383 62 382.02L60.24 382.46C60.62 383.46 61.02 384.78 61.16 385.62L63 385.1ZM67.26 385.72H56.36V387.52H67.26V385.72ZM60.72 396.68C60.52 394.66 59.9 391.18 59.28 388.48L57.62 388.86C58.18 391.58 58.72 395.14 58.88 397.22L60.72 396.68ZM54.54 382.3C53.48 385.22 51.7 388.14 49.8 390C50.12 390.44 50.66 391.44 50.84 391.88C51.4 391.3 51.96 390.64 52.48 389.9V400.54H54.36V386.98C55.1 385.64 55.78 384.24 56.3 382.84L54.54 382.3ZM64.22 397.98C64.94 395.42 65.7 391.7 66.24 388.68L64.3 388.36C63.96 391.3 63.22 395.34 62.5 397.98H55.56V399.76H68V397.98H64.22ZM75.02 400.16C76.16 399.24 76.82 397.72 77.26 396.32L75.76 395.8C75.36 397.06 74.62 398.44 73.6 399.28L75.02 400.16ZM77.1 385.26C76.36 386.82 75.16 388.4 73.88 389.54V385.24H80.3C79.64 386.78 78.58 388.36 77.44 389.46V387.78C77.9 387.12 78.32 386.42 78.64 385.7L77.1 385.26ZM81.18 387.02C81.44 386.58 81.66 386.1 81.86 385.64L80.44 385.24H84.04L82.92 385.68C83.24 386.08 83.58 386.58 83.82 387.02H81.18ZM83.6 389.08H80.8V388.18H83.6V389.08ZM83.6 391.02H80.8V390.08H83.6V391.02ZM83.6 393H80.8V392.02H83.6V393ZM79.26 394.8H80.58L79.98 395.36C81.12 395.92 82.48 396.8 83.16 397.42L84.28 396.3C83.58 395.68 82.18 394.86 81.06 394.36L80.8 394.6V394.2H88.68V393H85.14V392.02H87.9V391.02H85.14V390.08H87.86V389.08H85.14V388.18H88.4V387.02H84.92L85.4 386.8C85.18 386.36 84.74 385.72 84.32 385.24H89V383.7H81.94C81.64 383.12 81.24 382.42 80.82 381.88L79.2 382.36C79.48 382.76 79.74 383.22 79.98 383.7H72.18V389.58C72.18 392.52 72.06 396.64 70.62 399.52C71 399.7 71.74 400.28 72.04 400.6C73.5 397.7 73.84 393.4 73.88 390.28C74.16 390.54 74.46 390.88 74.62 391.08C75.04 390.7 75.44 390.3 75.86 389.84V394.8H77.44V389.84C77.8 390.12 78.26 390.5 78.46 390.7C78.72 390.46 79 390.16 79.26 389.84V394.8ZM80.84 398.96C80.08 398.96 79.94 398.9 79.94 398.44V395.94H78.24V398.46C78.24 400.02 78.7 400.46 80.62 400.46H83.56C85 400.46 85.5 399.98 85.68 397.96C85.24 397.86 84.54 397.62 84.18 397.36C84.12 398.78 84 398.96 83.38 398.96H80.84ZM84.94 396.26C86.02 397.44 87.16 399.06 87.6 400.1L89.08 399.36C88.6 398.28 87.4 396.7 86.3 395.58L84.94 396.26ZM102.08 392.88V389.92H106.92V392.88H102.08ZM95.8 392.88C95.86 392.14 95.88 391.4 95.88 390.72V389.92H100.22V392.88H95.8ZM100.22 385.36V388.18H95.88V385.36H100.22ZM106.92 388.18H102.08V385.36H106.92V388.18ZM108.78 383.58H94.04V390.7C94.04 393.52 93.84 397.06 91.66 399.48C92.08 399.7 92.84 400.34 93.12 400.7C94.58 399.08 95.3 396.84 95.62 394.64H100.22V400.36H102.08V394.64H106.92V398.22C106.92 398.6 106.78 398.72 106.42 398.72C106.04 398.72 104.72 398.74 103.44 398.68C103.68 399.16 103.98 399.98 104.06 400.48C105.9 400.5 107.06 400.46 107.8 400.16C108.52 399.88 108.78 399.32 108.78 398.24V383.58ZM118.9 393.98H120.88C120.6 394.9 120.2 395.72 119.7 396.42C119.32 395.84 118.96 395.16 118.7 394.34L118.9 393.98ZM121.72 392.64L121.44 392.68H119.54C119.72 392.28 119.88 391.9 120.02 391.48L118.58 391.12C118.06 392.82 117.08 394.34 115.92 395.46C116.2 393.74 116.26 392.02 116.26 390.62V387.28H120.86V388.38L117.14 388.62L117.22 389.82L120.86 389.6V389.68C120.86 391.16 121.3 391.78 123.24 391.78H127.88C128.74 391.78 129.7 391.76 130.12 391.64C130.04 391.26 130 390.78 129.96 390.28C129.52 390.4 128.4 390.44 127.72 390.44H123.46C122.74 390.44 122.62 390.24 122.62 389.7V389.48L127.54 389.18L127.48 387.98L122.62 388.28V387.28H128.6C128.42 387.92 128.18 388.58 127.94 389.02L129.48 389.48C129.96 388.62 130.46 387.28 130.86 386.1L129.54 385.76L129.22 385.84H122.72V384.76H129.34V383.38H122.72V382.22H120.86V385.84H114.5V390.62C114.5 393.24 114.34 396.9 112.78 399.52C113.14 399.72 113.92 400.3 114.2 400.64C115.02 399.32 115.54 397.66 115.82 396C116.12 396.28 116.5 396.64 116.66 396.86C117.04 396.5 117.42 396.1 117.78 395.64C118.08 396.36 118.4 396.98 118.76 397.48C117.84 398.38 116.72 399.02 115.48 399.38C115.78 399.7 116.14 400.3 116.3 400.68C117.64 400.2 118.78 399.54 119.76 398.62C121.3 399.94 123.34 400.28 125.94 400.28H130.74C130.82 399.84 131.06 399.12 131.3 398.74C130.36 398.76 126.72 398.78 126.02 398.76C123.92 398.76 122.1 398.52 120.74 397.48C121.64 396.3 122.28 394.8 122.64 392.88L121.72 392.64ZM129.26 397.84C130.1 397.84 130.46 397.4 130.56 395.92C130.2 395.84 129.7 395.7 129.44 395.48C129.38 396.6 129.3 396.82 129.1 396.82H128.48C128.24 396.82 128.2 396.76 128.2 396.38V392.68H123.66V394.18C123.66 395.14 123.46 396.34 122.14 397.28C122.42 397.46 123.06 398.02 123.28 398.32C124.8 397.16 125.14 395.54 125.14 394.22V394.08H126.8V396.36C126.8 397.5 127.12 397.84 128.22 397.84H129.26Z" fill="white"/>
<path d="M380 60H540V108C540 114.627 534.627 120 528 120H392C385.373 120 380 114.627 380 108V60Z" fill="#00B2A1"/>
<path d="M442.2 85.54H444.04V84.78H447.82V83.32H444.04V82.22H442.2V83.32H439.38V84.78H442.2V85.54ZM434.06 85.96H435.88V84.78H438.56V83.32H435.88V82.22H434.06V83.32H430.24V84.78H434.06V85.96ZM433.94 94.4V93.4H438V94.4H433.94ZM433.94 91.46H438V92.44H433.94V91.46ZM444.06 91.46V92.44H439.84V91.46H444.06ZM444.06 94.4H439.84V93.4H444.06V94.4ZM439.84 98.6V97.58H446.42V96.34H439.84V95.46H445.88V90.4H439.84V89.58H447.76V88.28H439.84V87.34C442.18 87.22 444.38 87.06 446.18 86.86L445.1 85.7C441.9 86.08 436.28 86.32 431.52 86.34C431.64 86.64 431.78 87.18 431.82 87.52C433.8 87.52 435.92 87.48 438 87.4V88.28H430.28V89.58H438V90.4H432.2V95.46H438V96.34H431.66V97.58H438V98.6H430.1V99.96H447.92V98.6H439.84ZM465.12 96.22H460.86V94.98H465.12V96.22ZM460.86 92.38H465.12V93.52H460.86V92.38ZM455.22 88.64V87.44H458.98V88.64H455.22ZM464.8 87.44V88.64H460.86V87.44H464.8ZM469.08 93.52H467V91.06H460.86V89.88H466.68V86.2H460.86V85.18H468.66V83.68H460.86V82.22H458.98V83.68H451.4V85.18H458.98V86.2H453.44V89.88H458.98V91.06H452.92V92.38H458.98V93.52H450.98V94.98H458.98V96.22H452.74V97.62H458.98V98.68C458.98 99.02 458.86 99.12 458.5 99.14C458.18 99.16 456.98 99.16 455.88 99.12C456.14 99.52 456.42 100.2 456.52 100.62C458.2 100.62 459.24 100.6 459.92 100.36C460.6 100.1 460.86 99.68 460.86 98.66V97.62H465.12V98.48H467V94.98H469.08V93.52ZM487.62 93.38C486.68 94.16 485.22 95.1 483.92 95.84C483.14 95.12 482.52 94.3 482 93.38H487.62ZM487.66 93.38H489.9V91.74H477.42V90.3H487.32V88.84H477.42V87.44H487.32V85.96H477.42V84.52H487.9V82.98H475.54V91.74H472.1V93.38H475.2V97.32C475.2 98.12 474.64 98.58 474.22 98.76C474.54 99.22 474.9 100.16 475.02 100.64L475.16 100.52C475.66 100.28 476.76 100.02 481.84 98.76C481.84 98.38 481.9 97.62 481.98 97.14L477.04 98.22V93.38H480.06C481.76 97.1 484.68 99.48 489.2 100.48C489.42 99.98 489.96 99.22 490.36 98.8C488.32 98.44 486.58 97.78 485.18 96.82C486.48 96.16 487.96 95.26 489.14 94.4L487.66 93.38Z" fill="white"/>
<path d="M380 12C380 5.37258 385.373 0 392 0H528C534.627 0 540 5.37258 540 12V60H380V12Z" fill="black"/>
<path d="M442.2 25.54H444.04V24.78H447.82V23.32H444.04V22.22H442.2V23.32H439.38V24.78H442.2V25.54ZM434.06 25.96H435.88V24.78H438.56V23.32H435.88V22.22H434.06V23.32H430.24V24.78H434.06V25.96ZM433.94 34.4V33.4H438V34.4H433.94ZM433.94 31.46H438V32.44H433.94V31.46ZM444.06 31.46V32.44H439.84V31.46H444.06ZM444.06 34.4H439.84V33.4H444.06V34.4ZM439.84 38.6V37.58H446.42V36.34H439.84V35.46H445.88V30.4H439.84V29.58H447.76V28.28H439.84V27.34C442.18 27.22 444.38 27.06 446.18 26.86L445.1 25.7C441.9 26.08 436.28 26.32 431.52 26.34C431.64 26.64 431.78 27.18 431.82 27.52C433.8 27.52 435.92 27.48 438 27.4V28.28H430.28V29.58H438V30.4H432.2V35.46H438V36.34H431.66V37.58H438V38.6H430.1V39.96H447.92V38.6H439.84ZM465.12 36.22H460.86V34.98H465.12V36.22ZM460.86 32.38H465.12V33.52H460.86V32.38ZM455.22 28.64V27.44H458.98V28.64H455.22ZM464.8 27.44V28.64H460.86V27.44H464.8ZM469.08 33.52H467V31.06H460.86V29.88H466.68V26.2H460.86V25.18H468.66V23.68H460.86V22.22H458.98V23.68H451.4V25.18H458.98V26.2H453.44V29.88H458.98V31.06H452.92V32.38H458.98V33.52H450.98V34.98H458.98V36.22H452.74V37.62H458.98V38.68C458.98 39.02 458.86 39.12 458.5 39.14C458.18 39.16 456.98 39.16 455.88 39.12C456.14 39.52 456.42 40.2 456.52 40.62C458.2 40.62 459.24 40.6 459.92 40.36C460.6 40.1 460.86 39.68 460.86 38.66V37.62H465.12V38.48H467V34.98H469.08V33.52ZM484.88 35.18V36.28H477.22V35.18H484.88ZM477.22 38.68V37.56H484.88V38.68H477.22ZM475.38 40.56H477.22V39.94H484.88V40.48H486.78V33.9H475.38V40.56ZM474.66 27.9C475.66 27.52 476.64 27.1 477.56 26.58V27.06H484.48V26.48C485.5 27.04 486.6 27.52 487.68 27.9H474.66ZM486.12 31.88H484C484.36 31.3 484.8 30.46 485.24 29.6L483.68 29.16C483.46 29.84 483.04 30.86 482.68 31.5L483.92 31.88H481.68V29.12H486.12V31.88ZM476.8 29.64C477.22 30.34 477.6 31.26 477.74 31.88H475.82V29.12H480.16V31.88H477.8L479.12 31.44C478.98 30.84 478.54 29.92 478.1 29.24L476.8 29.64ZM478.92 25.78C479.72 25.28 480.46 24.7 481.12 24.1C481.74 24.7 482.48 25.26 483.32 25.78H478.92ZM480.74 22.12C478.92 24.46 475.38 26.18 471.76 27.1C472.08 27.42 472.6 28.18 472.76 28.54C473.26 28.4 473.74 28.24 474.24 28.06V33.1H487.76V27.92C488.26 28.1 488.78 28.26 489.26 28.4C489.54 27.96 490.06 27.3 490.44 26.96C487.32 26.28 483.94 24.78 482.08 23.06C482.2 22.94 482.3 22.8 482.4 22.68L480.74 22.12Z" fill="white"/>
<rect x="95" y="100" width="160" height="60" rx="12" fill="#00B2A1"/>
<path d="M136.2 125.54H138.04V124.78H141.82V123.32H138.04V122.22H136.2V123.32H133.38V124.78H136.2V125.54ZM128.06 125.96H129.88V124.78H132.56V123.32H129.88V122.22H128.06V123.32H124.24V124.78H128.06V125.96ZM127.94 134.4V133.4H132V134.4H127.94ZM127.94 131.46H132V132.44H127.94V131.46ZM138.06 131.46V132.44H133.84V131.46H138.06ZM138.06 134.4H133.84V133.4H138.06V134.4ZM133.84 138.6V137.58H140.42V136.34H133.84V135.46H139.88V130.4H133.84V129.58H141.76V128.28H133.84V127.34C136.18 127.22 138.38 127.06 140.18 126.86L139.1 125.7C135.9 126.08 130.28 126.32 125.52 126.34C125.64 126.64 125.78 127.18 125.82 127.52C127.8 127.52 129.92 127.48 132 127.4V128.28H124.28V129.58H132V130.4H126.2V135.46H132V136.34H125.66V137.58H132V138.6H124.1V139.96H141.92V138.6H133.84ZM159.12 136.22H154.86V134.98H159.12V136.22ZM154.86 132.38H159.12V133.52H154.86V132.38ZM149.22 128.64V127.44H152.98V128.64H149.22ZM158.8 127.44V128.64H154.86V127.44H158.8ZM163.08 133.52H161V131.06H154.86V129.88H160.68V126.2H154.86V125.18H162.66V123.68H154.86V122.22H152.98V123.68H145.4V125.18H152.98V126.2H147.44V129.88H152.98V131.06H146.92V132.38H152.98V133.52H144.98V134.98H152.98V136.22H146.74V137.62H152.98V138.68C152.98 139.02 152.86 139.12 152.5 139.14C152.18 139.16 150.98 139.16 149.88 139.12C150.14 139.52 150.42 140.2 150.52 140.62C152.2 140.62 153.24 140.6 153.92 140.36C154.6 140.1 154.86 139.68 154.86 138.66V137.62H159.12V138.48H161V134.98H163.08V133.52ZM178.88 135.18V136.28H171.22V135.18H178.88ZM171.22 138.68V137.56H178.88V138.68H171.22ZM169.38 140.56H171.22V139.94H178.88V140.48H180.78V133.9H169.38V140.56ZM168.66 127.9C169.66 127.52 170.64 127.1 171.56 126.58V127.06H178.48V126.48C179.5 127.04 180.6 127.52 181.68 127.9H168.66ZM180.12 131.88H178C178.36 131.3 178.8 130.46 179.24 129.6L177.68 129.16C177.46 129.84 177.04 130.86 176.68 131.5L177.92 131.88H175.68V129.12H180.12V131.88ZM170.8 129.64C171.22 130.34 171.6 131.26 171.74 131.88H169.82V129.12H174.16V131.88H171.8L173.12 131.44C172.98 130.84 172.54 129.92 172.1 129.24L170.8 129.64ZM172.92 125.78C173.72 125.28 174.46 124.7 175.12 124.1C175.74 124.7 176.48 125.26 177.32 125.78H172.92ZM174.74 122.12C172.92 124.46 169.38 126.18 165.76 127.1C166.08 127.42 166.6 128.18 166.76 128.54C167.26 128.4 167.74 128.24 168.24 128.06V133.1H181.76V127.92C182.26 128.1 182.78 128.26 183.26 128.4C183.54 127.96 184.06 127.3 184.44 126.96C181.32 126.28 177.94 124.78 176.08 123.06C176.2 122.94 176.3 122.8 176.4 122.68L174.74 122.12ZM201.2 125.02C200.38 124.2 198.66 122.98 197.42 122.2L196.32 123.46C197.56 124.32 199.22 125.6 200.02 126.44L201.2 125.02ZM193.72 133.18C193.58 133.68 193.4 134.14 193.24 134.54L194.68 135.04C195.36 133.42 195.76 130.7 195.96 128.66L194.56 128.32C194.42 129.86 194.16 131.66 193.74 133.14C193.4 132.6 191.98 130.6 191.48 129.98V129.6H193.7V127.88H191.48V124.6C192.28 124.4 193.06 124.14 193.72 123.86L192.6 122.36C191.28 123 189.18 123.56 187.3 123.94C187.48 124.36 187.74 124.96 187.82 125.38C188.44 125.28 189.1 125.16 189.76 125.02V127.88H187.18V129.6H189.56C188.9 131.7 187.76 134.1 186.68 135.46C187 135.96 187.44 136.76 187.62 137.28C188.38 136.24 189.14 134.7 189.76 133.06V140.6H191.48V132.22C191.92 133.12 192.4 134.08 192.64 134.64L193.72 133.18ZM199.34 138.74C198.66 138.74 198.56 138.6 198.56 137.78V136C199.9 134.22 201.02 132.2 202 129.98C202.7 131.76 203.36 133.98 203.58 135.46L205.28 134.98C205 133.38 204.26 131 203.44 129.16L202.2 129.5C202.94 127.72 203.58 125.84 204.14 123.82L202.36 123.48C201.46 126.98 200.22 130.12 198.56 132.82V126.7H196.8V135.32C195.68 136.72 194.4 137.92 192.96 138.92C193.4 139.2 194.18 139.84 194.46 140.18C195.28 139.54 196.08 138.86 196.8 138.1C196.86 139.86 197.36 140.36 199.12 140.36H201.62C203.24 140.36 203.68 139.48 203.88 136.6C203.4 136.48 202.7 136.2 202.3 135.88C202.2 138.24 202.1 138.74 201.46 138.74H199.34ZM221.7 135.56V136.56H212.48V135.56H221.7ZM212.48 138.78V137.72H221.7V138.78H212.48ZM210.66 140.62H212.48V140.02H221.7V140.6H223.58V134.36H210.66V140.62ZM217.86 126.96H221.64V127.94H217.86V126.96ZM217.86 124.66H221.64V125.62H217.86V124.66ZM217.86 132.2V131.24H224.46V130.04H217.86V129.12H223.48V126.96H225.84V125.62H223.48V123.52H217.86V122.16H215.98V123.52H210.24V124.66H215.98V125.62H208.16V126.96H215.98V127.94H210V129.12H215.98V130.04H209.52V131.24H215.98V132.2H208.14V133.54H225.86V132.2H217.86Z" fill="white"/>
<rect x="665" y="30" width="160" height="60" rx="12" fill="#00B2A1"/>
<path d="M706.2 55.54H708.04V54.78H711.82V53.32H708.04V52.22H706.2V53.32H703.38V54.78H706.2V55.54ZM698.06 55.96H699.88V54.78H702.56V53.32H699.88V52.22H698.06V53.32H694.24V54.78H698.06V55.96ZM697.94 64.4V63.4H702V64.4H697.94ZM697.94 61.46H702V62.44H697.94V61.46ZM708.06 61.46V62.44H703.84V61.46H708.06ZM708.06 64.4H703.84V63.4H708.06V64.4ZM703.84 68.6V67.58H710.42V66.34H703.84V65.46H709.88V60.4H703.84V59.58H711.76V58.28H703.84V57.34C706.18 57.22 708.38 57.06 710.18 56.86L709.1 55.7C705.9 56.08 700.28 56.32 695.52 56.34C695.64 56.64 695.78 57.18 695.82 57.52C697.8 57.52 699.92 57.48 702 57.4V58.28H694.28V59.58H702V60.4H696.2V65.46H702V66.34H695.66V67.58H702V68.6H694.1V69.96H711.92V68.6H703.84ZM729.12 66.22H724.86V64.98H729.12V66.22ZM724.86 62.38H729.12V63.52H724.86V62.38ZM719.22 58.64V57.44H722.98V58.64H719.22ZM728.8 57.44V58.64H724.86V57.44H728.8ZM733.08 63.52H731V61.06H724.86V59.88H730.68V56.2H724.86V55.18H732.66V53.68H724.86V52.22H722.98V53.68H715.4V55.18H722.98V56.2H717.44V59.88H722.98V61.06H716.92V62.38H722.98V63.52H714.98V64.98H722.98V66.22H716.74V67.62H722.98V68.68C722.98 69.02 722.86 69.12 722.5 69.14C722.18 69.16 720.98 69.16 719.88 69.12C720.14 69.52 720.42 70.2 720.52 70.62C722.2 70.62 723.24 70.6 723.92 70.36C724.6 70.1 724.86 69.68 724.86 68.66V67.62H729.12V68.48H731V64.98H733.08V63.52ZM748.88 65.18V66.28H741.22V65.18H748.88ZM741.22 68.68V67.56H748.88V68.68H741.22ZM739.38 70.56H741.22V69.94H748.88V70.48H750.78V63.9H739.38V70.56ZM738.66 57.9C739.66 57.52 740.64 57.1 741.56 56.58V57.06H748.48V56.48C749.5 57.04 750.6 57.52 751.68 57.9H738.66ZM750.12 61.88H748C748.36 61.3 748.8 60.46 749.24 59.6L747.68 59.16C747.46 59.84 747.04 60.86 746.68 61.5L747.92 61.88H745.68V59.12H750.12V61.88ZM740.8 59.64C741.22 60.34 741.6 61.26 741.74 61.88H739.82V59.12H744.16V61.88H741.8L743.12 61.44C742.98 60.84 742.54 59.92 742.1 59.24L740.8 59.64ZM742.92 55.78C743.72 55.28 744.46 54.7 745.12 54.1C745.74 54.7 746.48 55.26 747.32 55.78H742.92ZM744.74 52.12C742.92 54.46 739.38 56.18 735.76 57.1C736.08 57.42 736.6 58.18 736.76 58.54C737.26 58.4 737.74 58.24 738.24 58.06V63.1H751.76V57.92C752.26 58.1 752.78 58.26 753.26 58.4C753.54 57.96 754.06 57.3 754.44 56.96C751.32 56.28 747.94 54.78 746.08 53.06C746.2 52.94 746.3 52.8 746.4 52.68L744.74 52.12ZM772.32 65.2V66.34H766.5V65.2H772.32ZM766.5 68.58V67.5H772.32V68.58H766.5ZM764.82 70.56H766.5V69.76H772.32V70.54H774.08V64.02H764.82V70.56ZM773.28 58.62C774.46 58.62 774.88 58.22 775.04 56.66C774.62 56.58 773.98 56.36 773.68 56.14C773.62 57.16 773.54 57.3 773.1 57.3H771.26C770.72 57.3 770.62 57.24 770.62 56.86V55.74H774.74V54.36H772.94L773.62 53.66C773.02 53.22 771.9 52.56 771 52.14L770.06 53.02C770.76 53.38 771.62 53.9 772.26 54.36H769.1C769.1 54.24 769.1 54.14 769.1 54.02V52.24H767.54V53.98C767.54 54.1 767.54 54.24 767.52 54.36H763.84V55.74H767.04C766.5 56.5 765.46 57.22 763.44 57.78L763.5 57.88H761.46V54.66C762.28 54.46 763.04 54.22 763.72 53.94L762.64 52.36C761.22 53 759 53.6 757 53.94C757.22 54.38 757.46 55.02 757.54 55.44C758.22 55.34 758.98 55.22 759.7 55.06V57.88H756.96V59.6H759.48C758.8 61.7 757.66 64.1 756.56 65.46C756.86 65.92 757.28 66.7 757.48 67.22C758.26 66.14 759.06 64.54 759.7 62.82V70.6H761.46V62.48C762.04 63.4 762.68 64.46 762.96 65.06L763.96 63.5C763.6 63.04 762.04 61.24 761.46 60.62V59.6H763.56V57.96C763.76 58.32 764 58.84 764.1 59.18C764.36 59.1 764.58 59.04 764.82 58.96V61.1C764.82 62.58 765.3 63.14 767.2 63.14H772.24C773.12 63.14 774.1 63.14 774.5 63.02C774.44 62.64 774.38 62.14 774.34 61.68C773.86 61.78 772.76 61.82 772.08 61.82H767.32C766.58 61.82 766.46 61.64 766.46 61.12V60.84H773.96V59.56H766.46V58.74H765.4C767.48 57.94 768.44 56.88 768.84 55.74H769.06V56.88C769.06 58.24 769.44 58.62 771.08 58.62H773.28ZM792.6 57.94C792.28 58.52 791.9 59.14 791.46 59.7L788.42 59.86C789.1 58.84 789.92 57.52 790.56 56.48H796.12V54.78H791.96C791.8 54.04 791.32 52.94 790.82 52.1L789.08 52.64C789.42 53.3 789.76 54.12 789.94 54.78H784.98V56.48H788.6C787.92 57.56 786.96 59.12 786.62 59.48C786.26 59.86 785.64 60 785.2 60.1C785.36 60.5 785.62 61.38 785.7 61.8C786.08 61.66 786.72 61.56 790 61.3C788.58 62.7 786.8 63.9 784.88 64.74C785.2 65.1 785.7 65.76 785.9 66.18C789.52 64.5 792.6 61.64 794.36 58.52L792.6 57.94ZM784.78 61.96C784.44 61.42 783 59.2 782.48 58.46V57.72H784.6V56H782.48V52.24H780.7V56H778.16V57.72H780.62C780.06 60.3 778.9 63.3 777.66 64.88C778 65.38 778.4 66.2 778.6 66.72C779.36 65.6 780.12 63.86 780.7 62V70.58H782.48V60.76C782.96 61.68 783.44 62.68 783.68 63.26L784.78 61.96ZM793.94 61.58C792.26 64.82 788.5 67.64 783.88 69.04C784.22 69.44 784.74 70.16 784.96 70.6C787.42 69.78 789.62 68.62 791.48 67.18C792.76 68.26 794.14 69.54 794.86 70.4L796.3 69.16C795.52 68.32 794.06 67.08 792.78 66.06C794 64.92 795.04 63.66 795.84 62.26L793.94 61.58Z" fill="white"/>
</svg>
