<svg width="160" height="160" viewBox="0 0 160 160" fill="none" xmlns="http://www.w3.org/2000/svg">
<g clip-path="url(#clip0_61_1650)">
<path d="M103.237 32.6186H96.2133C96.4269 32.2254 96.5484 31.7888 96.5686 31.3418C96.5889 30.8948 96.5073 30.449 96.3301 30.0381C96.1529 29.6272 95.8847 29.262 95.5457 28.9699C95.2067 28.6778 94.8058 28.4665 94.3733 28.3519C94.2041 24.7895 92.719 21.4166 90.2056 18.8864C87.6921 16.3562 84.3291 14.8487 80.7679 14.6559V13.6106H85.7919C85.893 13.6092 85.9928 13.5878 86.0855 13.5475C86.1782 13.5072 86.262 13.4489 86.332 13.376C86.4019 13.303 86.4567 13.2169 86.4931 13.1226C86.5295 13.0283 86.5468 12.9277 86.5439 12.8266V8.76261C86.5371 8.56683 86.4552 8.38118 86.3152 8.24415C86.1752 8.10713 85.9878 8.02923 85.7919 8.02661H79.9999C79.7972 8.02661 79.6026 8.10679 79.4587 8.24966C79.3149 8.39254 79.2333 8.58652 79.2319 8.78928V14.6559C76.8503 14.7829 74.5375 15.4995 72.5013 16.7413C72.4076 16.7898 72.325 16.8571 72.2585 16.939C72.1921 17.0208 72.1432 17.1155 72.1149 17.2171C72.0866 17.3187 72.0795 17.425 72.0941 17.5294C72.1087 17.6339 72.1447 17.7342 72.1997 17.8241C72.2548 17.9141 72.3278 17.9917 72.4142 18.0522C72.5005 18.1127 72.5984 18.1547 72.7018 18.1757C72.8051 18.1967 72.9117 18.1962 73.0148 18.1742C73.118 18.1522 73.2155 18.1093 73.3013 18.0479C75.1945 16.895 77.3535 16.2508 79.5689 16.1779C81.7844 16.105 83.9811 16.6058 85.946 17.6317C87.911 18.6576 89.5775 20.1739 90.7839 22.0335C91.9904 23.893 92.6959 26.0328 92.8319 28.2453H82.6453L81.2373 27.4399C80.8605 27.2273 80.4352 27.1156 80.0026 27.1156C79.57 27.1156 79.1447 27.2273 78.7679 27.4399L77.3546 28.2453H67.1679C67.3486 25.0527 68.7231 22.0448 71.0186 19.8186C71.1463 19.6735 71.2146 19.4856 71.2099 19.2924C71.2052 19.0992 71.1278 18.9148 70.9932 18.7762C70.8585 18.6375 70.6765 18.5547 70.4835 18.5443C70.2905 18.5338 70.1007 18.5966 69.9519 18.7199C67.3408 21.2522 65.7955 24.6862 65.6319 28.3199C65.0014 28.4877 64.4439 28.8588 64.0457 29.3756C63.6474 29.8924 63.4308 30.5262 63.4293 31.1786C63.429 31.6751 63.5556 32.1635 63.7973 32.5973H56.7626C56.0254 32.606 55.3181 32.8901 54.7796 33.3936C54.2411 33.8972 53.9103 34.5838 53.8522 35.3188C53.7941 36.0537 54.0128 36.7839 54.4655 37.3658C54.9181 37.9477 55.5719 38.3394 56.2986 38.4639V59.5893C56.2986 59.793 56.3795 59.9883 56.5235 60.1323C56.6676 60.2764 56.8629 60.3573 57.0666 60.3573H102.933C103.136 60.3559 103.33 60.2743 103.473 60.1305C103.616 59.9866 103.696 59.792 103.696 59.5893V38.4906C104.423 38.3661 105.076 37.9744 105.529 37.3925C105.982 36.8105 106.2 36.0804 106.142 35.3454C106.084 34.6105 105.753 33.9238 105.215 33.4203C104.676 32.9167 103.969 32.6327 103.232 32.6239L103.237 32.6186ZM80.7679 9.53061H85.0079V12.0799H80.7679V9.53061ZM93.6213 29.7973C93.9975 29.7973 94.3584 29.9467 94.6244 30.2128C94.8905 30.4788 95.0399 30.8397 95.0399 31.2159C95.0399 31.5922 94.8905 31.953 94.6244 32.2191C94.3584 32.4851 93.9975 32.6346 93.6213 32.6346H90.3306L85.3439 29.7973H93.6213ZM66.3786 29.7973H74.6559L69.6693 32.6346H66.3786C66.0023 32.6346 65.6415 32.4851 65.3754 32.2191C65.1094 31.953 64.9599 31.5922 64.9599 31.2159C64.9599 30.8397 65.1094 30.4788 65.3754 30.2128C65.6415 29.9467 66.0023 29.7973 66.3786 29.7973ZM56.7786 37.0079C56.5923 37.0081 56.4078 36.9714 56.2357 36.9C56.0637 36.8287 55.9074 36.7239 55.7759 36.5919C55.643 36.4612 55.5376 36.3051 55.4662 36.1328C55.3947 35.9606 55.3586 35.7757 55.3599 35.5893C55.3599 35.213 55.5094 34.8522 55.7754 34.5861C56.0415 34.3201 56.4023 34.1706 56.7786 34.1706H66.9866L64.9919 35.2799C64.6746 35.4575 64.4006 35.7031 64.1894 35.9991C63.9783 36.2951 63.8352 36.6341 63.7706 36.9919L56.7786 37.0079ZM65.4666 55.8186H65.3013C65.0976 55.8186 64.9022 55.8995 64.7582 56.0436C64.6142 56.1876 64.5333 56.3829 64.5333 56.5866V58.8639H57.8346V56.8639H60.9439C61.1476 56.8639 61.343 56.783 61.487 56.639C61.631 56.495 61.7119 56.2996 61.7119 56.0959V41.4773C61.7105 41.274 61.6292 41.0795 61.4854 40.9358C61.3417 40.792 61.1472 40.7107 60.9439 40.7093H57.8346V38.5226H63.9679C64.1112 38.8311 64.317 39.1066 64.5722 39.3315C64.8274 39.5564 65.1265 39.7259 65.4506 39.8293L65.4666 55.8186ZM57.8506 55.3333V42.2453H60.1919V55.3173L57.8506 55.3333ZM65.3173 37.7333C65.2615 37.5304 65.276 37.3147 65.3583 37.1211C65.4406 36.9274 65.5859 36.7673 65.7706 36.6666L79.5519 28.8266C79.6975 28.7469 79.8606 28.7047 80.0266 28.7039C80.1926 28.704 80.356 28.7462 80.5013 28.8266L94.2826 36.6719C94.4497 36.7847 94.5771 36.9473 94.6467 37.1365C94.7162 37.3257 94.7245 37.5321 94.6702 37.7263C94.6159 37.9204 94.5018 38.0926 94.3442 38.2183C94.1865 38.344 93.9933 38.4169 93.7919 38.4266H66.2186C66.0031 38.4315 65.7927 38.3613 65.6233 38.228C65.454 38.0946 65.3364 37.9065 65.2906 37.6959L65.3173 37.7333ZM93.9733 58.8853H66.0586V57.3759H93.9519L93.9733 58.8853ZM70.3253 55.8026V44.2933C70.3253 44.0874 70.3658 43.8835 70.4446 43.6932C70.5234 43.503 70.6389 43.3301 70.7845 43.1845C70.9301 43.0389 71.103 42.9234 71.2932 42.8446C71.4835 42.7658 71.6873 42.7253 71.8933 42.7253C72.0992 42.7253 72.3031 42.7658 72.4933 42.8446C72.6835 42.9234 72.8564 43.0389 73.002 43.1845C73.1476 43.3301 73.2631 43.503 73.3419 43.6932C73.4207 43.8835 73.4613 44.0874 73.4613 44.2933V55.7919L70.3253 55.8026ZM78.4533 55.8026V44.2933C78.4533 43.8774 78.6185 43.4786 78.9125 43.1845C79.2066 42.8905 79.6054 42.7253 80.0213 42.7253C80.4371 42.7253 80.8359 42.8905 81.13 43.1845C81.4241 43.4786 81.5893 43.8774 81.5893 44.2933V55.7919L78.4533 55.8026ZM86.5813 55.8026V44.2933C86.5688 44.0793 86.6002 43.8651 86.6735 43.6637C86.7467 43.4623 86.8604 43.278 87.0075 43.1221C87.1546 42.9662 87.332 42.842 87.5287 42.7571C87.7255 42.6722 87.9376 42.6284 88.1519 42.6284C88.3663 42.6284 88.5783 42.6722 88.7751 42.7571C88.9719 42.842 89.1493 42.9662 89.2964 43.1221C89.4434 43.278 89.5571 43.4623 89.6304 43.6637C89.7037 43.8651 89.7351 44.0793 89.7226 44.2933V55.7919L86.5813 55.8026ZM102.192 40.7093H99.0773C98.8745 40.7107 98.6805 40.7922 98.5376 40.9361C98.3948 41.08 98.3146 41.2745 98.3146 41.4773V56.0799C98.3139 56.1805 98.3331 56.2803 98.3711 56.3734C98.4091 56.4666 98.4652 56.5513 98.5361 56.6227C98.607 56.6941 98.6913 56.7507 98.7842 56.7894C98.877 56.828 98.9767 56.8479 99.0773 56.8479H102.192V58.8479H95.4826V56.5599C95.4833 56.4589 95.4639 56.3587 95.4256 56.2652C95.3872 56.1717 95.3307 56.0868 95.2592 56.0153C95.1878 55.9438 95.1028 55.8873 95.0093 55.849C94.9158 55.8106 94.8156 55.7912 94.7146 55.7919H94.5493V51.4133C94.5493 51.2096 94.4683 51.0142 94.3243 50.8702C94.1803 50.7262 93.9849 50.6453 93.7813 50.6453C93.5776 50.6453 93.3822 50.7262 93.2382 50.8702C93.0942 51.0142 93.0133 51.2096 93.0133 51.4133V55.7919H91.2319V44.2933C91.2319 43.47 90.9049 42.6805 90.3228 42.0984C89.7407 41.5163 88.9512 41.1893 88.1279 41.1893C87.3047 41.1893 86.5152 41.5163 85.9331 42.0984C85.351 42.6805 85.0239 43.47 85.0239 44.2933V55.7919H83.1253V44.2933C83.1253 43.47 82.7982 42.6805 82.2161 42.0984C81.634 41.5163 80.8445 41.1893 80.0213 41.1893C79.198 41.1893 78.4085 41.5163 77.8264 42.0984C77.2443 42.6805 76.9173 43.47 76.9173 44.2933V55.7919H74.9973V44.2933C74.9973 43.47 74.6702 42.6805 74.0881 42.0984C73.506 41.5163 72.7165 41.1893 71.8933 41.1893C71.07 41.1893 70.2805 41.5163 69.6984 42.0984C69.1163 42.6805 68.7893 43.47 68.7893 44.2933V55.7919H67.0079V39.9466H93.0346V48.3519C93.0346 48.5556 93.1155 48.751 93.2595 48.895C93.4036 49.039 93.5989 49.1199 93.8026 49.1199C94.0063 49.1199 94.2016 49.039 94.3457 48.895C94.4897 48.751 94.5706 48.5556 94.5706 48.3519V39.8186C94.8951 39.7161 95.1947 39.5469 95.45 39.3219C95.7053 39.0969 95.9108 38.821 96.0533 38.5119H102.192V40.7093ZM102.192 42.2453V55.3173H99.8453V42.2453H102.192ZM103.259 36.9919H96.2399C96.174 36.6339 96.0298 36.2949 95.8178 35.9989C95.6058 35.703 95.3311 35.4575 95.0133 35.2799L93.0293 34.1599H103.237C103.614 34.1599 103.974 34.3094 104.24 34.5755C104.506 34.8415 104.656 35.2024 104.656 35.5786C104.656 35.9549 104.506 36.3157 104.24 36.5818C103.974 36.8478 103.614 36.9973 103.237 36.9973L103.259 36.9919Z" fill="url(#paint0_linear_61_1650)"/>
<path d="M50.6554 139.013V129.413H48.9061V139.013H43.6687V135.52H41.9248V139.013H36.6874V108.459H48.9061V127.659H50.6554V107.584C50.654 107.352 50.5614 107.131 50.3977 106.967C50.234 106.803 50.0123 106.711 49.7808 106.709H48.9061V104.091C48.9061 103.86 48.8147 103.638 48.6518 103.474C48.4889 103.31 48.2678 103.217 48.0367 103.216H43.6687V99.728H41.9248V103.216H37.5568C37.3257 103.217 37.1046 103.31 36.9417 103.474C36.7788 103.638 36.6874 103.86 36.6874 104.091V106.693H35.7914C35.5594 106.693 35.337 106.786 35.1729 106.95C35.0089 107.114 34.9167 107.336 34.9167 107.568V112.805H30.5541C30.4392 112.805 30.3253 112.827 30.2191 112.871C30.1129 112.915 30.0165 112.98 29.9354 113.061L22.9914 120.064C22.8287 120.227 22.7367 120.447 22.7354 120.677V125.765L18.0687 121.76C17.9099 121.626 17.7087 121.552 17.5007 121.552C17.2928 121.552 17.0916 121.626 16.9328 121.76L10.8208 127.003C10.7253 127.084 10.6487 127.186 10.5962 127.3C10.5437 127.414 10.5166 127.538 10.5167 127.664V131.36L7.47142 129.536C7.33614 129.455 7.18127 129.412 7.02342 129.412C6.86557 129.412 6.7107 129.455 6.57542 129.536L2.19142 132.155C2.06265 132.232 1.95615 132.342 1.88231 132.472C1.80846 132.603 1.7698 132.751 1.77008 132.901V139.013H0.020752V140.757H4.62876C6.57857 143.592 9.06761 146.015 11.9537 147.887C14.8399 149.76 18.0666 151.045 21.4496 151.671C24.8327 152.296 28.3058 152.249 31.6707 151.533C35.0356 150.816 38.2263 149.443 41.0608 147.493C41.3541 147.296 41.6421 147.083 41.9248 146.869C44.1993 145.164 46.1808 143.1 47.7914 140.757H52.3994V139.013H50.6554ZM38.4581 104.965H47.1888V106.693H38.4581V104.965ZM24.4634 121.04L30.9381 114.571H34.9381V139.013H30.5754V135.52H28.8261V139.013H24.4634V121.04ZM35.8448 140.773C35.0747 142.299 34.1829 143.759 33.1781 145.141H19.2581C18.2495 143.762 17.3575 142.301 16.5914 140.773H35.8448ZM12.2394 128.08L17.4768 123.589L22.7141 128.08V139.013H18.3514V135.52H16.5914V139.013H12.2234L12.2394 128.08ZM6.12742 139.013H3.50876V133.397L7.00208 131.301L10.4954 133.397V139.013H7.87676V135.52H6.12742V139.013ZM6.78341 140.757H14.6341C15.345 142.276 16.1743 143.737 17.1141 145.125H11.0874C9.47572 143.855 8.02975 142.388 6.78341 140.757ZM13.6154 146.869H18.3781C19.1742 147.894 20.0308 148.87 20.9434 149.792C18.3583 149.222 15.8832 148.235 13.6154 146.869ZM28.3674 150.267C27.6563 150.331 26.9363 150.363 26.2074 150.363C25.4821 150.363 24.7674 150.331 24.0741 150.267C22.8378 149.234 21.6923 148.097 20.6501 146.869H31.8074C30.7603 148.098 29.6093 149.235 28.3674 150.267ZM31.4714 149.792C32.3855 148.871 33.2422 147.895 34.0368 146.869H38.7994C36.5325 148.237 34.0572 149.224 31.4714 149.792ZM41.3328 145.125H35.3007C36.2423 143.737 37.0733 142.276 37.7861 140.757H45.6367C44.3904 142.388 42.9445 143.855 41.3328 145.125Z" fill="url(#paint1_linear_61_1650)"/>
<path d="M15.7274 129.413H13.9834V133.776H15.7274V129.413Z" fill="url(#paint2_linear_61_1650)"/>
<path d="M20.9701 129.413H19.2261V133.776H20.9701V129.413Z" fill="url(#paint3_linear_61_1650)"/>
<path d="M27.9515 129.413H26.2075V133.776H27.9515V129.413Z" fill="url(#paint4_linear_61_1650)"/>
<path d="M33.1888 129.413H31.4448V133.776H33.1888V129.413Z" fill="url(#paint5_linear_61_1650)"/>
<path d="M27.9515 123.301H26.2075V127.664H27.9515V123.301Z" fill="url(#paint6_linear_61_1650)"/>
<path d="M33.1888 123.301H31.4448V127.664H33.1888V123.301Z" fill="url(#paint7_linear_61_1650)"/>
<path d="M40.1754 123.301H38.4314V127.664H40.1754V123.301Z" fill="url(#paint8_linear_61_1650)"/>
<path d="M43.6688 123.301H41.9248V127.664H43.6688V123.301Z" fill="url(#paint9_linear_61_1650)"/>
<path d="M40.1754 117.189H38.4314V121.552H40.1754V117.189Z" fill="url(#paint10_linear_61_1650)"/>
<path d="M43.6688 117.189H41.9248V121.552H43.6688V117.189Z" fill="url(#paint11_linear_61_1650)"/>
<path d="M40.1754 111.077H38.4314V115.44H40.1754V111.077Z" fill="url(#paint12_linear_61_1650)"/>
<path d="M43.6688 111.077H41.9248V115.44H43.6688V111.077Z" fill="url(#paint13_linear_61_1650)"/>
<path d="M47.1569 123.301H45.4128V127.664H47.1569V123.301Z" fill="url(#paint14_linear_61_1650)"/>
<path d="M40.1754 129.413H38.4314V133.776H40.1754V129.413Z" fill="url(#paint15_linear_61_1650)"/>
<path d="M43.6688 129.413H41.9248V133.776H43.6688V129.413Z" fill="url(#paint16_linear_61_1650)"/>
<path d="M47.1569 129.413H45.4128V133.776H47.1569V129.413Z" fill="url(#paint17_linear_61_1650)"/>
<path d="M47.1569 117.189H45.4128V121.552H47.1569V117.189Z" fill="url(#paint18_linear_61_1650)"/>
<path d="M47.1569 111.077H45.4128V115.44H47.1569V111.077Z" fill="url(#paint19_linear_61_1650)"/>
<path d="M33.1888 117.189H31.4448V121.552H33.1888V117.189Z" fill="url(#paint20_linear_61_1650)"/>
<path d="M0.543376 127.589C0.699377 127.657 0.871533 127.677 1.03905 127.649C1.20656 127.621 1.36226 127.544 1.48737 127.429L14.0207 115.76L18.666 119.632C18.8378 119.776 19.0585 119.848 19.2821 119.833C19.5057 119.818 19.7149 119.717 19.866 119.552L29.8394 108.752L31.834 110.085C32.0272 110.213 32.2631 110.259 32.4901 110.213C32.717 110.167 32.9165 110.033 33.0447 109.84C33.1237 109.722 33.1731 109.587 33.1887 109.445L34.0634 100.715C34.0857 100.484 34.0159 100.253 33.8691 100.073C33.7222 99.8934 33.5103 99.7789 33.2794 99.7547C33.166 99.743 33.0514 99.7558 32.9434 99.792L24.2127 102.411C24.0544 102.459 23.9129 102.551 23.8047 102.676C23.6965 102.801 23.626 102.954 23.6015 103.118C23.5769 103.281 23.5992 103.449 23.6659 103.6C23.7325 103.752 23.8408 103.881 23.978 103.973L25.7594 105.157L19.1354 112.512L14.5434 108.688C14.3811 108.551 14.1738 108.478 13.9613 108.484C13.7487 108.49 13.5458 108.574 13.3914 108.72L8.71404 113.083L9.90337 114.357L14.0207 110.523L18.666 114.395C18.8395 114.539 19.0621 114.61 19.287 114.593C19.5119 114.576 19.7215 114.473 19.8714 114.304L27.7327 105.573C27.8094 105.488 27.8685 105.388 27.9066 105.28C27.9447 105.172 27.961 105.057 27.9545 104.943C27.9481 104.828 27.919 104.716 27.8691 104.613C27.8191 104.51 27.7492 104.417 27.6634 104.341C27.6337 104.314 27.6016 104.289 27.5674 104.267L26.5007 103.547L32.2074 101.835L31.6047 107.824L30.1967 106.885C30.0242 106.769 29.8158 106.719 29.6093 106.743C29.4029 106.768 29.212 106.866 29.0714 107.019L19.146 117.733L14.5434 113.899C14.3806 113.762 14.1735 113.69 13.9613 113.696C13.7491 113.702 13.5464 113.786 13.3914 113.931L1.76471 124.784V121.931L8.4687 115.669L7.27938 114.395L0.292708 120.912C0.205553 120.994 0.136035 121.094 0.0883626 121.204C0.0406899 121.314 0.015862 121.432 0.0153809 121.552V126.789C0.015972 126.96 0.0662352 127.126 0.160026 127.268C0.253817 127.41 0.387052 127.522 0.543376 127.589Z" fill="url(#paint21_linear_61_1650)"/>
<path d="M160.133 135.701C160.136 134.546 159.809 133.413 159.19 132.437C158.571 131.461 157.687 130.682 156.64 130.192C156.882 129.832 157.018 129.412 157.035 128.979C157.052 128.545 156.948 128.116 156.735 127.738C156.522 127.361 156.209 127.05 155.829 126.84C155.45 126.63 155.02 126.529 154.587 126.549C154.352 125.649 154.352 124.703 154.587 123.803C157.643 123.963 157.845 119.173 154.747 119.173H149.157L146.965 111.803L157.461 109.045C157.852 108.932 158.195 108.695 158.439 108.37C158.683 108.045 158.815 107.649 158.815 107.243C158.815 106.836 158.683 106.441 158.439 106.116C158.195 105.791 157.852 105.553 157.461 105.44L137.099 100.107C135.237 99.6212 133.281 99.6212 131.419 100.107L123.845 102.096C123.648 102.148 123.479 102.276 123.376 102.452C123.273 102.628 123.245 102.837 123.296 103.035C123.348 103.232 123.476 103.401 123.652 103.504C123.828 103.607 124.038 103.636 124.235 103.584L131.808 101.595C133.415 101.173 135.103 101.173 136.709 101.595L157.072 106.928C157.143 106.946 157.206 106.988 157.25 107.046C157.295 107.104 157.32 107.175 157.32 107.248C157.32 107.321 157.295 107.392 157.25 107.45C157.206 107.508 157.143 107.55 157.072 107.568L141.403 111.685L136.469 107.227V105.451C136.441 104.864 136.188 104.31 135.762 103.905C135.337 103.499 134.772 103.273 134.184 103.273C133.596 103.273 133.031 103.499 132.606 103.905C132.18 104.31 131.927 104.864 131.899 105.451V107.632C131.899 107.764 131.933 107.893 131.997 108.008C132.061 108.123 132.154 108.219 132.267 108.288C132.764 108.6 133.33 108.786 133.916 108.829C134.501 108.873 135.089 108.773 135.627 108.539L139.627 112.165L136.709 112.933C135.103 113.355 133.415 113.355 131.808 112.933L111.445 107.6C111.375 107.582 111.312 107.54 111.267 107.482C111.222 107.424 111.198 107.353 111.198 107.28C111.198 107.207 111.222 107.136 111.267 107.078C111.312 107.02 111.375 106.978 111.445 106.96L120.352 104.624C120.549 104.572 120.718 104.444 120.821 104.268C120.924 104.092 120.953 103.883 120.901 103.685C120.85 103.488 120.722 103.319 120.546 103.216C120.37 103.113 120.16 103.084 119.963 103.136L111.056 105.477C110.666 105.591 110.323 105.828 110.079 106.153C109.835 106.478 109.703 106.874 109.703 107.28C109.703 107.686 109.835 108.082 110.079 108.407C110.323 108.732 110.666 108.969 111.056 109.083L121.552 111.84L119.36 119.173H117.515C116.298 119.165 115.108 119.526 114.102 120.209C113.095 120.892 112.32 121.865 111.879 122.999C111.439 124.133 111.353 125.374 111.633 126.557C111.914 127.741 112.548 128.811 113.451 129.627H110.699C110.11 129.631 109.544 129.859 109.118 130.265C108.691 130.671 108.436 131.225 108.403 131.813C108.37 132.401 108.563 132.98 108.942 133.431C109.321 133.881 109.858 134.171 110.443 134.24C110.677 135.15 110.677 136.104 110.443 137.013C109.88 137.08 109.361 137.351 108.984 137.774C108.608 138.198 108.4 138.745 108.4 139.312C108.4 139.879 108.608 140.426 108.984 140.85C109.361 141.273 109.88 141.544 110.443 141.611C109.529 142.415 108.882 143.478 108.588 144.659C108.294 145.84 108.367 147.083 108.796 148.222C109.226 149.36 109.993 150.341 110.994 151.033C111.995 151.725 113.183 152.096 114.4 152.096H157.835C158.424 152.092 158.989 151.864 159.416 151.458C159.842 151.051 160.098 150.498 160.131 149.91C160.163 149.321 159.97 148.743 159.591 148.292C159.212 147.841 158.676 147.552 158.091 147.483C157.856 146.571 157.856 145.615 158.091 144.704C158.649 144.633 159.163 144.36 159.535 143.937C159.907 143.515 160.112 142.971 160.112 142.408C160.112 141.845 159.907 141.301 159.535 140.879C159.163 140.456 158.649 140.183 158.091 140.112C158.721 139.561 159.229 138.884 159.581 138.124C159.933 137.364 160.121 136.539 160.133 135.701ZM134.933 107.141C134.452 107.333 133.916 107.333 133.435 107.141V105.429C133.451 105.241 133.536 105.066 133.675 104.939C133.814 104.811 133.996 104.741 134.184 104.741C134.373 104.741 134.554 104.811 134.693 104.939C134.832 105.066 134.918 105.241 134.933 105.429V107.141ZM154.747 120.709C154.953 120.709 155.151 120.791 155.297 120.937C155.443 121.083 155.525 121.281 155.525 121.488C155.525 121.694 155.443 121.893 155.297 122.039C155.151 122.185 154.953 122.267 154.747 122.267H144.043C143.995 121.733 143.925 121.227 143.835 120.709H154.747ZM153.013 126.576H117.456C117.269 126.588 117.081 126.561 116.904 126.497C116.727 126.433 116.565 126.334 116.428 126.205C116.291 126.077 116.182 125.921 116.108 125.749C116.033 125.576 115.995 125.391 115.995 125.203C115.995 125.015 116.033 124.829 116.108 124.656C116.182 124.484 116.291 124.329 116.428 124.2C116.565 124.071 116.727 123.972 116.904 123.908C117.081 123.844 117.269 123.818 117.456 123.829H138.256C138.256 124.363 138.256 125.179 139.013 125.179H143.429C144.203 125.179 144.203 124.379 144.181 123.829H153.029C152.846 124.726 152.841 125.65 153.013 126.549V126.576ZM141.973 113.093L145.483 112.171L147.552 119.152H143.472C143.109 118.085 142.608 117.392 141.973 117.099V113.093ZM141.205 118.464C141.883 118.464 142.523 120.864 142.629 123.595H139.776C139.883 120.885 140.528 118.485 141.205 118.485V118.464ZM123.035 112.171L131.419 114.373C133.281 114.859 135.237 114.859 137.099 114.373L140.437 113.499V117.099C139.803 117.392 139.301 118.08 138.933 119.152H120.96L123.035 112.171ZM112.987 125.131C113.011 123.947 113.499 122.82 114.346 121.993C115.193 121.166 116.331 120.705 117.515 120.709H138.555C138.459 121.243 138.395 121.744 138.341 122.267H117.456C117.064 122.25 116.672 122.313 116.304 122.451C115.936 122.59 115.601 122.801 115.317 123.073C115.033 123.345 114.808 123.672 114.653 124.033C114.499 124.394 114.42 124.783 114.42 125.176C114.42 125.569 114.499 125.958 114.653 126.319C114.808 126.68 115.033 127.007 115.317 127.279C115.601 127.55 115.936 127.762 116.304 127.901C116.672 128.039 117.064 128.102 117.456 128.085H154.747C154.953 128.085 155.151 128.167 155.297 128.313C155.443 128.459 155.525 128.657 155.525 128.864C155.525 129.071 155.443 129.269 155.297 129.415C155.151 129.561 154.953 129.643 154.747 129.643H117.456C116.866 129.643 116.281 129.526 115.736 129.298C115.191 129.071 114.696 128.738 114.281 128.319C113.865 127.899 113.537 127.401 113.315 126.854C113.093 126.307 112.981 125.721 112.987 125.131ZM110.699 138.549H116.843V140.112H110.699C110.503 140.096 110.32 140.006 110.187 139.862C110.053 139.717 109.979 139.527 109.979 139.331C109.979 139.134 110.053 138.944 110.187 138.8C110.32 138.655 110.503 138.566 110.699 138.549ZM112.021 134.283H116.821V137.029H112.043C112.22 136.119 112.22 135.183 112.043 134.272L112.021 134.283ZM121.419 144.747H156.496C156.32 145.654 156.32 146.586 156.496 147.493H114.363C114.013 147.472 113.685 147.317 113.446 147.062C113.206 146.807 113.072 146.47 113.072 146.12C113.072 145.77 113.206 145.433 113.446 145.178C113.685 144.923 114.013 144.768 114.363 144.747H116.843V145.893C116.843 146.025 116.877 146.155 116.941 146.269C117.006 146.384 117.099 146.481 117.211 146.549C117.324 146.618 117.452 146.656 117.583 146.661C117.715 146.666 117.846 146.636 117.963 146.576L121.419 144.747ZM118.347 144.624V134.272H120.48V143.493L118.347 144.624ZM157.813 150.587H114.384C113.792 150.587 113.206 150.471 112.66 150.243C112.113 150.015 111.618 149.681 111.201 149.261C110.785 148.84 110.457 148.341 110.235 147.792C110.013 147.243 109.902 146.656 109.909 146.064C109.932 144.881 110.419 143.754 111.265 142.927C112.111 142.099 113.249 141.638 114.432 141.643H116.843V143.2H114.384C113.634 143.232 112.925 143.553 112.406 144.095C111.887 144.637 111.597 145.359 111.597 146.109C111.597 146.86 111.887 147.582 112.406 148.124C112.925 148.666 113.634 148.987 114.384 149.019H157.819C158.025 149.019 158.223 149.101 158.369 149.247C158.515 149.393 158.597 149.591 158.597 149.797C158.597 150.004 158.515 150.202 158.369 150.348C158.223 150.494 158.025 150.576 157.819 150.576L157.813 150.587ZM150.043 141.653H157.813C158.02 141.653 158.218 141.735 158.364 141.881C158.51 142.027 158.592 142.225 158.592 142.432C158.592 142.639 158.51 142.837 158.364 142.983C158.218 143.129 158.02 143.211 157.813 143.211H122V141.653H146C146.192 141.637 146.371 141.55 146.501 141.408C146.632 141.266 146.704 141.081 146.704 140.888C146.704 140.695 146.632 140.51 146.501 140.368C146.371 140.226 146.192 140.139 146 140.123H122V138.56H154.133C154.904 138.56 155.644 138.254 156.189 137.709C156.734 137.164 157.04 136.424 157.04 135.653C157.04 134.882 156.734 134.143 156.189 133.598C155.644 133.053 154.904 132.747 154.133 132.747H110.699C110.492 132.747 110.294 132.665 110.148 132.519C110.002 132.373 109.92 132.175 109.92 131.968C109.92 131.761 110.002 131.563 110.148 131.417C110.294 131.271 110.492 131.189 110.699 131.189H154.133C154.733 131.173 155.33 131.277 155.888 131.496C156.446 131.715 156.955 132.044 157.383 132.464C157.811 132.884 158.151 133.385 158.382 133.939C158.612 134.492 158.729 135.087 158.725 135.686C158.721 136.286 158.596 136.879 158.359 137.429C158.121 137.98 157.775 138.477 157.341 138.891C156.907 139.305 156.394 139.627 155.833 139.839C155.272 140.05 154.674 140.147 154.075 140.123H150.048C149.866 140.149 149.699 140.241 149.578 140.38C149.457 140.52 149.391 140.698 149.391 140.883C149.391 141.067 149.457 141.246 149.578 141.385C149.699 141.525 149.866 141.616 150.048 141.643L150.043 141.653ZM121.995 137.029V134.283H154.128C154.478 134.304 154.806 134.459 155.045 134.714C155.285 134.969 155.419 135.306 155.419 135.656C155.419 136.006 155.285 136.343 155.045 136.598C154.806 136.853 154.478 137.008 154.128 137.029H121.995Z" fill="url(#paint22_linear_61_1650)"/>
<path d="M30.3253 91.3387L30.6773 91.6854L31.0346 91.264C31.1603 91.2004 31.2722 91.1125 31.3637 91.0054C31.4553 90.8983 31.5247 90.7741 31.568 90.64L35.5893 85.9574L34.6346 85.136L31.552 88.7307C31.552 88.272 31.552 87.8134 31.552 87.36C31.5506 80.647 32.9453 74.0071 35.6474 67.862C38.3495 61.7168 42.3 56.2007 47.248 51.664L46.8266 56.384L48.08 56.496L48.6133 50.3414C48.6816 50.2179 48.7234 50.0817 48.7363 49.9412C48.7491 49.8007 48.7327 49.6591 48.688 49.5254L48.736 48.992H48.2453C48.0831 48.8984 47.8992 48.8491 47.712 48.8491C47.5247 48.8491 47.3408 48.8984 47.1786 48.992L41.2053 48.9014V50.1547L45.7866 50.2294C40.6459 54.961 36.5426 60.7078 33.7363 67.1062C30.9299 73.5047 29.4815 80.4158 29.4826 87.4027C29.4826 87.8454 29.4826 88.2987 29.4826 88.7467L26.224 85.5147L25.3386 86.4054L29.6053 90.624C29.6565 90.7936 29.7492 90.9477 29.8749 91.0724C30.0006 91.1972 30.1554 91.2887 30.3253 91.3387Z" fill="url(#paint23_linear_61_1650)"/>
<path d="M111.392 50.3413L111.925 56.496L113.179 56.384L112.757 51.664C117.706 56.2004 121.657 61.7163 124.36 67.8615C127.063 74.0066 128.459 80.6466 128.459 87.36C128.459 87.7973 128.459 88.2453 128.459 88.688L125.371 85.0986L124.416 85.92L128.443 90.5973C128.484 90.7332 128.552 90.8592 128.644 90.9674C128.736 91.0757 128.849 91.1639 128.976 91.2266L129.333 91.6426L129.68 91.3013C129.864 91.2543 130.033 91.1587 130.168 91.0246C130.303 90.8905 130.4 90.7227 130.448 90.5386L134.688 86.32L133.792 85.424L130.544 88.6613C130.544 88.224 130.544 87.792 130.544 87.36C130.544 80.3728 129.095 73.4615 126.287 67.0631C123.48 60.6646 119.376 54.918 114.235 50.1866L118.816 50.112V48.8586L112.843 48.9493C112.681 48.8557 112.497 48.8064 112.309 48.8064C112.122 48.8064 111.938 48.8557 111.776 48.9493H111.285L111.333 49.4826C111.283 49.622 111.262 49.7703 111.272 49.9181C111.282 50.066 111.323 50.2101 111.392 50.3413Z" fill="url(#paint24_linear_61_1650)"/>
<path d="M98.6293 132.181L92.9013 129.872L92.4319 131.04L96.8106 132.805C85.8625 136.859 73.8183 136.822 62.8959 132.699L67.2853 130.96L66.8212 129.787L61.0826 132.064C60.9408 132.061 60.7998 132.086 60.668 132.139C60.5361 132.191 60.416 132.269 60.3146 132.368L59.7812 132.571L59.9946 133.013C59.9748 133.203 60.0082 133.394 60.0912 133.565C60.1741 133.737 60.3032 133.882 60.4639 133.984L63.0666 139.365L64.1972 138.832L62.2026 134.704C73.5614 138.964 86.0728 139 97.4559 134.805L95.4293 138.933L96.5599 139.467L99.1893 134.101C99.3476 133.996 99.4751 133.851 99.5586 133.681C99.642 133.51 99.6784 133.32 99.6639 133.131L99.8826 132.688L99.3493 132.48C99.1555 132.293 98.8983 132.186 98.6293 132.181Z" fill="url(#paint25_linear_61_1650)"/>
</g>
<defs>
<linearGradient id="paint0_linear_61_1650" x1="62.4533" y1="25.2266" x2="100.432" y2="63.2053" gradientUnits="userSpaceOnUse">
<stop stop-color="#00B2A1"/>
<stop offset="1" stop-color="#835DD0"/>
</linearGradient>
<linearGradient id="paint1_linear_61_1650" x1="8.64255" y1="116.944" x2="46.6567" y2="154.974" gradientUnits="userSpaceOnUse">
<stop stop-color="#00B2A1"/>
<stop offset="1" stop-color="#835DD0"/>
</linearGradient>
<linearGradient id="paint2_linear_61_1650" x1="409.436" y1="1127.94" x2="426.647" y2="1134.81" gradientUnits="userSpaceOnUse">
<stop stop-color="#00B2A1"/>
<stop offset="1" stop-color="#835DD0"/>
</linearGradient>
<linearGradient id="paint3_linear_61_1650" x1="431.8" y1="1127.94" x2="449.01" y2="1134.81" gradientUnits="userSpaceOnUse">
<stop stop-color="#00B2A1"/>
<stop offset="1" stop-color="#835DD0"/>
</linearGradient>
<linearGradient id="paint4_linear_61_1650" x1="461.612" y1="1127.94" x2="478.822" y2="1134.81" gradientUnits="userSpaceOnUse">
<stop stop-color="#00B2A1"/>
<stop offset="1" stop-color="#835DD0"/>
</linearGradient>
<linearGradient id="paint5_linear_61_1650" x1="483.996" y1="1127.94" x2="501.199" y2="1134.82" gradientUnits="userSpaceOnUse">
<stop stop-color="#00B2A1"/>
<stop offset="1" stop-color="#835DD0"/>
</linearGradient>
<linearGradient id="paint6_linear_61_1650" x1="461.612" y1="1071.83" x2="478.844" y2="1078.72" gradientUnits="userSpaceOnUse">
<stop stop-color="#00B2A1"/>
<stop offset="1" stop-color="#835DD0"/>
</linearGradient>
<linearGradient id="paint7_linear_61_1650" x1="483.996" y1="1071.83" x2="501.22" y2="1078.73" gradientUnits="userSpaceOnUse">
<stop stop-color="#00B2A1"/>
<stop offset="1" stop-color="#835DD0"/>
</linearGradient>
<linearGradient id="paint8_linear_61_1650" x1="513.808" y1="1071.83" x2="531.04" y2="1078.72" gradientUnits="userSpaceOnUse">
<stop stop-color="#00B2A1"/>
<stop offset="1" stop-color="#835DD0"/>
</linearGradient>
<linearGradient id="paint9_linear_61_1650" x1="528.728" y1="1071.83" x2="545.961" y2="1078.72" gradientUnits="userSpaceOnUse">
<stop stop-color="#00B2A1"/>
<stop offset="1" stop-color="#835DD0"/>
</linearGradient>
<linearGradient id="paint10_linear_61_1650" x1="513.808" y1="1015.72" x2="531.04" y2="1022.61" gradientUnits="userSpaceOnUse">
<stop stop-color="#00B2A1"/>
<stop offset="1" stop-color="#835DD0"/>
</linearGradient>
<linearGradient id="paint11_linear_61_1650" x1="528.728" y1="1015.73" x2="545.961" y2="1022.61" gradientUnits="userSpaceOnUse">
<stop stop-color="#00B2A1"/>
<stop offset="1" stop-color="#835DD0"/>
</linearGradient>
<linearGradient id="paint12_linear_61_1650" x1="513.808" y1="959.615" x2="531.04" y2="966.504" gradientUnits="userSpaceOnUse">
<stop stop-color="#00B2A1"/>
<stop offset="1" stop-color="#835DD0"/>
</linearGradient>
<linearGradient id="paint13_linear_61_1650" x1="528.728" y1="959.615" x2="545.961" y2="966.504" gradientUnits="userSpaceOnUse">
<stop stop-color="#00B2A1"/>
<stop offset="1" stop-color="#835DD0"/>
</linearGradient>
<linearGradient id="paint14_linear_61_1650" x1="543.644" y1="1071.83" x2="560.877" y2="1078.72" gradientUnits="userSpaceOnUse">
<stop stop-color="#00B2A1"/>
<stop offset="1" stop-color="#835DD0"/>
</linearGradient>
<linearGradient id="paint15_linear_61_1650" x1="513.808" y1="1127.94" x2="531.018" y2="1134.81" gradientUnits="userSpaceOnUse">
<stop stop-color="#00B2A1"/>
<stop offset="1" stop-color="#835DD0"/>
</linearGradient>
<linearGradient id="paint16_linear_61_1650" x1="528.728" y1="1127.94" x2="545.939" y2="1134.81" gradientUnits="userSpaceOnUse">
<stop stop-color="#00B2A1"/>
<stop offset="1" stop-color="#835DD0"/>
</linearGradient>
<linearGradient id="paint17_linear_61_1650" x1="543.644" y1="1127.94" x2="560.855" y2="1134.81" gradientUnits="userSpaceOnUse">
<stop stop-color="#00B2A1"/>
<stop offset="1" stop-color="#835DD0"/>
</linearGradient>
<linearGradient id="paint18_linear_61_1650" x1="543.644" y1="1015.73" x2="560.877" y2="1022.61" gradientUnits="userSpaceOnUse">
<stop stop-color="#00B2A1"/>
<stop offset="1" stop-color="#835DD0"/>
</linearGradient>
<linearGradient id="paint19_linear_61_1650" x1="543.644" y1="959.615" x2="560.877" y2="966.504" gradientUnits="userSpaceOnUse">
<stop stop-color="#00B2A1"/>
<stop offset="1" stop-color="#835DD0"/>
</linearGradient>
<linearGradient id="paint20_linear_61_1650" x1="483.996" y1="1015.73" x2="501.22" y2="1022.62" gradientUnits="userSpaceOnUse">
<stop stop-color="#00B2A1"/>
<stop offset="1" stop-color="#835DD0"/>
</linearGradient>
<linearGradient id="paint21_linear_61_1650" x1="5.62053" y1="108.924" x2="25.4809" y2="133.165" gradientUnits="userSpaceOnUse">
<stop stop-color="#00B2A1"/>
<stop offset="1" stop-color="#835DD0"/>
</linearGradient>
<linearGradient id="paint22_linear_61_1650" x1="116.915" y1="116.95" x2="154.908" y2="154.51" gradientUnits="userSpaceOnUse">
<stop stop-color="#00B2A1"/>
<stop offset="1" stop-color="#835DD0"/>
</linearGradient>
<linearGradient id="paint23_linear_61_1650" x1="29.1907" y1="62.9285" x2="55.3567" y2="77.2293" gradientUnits="userSpaceOnUse">
<stop stop-color="#00B2A1"/>
<stop offset="1" stop-color="#835DD0"/>
</linearGradient>
<linearGradient id="paint24_linear_61_1650" x1="115.125" y1="62.8858" x2="141.3" y2="77.202" gradientUnits="userSpaceOnUse">
<stop stop-color="#00B2A1"/>
<stop offset="1" stop-color="#835DD0"/>
</linearGradient>
<linearGradient id="paint25_linear_61_1650" x1="66.3821" y1="132.968" x2="69.5858" y2="146.246" gradientUnits="userSpaceOnUse">
<stop stop-color="#00B2A1"/>
<stop offset="1" stop-color="#835DD0"/>
</linearGradient>
<clipPath id="clip0_61_1650">
<rect width="160" height="160" fill="white"/>
</clipPath>
</defs>
</svg>
