<svg width="100" height="100" viewBox="0 0 100 100" fill="none" xmlns="http://www.w3.org/2000/svg">
<path d="M25.9204 27.4249C24.0698 27.4281 22.2828 26.7505 20.8998 25.521C19.5167 24.2916 18.6341 22.5964 18.4204 20.7583L18.0537 17.5749C17.9321 16.5179 18.0354 15.4471 18.3568 14.4328C18.6783 13.4185 19.2106 12.4836 19.9189 11.6896C20.6271 10.8955 21.4954 10.2603 22.4665 9.82545C23.4376 9.39064 24.4897 9.16612 25.5537 9.16663H26.2954C27.3592 9.16677 28.411 9.39174 29.3818 9.82677C30.3526 10.2618 31.2205 10.8971 31.9287 11.691C32.6368 12.4849 33.1691 13.4194 33.4908 14.4335C33.8126 15.4475 33.9163 16.518 33.7954 17.5749L33.4245 20.7583C33.2106 22.5971 32.3276 24.293 30.9436 25.5225C29.5596 26.752 27.7716 27.4291 25.9204 27.4249ZM25.5496 12.5C24.9575 12.5026 24.3726 12.63 23.8331 12.8738C23.2936 13.1177 22.8115 13.4725 22.4183 13.9152C22.0252 14.3579 21.7298 14.8785 21.5514 15.443C21.3729 16.0076 21.3155 16.6034 21.3829 17.1916L21.7537 20.375C21.8893 21.3839 22.3865 22.3093 23.1528 22.9794C23.919 23.6495 24.9024 24.0189 25.9204 24.0189C26.9383 24.0189 27.9217 23.6495 28.688 22.9794C29.4543 22.3093 29.9514 21.3839 30.087 20.375L30.4537 17.1916C30.5222 16.6028 30.4652 16.0061 30.2864 15.4408C30.1076 14.8756 29.811 14.3547 29.4162 13.9125C29.024 13.4672 28.5412 13.1108 28.0001 12.8672C27.459 12.6236 26.8721 12.4984 26.2787 12.5H25.5496Z" fill="url(#paint0_linear_338_4955)"/>
<path d="M19.7539 57.7291H16.4206V90.8208H19.7539V57.7291Z" fill="url(#paint1_linear_338_4955)"/>
<path d="M35.4245 57.7291H32.0911V70.65H35.4245V57.7291Z" fill="url(#paint2_linear_338_4955)"/>
<path d="M18.0872 59.3959H14.4788C11.0747 59.3959 8.33301 55.2875 8.33301 51.8959V40.2916C8.33301 35.6833 11.7497 31.65 16.6663 30.4792C18.8538 29.9542 22.0497 29.7541 26.158 29.8708C28.758 29.9486 31.3358 30.032 33.8913 30.1208C41.0705 30.3667 47.8497 30.5917 54.9872 30.5917C55.4292 30.5917 55.8531 30.7672 56.1657 31.0798C56.4783 31.3924 56.6538 31.8163 56.6538 32.2583C56.6415 34.649 55.6983 36.9407 54.0243 38.6475C52.3502 40.3542 50.0771 41.3415 47.6872 41.4L36.1705 41.7583C35.9694 41.7762 35.7825 41.8694 35.6473 42.0193C35.512 42.1693 35.4385 42.3648 35.4414 42.5667V57.7375H32.108V42.5667C32.1056 41.5049 32.5119 40.4829 33.2426 39.7126C33.9734 38.9423 34.9726 38.4827 36.033 38.4292L47.6038 38.0667C48.8359 38.0389 50.0278 37.6232 51.0101 36.8789C51.9923 36.1346 52.7147 35.0995 53.0747 33.9208C46.5788 33.8833 40.3455 33.675 33.7789 33.45C31.2247 33.3667 28.658 33.2791 26.0622 33.2041C22.2872 33.0875 19.3163 33.2708 17.4413 33.7208C14.0497 34.5333 11.683 37.2333 11.683 40.2916V51.8959C11.683 53.7292 13.258 56.0625 14.4955 56.0625H16.4372V43.5875H19.7705V57.7292C19.7705 57.9495 19.7269 58.1675 19.6421 58.3708C19.5573 58.5741 19.433 58.7586 19.2765 58.9136C19.1199 59.0686 18.9342 59.191 18.7301 59.2738C18.526 59.3566 18.3075 59.3981 18.0872 59.3959Z" fill="url(#paint3_linear_338_4955)"/>
<path d="M47.4537 77.2875C45.6673 77.287 43.9434 76.6302 42.6098 75.4417C41.2761 74.2533 40.4257 72.6161 40.2203 70.8416L39.8662 67.7999C39.7475 66.7794 39.8459 65.7454 40.1552 64.7656C40.4645 63.7859 40.9776 62.8827 41.6608 62.1153C42.3439 61.348 43.1817 60.7339 44.119 60.3133C45.0564 59.8927 46.0721 59.6751 47.0995 59.6749H47.8078C48.835 59.6758 49.8504 59.8937 50.7875 60.3145C51.7245 60.7354 52.562 61.3496 53.245 62.1168C53.928 62.884 54.4411 63.7869 54.7507 64.7663C55.0602 65.7458 55.1592 66.7796 55.0411 67.7999L54.6912 70.8416C54.4848 72.6165 53.6336 74.2536 52.2992 75.442C50.9649 76.6304 49.2405 77.2872 47.4537 77.2875ZM47.0995 63.0083C46.5422 63.0087 45.9912 63.127 45.4827 63.3553C44.9743 63.5836 44.5199 63.9168 44.1493 64.3331C43.7787 64.7493 43.5002 65.2392 43.3322 65.7706C43.1642 66.3021 43.1105 66.863 43.1745 67.4166L43.5286 70.4583C43.6377 71.4229 44.0982 72.3136 44.8221 72.9604C45.5461 73.6071 46.4829 73.9646 47.4537 73.9646C48.4244 73.9646 49.3612 73.6071 50.0852 72.9604C50.8092 72.3136 51.2696 71.4229 51.3787 70.4583L51.7328 67.4166C51.7969 66.863 51.7431 66.3021 51.5751 65.7706C51.4071 65.2392 51.1287 64.7493 50.7581 64.3331C50.3874 63.9168 49.933 63.5836 49.4246 63.3553C48.9162 63.127 48.3652 63.0087 47.8078 63.0083H47.0995Z" fill="url(#paint4_linear_338_4955)"/>
<path d="M63.3036 90.8292H59.9703V87.425C59.9681 85.8498 59.3414 84.3398 58.2276 83.226C57.1138 82.1122 55.6038 81.4855 54.0286 81.4833H40.8786C39.3038 81.4855 37.7942 82.1124 36.6811 83.2263C35.5679 84.3402 34.9422 85.8502 34.9411 87.425V90.8292H31.6077V87.425C31.6099 84.9665 32.5873 82.6093 34.3253 80.8705C36.0633 79.1317 38.4201 78.1533 40.8786 78.15H54.0161C56.475 78.1533 58.8322 79.1315 60.5709 80.8702C62.3095 82.6089 63.2878 84.9661 63.2911 87.425L63.3036 90.8292Z" fill="url(#paint5_linear_338_4955)"/>
<path d="M75.8167 77.2875C74.0313 77.2826 72.3099 76.6221 70.9795 75.4315C69.649 74.2409 68.8023 72.603 68.6 70.8291L68.2459 67.7874C68.1272 66.7669 68.2257 65.7329 68.535 64.7531C68.8443 63.7734 69.3573 62.8702 70.0405 62.1029C70.7236 61.3355 71.5614 60.7214 72.4987 60.3008C73.4361 59.8802 74.4518 59.6626 75.4792 59.6624H76.1875C77.2149 59.6633 78.2305 59.8814 79.1677 60.3021C80.1049 60.7229 80.9426 61.337 81.6259 62.1041C82.3093 62.8712 82.8228 63.7741 83.1328 64.7535C83.4429 65.733 83.5424 66.7668 83.425 67.7874L83.0709 70.8291C82.867 72.6091 82.0146 74.2516 80.6765 75.4429C79.3384 76.6343 77.6083 77.2909 75.8167 77.2875ZM75.4625 63.0083C74.9055 63.0093 74.3551 63.128 73.8471 63.3565C73.3392 63.5851 72.8853 63.9184 72.5151 64.3346C72.1449 64.7508 71.8669 65.2405 71.6991 65.7716C71.5314 66.3027 71.4778 66.8633 71.5417 67.4166L71.8917 70.4583C72.0008 71.4229 72.4612 72.3136 73.1852 72.9604C73.9092 73.6071 74.8459 73.9646 75.8167 73.9646C76.7875 73.9646 77.7243 73.6071 78.4482 72.9604C79.1722 72.3136 79.6327 71.4229 79.7417 70.4583L80.0959 67.4166C80.1599 66.863 80.1061 66.3021 79.9381 65.7706C79.7702 65.2392 79.4917 64.7493 79.1211 64.3331C78.7505 63.9168 78.2961 63.5836 77.7876 63.3553C77.2792 63.127 76.7282 63.0087 76.1709 63.0083H75.4625Z" fill="url(#paint6_linear_338_4955)"/>
<path d="M91.6662 90.8292H88.3328V87.425C88.3306 85.8498 87.7039 84.3398 86.5901 83.226C85.4763 82.1122 83.9663 81.4855 82.3912 81.4833H69.2412C67.6664 81.4855 66.1569 82.1124 65.0437 83.2263C63.9306 84.3402 63.3048 85.8502 63.3037 87.425L63.3036 90.8292H59.9703V87.425C59.9725 84.9665 60.9499 82.6093 62.6879 80.8705C64.4259 79.1317 66.7827 78.1533 69.2412 78.15H82.3912C84.85 78.1533 87.2073 79.1315 88.9459 80.8702C90.6846 82.6089 91.6629 84.9661 91.6662 87.425V90.8292Z" fill="url(#paint7_linear_338_4955)"/>
<path d="M84.9041 48.4625C84.5175 48.4632 84.1418 48.3341 83.8374 48.0958L76.6749 43.6875L69.3416 48.2166C69.0446 48.3979 68.6991 48.4836 68.3518 48.4622C68.0046 48.4409 67.6722 48.3135 67.3996 48.0972C67.1271 47.881 66.9274 47.5863 66.8276 47.253C66.7278 46.9197 66.7327 46.5638 66.8416 46.2333L68.6583 37.7458L62.2791 32.4291C62.0115 32.2054 61.8192 31.9047 61.7283 31.5678C61.6374 31.231 61.6523 30.8744 61.7711 30.5464C61.8898 30.2183 62.1066 29.9347 62.3921 29.7341C62.6775 29.5335 63.0177 29.4256 63.3666 29.425L71.2833 28.4375L75.1124 20.6166C75.6791 19.4708 77.6791 19.4791 78.2291 20.6166L82.0333 28.4417L90.1499 29.4333C90.4898 29.4734 90.8097 29.6148 91.068 29.8392C91.3263 30.0636 91.5111 30.3605 91.5983 30.6914C91.6856 31.0223 91.6712 31.3718 91.557 31.6943C91.4428 32.0169 91.2342 32.2976 90.9583 32.5L84.6666 37.7416L86.5458 46.4C86.6128 46.7282 86.5837 47.0687 86.4617 47.3807C86.3397 47.6926 86.1302 47.9627 85.8583 48.1583C85.5781 48.3534 85.2455 48.4594 84.9041 48.4625ZM67.3041 32.2875L71.5624 35.8333C71.7958 36.0278 71.9715 36.2824 72.0707 36.5696C72.1698 36.8567 72.1885 37.1655 72.1249 37.4625L70.8749 43.3708L75.8166 40.3083C76.0801 40.1453 76.3839 40.0589 76.6937 40.0589C77.0036 40.0589 77.3073 40.1453 77.5708 40.3083L82.5125 43.3625L81.225 37.4667C81.1597 37.1684 81.1777 36.8579 81.2769 36.5692C81.3761 36.2804 81.5527 36.0244 81.7875 35.8292L86.0499 32.2833L80.7624 31.6416C80.4857 31.6085 80.2217 31.5064 79.9945 31.3448C79.7674 31.1832 79.5845 30.9672 79.4624 30.7166L76.6999 25.0291L73.9124 30.7125C73.7906 30.9612 73.6087 31.1756 73.3832 31.3364C73.1577 31.4972 72.8956 31.5993 72.6208 31.6333L67.3041 32.2875Z" fill="url(#paint8_linear_338_4955)"/>
<defs>
<linearGradient id="paint0_linear_338_4955" x1="49.9996" y1="9.16663" x2="49.9996" y2="90.8292" gradientUnits="userSpaceOnUse">
<stop stop-color="#00B2A1"/>
<stop offset="1" stop-color="#835DD0"/>
</linearGradient>
<linearGradient id="paint1_linear_338_4955" x1="49.9996" y1="9.16663" x2="49.9996" y2="90.8292" gradientUnits="userSpaceOnUse">
<stop stop-color="#00B2A1"/>
<stop offset="1" stop-color="#835DD0"/>
</linearGradient>
<linearGradient id="paint2_linear_338_4955" x1="49.9996" y1="9.16663" x2="49.9996" y2="90.8292" gradientUnits="userSpaceOnUse">
<stop stop-color="#00B2A1"/>
<stop offset="1" stop-color="#835DD0"/>
</linearGradient>
<linearGradient id="paint3_linear_338_4955" x1="49.9996" y1="9.16663" x2="49.9996" y2="90.8292" gradientUnits="userSpaceOnUse">
<stop stop-color="#00B2A1"/>
<stop offset="1" stop-color="#835DD0"/>
</linearGradient>
<linearGradient id="paint4_linear_338_4955" x1="49.9996" y1="9.16663" x2="49.9996" y2="90.8292" gradientUnits="userSpaceOnUse">
<stop stop-color="#00B2A1"/>
<stop offset="1" stop-color="#835DD0"/>
</linearGradient>
<linearGradient id="paint5_linear_338_4955" x1="49.9996" y1="9.16663" x2="49.9996" y2="90.8292" gradientUnits="userSpaceOnUse">
<stop stop-color="#00B2A1"/>
<stop offset="1" stop-color="#835DD0"/>
</linearGradient>
<linearGradient id="paint6_linear_338_4955" x1="49.9996" y1="9.16663" x2="49.9996" y2="90.8292" gradientUnits="userSpaceOnUse">
<stop stop-color="#00B2A1"/>
<stop offset="1" stop-color="#835DD0"/>
</linearGradient>
<linearGradient id="paint7_linear_338_4955" x1="49.9996" y1="9.16663" x2="49.9996" y2="90.8292" gradientUnits="userSpaceOnUse">
<stop stop-color="#00B2A1"/>
<stop offset="1" stop-color="#835DD0"/>
</linearGradient>
<linearGradient id="paint8_linear_338_4955" x1="49.9996" y1="9.16663" x2="49.9996" y2="90.8292" gradientUnits="userSpaceOnUse">
<stop stop-color="#00B2A1"/>
<stop offset="1" stop-color="#835DD0"/>
</linearGradient>
</defs>
</svg>
