<svg width="335" height="499" viewBox="0 0 335 499" fill="none" xmlns="http://www.w3.org/2000/svg">
<rect x="99" width="138" height="69" rx="12" fill="black"/>
<path d="M149.86 18.096V19.76H139.54V18.096H149.86ZM139.54 20.416H150.628V17.424H138.772V22.064C138.772 24.656 138.628 28.16 137.108 30.688C137.3 30.768 137.62 30.96 137.764 31.104C139.332 28.48 139.54 24.72 139.54 22.064V20.416ZM142.26 20.672C141.684 21.52 140.772 22.32 139.876 22.896C140.02 23.008 140.292 23.264 140.404 23.376C141.3 22.768 142.276 21.824 142.916 20.88L142.26 20.672ZM142.612 22.8C141.892 24.032 140.724 25.184 139.508 25.968C139.668 26.096 139.908 26.4 139.972 26.528C140.372 26.256 140.756 25.952 141.14 25.584V31.168H141.844V24.88C142.388 24.304 142.884 23.664 143.268 23.008L142.612 22.8ZM145.508 27.808H149.572C149.028 28.432 148.26 28.96 147.38 29.376C146.564 28.992 145.844 28.56 145.252 28.064L145.508 27.808ZM145.012 24.928H149.764V25.856H145.012V24.928ZM145.012 23.504H149.764V24.4H145.012V23.504ZM150.212 27.184L150.068 27.216H146.1C146.34 26.944 146.564 26.672 146.772 26.384H150.468V22.96H144.484C144.692 22.688 144.9 22.432 145.092 22.128H151.076V21.52H145.46C145.62 21.248 145.748 20.992 145.876 20.72L145.22 20.528C144.74 21.632 143.956 22.656 143.092 23.376C143.236 23.504 143.492 23.792 143.588 23.904C143.844 23.68 144.084 23.424 144.34 23.136V26.384H145.988C145.636 26.816 145.236 27.232 144.772 27.632C144.564 27.392 144.356 27.152 144.18 26.896L143.572 27.12C143.78 27.44 144.02 27.744 144.292 28.016C143.78 28.416 143.22 28.752 142.676 29.056C142.852 29.168 143.124 29.392 143.236 29.504C143.748 29.216 144.26 28.864 144.756 28.464C145.316 28.928 145.924 29.36 146.612 29.712C145.508 30.144 144.308 30.416 143.14 30.592C143.252 30.736 143.428 30.992 143.492 31.184C144.788 30.96 146.164 30.608 147.348 30.08C148.468 30.576 149.684 30.944 150.932 31.152C151.028 30.96 151.22 30.704 151.364 30.544C150.228 30.368 149.124 30.096 148.116 29.696C149.204 29.12 150.1 28.368 150.66 27.424L150.212 27.184ZM155.412 18.272H167.524V17.552H154.676V22.144C154.676 24.672 154.548 28.176 153.204 30.736C153.396 30.816 153.7 31.008 153.828 31.12C155.22 28.496 155.412 24.768 155.412 22.16V18.272ZM164.564 25.232V22.912C165.364 23.504 166.628 24.56 167.076 24.992L167.476 24.432C167.044 24.064 165.172 22.64 164.564 22.24V21.952H167.38V21.312H164.564V19.792C165.268 19.648 165.924 19.472 166.436 19.264L165.812 18.816C164.948 19.184 163.156 19.472 161.684 19.632C161.764 19.76 161.86 20 161.908 20.144C162.532 20.08 163.204 20 163.86 19.904V21.312H161.508V21.952H163.332C162.66 23.024 161.62 24.08 160.676 24.592C160.82 24.736 161.028 24.944 161.14 25.12C162.1 24.48 163.204 23.312 163.86 22.16V25.232H164.564ZM158.964 25.232V22.848C159.476 23.264 160.132 23.872 160.404 24.144L160.836 23.616C160.564 23.344 159.412 22.464 158.964 22.16V21.952H160.948V21.312H158.964V19.776C159.604 19.648 160.18 19.488 160.66 19.28L160.036 18.832C159.22 19.2 157.556 19.504 156.148 19.68C156.244 19.808 156.34 20.048 156.388 20.192C156.98 20.128 157.652 20.032 158.276 19.92V21.312H156.004V21.952H157.956C157.38 22.992 156.484 24.048 155.636 24.592C155.796 24.704 155.988 24.928 156.116 25.104C156.868 24.544 157.7 23.552 158.276 22.528V25.232H158.964ZM161.876 30V27.664H165.94V26.992H161.876V25.216H161.124V30H158.324V26.4H157.588V30H155.332V30.704H167.572V30H161.876ZM175.428 17.264L175.268 17.312H170.212V18H174.884C174.436 18.928 173.796 19.792 173.06 20.56C172.516 19.984 171.588 19.28 170.772 18.832L170.34 19.248C171.14 19.728 172.036 20.432 172.58 21.008C171.492 22.064 170.196 22.896 169.028 23.392C169.188 23.536 169.412 23.824 169.508 23.984C171.972 22.832 174.724 20.544 175.924 17.536L175.428 17.264ZM180.004 26.544H172.724V24.16H180.004V26.544ZM180.788 23.488H171.956V27.232H180.788V23.488ZM174.884 29.68C174.724 29.072 174.26 28.176 173.828 27.504L173.124 27.728C173.572 28.416 173.988 29.344 174.148 29.936L174.884 29.68ZM173.572 21.92H179.428V21.232H173.572V21.92ZM179.204 27.424C178.9 28.192 178.324 29.312 177.876 30.064H169.492V30.768H183.54V30.064H178.66C179.092 29.36 179.556 28.448 179.94 27.664L179.204 27.424ZM182.708 18.704C182.084 19.328 181.076 20.176 180.228 20.768C179.764 20.32 179.332 19.856 178.932 19.36C179.748 18.784 180.756 17.968 181.508 17.232L180.916 16.816C180.34 17.424 179.364 18.288 178.564 18.896C178.052 18.192 177.62 17.472 177.268 16.72L176.612 16.944C177.988 19.92 180.58 22.576 183.364 23.824C183.508 23.632 183.716 23.344 183.908 23.184C182.772 22.72 181.684 22.032 180.692 21.184C181.54 20.624 182.548 19.84 183.3 19.12L182.708 18.704ZM191.38 20.16C190.772 19.456 189.588 18.32 188.612 17.408C188.692 17.248 188.772 17.088 188.852 16.928L188.196 16.736C187.46 18.32 186.18 19.84 184.916 20.848C185.06 21.008 185.252 21.36 185.316 21.504C186.404 20.608 187.492 19.344 188.308 17.968C189.236 18.88 190.324 20 190.916 20.704L191.38 20.16ZM190.996 28.752L188.676 29.2V24.256H190.74V23.568H188.676V21.456H190.212V20.768H186.228V21.456H187.988V23.568H185.46V24.256H187.988V29.344C186.916 29.536 185.94 29.728 185.188 29.856L185.396 30.56C186.916 30.256 189.044 29.84 191.044 29.392L190.996 28.752ZM185.748 25.376C185.988 26.336 186.26 27.632 186.34 28.48L186.996 28.304C186.884 27.488 186.628 26.208 186.356 25.248L185.748 25.376ZM190.004 28.304C190.26 27.504 190.532 26.24 190.788 25.264L190.164 25.04C190.02 25.936 189.732 27.296 189.492 28.112L190.004 28.304ZM194.02 27.344C192.836 28.24 191.636 29.136 190.836 29.664L191.284 30.24C192.18 29.568 193.252 28.72 194.26 27.904L194.02 27.344ZM194.132 26.48C193.732 25.92 192.9 25.024 192.212 24.4L191.684 24.752C192.356 25.424 193.188 26.336 193.588 26.928L194.132 26.48ZM196.292 27.6C197.332 28.368 198.596 29.472 199.236 30.176L199.684 29.632C199.044 28.96 197.78 27.872 196.724 27.12L196.292 27.6ZM198.708 24.32C198.18 24.992 197.252 25.952 196.596 26.512L197.028 26.944C197.716 26.384 198.612 25.552 199.252 24.784L198.708 24.32ZM193.14 20.608C193.284 20.064 193.46 19.424 193.636 18.784H197.444C197.348 19.296 197.22 19.952 197.076 20.608H193.14ZM197.348 22.768C197.7 21.28 198.068 19.424 198.292 18.16L197.764 18.064L197.636 18.112H193.812C193.908 17.648 194.036 17.168 194.132 16.752L193.38 16.656C193.076 18.112 192.564 20.096 192.164 21.28H196.948C196.836 21.808 196.724 22.304 196.612 22.768H190.964V23.488H195.06V30.256C195.06 30.432 195.012 30.48 194.82 30.496C194.644 30.496 194.036 30.512 193.316 30.48C193.428 30.704 193.54 30.976 193.572 31.184C194.468 31.184 195.044 31.168 195.38 31.056C195.7 30.928 195.796 30.72 195.796 30.24V23.488H199.732V22.768H197.348ZM126.568 53.702L127.072 53.45C125.854 51.49 125.224 49.11 125.224 46.688C125.224 44.266 125.854 41.9 127.072 39.926L126.568 39.66C125.294 41.718 124.524 43.958 124.524 46.688C124.524 49.418 125.294 51.644 126.568 53.702ZM138.792 39.408C138.764 41.41 138.736 48.578 132.842 51.462C133.01 51.588 133.234 51.784 133.36 51.952C137.154 50.034 138.596 46.394 139.142 43.412C139.73 46.03 141.144 50.146 144.994 51.91C145.106 51.728 145.302 51.504 145.484 51.364C140.444 49.124 139.618 42.726 139.422 41.326C139.492 40.528 139.492 39.856 139.506 39.408H138.792ZM159.862 42.236H155.774V39.324H155.074V42.236H147.808V42.908H154.472C152.862 45.512 150.006 48.298 147.388 49.628C147.556 49.782 147.766 50.034 147.864 50.216C150.524 48.732 153.408 45.89 155.074 43.202V50.748C155.074 51.028 154.962 51.112 154.682 51.126C154.416 51.14 153.478 51.14 152.4 51.112C152.512 51.322 152.638 51.616 152.666 51.784C154.052 51.798 154.78 51.798 155.186 51.672C155.578 51.546 155.774 51.336 155.774 50.734V42.908H159.862V42.236ZM164.706 39.352H164.048V42.264H162.158V42.894H164.048V46.282C163.264 46.562 162.536 46.786 161.976 46.968L162.186 47.626C162.732 47.43 163.376 47.22 164.048 46.982V51.126C164.048 51.322 163.964 51.378 163.796 51.378C163.642 51.392 163.054 51.392 162.382 51.378C162.48 51.574 162.578 51.854 162.606 52.022C163.502 52.036 163.992 52.008 164.286 51.896C164.58 51.784 164.706 51.588 164.706 51.126V46.744L166.442 46.142L166.344 45.512L164.706 46.058V42.894H166.484V42.264H164.706V39.352ZM173.372 47.01V50.65H168.08V47.01H173.372ZM167.436 52.008H168.08V51.28H173.372V51.952H174.044V46.38H167.436V52.008ZM166.96 40.038V40.668H169.634C169.34 42.544 168.64 44.294 166.582 45.176C166.736 45.288 166.946 45.54 167.03 45.68C169.214 44.672 169.97 42.768 170.306 40.668H173.554C173.4 43.286 173.232 44.308 172.98 44.574C172.868 44.686 172.756 44.714 172.518 44.714C172.308 44.714 171.664 44.7 171.006 44.644C171.132 44.826 171.188 45.078 171.202 45.288C171.818 45.316 172.448 45.33 172.742 45.302C173.106 45.302 173.316 45.218 173.526 45.008C173.89 44.602 174.044 43.496 174.226 40.374C174.24 40.262 174.24 40.038 174.24 40.038H166.96ZM185.188 41.802H185.846V41.004H189.304V40.43H185.846V39.352H185.188V40.43H183.48V41.004H185.188V41.802ZM180.498 41.802H181.142V41.004H182.976V40.43H181.142V39.352H180.498V40.43H177.124V41.004H180.498V41.802ZM179.406 44.14H187.05V45.26H179.406V44.14ZM179.406 42.516H187.05V43.622H179.406V42.516ZM189.374 47.346V46.758H181.632C181.898 46.436 182.122 46.114 182.29 45.778H187.722V41.998H178.762V45.778H181.534C181.366 46.114 181.128 46.436 180.82 46.758H177.04V47.346H180.204C179.35 48.06 178.216 48.718 176.788 49.18C176.942 49.292 177.124 49.502 177.208 49.67C177.88 49.432 178.468 49.166 179 48.886V49.376H181.996C181.408 50.454 180.302 51.168 178.188 51.56C178.314 51.672 178.482 51.924 178.552 52.092C180.89 51.588 182.08 50.72 182.696 49.376H186.308C186.168 50.678 186.042 51.224 185.846 51.406C185.748 51.504 185.622 51.518 185.384 51.518C185.16 51.518 184.46 51.504 183.746 51.448C183.844 51.616 183.914 51.84 183.928 52.008C184.614 52.064 185.286 52.078 185.594 52.05C185.958 52.05 186.154 51.98 186.336 51.798C186.658 51.532 186.798 50.832 186.966 49.124L187.008 48.802H182.92C183.032 48.438 183.116 48.06 183.186 47.654H182.528C182.458 48.06 182.374 48.438 182.248 48.802H179.14C179.924 48.368 180.568 47.864 181.1 47.346H185.244C186.154 48.396 187.792 49.348 189.22 49.796C189.318 49.642 189.5 49.39 189.668 49.264C188.366 48.928 186.938 48.186 186.028 47.346H189.374ZM192.258 48.186C192.104 49.32 191.866 50.566 191.544 51.448C191.698 51.504 191.95 51.616 192.076 51.672C192.384 50.804 192.65 49.488 192.846 48.284L192.258 48.186ZM193.7 48.256C193.882 49.194 194.036 50.44 194.078 51.266L194.638 51.14C194.596 50.328 194.414 49.096 194.246 48.144L193.7 48.256ZM195.24 47.99C195.548 48.858 195.912 49.992 196.066 50.748L196.584 50.566C196.43 49.838 196.066 48.704 195.744 47.836L195.24 47.99ZM195.1 44.728C195.296 45.19 195.492 45.708 195.674 46.212L192.72 46.632C193.882 45.288 195.002 43.538 195.968 41.788L195.38 41.48C195.058 42.138 194.694 42.81 194.316 43.426L192.552 43.594C193.378 42.502 194.176 41.032 194.848 39.618L194.246 39.338C193.616 40.878 192.608 42.516 192.3 42.95C192.006 43.37 191.768 43.692 191.558 43.734C191.642 43.916 191.74 44.224 191.782 44.378C191.936 44.294 192.23 44.224 193.938 44.014C193.378 44.896 192.846 45.61 192.608 45.89C192.216 46.408 191.894 46.786 191.656 46.828C191.726 46.996 191.824 47.332 191.852 47.486C192.076 47.36 192.482 47.262 195.842 46.744C195.94 47.024 196.01 47.276 196.052 47.5L196.612 47.29C196.444 46.604 196.038 45.442 195.632 44.574L195.1 44.728ZM197.97 44.21H202.954V43.622H201.47C201.736 42.964 202.03 42.082 202.268 41.354L201.694 41.172C201.54 41.872 201.204 42.922 200.952 43.622H197.97V44.21ZM198.6 41.298C198.978 41.956 199.314 42.838 199.44 43.412L199.944 43.23C199.818 42.656 199.468 41.774 199.076 41.144L198.6 41.298ZM199.706 48.648C199.398 48.648 199.342 48.536 199.342 48.158V46.45H202.702V45.862H200.462L200.896 45.638C200.756 45.274 200.434 44.658 200.168 44.224L199.678 44.434C199.93 44.868 200.238 45.456 200.364 45.862H198.166V46.45H198.74V48.144C198.74 48.928 198.936 49.208 199.692 49.208H201.904C202.268 49.208 202.632 49.208 202.814 49.152C202.786 49.012 202.758 48.774 202.744 48.592C202.52 48.648 202.128 48.648 201.876 48.648H199.706ZM203.906 40.038H196.92V52.05H197.55V40.668H203.276V51.14C203.276 51.322 203.22 51.378 203.038 51.392C202.856 51.392 202.268 51.406 201.61 51.378C201.694 51.574 201.778 51.854 201.82 52.022C202.646 52.036 203.206 52.022 203.5 51.91C203.808 51.784 203.906 51.588 203.906 51.126V40.038ZM210.426 53.702C211.7 51.644 212.47 49.418 212.47 46.688C212.47 43.958 211.7 41.718 210.426 39.66L209.922 39.926C211.14 41.9 211.77 44.266 211.77 46.688C211.77 49.11 211.14 51.49 209.922 53.45L210.426 53.702Z" fill="white"/>
<path d="M168 109L170.887 104L165.113 104L168 109ZM167.5 69L167.5 104.5L168.5 104.5L168.5 69L167.5 69Z" fill="black"/>
<rect x="99" y="109" width="138" height="60" rx="12" fill="black"/>
<path d="M149.36 134.096V135.76H139.04V134.096H149.36ZM139.04 136.416H150.128V133.424H138.272V138.064C138.272 140.656 138.128 144.16 136.608 146.688C136.8 146.768 137.12 146.96 137.264 147.104C138.832 144.48 139.04 140.72 139.04 138.064V136.416ZM141.76 136.672C141.184 137.52 140.272 138.32 139.376 138.896C139.52 139.008 139.792 139.264 139.904 139.376C140.8 138.768 141.776 137.824 142.416 136.88L141.76 136.672ZM142.112 138.8C141.392 140.032 140.224 141.184 139.008 141.968C139.168 142.096 139.408 142.4 139.472 142.528C139.872 142.256 140.256 141.952 140.64 141.584V147.168H141.344V140.88C141.888 140.304 142.384 139.664 142.768 139.008L142.112 138.8ZM145.008 143.808H149.072C148.528 144.432 147.76 144.96 146.88 145.376C146.064 144.992 145.344 144.56 144.752 144.064L145.008 143.808ZM144.512 140.928H149.264V141.856H144.512V140.928ZM144.512 139.504H149.264V140.4H144.512V139.504ZM149.712 143.184L149.568 143.216H145.6C145.84 142.944 146.064 142.672 146.272 142.384H149.968V138.96H143.984C144.192 138.688 144.4 138.432 144.592 138.128H150.576V137.52H144.96C145.12 137.248 145.248 136.992 145.376 136.72L144.72 136.528C144.24 137.632 143.456 138.656 142.592 139.376C142.736 139.504 142.992 139.792 143.088 139.904C143.344 139.68 143.584 139.424 143.84 139.136V142.384H145.488C145.136 142.816 144.736 143.232 144.272 143.632C144.064 143.392 143.856 143.152 143.68 142.896L143.072 143.12C143.28 143.44 143.52 143.744 143.792 144.016C143.28 144.416 142.72 144.752 142.176 145.056C142.352 145.168 142.624 145.392 142.736 145.504C143.248 145.216 143.76 144.864 144.256 144.464C144.816 144.928 145.424 145.36 146.112 145.712C145.008 146.144 143.808 146.416 142.64 146.592C142.752 146.736 142.928 146.992 142.992 147.184C144.288 146.96 145.664 146.608 146.848 146.08C147.968 146.576 149.184 146.944 150.432 147.152C150.528 146.96 150.72 146.704 150.864 146.544C149.728 146.368 148.624 146.096 147.616 145.696C148.704 145.12 149.6 144.368 150.16 143.424L149.712 143.184ZM154.912 134.272H167.024V133.552H154.176V138.144C154.176 140.672 154.048 144.176 152.704 146.736C152.896 146.816 153.2 147.008 153.328 147.12C154.72 144.496 154.912 140.768 154.912 138.16V134.272ZM164.064 141.232V138.912C164.864 139.504 166.128 140.56 166.576 140.992L166.976 140.432C166.544 140.064 164.672 138.64 164.064 138.24V137.952H166.88V137.312H164.064V135.792C164.768 135.648 165.424 135.472 165.936 135.264L165.312 134.816C164.448 135.184 162.656 135.472 161.184 135.632C161.264 135.76 161.36 136 161.408 136.144C162.032 136.08 162.704 136 163.36 135.904V137.312H161.008V137.952H162.832C162.16 139.024 161.12 140.08 160.176 140.592C160.32 140.736 160.528 140.944 160.64 141.12C161.6 140.48 162.704 139.312 163.36 138.16V141.232H164.064ZM158.464 141.232V138.848C158.976 139.264 159.632 139.872 159.904 140.144L160.336 139.616C160.064 139.344 158.912 138.464 158.464 138.16V137.952H160.448V137.312H158.464V135.776C159.104 135.648 159.68 135.488 160.16 135.28L159.536 134.832C158.72 135.2 157.056 135.504 155.648 135.68C155.744 135.808 155.84 136.048 155.888 136.192C156.48 136.128 157.152 136.032 157.776 135.92V137.312H155.504V137.952H157.456C156.88 138.992 155.984 140.048 155.136 140.592C155.296 140.704 155.488 140.928 155.616 141.104C156.368 140.544 157.2 139.552 157.776 138.528V141.232H158.464ZM161.376 146V143.664H165.44V142.992H161.376V141.216H160.624V146H157.824V142.4H157.088V146H154.832V146.704H167.072V146H161.376ZM176.016 134.576V133.92H171.472C171.664 133.536 171.856 133.152 172.016 132.752L171.312 132.576C170.752 133.968 169.856 135.328 168.816 136.24C169.008 136.368 169.28 136.608 169.408 136.736C170 136.16 170.592 135.408 171.088 134.576H176.016ZM172.112 135.024C172.576 135.456 173.168 136.048 173.472 136.432L174 135.968C173.712 135.632 173.088 135.056 172.624 134.672L172.112 135.024ZM174.096 143.184V145.536H170.368V143.184H174.096ZM173.808 138.208V140.368H170.368V138.208H173.808ZM170.368 141.04H174.544V137.536H171.792C172.048 137.136 172.32 136.656 172.544 136.192L171.792 136C171.632 136.416 171.312 137.056 171.024 137.536H169.632V147.136H170.368V146.208H174.096V146.864H174.832V142.512H170.368V141.04ZM175.36 137.616H178.832V139.248H175.856V145.616H176.576V139.952H178.832V147.152H179.568V139.952H181.824V144.608C181.824 144.768 181.792 144.832 181.6 144.832C181.408 144.848 180.896 144.848 180.144 144.832C180.256 145.056 180.368 145.328 180.4 145.536C181.264 145.536 181.84 145.536 182.176 145.408C182.48 145.264 182.56 145.04 182.56 144.608V139.248H179.568V137.616H183.184V136.928H175.36V137.616ZM180.912 136.064C180.672 135.712 180.128 135.136 179.68 134.768L179.168 135.12C179.6 135.552 180.128 136.144 180.384 136.528L180.912 136.064ZM178.224 133.92C178.432 133.536 178.576 133.152 178.72 132.736L177.984 132.576C177.584 133.824 176.864 134.96 175.952 135.744C176.128 135.84 176.432 136.08 176.56 136.208C177.024 135.76 177.472 135.2 177.856 134.576H183.296V133.92H178.224ZM197.872 133.984V135.264H195.024V133.984H197.872ZM197.984 137.904C198.4 137.904 198.832 137.888 199.024 137.84C198.992 137.68 198.96 137.424 198.96 137.232C198.704 137.28 198.224 137.296 197.952 137.296H195.488C195.104 137.296 195.024 137.168 195.024 136.704V135.872H198.56V133.376H194.352V136.688C194.352 137.6 194.576 137.904 195.472 137.904H197.984ZM192.688 133.968V135.248H189.92V133.968H192.688ZM189.92 137.376V135.856H193.392V133.36H189.248V136.768C189.248 137.344 189.04 137.52 188.88 137.6C188.992 137.776 189.152 138.08 189.216 138.288C189.472 138.128 189.888 138.032 193.616 137.328C193.6 137.184 193.6 136.96 193.6 136.752L189.92 137.376ZM192.416 140.24H195.344V142H192.416V140.24ZM199.104 142H196.08V140.24H198.624V139.584H196.08V138.24H195.344V139.584H192.416V138.24H191.696V139.584H189.296V140.24H191.696V142H188.592V142.656H199.104V142ZM198.864 144.96C198.048 144.32 196.672 143.536 195.392 142.96L194.864 143.328C196.16 143.936 197.44 144.704 198.192 145.376L198.864 144.96ZM192.176 142.944C191.392 143.68 190.128 144.4 188.96 144.912C189.168 145.024 189.472 145.28 189.616 145.408C190.704 144.864 192.032 144.016 192.912 143.184L192.176 142.944ZM187.808 135.28C187.392 134.64 186.528 133.616 185.824 132.832L185.216 133.152C185.92 133.936 186.784 135.04 187.216 135.696L187.808 135.28ZM188.032 140.352L187.872 140.368H185.92C186.688 139.312 187.76 137.456 188.32 136.496L187.76 136.272L187.568 136.352H184.848V137.04H187.168C186.608 138.048 185.712 139.648 185.376 140.032C185.152 140.304 184.912 140.4 184.704 140.464C184.8 140.64 184.976 141.056 185.024 141.264C185.136 141.152 185.552 141.04 185.92 141.04H187.616C187.12 143.728 186.032 145.616 184.592 146.656C184.768 146.768 185.008 147.056 185.136 147.232C185.904 146.624 186.576 145.808 187.136 144.736C188.416 146.608 190.528 146.944 194.016 146.944C195.712 146.944 197.712 146.912 199.136 146.816C199.184 146.608 199.264 146.24 199.408 146.048C197.856 146.176 195.68 146.24 194 146.24C190.736 146.24 188.544 145.952 187.44 144.096C187.888 143.088 188.208 141.888 188.432 140.512L188.032 140.352Z" fill="white"/>
<path d="M168 209L170.887 204L165.113 204L168 209ZM167.5 169L167.5 204.5L168.5 204.5L168.5 169L167.5 169Z" fill="black"/>
<rect x="99" y="209" width="138" height="60" rx="12" fill="black"/>
<path d="M149.424 245.584H146.624V237.648H149.424V245.584ZM138.56 237.648H141.248V245.584H138.56V237.648ZM145.904 239.808H141.968V237.648H145.904V239.808ZM141.968 243.328H145.904V245.584H141.968V243.328ZM145.904 242.656H141.968V240.48H145.904V242.656ZM151.008 234.576V233.824H137.04V234.576H143.408C143.248 235.328 143.024 236.224 142.8 236.912H137.792V247.184H138.56V246.304H149.424V247.184H150.208V236.912H143.584C143.824 236.224 144.064 235.344 144.304 234.576H151.008ZM165.904 233.776C165.52 234.528 164.816 235.664 164.256 236.32L164.848 236.592C165.392 235.952 166.08 234.976 166.624 234.112L165.904 233.776ZM166.896 239.248C165.984 238.352 164.192 237.072 162.672 236.112C162.88 235.184 162.96 234.08 162.992 232.688H162.272C162.192 236.784 161.712 238.352 158.272 239.216C158.432 239.36 158.64 239.648 158.72 239.84C160.88 239.232 161.936 238.368 162.48 236.816C163.952 237.76 165.584 238.992 166.432 239.856L166.896 239.248ZM164.688 243.536C165.28 242.88 166.016 241.808 166.576 240.912L165.856 240.576C165.456 241.376 164.704 242.576 164.144 243.28L164.688 243.536ZM161.04 243.44C160.64 242.736 159.792 241.488 159.088 240.544L158.576 240.912C159.248 241.872 160.08 243.168 160.496 243.92L161.04 243.44ZM161.152 236.56C160.752 235.888 159.952 234.704 159.264 233.776L158.736 234.192C159.408 235.088 160.208 236.352 160.608 237.072L161.152 236.56ZM156.272 234.704C156.064 234.176 155.616 233.328 155.2 232.688L154.576 232.928C154.96 233.568 155.408 234.432 155.6 235.008L156.272 234.704ZM158.432 235.44H152.768V236.112H158.432V235.44ZM157.808 238.128V237.472H153.392V238.128H157.808ZM157.808 239.536H153.392V240.208H157.808V239.536ZM157.152 242.304V245.472H154.176V242.304H157.152ZM157.856 246.16V241.616H153.472V246.96H154.176V246.16H157.856ZM162.88 239.248H162.144V240.816C162.144 242.432 161.872 244.864 157.84 246.624C158 246.768 158.224 247.008 158.336 247.184C161.104 245.904 162.208 244.336 162.624 242.896C163.392 244.944 164.72 246.416 166.672 247.152C166.784 246.928 167.008 246.672 167.184 246.512C164.864 245.776 163.488 243.904 162.864 241.392C162.88 241.2 162.88 241.008 162.88 240.816V239.248ZM181.824 239.056H178.464V237.328H181.824V239.056ZM178.464 241.488V239.696H181.824V241.488H178.464ZM174.56 241.488V239.696H177.76V241.488H174.56ZM177.76 237.328V239.056H174.56V237.328H177.76ZM175.408 235.104C176.56 235.536 177.952 236.144 179.008 236.688H173.84V244.896H174.56V242.128H177.76V244.88H178.464V242.128H181.824V244.032C181.824 244.24 181.76 244.304 181.536 244.32C181.312 244.32 180.56 244.336 179.664 244.304C179.744 244.496 179.856 244.752 179.904 244.96C181.04 244.96 181.712 244.96 182.064 244.832C182.416 244.704 182.544 244.496 182.544 244.032V236.688H180.512C180.112 236.448 179.616 236.208 179.04 235.936C180.32 235.376 181.664 234.592 182.56 233.744L182.048 233.36L181.904 233.408H173.776V234.064H181.12C180.352 234.64 179.296 235.2 178.288 235.6C177.488 235.248 176.64 234.896 175.888 234.64L175.408 235.104ZM172.096 235.168C171.68 234.544 170.816 233.488 170.096 232.704L169.52 233.04C170.208 233.824 171.072 234.928 171.488 235.6L172.096 235.168ZM172.336 240.352L172.192 240.368H169.968C170.912 239.296 172.256 237.52 172.96 236.56L172.4 236.272L172.224 236.352H168.832V237.024H171.712C170.992 238.032 169.824 239.568 169.408 240C169.136 240.288 168.88 240.4 168.672 240.464C168.752 240.64 168.944 241.056 168.992 241.264C169.12 241.136 169.52 241.04 169.936 241.04H171.904C171.376 243.76 170.176 245.632 168.592 246.656C168.752 246.768 169.008 247.056 169.12 247.232C169.952 246.656 170.704 245.84 171.296 244.816C172.576 246.608 174.656 246.944 178.048 246.944C179.728 246.944 181.712 246.912 183.104 246.816C183.152 246.608 183.248 246.24 183.392 246.048C181.856 246.176 179.68 246.24 178.048 246.24C174.896 246.24 172.736 245.968 171.632 244.192C172.128 243.168 172.512 241.936 172.736 240.512L172.336 240.352ZM189.088 235.616H191.792V234.88H186.992C187.2 234.208 187.392 233.52 187.552 232.8L186.8 232.656C186.384 234.672 185.68 236.624 184.704 237.904C184.864 238.016 185.2 238.224 185.344 238.352C185.872 237.616 186.352 236.672 186.736 235.616H188.32V238.528C188.32 238.752 188.32 238.96 188.304 239.2H184.8V239.936H188.272C188.08 242.192 187.328 244.704 184.688 246.56C184.832 246.672 185.104 246.976 185.2 247.136C187.2 245.728 188.192 243.888 188.672 242.064C189.552 243.024 191.056 244.784 191.6 245.504L192.128 244.848C191.632 244.272 189.568 242 188.848 241.28C188.944 240.832 188.992 240.368 189.04 239.936H192.304V239.2H189.072C189.088 238.976 189.088 238.752 189.088 238.544V235.616ZM193.616 244.64V234.8H197.632V244.64H193.616ZM192.864 234.064V246.704H193.616V245.376H197.632V246.56H198.4V234.064H192.864Z" fill="white"/>
<path d="M168 309L170.887 304L165.113 304L168 309ZM167.5 269L167.5 304.5L168.5 304.5L168.5 269L167.5 269Z" fill="black"/>
<rect x="12" y="329" width="138" height="69" rx="12" fill="black"/>
<path d="M55.88 350.16C55.272 349.456 54.088 348.32 53.112 347.408C53.192 347.248 53.272 347.088 53.352 346.928L52.696 346.736C51.96 348.32 50.68 349.84 49.416 350.848C49.56 351.008 49.752 351.36 49.816 351.504C50.904 350.608 51.992 349.344 52.808 347.968C53.736 348.88 54.824 350 55.416 350.704L55.88 350.16ZM55.496 358.752L53.176 359.2V354.256H55.24V353.568H53.176V351.456H54.712V350.768H50.728V351.456H52.488V353.568H49.96V354.256H52.488V359.344C51.416 359.536 50.44 359.728 49.688 359.856L49.896 360.56C51.416 360.256 53.544 359.84 55.544 359.392L55.496 358.752ZM50.248 355.376C50.488 356.336 50.76 357.632 50.84 358.48L51.496 358.304C51.384 357.488 51.128 356.208 50.856 355.248L50.248 355.376ZM54.504 358.304C54.76 357.504 55.032 356.24 55.288 355.264L54.664 355.04C54.52 355.936 54.232 357.296 53.992 358.112L54.504 358.304ZM58.52 357.344C57.336 358.24 56.136 359.136 55.336 359.664L55.784 360.24C56.68 359.568 57.752 358.72 58.76 357.904L58.52 357.344ZM58.632 356.48C58.232 355.92 57.4 355.024 56.712 354.4L56.184 354.752C56.856 355.424 57.688 356.336 58.088 356.928L58.632 356.48ZM60.792 357.6C61.832 358.368 63.096 359.472 63.736 360.176L64.184 359.632C63.544 358.96 62.28 357.872 61.224 357.12L60.792 357.6ZM63.208 354.32C62.68 354.992 61.752 355.952 61.096 356.512L61.528 356.944C62.216 356.384 63.112 355.552 63.752 354.784L63.208 354.32ZM57.64 350.608C57.784 350.064 57.96 349.424 58.136 348.784H61.944C61.848 349.296 61.72 349.952 61.576 350.608H57.64ZM61.848 352.768C62.2 351.28 62.568 349.424 62.792 348.16L62.264 348.064L62.136 348.112H58.312C58.408 347.648 58.536 347.168 58.632 346.752L57.88 346.656C57.576 348.112 57.064 350.096 56.664 351.28H61.448C61.336 351.808 61.224 352.304 61.112 352.768H55.464V353.488H59.56V360.256C59.56 360.432 59.512 360.48 59.32 360.496C59.144 360.496 58.536 360.512 57.816 360.48C57.928 360.704 58.04 360.976 58.072 361.184C58.968 361.184 59.544 361.168 59.88 361.056C60.2 360.928 60.296 360.72 60.296 360.24V353.488H64.232V352.768H61.848ZM71.528 350.928H67.896V348.464H71.528V350.928ZM67.896 354.976H71.528V357.28C70.28 357.472 69.016 357.648 67.896 357.824V354.976ZM71.528 354.256H67.896V351.648H71.528V354.256ZM73.464 348.464V347.728H65.832V348.464H67.16V357.92C66.568 358 66.008 358.08 65.544 358.144L65.688 358.912C67.24 358.688 69.384 358.352 71.528 358V361.104H72.28V348.464H73.464ZM79.288 348.928L79.144 348.96H73.096V349.712H78.92C78.488 352.416 77.656 354.624 76.552 356.368C75.496 354.544 74.76 352.288 74.296 349.792L73.56 349.936C74.088 352.688 74.904 355.12 76.072 357.072C75.032 358.512 73.8 359.568 72.472 360.256C72.632 360.384 72.856 360.672 72.984 360.864C74.296 360.128 75.496 359.12 76.52 357.776C77.464 359.12 78.6 360.192 79.992 360.944C80.12 360.752 80.36 360.448 80.536 360.304C79.112 359.6 77.944 358.496 77 357.104C78.328 355.104 79.304 352.48 79.768 349.072L79.288 348.928ZM94.824 353.056H91.464V351.328H94.824V353.056ZM91.464 355.488V353.696H94.824V355.488H91.464ZM87.56 355.488V353.696H90.76V355.488H87.56ZM90.76 351.328V353.056H87.56V351.328H90.76ZM88.408 349.104C89.56 349.536 90.952 350.144 92.008 350.688H86.84V358.896H87.56V356.128H90.76V358.88H91.464V356.128H94.824V358.032C94.824 358.24 94.76 358.304 94.536 358.32C94.312 358.32 93.56 358.336 92.664 358.304C92.744 358.496 92.856 358.752 92.904 358.96C94.04 358.96 94.712 358.96 95.064 358.832C95.416 358.704 95.544 358.496 95.544 358.032V350.688H93.512C93.112 350.448 92.616 350.208 92.04 349.936C93.32 349.376 94.664 348.592 95.56 347.744L95.048 347.36L94.904 347.408H86.776V348.064H94.12C93.352 348.64 92.296 349.2 91.288 349.6C90.488 349.248 89.64 348.896 88.888 348.64L88.408 349.104ZM85.096 349.168C84.68 348.544 83.816 347.488 83.096 346.704L82.52 347.04C83.208 347.824 84.072 348.928 84.488 349.6L85.096 349.168ZM85.336 354.352L85.192 354.368H82.968C83.912 353.296 85.256 351.52 85.96 350.56L85.4 350.272L85.224 350.352H81.832V351.024H84.712C83.992 352.032 82.824 353.568 82.408 354C82.136 354.288 81.88 354.4 81.672 354.464C81.752 354.64 81.944 355.056 81.992 355.264C82.12 355.136 82.52 355.04 82.936 355.04H84.904C84.376 357.76 83.176 359.632 81.592 360.656C81.752 360.768 82.008 361.056 82.12 361.232C82.952 360.656 83.704 359.84 84.296 358.816C85.576 360.608 87.656 360.944 91.048 360.944C92.728 360.944 94.712 360.912 96.104 360.816C96.152 360.608 96.248 360.24 96.392 360.048C94.856 360.176 92.68 360.24 91.048 360.24C87.896 360.24 85.736 359.968 84.632 358.192C85.128 357.168 85.512 355.936 85.736 354.512L85.336 354.352ZM102.088 349.616H104.792V348.88H99.992C100.2 348.208 100.392 347.52 100.552 346.8L99.8 346.656C99.384 348.672 98.68 350.624 97.704 351.904C97.864 352.016 98.2 352.224 98.344 352.352C98.872 351.616 99.352 350.672 99.736 349.616H101.32V352.528C101.32 352.752 101.32 352.96 101.304 353.2H97.8V353.936H101.272C101.08 356.192 100.328 358.704 97.688 360.56C97.832 360.672 98.104 360.976 98.2 361.136C100.2 359.728 101.192 357.888 101.672 356.064C102.552 357.024 104.056 358.784 104.6 359.504L105.128 358.848C104.632 358.272 102.568 356 101.848 355.28C101.944 354.832 101.992 354.368 102.04 353.936H105.304V353.2H102.072C102.088 352.976 102.088 352.752 102.088 352.544V349.616ZM106.616 358.64V348.8H110.632V358.64H106.616ZM105.864 348.064V360.704H106.616V359.376H110.632V360.56H111.4V348.064H105.864ZM27.5362 383.702L28.0402 383.45C26.8222 381.49 26.1922 379.11 26.1922 376.688C26.1922 374.266 26.8222 371.9 28.0402 369.926L27.5362 369.66C26.2622 371.718 25.4922 373.958 25.4922 376.688C25.4922 379.418 26.2622 381.644 27.5362 383.702ZM39.6898 375.456H40.3478V372.096H45.2058V374.49H45.8638V371.55H40.3478V370.472H45.2338V369.926H34.8878V370.472H39.6898V371.55H34.2858V374.49H34.9438V372.096H39.6898V375.456ZM44.6318 374.98C43.8618 374.7 42.4478 374.42 41.3558 374.294L41.1458 374.756C42.2518 374.91 43.6658 375.232 44.4358 375.498L44.6318 374.98ZM44.1138 372.502C43.3998 372.782 42.1398 373.216 41.2998 373.426L41.5658 373.832C42.4338 373.636 43.6378 373.314 44.4638 372.964L44.1138 372.502ZM38.8078 373.37C38.1358 373.076 36.9038 372.726 35.9378 372.544L35.7138 372.964C36.6798 373.16 37.9258 373.538 38.5978 373.86L38.8078 373.37ZM38.7238 374.336C37.4918 374.532 36.3018 374.7 35.4058 374.812L35.6578 375.4C36.5678 375.26 37.6458 375.05 38.7518 374.84L38.7238 374.336ZM36.1058 379.488V378.298H39.6898V379.488H36.1058ZM39.6898 376.618V377.78H36.1058V376.618H39.6898ZM44.1278 377.78H40.3338V376.618H44.1278V377.78ZM40.3338 379.488V378.298H44.1278V379.488H40.3338ZM41.4118 381.252C40.5158 381.252 40.3338 381.14 40.3338 380.692V380.034H44.7858V376.058H35.4478V380.832H36.1058V380.034H39.6898V380.692C39.6898 381.63 40.0678 381.84 41.4258 381.84H44.8418C46.0598 381.84 46.2838 381.406 46.3958 379.712C46.1998 379.67 45.9478 379.572 45.7938 379.46C45.7238 380.986 45.5838 381.252 44.8138 381.252H41.4118ZM51.6878 371.06C51.4498 370.57 50.9878 369.856 50.5678 369.296L50.0358 369.576C50.4418 370.122 50.9038 370.892 51.1278 371.396L51.6878 371.06ZM48.9858 375.932H52.9478V375.344H48.9858V375.932ZM52.9478 373.538H48.9858V374.112H52.9478V373.538ZM52.4158 377.766V380.538H49.6158V377.766H52.4158ZM53.0458 377.164H48.9998V381.84H49.6158V381.14H53.0458V377.164ZM48.4398 372.348H53.4098V371.746H48.4398V372.348ZM59.6538 380.79H55.0898V377.556H59.6538V380.79ZM61.0678 374.35V373.706H57.7218V370.71C58.6878 370.514 59.5838 370.262 60.2838 369.982L59.7938 369.45C58.4918 369.996 55.9998 370.472 53.9418 370.766C54.0258 370.934 54.1238 371.172 54.1378 371.312C55.0758 371.2 56.1118 371.032 57.0918 370.836V373.706H53.9698V374.35H57.0918V376.912H54.4598V382.022H55.0898V381.42H59.6538V381.966H60.2978V376.912H57.7218V374.35H61.0678ZM75.0398 370.962C74.4798 370.472 73.3878 369.828 72.4638 369.422L72.0858 369.856C72.9958 370.276 74.1018 370.948 74.6478 371.452L75.0398 370.962ZM69.5938 378.97C67.2978 379.474 64.9458 379.964 63.4478 380.272L63.5878 380.958C65.1838 380.594 67.4658 380.104 69.6498 379.628L69.5938 378.97ZM68.3898 377.332H65.0718V374.406H68.3898V377.332ZM64.4278 373.804V377.948H69.0478V373.804H64.4278ZM74.1718 373.538C73.6398 375.176 72.9258 376.618 72.0158 377.836C71.5958 376.366 71.3298 374.49 71.1898 372.348H75.4738V371.69H71.1618C71.1198 370.948 71.1058 370.164 71.1058 369.366H70.3918C70.4058 370.164 70.4338 370.934 70.4758 371.69H63.5458V372.348H70.4898C70.6578 374.728 70.9798 376.856 71.4978 378.494C70.4758 379.712 69.2578 380.692 67.8158 381.434C67.9698 381.574 68.2078 381.826 68.3058 381.966C69.6218 381.238 70.7558 380.314 71.7358 379.222C72.4078 380.986 73.2898 382.036 74.4658 382.036C75.4038 382.036 75.6838 381.308 75.8378 379.026C75.6418 378.97 75.3898 378.83 75.2358 378.676C75.1378 380.608 74.9698 381.336 74.5218 381.336C73.6118 381.336 72.8418 380.328 72.2538 378.62C73.3318 377.248 74.1858 375.61 74.8298 373.706L74.1718 373.538ZM83.0713 372.012V375.666H86.7813V376.478H83.0713V380.188H87.2013V381H82.0913V371.2H87.2013V372.012H83.0713ZM94.5783 375.4V376.226H89.1323V375.4H94.5783ZM106.892 373.216C107.788 373.216 108.516 373.501 109.076 374.07C109.645 374.63 109.93 375.447 109.93 376.52V381H108.964V376.632C108.964 375.801 108.763 375.167 108.362 374.728C107.961 374.289 107.415 374.07 106.724 374.07C106.005 374.07 105.431 374.308 105.002 374.784C104.573 375.26 104.358 375.951 104.358 376.856V381H103.392V376.632C103.392 375.801 103.191 375.167 102.79 374.728C102.389 374.289 101.838 374.07 101.138 374.07C100.419 374.07 99.8454 374.308 99.4161 374.784C98.9867 375.26 98.7721 375.951 98.7721 376.856V381H97.7921V373.356H98.7721V374.672C99.0147 374.196 99.3601 373.837 99.8081 373.594C100.256 373.342 100.755 373.216 101.306 373.216C101.969 373.216 102.547 373.375 103.042 373.692C103.546 374.009 103.91 374.476 104.134 375.092C104.339 374.485 104.689 374.023 105.184 373.706C105.688 373.379 106.257 373.216 106.892 373.216ZM112.359 377.164C112.359 376.38 112.513 375.694 112.821 375.106C113.138 374.509 113.572 374.051 114.123 373.734C114.683 373.407 115.313 373.244 116.013 373.244C116.741 373.244 117.366 373.412 117.889 373.748C118.421 374.084 118.803 374.513 119.037 375.036V373.356H120.017V381H119.037V379.306C118.794 379.829 118.407 380.263 117.875 380.608C117.352 380.944 116.727 381.112 115.999 381.112C115.308 381.112 114.683 380.949 114.123 380.622C113.572 380.295 113.138 379.833 112.821 379.236C112.513 378.639 112.359 377.948 112.359 377.164ZM119.037 377.178C119.037 376.562 118.911 376.021 118.659 375.554C118.407 375.087 118.061 374.728 117.623 374.476C117.193 374.224 116.717 374.098 116.195 374.098C115.653 374.098 115.168 374.219 114.739 374.462C114.309 374.705 113.969 375.059 113.717 375.526C113.474 375.983 113.353 376.529 113.353 377.164C113.353 377.789 113.474 378.34 113.717 378.816C113.969 379.283 114.309 379.642 114.739 379.894C115.168 380.137 115.653 380.258 116.195 380.258C116.717 380.258 117.193 380.132 117.623 379.88C118.061 379.628 118.407 379.269 118.659 378.802C118.911 378.335 119.037 377.794 119.037 377.178ZM123.444 371.914C123.248 371.914 123.08 371.844 122.94 371.704C122.8 371.564 122.73 371.391 122.73 371.186C122.73 370.981 122.8 370.813 122.94 370.682C123.08 370.542 123.248 370.472 123.444 370.472C123.64 370.472 123.808 370.542 123.948 370.682C124.088 370.813 124.158 370.981 124.158 371.186C124.158 371.391 124.088 371.564 123.948 371.704C123.808 371.844 123.64 371.914 123.444 371.914ZM123.934 373.356V381H122.954V373.356H123.934ZM127.833 370.64V381H126.853V370.64H127.833ZM134.458 383.702C135.732 381.644 136.502 379.418 136.502 376.688C136.502 373.958 135.732 371.718 134.458 369.66L133.954 369.926C135.172 371.9 135.802 374.266 135.802 376.688C135.802 379.11 135.172 381.49 133.954 383.45L134.458 383.702Z" fill="white"/>
<rect x="186.5" y="329.5" width="137" height="68" rx="11.5" stroke="black"/>
<path d="M228.824 364.056H225.464V362.328H228.824V364.056ZM225.464 366.488V364.696H228.824V366.488H225.464ZM221.56 366.488V364.696H224.76V366.488H221.56ZM224.76 362.328V364.056H221.56V362.328H224.76ZM222.408 360.104C223.56 360.536 224.952 361.144 226.008 361.688H220.84V369.896H221.56V367.128H224.76V369.88H225.464V367.128H228.824V369.032C228.824 369.24 228.76 369.304 228.536 369.32C228.312 369.32 227.56 369.336 226.664 369.304C226.744 369.496 226.856 369.752 226.904 369.96C228.04 369.96 228.712 369.96 229.064 369.832C229.416 369.704 229.544 369.496 229.544 369.032V361.688H227.512C227.112 361.448 226.616 361.208 226.04 360.936C227.32 360.376 228.664 359.592 229.56 358.744L229.048 358.36L228.904 358.408H220.776V359.064H228.12C227.352 359.64 226.296 360.2 225.288 360.6C224.488 360.248 223.64 359.896 222.888 359.64L222.408 360.104ZM219.096 360.168C218.68 359.544 217.816 358.488 217.096 357.704L216.52 358.04C217.208 358.824 218.072 359.928 218.488 360.6L219.096 360.168ZM219.336 365.352L219.192 365.368H216.968C217.912 364.296 219.256 362.52 219.96 361.56L219.4 361.272L219.224 361.352H215.832V362.024H218.712C217.992 363.032 216.824 364.568 216.408 365C216.136 365.288 215.88 365.4 215.672 365.464C215.752 365.64 215.944 366.056 215.992 366.264C216.12 366.136 216.52 366.04 216.936 366.04H218.904C218.376 368.76 217.176 370.632 215.592 371.656C215.752 371.768 216.008 372.056 216.12 372.232C216.952 371.656 217.704 370.84 218.296 369.816C219.576 371.608 221.656 371.944 225.048 371.944C226.728 371.944 228.712 371.912 230.104 371.816C230.152 371.608 230.248 371.24 230.392 371.048C228.856 371.176 226.68 371.24 225.048 371.24C221.896 371.24 219.736 370.968 218.632 369.192C219.128 368.168 219.512 366.936 219.736 365.512L219.336 365.352ZM236.088 360.616H238.792V359.88H233.992C234.2 359.208 234.392 358.52 234.552 357.8L233.8 357.656C233.384 359.672 232.68 361.624 231.704 362.904C231.864 363.016 232.2 363.224 232.344 363.352C232.872 362.616 233.352 361.672 233.736 360.616H235.32V363.528C235.32 363.752 235.32 363.96 235.304 364.2H231.8V364.936H235.272C235.08 367.192 234.328 369.704 231.688 371.56C231.832 371.672 232.104 371.976 232.2 372.136C234.2 370.728 235.192 368.888 235.672 367.064C236.552 368.024 238.056 369.784 238.6 370.504L239.128 369.848C238.632 369.272 236.568 367 235.848 366.28C235.944 365.832 235.992 365.368 236.04 364.936H239.304V364.2H236.072C236.088 363.976 236.088 363.752 236.088 363.544V360.616ZM240.616 369.64V359.8H244.632V369.64H240.616ZM239.864 359.064V371.704H240.616V370.376H244.632V371.56H245.4V359.064H239.864ZM261.992 365.128V364.376H255.368V361.192H260.936V360.424H255.368V357.688H254.584V360.424H249.208V361.192H254.584V364.376H248.072V365.128H254.008C252.536 367.352 249.992 369.512 247.704 370.536C247.88 370.696 248.12 370.984 248.264 371.176C250.488 370.04 253.032 367.88 254.584 365.544V372.168H255.368V365.48C256.936 367.8 259.512 370.056 261.784 371.16C261.928 370.968 262.152 370.68 262.344 370.536C260.056 369.512 257.448 367.32 255.96 365.128H261.992ZM269.88 361.16C269.272 360.456 268.088 359.32 267.112 358.408C267.192 358.248 267.272 358.088 267.352 357.928L266.696 357.736C265.96 359.32 264.68 360.84 263.416 361.848C263.56 362.008 263.752 362.36 263.816 362.504C264.904 361.608 265.992 360.344 266.808 358.968C267.736 359.88 268.824 361 269.416 361.704L269.88 361.16ZM269.496 369.752L267.176 370.2V365.256H269.24V364.568H267.176V362.456H268.712V361.768H264.728V362.456H266.488V364.568H263.96V365.256H266.488V370.344C265.416 370.536 264.44 370.728 263.688 370.856L263.896 371.56C265.416 371.256 267.544 370.84 269.544 370.392L269.496 369.752ZM264.248 366.376C264.488 367.336 264.76 368.632 264.84 369.48L265.496 369.304C265.384 368.488 265.128 367.208 264.856 366.248L264.248 366.376ZM268.504 369.304C268.76 368.504 269.032 367.24 269.288 366.264L268.664 366.04C268.52 366.936 268.232 368.296 267.992 369.112L268.504 369.304ZM272.52 368.344C271.336 369.24 270.136 370.136 269.336 370.664L269.784 371.24C270.68 370.568 271.752 369.72 272.76 368.904L272.52 368.344ZM272.632 367.48C272.232 366.92 271.4 366.024 270.712 365.4L270.184 365.752C270.856 366.424 271.688 367.336 272.088 367.928L272.632 367.48ZM274.792 368.6C275.832 369.368 277.096 370.472 277.736 371.176L278.184 370.632C277.544 369.96 276.28 368.872 275.224 368.12L274.792 368.6ZM277.208 365.32C276.68 365.992 275.752 366.952 275.096 367.512L275.528 367.944C276.216 367.384 277.112 366.552 277.752 365.784L277.208 365.32ZM271.64 361.608C271.784 361.064 271.96 360.424 272.136 359.784H275.944C275.848 360.296 275.72 360.952 275.576 361.608H271.64ZM275.848 363.768C276.2 362.28 276.568 360.424 276.792 359.16L276.264 359.064L276.136 359.112H272.312C272.408 358.648 272.536 358.168 272.632 357.752L271.88 357.656C271.576 359.112 271.064 361.096 270.664 362.28H275.448C275.336 362.808 275.224 363.304 275.112 363.768H269.464V364.488H273.56V371.256C273.56 371.432 273.512 371.48 273.32 371.496C273.144 371.496 272.536 371.512 271.816 371.48C271.928 371.704 272.04 371.976 272.072 372.184C272.968 372.184 273.544 372.168 273.88 372.056C274.2 371.928 274.296 371.72 274.296 371.24V364.488H278.232V363.768H275.848ZM285.528 361.928H281.896V359.464H285.528V361.928ZM281.896 365.976H285.528V368.28C284.28 368.472 283.016 368.648 281.896 368.824V365.976ZM285.528 365.256H281.896V362.648H285.528V365.256ZM287.464 359.464V358.728H279.832V359.464H281.16V368.92C280.568 369 280.008 369.08 279.544 369.144L279.688 369.912C281.24 369.688 283.384 369.352 285.528 369V372.104H286.28V359.464H287.464ZM293.288 359.928L293.144 359.96H287.096V360.712H292.92C292.488 363.416 291.656 365.624 290.552 367.368C289.496 365.544 288.76 363.288 288.296 360.792L287.56 360.936C288.088 363.688 288.904 366.12 290.072 368.072C289.032 369.512 287.8 370.568 286.472 371.256C286.632 371.384 286.856 371.672 286.984 371.864C288.296 371.128 289.496 370.12 290.52 368.776C291.464 370.12 292.6 371.192 293.992 371.944C294.12 371.752 294.36 371.448 294.536 371.304C293.112 370.6 291.944 369.496 291 368.104C292.328 366.104 293.304 363.48 293.768 360.072L293.288 359.928Z" fill="black"/>
<rect x="12" y="439" width="138" height="60" rx="12" fill="black"/>
<path d="M72.696 467.056H69.72V465.152H72.296V464.448H69.72V462.672H68.984V464.448H66.36V465.152H68.984V467.056H65.864V467.776H72.696V467.056ZM68.504 469.968C68.392 469.408 68.008 468.56 67.624 467.936L67.016 468.112C67.4 468.768 67.768 469.632 67.88 470.208L68.504 469.968ZM69.72 470.976H72.424V470.288H70.504C70.936 469.616 71.384 468.8 71.768 468.064L71.064 467.872C70.776 468.56 70.216 469.584 69.768 470.288H66.184V470.976H68.984V472.992H65.864V473.696H68.984V477.12H69.72V473.696H72.744V472.992H69.72V470.976ZM74.152 469.504H74.504C75.016 471.248 75.768 472.848 76.712 474.176C76.008 475.152 75.144 475.984 74.152 476.608V469.504ZM78.872 469.504C78.536 470.896 77.96 472.304 77.16 473.536C76.328 472.368 75.656 470.976 75.192 469.504H78.872ZM79.256 468.784L79.128 468.816H74.152V464.176H78.68V466.576C78.68 466.768 78.632 466.816 78.36 466.832C78.104 466.864 77.304 466.864 76.168 466.832C76.296 467.056 76.408 467.312 76.424 467.52C77.72 467.52 78.472 467.52 78.888 467.392C79.32 467.264 79.416 467.04 79.416 466.56V463.456H73.432V477.152H74.152V476.816C74.296 476.912 74.456 477.072 74.552 477.2C75.56 476.576 76.44 475.76 77.192 474.816C77.976 475.776 78.856 476.544 79.816 477.072C79.96 476.88 80.216 476.592 80.408 476.416C79.384 475.936 78.456 475.152 77.656 474.176C78.696 472.64 79.416 470.832 79.8 468.976L79.256 468.784ZM86.68 471.76H90.072V471.056H86.68V469.152H85.944V471.056H82.68V471.76H85.944V474.784C84.472 475.056 83.144 475.312 82.12 475.488L82.312 476.24C84.36 475.824 87.4 475.216 90.264 474.656L90.232 473.968C89.032 474.208 87.832 474.416 86.68 474.64V471.76ZM87.304 465.696C87.768 466.224 88.232 466.848 88.664 467.456L83.88 467.92C84.632 466.96 85.368 465.728 85.992 464.496H90.376V463.792H82.248V464.496H85.128C84.536 465.776 83.72 467.008 83.448 467.36C83.16 467.744 82.904 468.048 82.664 468.08C82.776 468.272 82.888 468.656 82.936 468.848C83.272 468.688 83.816 468.624 89.096 468.064C89.384 468.48 89.624 468.88 89.8 469.184L90.392 468.8C89.896 467.904 88.792 466.448 87.88 465.36L87.304 465.696ZM92.152 464H91.432V473.648H92.152V464ZM94.648 462.992V475.616C94.648 475.888 94.568 475.952 94.312 475.968C94.04 475.984 93.16 475.984 92.152 475.952C92.28 476.192 92.424 476.544 92.472 476.768C93.592 476.768 94.392 476.752 94.824 476.624C95.224 476.48 95.4 476.224 95.4 475.6V462.992H94.648Z" fill="white"/>
<path d="M80 329V309H255V329" stroke="black"/>
<path d="M80.5 438L83.3868 433H77.6132L80.5 438ZM80 398V433.5H81V398H80Z" fill="black"/>
</svg>
