<svg width="100" height="100" viewBox="0 0 100 100" fill="none" xmlns="http://www.w3.org/2000/svg">
<path d="M50.0057 87.3766C49.7707 87.3789 49.5378 87.3314 49.3224 87.2374C49.107 87.1433 48.9139 87.0047 48.7558 86.8308L13.1962 47.7756C13.1204 47.7082 13.0507 47.6343 12.9879 47.5547C10.6051 44.5339 9.0697 40.933 8.53962 37.1222C8.00954 33.3114 8.50385 29.4282 9.97174 25.8718C11.4396 22.3153 13.8282 19.2139 16.8918 16.8864C19.9554 14.5588 23.5836 13.0891 27.4034 12.6284C35.7735 11.6409 45.2728 16.4489 49.9974 23.6566C54.722 16.4489 64.2129 11.6618 72.5998 12.6284C76.4192 13.0898 80.0469 14.5599 83.11 16.8877C86.1731 19.2155 88.561 22.317 90.0284 25.8733C91.4959 29.4297 91.9898 33.3127 91.4595 37.1231C90.9293 40.9336 89.3939 44.5342 87.0111 47.5547C86.9483 47.6343 86.8786 47.7082 86.8028 47.7756L51.2307 86.8308C51.0754 87.0016 50.8863 87.1384 50.6755 87.2323C50.4646 87.3263 50.2366 87.3754 50.0057 87.3766ZM15.5002 45.3549L15.546 45.4007L50.0057 83.2436L84.5155 45.3549C86.0526 43.3722 87.1651 41.0942 87.7837 38.6629C88.4023 36.2316 88.5137 33.699 88.1111 31.2227C86.8903 23.3067 80.195 16.878 72.2207 15.9448C64.2463 15.0115 54.8054 20.4527 51.5306 27.8021C51.3992 28.0966 51.1852 28.3466 50.9146 28.5219C50.6439 28.6972 50.3282 28.7902 50.0057 28.7896C49.684 28.7893 49.3692 28.696 49.0993 28.5208C48.8295 28.3455 48.6161 28.096 48.485 27.8021C45.2103 20.4486 35.7444 15.0198 27.7992 15.9448C19.854 16.8697 13.1212 23.3025 11.9046 31.2227C11.503 33.699 11.6149 36.2314 12.2334 38.6625C12.852 41.0937 13.9639 43.3717 15.5002 45.3549Z" fill="url(#paint0_linear_338_4757)"/>
<path d="M47.4273 63.7451H47.3231C46.9727 63.7218 46.6385 63.5885 46.3684 63.364C46.0983 63.1395 45.9061 62.8355 45.8191 62.4952L39.9862 40.4137L37.1156 50.6712C37.0175 51.0211 36.8076 51.3294 36.518 51.549C36.2284 51.7687 35.875 51.8876 35.5116 51.8877H18.013V48.5547H34.2617L38.428 33.6059C38.503 33.241 38.7086 32.916 39.0063 32.692C39.3039 32.468 39.6731 32.3604 40.0445 32.3893C40.4116 32.3923 40.7674 32.5165 41.0567 32.7425C41.346 32.9685 41.5526 33.2837 41.6444 33.6392L47.7772 56.7915L54.6767 39.6554C54.8084 39.3261 55.0418 39.0474 55.3428 38.8598C55.6439 38.6723 55.997 38.5857 56.3507 38.6126C56.7043 38.6396 57.0402 38.7787 57.3093 39.0097C57.5785 39.2407 57.767 39.5515 57.8473 39.897L61.4053 55.2791L64.3926 49.4671C64.5322 49.1938 64.7446 48.9644 65.0063 48.8041C65.268 48.6439 65.5689 48.559 65.8758 48.5588H82.8703V51.8919H66.8924L62.3094 60.8495C62.1503 61.1514 61.9036 61.3982 61.6017 61.5573C61.2998 61.7164 60.9568 61.7805 60.6178 61.7411C60.2797 61.6989 59.9626 61.5541 59.7094 61.3261C59.4561 61.0982 59.2788 60.7981 59.2013 60.4662L55.8099 45.8049L49.0063 62.6994C48.8803 63.0134 48.6618 63.2816 48.3797 63.4684C48.0977 63.6552 47.7655 63.7517 47.4273 63.7451Z" fill="url(#paint1_linear_338_4757)"/>
<defs>
<linearGradient id="paint0_linear_338_4757" x1="49.9997" y1="12.5" x2="49.9997" y2="87.3766" gradientUnits="userSpaceOnUse">
<stop stop-color="#00B2A1"/>
<stop offset="1" stop-color="#835DD0"/>
</linearGradient>
<linearGradient id="paint1_linear_338_4757" x1="49.9997" y1="12.5" x2="49.9997" y2="87.3766" gradientUnits="userSpaceOnUse">
<stop stop-color="#00B2A1"/>
<stop offset="1" stop-color="#835DD0"/>
</linearGradient>
</defs>
</svg>
