<svg fill="none" height="100" viewBox="0 0 100 100" width="100" xmlns="http://www.w3.org/2000/svg" xmlns:xlink="http://www.w3.org/1999/xlink"><linearGradient id="a" gradientUnits="userSpaceOnUse" x1="49.6142" x2="49.6142" y1="8.375" y2="91.6666"><stop offset="0" stop-color="#00b2a1"/><stop offset="1" stop-color="#835dd0"/></linearGradient><g fill="url(#a)"><path d="m62.2462 91.6666c-.1959-.0003-.3904-.0341-.575-.1l-12.0583-4.4375-12.0583 4.4375c-.2525.0906-.5229.1197-.7888.0849s-.5198-.1324-.7404-.2849c-.2231-.1517-.406-.3554-.533-.5934-.127-.2381-.1943-.5034-.1962-.7732v-24.7084h3.3334v22.3209l10.3875-3.825c.3724-.1375.7817-.1375 1.1541 0l10.3917 3.825v-22.3209h3.3333v24.7084c0 .2683-.0647.5327-.1888.7706-.124.2379-.3037.4424-.5237.596-.2752.1922-.6019.2967-.9375.3z"/><path d="m51.2793 68.7541h-3.3333v16.6h3.3333z"/><path d="m49.6126 59.5082c-3.9343.0009-7.7806-1.1651-11.0523-3.3503s-5.8219-5.2916-7.3281-8.9262c-1.5062-3.6347-1.9007-7.6344-1.1337-11.4932.7671-3.8589 2.6612-7.4037 5.443-10.186 2.7817-2.7823 6.326-4.6772 10.1848-5.4451 3.8587-.7678 7.8584-.3742 11.4934 1.1313 3.635 1.5054 6.7419 4.055 8.9278 7.3262 2.1859 3.2713 3.3526 7.1173 3.3526 11.0517-.0044 5.2735-2.1009 10.3298-5.8295 14.0591-3.7286 3.7294-8.7844 5.827-14.058 5.8325zm0-36.45c-3.2751-.0008-6.4769.9696-9.2004 2.7886-2.7236 1.8189-4.8465 4.4047-6.1004 7.4303s-1.5824 6.355-.944 9.5673 2.2151 6.1631 4.5307 8.4792c2.3155 2.3161 5.2659 3.8936 8.4781 4.5328 3.2121.6393 6.5416.3116 9.5675-.9415 3.0259-1.2532 5.6122-3.3755 7.4318-6.0986 1.8197-2.7231 2.7909-5.9246 2.7909-9.1997-.0044-4.3895-1.7498-8.598-4.8532-11.7022-3.1035-3.1042-7.3115-4.8506-11.701-4.8562z"/><path d="m49.6121 70.9c-2.1083 0-3.5792-1.75-4.875-3.2958-.6583-.7833-1.5583-1.8584-2.0833-2-.525-.1417-1.8959.3125-2.9459.6958-1.8583.6708-3.9625 1.4375-5.7333.4167-1.7708-1.0209-2.1833-3.2667-2.5333-5.2292-.1875-1.0875-.4167-2.4375-.8334-2.8458-.4166-.4084-1.7625-.6542-2.85-.8334-1.9625-.3416-4.1916-.7375-5.225-2.5291-1.0333-1.7917-.2583-3.875.4167-5.7375.3792-1.05.8333-2.3583.6958-2.9417-.1375-.5833-1.2166-1.4333-2-2.0833-1.5458-1.2958-3.2958-2.7667-3.2958-4.875s1.75-3.5792 3.2958-4.875c.7834-.6584 1.8584-1.5584 2-2.0834.1417-.525-.3166-1.8958-.6958-2.95-.6708-1.8625-1.4333-3.9708-.4167-5.7374 1.0167-1.7667 3.2625-2.1792 5.2292-2.5292 1.0833-.1917 2.4333-.4167 2.8458-.8333.4125-.4167.65-1.7584.8334-2.8459.3458-1.9667.7416-4.1916 2.5291-5.2291 1.7875-1.0376 3.875-.2584 5.7375.4166 1.0542.3792 2.35.8542 2.9459.7.5291-.1417 1.4291-1.2166 2.0833-2 1.2958-1.55 2.7667-3.3 4.875-3.3s3.5792 1.75 4.875 3.3c.6583.7834 1.5583 1.8583 2.0833 2s1.8917-.3208 2.9417-.6958c1.8667-.675 3.9792-1.4333 5.7417-.4167 1.7625 1.0167 2.1791 3.2583 2.5291 5.225.1917 1.0875.4167 2.4375.8334 2.85.4166.4125 1.7583.6459 2.8416.8334 1.9667.35 4.1959.7458 5.2334 2.5333s.2583 3.875-.4167 5.7375c-.3792 1.05-.8333 2.3583-.6917 2.9416.1417.5834 1.2125 1.4334 1.9959 2.0834 1.5458 1.3 3.3 2.7667 3.3 4.875s-1.7542 3.5791-3.3 4.8791c-.7834.6542-1.8584 1.5542-2 2.0834-.1417.5291.3166 1.8916.6958 2.9416.675 1.8625 1.4375 3.9751.4167 5.7417-1.0209 1.7667-3.2625 2.1833-5.225 2.525-1.0875.1917-2.4375.4167-2.85.8334-.4125.4166-.6459 1.7583-.8334 2.8458-.35 1.9625-.7416 4.1958-2.5333 5.2292-1.7917 1.0333-3.875.2583-5.7375-.4167-1.0458-.3833-2.3458-.8709-2.9417-.6959-.5291.1417-1.4291 1.2167-2.0833 1.9959-1.275 1.5625-2.7708 3.2958-4.875 3.2958zm-7.2333-8.6583c.3822-.0002.7629.0473 1.1333.1416 1.5417.4167 2.6792 1.7667 3.7792 3.075.7041.8334 1.7666 2.1084 2.3208 2.1084s1.6167-1.25 2.3208-2.1084c1.1-1.3083 2.2334-2.6625 3.7792-3.075s3.2958.1834 4.9417.7792c.9375.3417 2.5.9167 2.9166.6667.4167-.25.7417-1.9292.9167-2.9167.3-1.7042.6125-3.4667 1.7667-4.6208 1.1541-1.1542 2.9166-1.4625 4.6208-1.7667 1-.175 2.6667-.4708 2.9167-.9167.25-.4458-.325-1.9958-.6625-2.9166-.5959-1.6417-1.2084-3.3334-.7834-4.9375.425-1.6042 1.7667-2.6834 3.075-3.7792.8334-.7042 2.1125-1.7708 2.1125-2.325s-1.2708-1.6166-2.1083-2.3208c-1.3083-1.1-2.6625-2.2375-3.075-3.7833-.4125-1.5459.1833-3.2959.7792-4.9376.3416-.9416.9083-2.5.6625-2.9166-.2459-.4167-1.9292-.7417-2.9167-.9208-1.7042-.3001-3.4667-.6125-4.6208-1.7667-1.1542-1.1542-1.4667-2.9167-1.7667-4.625-.175-.9959-.4708-2.6667-.9167-2.9167-.4458-.25-2 .3208-2.9375.6625-1.6416.5917-3.3333 1.2042-4.9375.7792-1.6041-.425-2.6791-1.7667-3.7791-3.075-.7042-.8334-1.7709-2.1084-2.3209-2.1084s-1.6166 1.25-2.3208 2.1084c-1.1 1.3083-2.2375 2.6625-3.7792 3.075-1.5416.4125-3.3-.1875-4.9416-.7792-.9375-.3417-2.5-.9125-2.9167-.6667-.4167.2459-.7417 1.9292-.9167 2.9167-.3 1.7083-.6125 3.4708-1.7666 4.625-1.1542 1.1542-2.9167 1.4667-4.625 1.7667-.9959.1791-2.6667.4708-2.9167.9167-.25.4458.325 1.9958.6667 2.9374.5916 1.6417 1.2041 3.3334.7791 4.9375-.425 1.6042-1.7666 2.6834-3.0791 3.7834-.8334.7041-2.1042 1.7708-2.1042 2.3208s1.25 1.6167 2.1042 2.3209c1.3083 1.1 2.6625 2.2375 3.0791 3.7833.4167 1.5458-.1875 3.2958-.7791 4.9375-.3417.9417-.9084 2.5-.6625 2.9166.2458.4167 1.9208.7417 2.9166.9167 1.7084.3042 3.4709.6125 4.625 1.7667 1.1542 1.1542 1.4625 2.9166 1.7625 4.6208.1792 1 .4709 2.6708.9167 2.9167.4458.2458 1.9917-.325 2.9167-.6667 1.275-.4667 2.575-.9333 3.825-.9333z"/><path d="m43.05 50.4166c-.2472 0-.4913-.0549-.7146-.1608-.2233-.106-.4203-.2602-.5766-.4517-.1564-.1914-.2682-.4152-.3274-.6552-.0591-.24-.0642-.4901-.0148-.7323l1.325-6.4625-4.8708-4.4542c-.2366-.2159-.406-.4953-.4879-.805-.0819-.3096-.0729-.6363.026-.9409s.2835-.5743.5317-.7768c.2482-.2024.5494-.3291.8677-.3648l6.5583-.7375 2.7292-6.0083c.5375-1.1917 2.5-1.1917 3.0333 0l2.725 6.0083 6.5584.7375c.3186.035.6204.1612.8691.3634.2488.2022.4339.4718.5333.7765.0994.3048.1088.6318.0271.9417-.0818.31-.2511.5898-.4879.8059l-4.875 4.45 1.3167 6.4625c.0639.3134.0363.6385-.0796.9366-.1158.2982-.315.5566-.5737.7446-.2587.1881-.5661.2977-.8854.3158-.3194.0181-.6371-.0561-.9155-.2137l-5.7375-3.2583-5.7416 3.2583c-.2475.142-.5273.218-.8125.2209zm6.5625-7.0542c.2919-.002.5793.0727.8333.2167l3.3667 1.9083-.775-3.7917c-.0583-.2828-.042-.5758.0471-.8505.0891-.2746.248-.5214.4612-.7161l2.8583-2.6084-3.8458-.4166c-.2874-.0323-.5614-.1387-.7952-.3089-.2337-.1703-.4192-.3984-.5381-.662l-1.6-3.525-1.6042 3.525c-.1186.2631-.3034.4908-.5364.661s-.5061.2769-.7928.3099l-3.85.4166 2.8709 2.6042c.2124.1952.3706.4421.4589.7168.0884.2746.104.5674.0452.8499l-.775 3.7916 3.3667-1.9083c.2454-.1391.5221-.2137.8042-.2167z"/></g></svg>