<svg fill="none" height="499" viewBox="0 0 540 499" width="540" xmlns="http://www.w3.org/2000/svg"><rect fill="#000" height="69" rx="12" width="160" x="190"/><path d="m240.32 29.54h3.98c-.52.54-1.2 1.02-1.98 1.4-.82-.36-1.56-.78-2.18-1.24zm-.38-3.58h4.68v.86h-4.68zm0-1.66h4.68v.8h-4.68zm4.54-6.94v1.42h-11.62v-1.42zm1.1 11.04-.3.04h-3.86c.18-.22.36-.42.52-.64l-.26-.08h4.52v-4.3h-6.98c.18-.26.38-.5.56-.78h7.12v-1.22h-6.4c.12-.22.24-.46.34-.66l-1.44-.5c-.56 1.28-1.54 2.5-2.56 3.32l.12.14-.9-.32c-.8 1.34-2.14 2.62-3.46 3.46.2-1.82.26-3.58.26-5.04v-1.58h13.48v-4.34h-15.34v5.92c0 3.2-.16 7.7-1.9 10.82.48.18 1.32.6 1.68.92 1-1.84 1.54-4.2 1.8-6.52.26.4.64 1.12.74 1.44.34-.24.66-.48 1-.78v5.88h1.64v-7.5c.5-.58.96-1.18 1.34-1.8.18.3.34.6.42.76.22-.2.46-.44.7-.7v3.38h1.8c-.32.36-.68.72-1.1 1.06-.22-.22-.4-.46-.56-.7l-1.3.38c.24.38.52.72.8 1.06-.5.34-1.04.6-1.58.86.32.24.9.74 1.16 1.02.46-.26.96-.54 1.42-.88.5.4 1 .76 1.56 1.08-1.08.34-2.28.58-3.52.72.26.32.6.9.72 1.28 1.6-.24 3.12-.62 4.48-1.18 1.28.52 2.7.9 4.26 1.14.2-.42.56-1 .9-1.32-1.24-.16-2.42-.38-3.48-.7 1.08-.7 1.98-1.58 2.58-2.72zm-9.82-7.94c-.64.92-1.72 1.8-2.76 2.44.3.26.86.9 1.06 1.18 1.12-.76 2.4-1.98 3.18-3.16zm20.74 5.72h1.56v-2.28c.5.4 1 .88 1.26 1.18l.9-1.16c-.34-.28-1.64-1.18-2.16-1.5v-.02h2.2v-1.34h-2.2v-1.48c.74-.14 1.44-.32 2-.56l-1.2-.94c-1.06.44-3.06.74-4.78.9.16.32.34.8.42 1.1.64-.04 1.32-.12 2-.22v1.2h-2.38v1.34h1.76c-.64.94-1.5 1.86-2.34 2.44.04-1 .06-1.94.06-2.8v-4.28h14.76v-1.68h-16.5v5.94c0 3.14-.14 7.56-1.7 10.66.44.14 1.22.58 1.56.86 1.18-2.34 1.62-5.5 1.8-8.36.3.28.6.68.8.96.76-.58 1.56-1.5 2.18-2.48zm5.36 3.2h4.7v-1.46h-4.7v-1.82h-.98c.9-.66 1.8-1.72 2.48-2.86v2.94h1.56v-2.34c.92.7 2.12 1.7 2.66 2.24l.86-1.24c-.56-.42-2.82-2-3.5-2.4l-.02.02v-.06h3.08v-1.34h-3.08v-1.48c.84-.14 1.62-.34 2.28-.6l-1.2-.96c-1.16.44-3.38.78-5.28.94.18.3.36.78.42 1.1.7-.04 1.48-.12 2.22-.22v1.22h-2.54v1.34h1.66c-.72 1.04-1.72 2.04-2.7 2.56.32.26.76.76 1.02 1.12h-.74v5.42h-2.64v-3.98h-1.78v3.98h-2.36v1.56h15.1v-1.56h-6.52zm21.38-.54c-.28.78-.8 1.92-1.24 2.7h-4.26l1.08-.38c-.18-.66-.66-1.64-1.14-2.34l-1.66.54c.38.66.8 1.52.96 2.18h-5.2v1.6h17.46v-1.6h-5.38c.38-.68.8-1.48 1.18-2.26zm.94-1.54h-7.68v-2.16h7.68zm1.98-3.66h-11.52v5.16h11.52zm1.72-5.92c-.64.7-1.66 1.58-2.58 2.3-.42-.42-.78-.86-1.16-1.3.94-.66 2.02-1.52 2.92-2.32l-1.4-.98c-.58.64-1.52 1.48-2.34 2.14-.5-.72-.9-1.48-1.24-2.26l-1.62.5c.76 1.78 1.76 3.4 2.98 4.84h-5.76c1.02-1.22 1.88-2.6 2.46-4.14l-1.24-.6-.32.08h-6.02v1.52h5.14c-.48.86-1.08 1.68-1.78 2.46-.62-.62-1.6-1.34-2.46-1.82l-1.02 1.02c.82.52 1.76 1.26 2.38 1.88-1.16 1.02-2.48 1.88-3.76 2.42.36.34.9.98 1.12 1.38 1.72-.82 3.42-2 4.86-3.5v.88h7.02v-.88c1.34 1.42 2.9 2.58 4.62 3.36.3-.5.86-1.22 1.28-1.58-1.3-.5-2.5-1.24-3.58-2.14.94-.66 2.02-1.5 2.88-2.28zm15.16 10.64c-1.3.9-2.62 1.8-3.56 2.38l-.04-.62-2.52.42v-5.26h2.4v-1.58h-2.4v-1.9h1.58v-1.56h-4.22c.7-.8 1.4-1.7 1.98-2.64 1.1 1.1 2.3 2.34 2.98 3.14l1.06-1.2c-.72-.84-2.14-2.16-3.3-3.26.1-.18.18-.38.28-.56l-1.42-.54c-.88 1.88-2.38 3.66-3.88 4.84.24.44.6 1.4.68 1.78.32-.28.68-.58 1.02-.94v.94h1.72v1.9h-2.82v1.58h2.82v5.5c-1.2.2-2.3.38-3.16.5l.42 1.68c1.9-.36 4.44-.86 6.86-1.36l-.02-.34.7 1.02c1.04-.74 2.28-1.66 3.4-2.58zm-10.34-2c.28 1.14.58 2.62.68 3.6l1.34-.36c-.14-.96-.46-2.42-.76-3.54zm5.9 3.34c.3-.9.62-2.3.96-3.48l-1.26-.34c-.14 1.04-.46 2.58-.7 3.52zm1.42-4.06c.76.78 1.68 1.9 2.1 2.58l1.3-1c-.46-.66-1.4-1.72-2.16-2.46zm2.82-5.74c.14-.48.28-1.02.42-1.54h3.74c-.08.46-.18 1-.3 1.54zm7.76 4.3v-1.62h-2.72c.42-1.78.84-3.88 1.1-5.56l-1.28-.18-.3.08h-3.78c.12-.52.24-1.04.34-1.52l-1.72-.2c-.42 1.96-1.08 4.54-1.58 6.14h5.74c-.08.44-.16.84-.26 1.24h-6.52v1.62h4.56v7.52c0 .2-.06.26-.3.28-.2 0-.94 0-1.66-.02.22.44.46 1.14.5 1.6 1.14 0 1.92-.04 2.48-.3.56-.24.7-.7.7-1.54v-7.54zm-2.94 4.08c.78-.64 1.8-1.62 2.64-2.52l-1.26-1.06c-.6.84-1.66 1.96-2.4 2.64zm-1.44 1.12c1.16.84 2.74 2.1 3.46 2.88l1.04-1.28c-.76-.74-2.34-1.92-3.5-2.72zm-80.942 29.688.576-.288c-1.392-2.24-2.112-4.96-2.112-7.728s.72-5.472 2.112-7.728l-.576-.304c-1.456 2.352-2.336 4.912-2.336 8.032s.88 5.664 2.336 8.016zm12.37-16.336c-.032 2.288-.064 10.48-6.8 13.776.192.144.448.368.592.56 4.336-2.192 5.984-6.352 6.608-9.76.672 2.992 2.288 7.696 6.688 9.712.128-.208.352-.464.56-.624-5.76-2.56-6.704-9.872-6.928-11.472.08-.912.08-1.68.096-2.192zm23.28 3.232h-4.672v-3.328h-.8v3.328h-8.304v.768h7.616c-1.84 2.976-5.104 6.16-8.096 7.68.192.176.432.464.544.672 3.04-1.696 6.336-4.944 8.24-8.016v8.624c0 .32-.128.416-.448.432-.304.016-1.376.016-2.608-.016.128.24.272.576.304.768 1.584.016 2.416.016 2.88-.128.448-.144.672-.384.672-1.072v-8.944h4.672zm4.736-3.296h-.752v3.328h-2.16v.72h2.16v3.872c-.896.32-1.728.576-2.368.784l.24.752c.624-.224 1.36-.464 2.128-.736v4.736c0 .224-.096.288-.288.288-.176.016-.848.016-1.616 0 .112.224.224.544.256.736 1.024.016 1.584-.016 1.92-.144s.48-.352.48-.88v-5.008l1.984-.688-.112-.72-1.872.624v-3.616h2.032v-.72h-2.032zm9.904 8.752v4.16h-6.048v-4.16zm-6.784 5.712h.736v-.832h6.048v.768h.768v-6.368h-7.552zm-.544-13.68v.72h3.056c-.336 2.144-1.136 4.144-3.488 5.152.176.128.416.416.512.576 2.496-1.152 3.36-3.328 3.744-5.728h3.712c-.176 2.992-.368 4.16-.656 4.464-.128.128-.256.16-.528.16-.24 0-.976-.016-1.728-.08.144.208.208.496.224.736.704.032 1.424.048 1.76.016.416 0 .656-.096.896-.336.416-.464.592-1.728.8-5.296.016-.128.016-.384.016-.384zm20.032 2.016h.752v-.912h3.952v-.656h-3.952v-1.232h-.752v1.232h-1.952v.656h1.952zm-5.36 0h.736v-.912h2.096v-.656h-2.096v-1.232h-.736v1.232h-3.856v.656h3.856zm-1.248 2.672h8.736v1.28h-8.736zm0-1.856h8.736v1.264h-8.736zm11.392 5.52v-.672h-8.848c.304-.368.56-.736.752-1.12h6.208v-4.32h-10.24v4.32h3.168c-.192.384-.464.752-.816 1.12h-4.32v.672h3.616c-.976.816-2.272 1.568-3.904 2.096.176.128.384.368.48.56.768-.272 1.44-.576 2.048-.896v.56h3.424c-.672 1.232-1.936 2.048-4.352 2.496.144.128.336.416.416.608 2.672-.576 4.032-1.568 4.736-3.104h4.128c-.16 1.488-.304 2.112-.528 2.32-.112.112-.256.128-.528.128-.256 0-1.056-.016-1.872-.08.112.192.192.448.208.64.784.064 1.552.08 1.904.048.416 0 .64-.08.848-.288.368-.304.528-1.104.72-3.056l.048-.368h-4.672c.128-.416.224-.848.304-1.312h-.752c-.08.464-.176.896-.32 1.312h-3.552c.896-.496 1.632-1.072 2.24-1.664h4.736c1.04 1.2 2.912 2.288 4.544 2.8.112-.176.32-.464.512-.608-1.488-.384-3.12-1.232-4.16-2.192zm2.496.96c-.176 1.296-.448 2.72-.816 3.728.176.064.464.192.608.256.352-.992.656-2.496.88-3.872zm1.648.08c.208 1.072.384 2.496.432 3.44l.64-.144c-.048-.928-.256-2.336-.448-3.424zm1.76-.304c.352.992.768 2.288.944 3.152l.592-.208c-.176-.832-.592-2.128-.96-3.12zm-.16-3.728c.224.528.448 1.12.656 1.696l-3.376.48c1.328-1.536 2.608-3.536 3.712-5.536l-.672-.352c-.368.752-.784 1.52-1.216 2.224l-2.016.192c.944-1.248 1.856-2.928 2.624-4.544l-.688-.32c-.72 1.76-1.872 3.632-2.224 4.128-.336.48-.608.848-.848.896.096.208.208.56.256.736.176-.096.512-.176 2.464-.416-.64 1.008-1.248 1.824-1.52 2.144-.448.592-.816 1.024-1.088 1.072.08.192.192.576.224.752.256-.144.72-.256 4.56-.848.112.32.192.608.24.864l.64-.24c-.192-.784-.656-2.112-1.12-3.104zm3.28-.592h5.696v-.672h-1.696c.304-.752.64-1.76.912-2.592l-.656-.208c-.176.8-.56 2-.848 2.8h-3.408zm.72-3.328c.432.752.816 1.76.96 2.416l.576-.208c-.144-.656-.544-1.664-.992-2.384zm1.264 8.4c-.352 0-.416-.128-.416-.56v-1.952h3.84v-.672h-2.56l.496-.256c-.16-.416-.528-1.12-.832-1.616l-.56.24c.288.496.64 1.168.784 1.632h-2.512v.672h.656v1.936c0 .896.224 1.216 1.088 1.216h2.528c.416 0 .832 0 1.04-.064-.032-.16-.064-.432-.08-.64-.256.064-.704.064-.992.064zm4.8-9.84h-7.984v13.728h.72v-13.008h6.544v11.968c0 .208-.064.272-.272.288-.208 0-.88.016-1.632-.016.096.224.192.544.24.736.944.016 1.584 0 1.92-.128.352-.144.464-.368.464-.896zm5.851 15.616c1.456-2.352 2.336-4.896 2.336-8.016s-.88-5.68-2.336-8.032l-.576.304c1.392 2.256 2.112 4.96 2.112 7.728s-.72 5.488-2.112 7.728z" fill="#fff"/><path d="m270 109 2.887-5h-5.774zm-.5-40v35.5h1v-35.5z" fill="#000"/><rect fill="#000" height="60" rx="12" width="160" x="190" y="109"/><path d="m240.82 145.54h3.98c-.52.54-1.2 1.02-1.98 1.4-.82-.36-1.56-.78-2.18-1.24zm-.38-3.58h4.68v.86h-4.68zm0-1.66h4.68v.8h-4.68zm4.54-6.94v1.42h-11.62v-1.42zm1.1 11.04-.3.04h-3.86c.18-.22.36-.42.52-.64l-.26-.08h4.52v-4.3h-6.98c.18-.26.38-.5.56-.78h7.12v-1.22h-6.4c.12-.22.24-.46.34-.66l-1.44-.5c-.56 1.28-1.54 2.5-2.56 3.32l.12.14-.9-.32c-.8 1.34-2.14 2.62-3.46 3.46.2-1.82.26-3.58.26-5.04v-1.58h13.48v-4.34h-15.34v5.92c0 3.2-.16 7.7-1.9 10.82.48.18 1.32.6 1.68.92 1-1.84 1.54-4.2 1.8-6.52.26.4.64 1.12.74 1.44.34-.24.66-.48 1-.78v5.88h1.64v-7.5c.5-.58.96-1.18 1.34-1.8.18.3.34.6.42.76.22-.2.46-.44.7-.7v3.38h1.8c-.32.36-.68.72-1.1 1.06-.22-.22-.4-.46-.56-.7l-1.3.38c.24.38.52.72.8 1.06-.5.34-1.04.6-1.58.86.32.24.9.74 1.16 1.02.46-.26.96-.54 1.42-.88.5.4 1 .76 1.56 1.08-1.08.34-2.28.58-3.52.72.26.32.6.9.72 1.28 1.6-.24 3.12-.62 4.48-1.18 1.28.52 2.7.9 4.26 1.14.2-.42.56-1 .9-1.32-1.24-.16-2.42-.38-3.48-.7 1.08-.7 1.98-1.58 2.58-2.72zm-9.82-7.94c-.64.92-1.72 1.8-2.76 2.44.3.26.86.9 1.06 1.18 1.12-.76 2.4-1.98 3.18-3.16zm20.74 5.72h1.56v-2.28c.5.4 1 .88 1.26 1.18l.9-1.16c-.34-.28-1.64-1.18-2.16-1.5v-.02h2.2v-1.34h-2.2v-1.48c.74-.14 1.44-.32 2-.56l-1.2-.94c-1.06.44-3.06.74-4.78.9.16.32.34.8.42 1.1.64-.04 1.32-.12 2-.22v1.2h-2.38v1.34h1.76c-.64.94-1.5 1.86-2.34 2.44.04-1 .06-1.94.06-2.8v-4.28h14.76v-1.68h-16.5v5.94c0 3.14-.14 7.56-1.7 10.66.44.14 1.22.58 1.56.86 1.18-2.34 1.62-5.5 1.8-8.36.3.28.6.68.8.96.76-.58 1.56-1.5 2.18-2.48zm5.36 3.2h4.7v-1.46h-4.7v-1.82h-.98c.9-.66 1.8-1.72 2.48-2.86v2.94h1.56v-2.34c.92.7 2.12 1.7 2.66 2.24l.86-1.24c-.56-.42-2.82-2-3.5-2.4l-.02.02v-.06h3.08v-1.34h-3.08v-1.48c.84-.14 1.62-.34 2.28-.6l-1.2-.96c-1.16.44-3.38.78-5.28.94.18.3.36.78.42 1.1.7-.04 1.48-.12 2.22-.22v1.22h-2.54v1.34h1.66c-.72 1.04-1.72 2.04-2.7 2.56.32.26.76.76 1.02 1.12h-.74v5.42h-2.64v-3.98h-1.78v3.98h-2.36v1.56h15.1v-1.56h-6.52zm14.6-11.38-.86.72c.6.52 1.34 1.26 1.72 1.74l1.18-1.08c-.32-.36-.92-.94-1.48-1.38h3.56v-1.42h-5.04c.16-.36.32-.7.46-1.06l-1.66-.46c-.66 1.72-1.8 3.42-3.06 4.56.38.3 1 .92 1.3 1.24.74-.74 1.5-1.76 2.16-2.86zm1 10.92v2h-3.32v-2zm-.34-4.26h-2.98v-1.84h2.98zm-2.98 1.46h4.72v-4.78h-2.9c.24-.42.46-.86.72-1.34l-1.9-.36c-.18.48-.46 1.14-.74 1.7h-1.64v12.18h1.74v-1.12h3.32v.72h1.72v-5.66h-5.04zm5.5-3.94h4v1.5h-3.5v8.08h1.66v-6.52h1.84v8.32h1.72v-8.32h1.8v4.66c0 .18-.04.24-.24.24s-.68 0-1.28-.02c.2.46.4 1.12.44 1.58.98 0 1.7 0 2.22-.28.5-.26.62-.74.62-1.52v-6.22h-3.56v-1.5h4.12v-1.56h-9.84zm4.4-5.6c.14-.38.3-.74.42-1.12l-1.7-.4c-.5 1.48-1.42 2.96-2.5 3.9.4.26 1.1.8 1.4 1.1.56-.56 1.14-1.26 1.6-2.06h2.2l-.86.68c.58.58 1.3 1.38 1.64 1.9l1.26-1.1c-.3-.4-.88-1-1.42-1.48h3.54v-1.42zm24.28.58v1.14h-2.42v-1.14zm.56 4.84c.56 0 1.12-.02 1.42-.12-.04-.34-.1-.9-.14-1.3-.32.08-.94.12-1.32.12h-2.42c-.44 0-.52-.2-.52-.74v-.44h4v-3.56h-5.48v3.96c0 1.5.38 2.08 1.92 2.08zm-6.94-4.86v1.14h-2.34v-1.14zm-2.34 3.64v-1.28h3.92v-3.56h-5.38v3.98c0 .74-.3 1.06-.56 1.18.2.34.52 1.04.62 1.42.34-.18.98-.32 5.22-1.04.02-.32.1-.9.2-1.32zm3.02 4.2h2.7v1.58h-2.7zm7.8 2.98v-1.4h-3.38v-1.58h2.68v-1.4h-2.68v-1.26h-1.72v1.26h-2.7v-1.26h-1.7v1.26h-2.62v1.4h2.62v1.58h-3.4v1.4zm-.36 2.24c-.94-.7-2.54-1.6-3.96-2.24l-1.22.82c1.34.66 2.72 1.56 3.52 2.22zm-8.5-2.22c-.86.76-2.32 1.48-3.72 1.98.44.24 1.08.8 1.42 1.12 1.32-.6 2.94-1.56 3.96-2.52zm-4.78-9.68c-.54-.78-1.66-2.04-2.58-3l-1.38.86c.88.98 2 2.34 2.56 3.18zm-.22 6.36-.3.04h-1.58c.92-1.36 2.06-3.38 2.74-4.5l-1.18-.46-.24.1h-3.48v1.5h2.48c-.66 1.18-1.48 2.56-1.82 2.94-.32.4-.62.52-.92.62.2.32.52 1.14.62 1.56.16-.16.72-.3 1.16-.3h1.58c-.6 2.9-1.8 5-3.5 6.2.38.26.96.88 1.22 1.26.92-.72 1.74-1.66 2.4-2.9 1.56 2.16 3.98 2.56 7.86 2.56 2.24 0 4.76-.06 6.72-.18.1-.5.32-1.34.6-1.74-2.12.2-5.18.3-7.3.3-3.56 0-5.98-.32-7.18-2.48.44-1.22.8-2.62 1.02-4.2z" fill="#fff"/><path d="m270 209 2.887-5h-5.774zm-.5-40v35.5h1v-35.5z" fill="#000"/><rect fill="#000" height="60" rx="12" width="160" x="190" y="209"/><path d="m245.04 246.84h-2.62v-8.72h2.62zm-12.18-8.72h2.5v8.72h-2.5zm7.88 1.88h-3.72v-1.88h3.72zm-3.72 4.86h3.72v1.98h-3.72zm3.72-1.48h-3.72v-1.9h3.72zm7.14-9.16v-1.76h-17.68v1.76h7.46c-.12.72-.28 1.52-.44 2.2h-6.16v13.18h1.8v-1.04h12.18v1.04h1.9v-13.18h-7.8c.2-.68.44-1.46.68-2.2zm19-1.8c-.4 1-1.2 2.42-1.82 3.28l1.34.6c.66-.8 1.48-2.06 2.2-3.2zm1.8 6.56c-1.04-.96-3.06-2.3-4.78-3.3.28-1.2.36-2.66.4-4.46h-1.7c-.1 4.82-.46 6.72-4.72 7.78.36.36.82 1.06 1 1.52 2.42-.7 3.76-1.68 4.5-3.22 1.6 1 3.32 2.26 4.24 3.14zm-2.28 6.12c.66-.88 1.48-2.24 2.2-3.48l-1.72-.62c-.4 1.06-1.16 2.6-1.8 3.56zm-4.94-.48c-.44-.94-1.42-2.48-2.18-3.64l-1.34.74c.74 1.2 1.66 2.8 2.1 3.76zm.24-8.8c-.46-.88-1.4-2.32-2.14-3.44l-1.34.78c.74 1.12 1.66 2.66 2.08 3.56zm-6-2.02c-.26-.7-.78-1.78-1.28-2.62l-1.52.58c.46.84.98 1.98 1.2 2.7zm2.46.76h-7.3v1.5h7.3zm-.78 4.12v-1.46h-5.76v1.46zm0 1.18h-5.76v1.44h5.76zm-1.52 7.06h-2.6v-2.86h2.6zm8.32-7.4h-1.76v2.24c0 1.8-.4 4.6-4.94 6.52v-5.72h-5.84v6.76h1.62v-.9h4.22v-.04c.44.32.92.86 1.16 1.22 2.8-1.28 4.2-2.82 4.9-4.36.94 2.06 2.36 3.5 4.6 4.28.24-.5.74-1.2 1.14-1.56-2.8-.78-4.38-2.8-5.12-5.56.02-.22.02-.4.02-.62zm18.7-1.94v1.44h-2.98v-1.44zm4.74 1.44h-3.14v-1.44h3.14zm-3.14 2.86v-1.5h3.14v1.5zm-4.58 0v-1.5h2.98v1.5zm0 1.4h2.98v3.08h1.6v-3.08h3.14v1.46c0 .24-.06.3-.32.32-.22 0-1 0-1.82-.02.2.4.42.98.48 1.42 1.24 0 2.08 0 2.62-.26.54-.24.72-.64.72-1.46v-8.56h-2.4c-.4-.22-.88-.46-1.42-.7 1.42-.76 2.8-1.74 3.82-2.72l-1.12-.9-.36.1h-9.46v1.42h7.78c-.66.48-1.46 1-2.24 1.4-.88-.4-1.8-.76-2.6-1.02l-1.18 1c1.02.38 2.22.92 3.3 1.42h-5.18v10.22h1.66zm-3.28-9.04c-.58-.8-1.68-2.06-2.6-3.02l-1.38.86c.9.98 2.02 2.36 2.54 3.18zm-.18 6.42-.3.04h-1.9c1.1-1.36 2.5-3.32 3.28-4.44l-1.18-.54-.24.1h-4.1v1.5h2.92c-.8 1.16-1.84 2.54-2.24 2.94-.36.4-.7.54-.98.62.18.34.52 1.16.62 1.58.16-.16.7-.3 1.2-.3h1.96c-.66 2.94-2.02 5.04-3.9 6.2.36.26.98.9 1.22 1.26 1-.68 1.88-1.58 2.6-2.8 1.54 2.06 3.94 2.46 7.72 2.46 2.22 0 4.74-.06 6.68-.18.1-.5.34-1.34.6-1.74-2.12.2-5.16.3-7.26.3-3.42 0-5.74-.3-7.02-2.26.56-1.26.96-2.72 1.24-4.4zm25.82.24v-1.76h-3.54c0-.2 0-.4 0-.58v-3h2.98v-1.74h-5.46c.2-.72.38-1.48.54-2.24l-1.78-.34c-.46 2.34-1.24 4.68-2.38 6.14.44.26 1.18.76 1.52 1.08.54-.8 1.06-1.8 1.48-2.9h1.22v2.98.6h-3.92v1.76h3.8c-.3 2.5-1.22 5.22-4.04 7.22.38.28 1.06 1.02 1.32 1.42 2.12-1.54 3.3-3.54 3.96-5.6 1.06 1.22 2.4 2.94 3.06 3.94l1.28-1.6c-.58-.66-2.88-3.26-3.88-4.24.08-.38.12-.76.18-1.14zm2.38 4.86v-11.06h3.64v11.06zm-1.8-12.82v16.06h1.8v-1.5h3.64v1.28h1.88v-15.84z" fill="#fff"/><path d="m270 309 2.887-5h-5.774zm-.5-40v35.5h1v-35.5z" fill="#000"/><rect fill="#000" height="69" rx="12" width="160" y="329"/><path d="m50.04 357.36c-1.3.9-2.62 1.8-3.56 2.38l-.04-.62-2.52.42v-5.26h2.4v-1.58h-2.4v-1.9h1.58v-1.56h-4.22c.7-.8 1.4-1.7 1.98-2.64 1.1 1.1 2.3 2.34 2.98 3.14l1.06-1.2c-.72-.84-2.14-2.16-3.3-3.26.1-.18.18-.38.28-.56l-1.42-.54c-.88 1.88-2.38 3.66-3.88 4.84.24.44.6 1.4.68 1.78.32-.28.68-.58 1.02-.94v.94h1.72v1.9h-2.82v1.58h2.82v5.5c-1.2.2-2.3.38-3.16.5l.42 1.68c1.9-.36 4.44-.86 6.86-1.36l-.02-.34.7 1.02c1.04-.74 2.28-1.66 3.4-2.58zm-10.34-2c.28 1.14.58 2.62.68 3.6l1.34-.36c-.14-.96-.46-2.42-.76-3.54zm5.9 3.34c.3-.9.62-2.3.96-3.48l-1.26-.34c-.14 1.04-.46 2.58-.7 3.52zm1.42-4.06c.76.78 1.68 1.9 2.1 2.58l1.3-1c-.46-.66-1.4-1.72-2.16-2.46zm2.82-5.74c.14-.48.28-1.02.42-1.54h3.74c-.08.46-.18 1-.3 1.54zm7.76 4.3v-1.62h-2.72c.42-1.78.84-3.88 1.1-5.56l-1.28-.18-.3.08h-3.78c.12-.52.24-1.04.34-1.52l-1.72-.2c-.42 1.96-1.08 4.54-1.58 6.14h5.74c-.08.44-.16.84-.26 1.24h-6.52v1.62h4.56v7.52c0 .2-.06.26-.3.28-.2 0-.94 0-1.66-.02.22.44.46 1.14.5 1.6 1.14 0 1.92-.04 2.48-.3.56-.24.7-.7.7-1.54v-7.54zm-2.94 4.08c.78-.64 1.8-1.62 2.64-2.52l-1.26-1.06c-.6.84-1.66 1.96-2.4 2.64zm-1.44 1.12c1.16.84 2.74 2.1 3.46 2.88l1.04-1.28c-.76-.74-2.34-1.92-3.5-2.72zm15.76-11.26h.82v1.54h6.34c-.42 2.62-1.16 4.92-2.16 6.82-1-1.98-1.7-4.28-2.16-6.76l-1.8.36c.64 3.14 1.54 5.92 2.84 8.22-1.1 1.52-2.4 2.7-3.88 3.48zm-5.22 10.74v-2.64h3.42v2.16zm3.42-10.74v2.32h-3.42v-2.32zm-3.42 3.98h3.42v2.44h-3.42zm13.22-4.32-.32.06h-6.34v-1.44h-9.8v1.72h1.46v10.98c-.7.08-1.32.18-1.88.24l.34 1.86c1.86-.3 4.32-.7 6.74-1.1v3.42h1.8v-1.64c.4.36.9 1 1.16 1.44 1.44-.86 2.74-1.94 3.82-3.32 1.04 1.38 2.28 2.5 3.76 3.36.26-.46.86-1.16 1.28-1.52-1.56-.82-2.84-2.02-3.88-3.5 1.54-2.58 2.6-5.94 3.06-10.24zm15.4 3.78v1.44h-2.98v-1.44zm4.74 1.44h-3.14v-1.44h3.14zm-3.14 2.86v-1.5h3.14v1.5zm-4.58 0v-1.5h2.98v1.5zm0 1.4h2.98v3.08h1.6v-3.08h3.14v1.46c0 .24-.06.3-.32.32-.22 0-1 0-1.82-.02.2.4.42.98.48 1.42 1.24 0 2.08 0 2.62-.26.54-.24.72-.64.72-1.46v-8.56h-2.4c-.4-.22-.88-.46-1.42-.7 1.42-.76 2.8-1.74 3.82-2.72l-1.12-.9-.36.1h-9.46v1.42h7.78c-.66.48-1.46 1-2.24 1.4-.88-.4-1.8-.76-2.6-1.02l-1.18 1c1.02.38 2.22.92 3.3 1.42h-5.18v10.22h1.66zm-3.28-9.04c-.58-.8-1.68-2.06-2.6-3.02l-1.38.86c.9.98 2.02 2.36 2.54 3.18zm-.18 6.42-.3.04h-1.9c1.1-1.36 2.5-3.32 3.28-4.44l-1.18-.54-.24.1h-4.1v1.5h2.92c-.8 1.16-1.84 2.54-2.24 2.94-.36.4-.7.54-.98.62.18.34.52 1.16.62 1.58.16-.16.7-.3 1.2-.3h1.96c-.66 2.94-2.02 5.04-3.9 6.2.36.26.98.9 1.22 1.26 1-.68 1.88-1.58 2.6-2.8 1.54 2.06 3.94 2.46 7.72 2.46 2.22 0 4.74-.06 6.68-.18.1-.5.34-1.34.6-1.74-2.12.2-5.16.3-7.26.3-3.42 0-5.74-.3-7.02-2.26.56-1.26.96-2.72 1.24-4.4zm25.82.24v-1.76h-3.54c0-.2 0-.4 0-.58v-3h2.98v-1.74h-5.46c.2-.72.38-1.48.54-2.24l-1.78-.34c-.46 2.34-1.24 4.68-2.38 6.14.44.26 1.18.76 1.52 1.08.54-.8 1.06-1.8 1.48-2.9h1.22v2.98.6h-3.92v1.76h3.8c-.3 2.5-1.22 5.22-4.04 7.22.38.28 1.06 1.02 1.32 1.42 2.12-1.54 3.3-3.54 3.96-5.6 1.06 1.22 2.4 2.94 3.06 3.94l1.28-1.6c-.58-.66-2.88-3.26-3.88-4.24.08-.38.12-.76.18-1.14zm2.38 4.86v-11.06h3.64v11.06zm-1.8-12.82v16.06h1.8v-1.5h3.64v1.28h1.88v-15.84zm-87.0633 42.148.576-.288c-1.392-2.24-2.112-4.96-2.112-7.728s.72-5.472 2.112-7.728l-.576-.304c-1.456 2.352-2.336 4.912-2.336 8.032s.88 5.664 2.336 8.016zm12.2897-9.424h.752v-3.84h5.552v2.736h.752v-3.36h-6.304v-1.232h5.584v-.624h-11.824v.624h5.488v1.232h-6.176v3.36h.752v-2.736h5.424zm5.648-.544c-.88-.32-2.496-.64-3.744-.784l-.24.528c1.264.176 2.88.544 3.76.848zm-.592-2.832c-.816.32-2.256.816-3.216 1.056l.304.464c.992-.224 2.368-.592 3.312-.992zm-6.064.992c-.768-.336-2.176-.736-3.28-.944l-.256.48c1.104.224 2.528.656 3.296 1.024zm-.096 1.104c-1.408.224-2.768.416-3.792.544l.288.672c1.04-.16 2.272-.4 3.536-.64zm-2.992 5.888v-1.36h4.096v1.36zm4.096-3.28v1.328h-4.096v-1.328zm5.072 1.328h-4.336v-1.328h4.336zm-4.336 1.952v-1.36h4.336v1.36zm1.232 2.016c-1.024 0-1.232-.128-1.232-.64v-.752h5.088v-4.544h-10.672v5.456h.752v-.912h4.096v.752c0 1.072.432 1.312 1.984 1.312h3.904c1.392 0 1.648-.496 1.776-2.432-.224-.048-.512-.16-.688-.288-.08 1.744-.24 2.048-1.12 2.048zm10.944-11.648c-.272-.56-.8-1.376-1.28-2.016l-.608.32c.464.624.992 1.504 1.248 2.08zm-3.088 5.568h4.528v-.672h-4.528zm4.528-2.736h-4.528v.656h4.528zm-.608 4.832v3.168h-3.2v-3.168zm.72-.688h-4.624v5.344h.704v-.8h3.92zm-5.264-5.504h5.68v-.688h-5.68zm12.816 9.648h-5.216v-3.696h5.216zm1.616-7.36v-.736h-3.824v-3.424c1.104-.224 2.128-.512 2.928-.832l-.56-.608c-1.488.624-4.336 1.168-6.688 1.504.096.192.208.464.224.624 1.072-.128 2.256-.32 3.376-.544v3.28h-3.568v.736h3.568v2.928h-3.008v5.84h.72v-.688h5.216v.624h.736v-5.776h-2.944v-2.928zm15.168-3.872c-.64-.56-1.888-1.296-2.944-1.76l-.432.496c1.04.48 2.304 1.248 2.928 1.824zm-6.224 9.152c-2.624.576-5.312 1.136-7.024 1.488l.16.784c1.824-.416 4.432-.976 6.928-1.52zm-1.376-1.872h-3.792v-3.344h3.792zm-4.528-4.032v4.736h5.28v-4.736zm11.136-.304c-.608 1.872-1.424 3.52-2.464 4.912-.48-1.68-.784-3.824-.944-6.272h4.896v-.752h-4.928c-.048-.848-.064-1.744-.064-2.656h-.816c.016.912.048 1.792.096 2.656h-7.92v.752h7.936c.192 2.72.56 5.152 1.152 7.024-1.168 1.392-2.56 2.512-4.208 3.36.176.16.448.448.56.608 1.504-.832 2.8-1.888 3.92-3.136.768 2.016 1.776 3.216 3.12 3.216 1.072 0 1.392-.832 1.568-3.44-.224-.064-.512-.224-.688-.4-.112 2.208-.304 3.04-.816 3.04-1.04 0-1.92-1.152-2.592-3.104 1.232-1.568 2.208-3.44 2.944-5.616zm14.6865 7.708v.82h-6.3984v-.82zm-6.1093-10.555v11.375h-.961v-11.375zm5.3125 5.102v.82h-5.6016v-.82zm.7578-5.102v.828h-6.3594v-.828zm5.5656 5.953v.805h-3.7422v-.805zm3.3703-1.281v6.703h-.9375v-8.453h.8984zm-.1719 1.953-.4531-.234c.0313-.5.125-.969.2813-1.407.1614-.437.3854-.823.6718-1.156.2865-.333.6302-.594 1.0311-.781.401-.188.857-.281 1.367-.281.412 0 .784.057 1.118.171.338.11.625.284.859.524.24.234.424.542.555.922.13.38.195.836.195 1.367v5.625h-.93v-5.594c0-.562-.088-1.002-.265-1.32-.172-.318-.414-.544-.727-.68-.307-.135-.664-.203-1.07-.203-.479 0-.886.099-1.219.297-.3281.193-.5964.445-.8047.758-.2031.307-.3542.638-.4531.992-.099.349-.1511.682-.1563 1zm5.6171-.734-.625.015c.026-.411.12-.804.281-1.179.167-.375.394-.709.68-1 .287-.297.628-.532 1.023-.704.402-.171.852-.257 1.352-.257.438 0 .828.06 1.172.179.344.115.633.3.867.555.24.25.422.57.547.961s.187.859.187 1.406v5.508h-.937v-5.516c0-.599-.089-1.062-.266-1.39-.172-.334-.411-.565-.718-.696-.308-.13-.667-.195-1.079-.195-.406.005-.763.081-1.07.227-.307.14-.565.328-.773.562-.203.229-.36.477-.469.742-.104.266-.161.526-.172.782zm13.8 3.968v-4.359c0-.401-.083-.747-.25-1.039s-.411-.516-.734-.672-.722-.234-1.196-.234c-.437 0-.828.078-1.171.234-.339.151-.607.357-.805.617-.193.255-.289.539-.289.852l-.938-.008c0-.318.078-.625.235-.922.156-.297.377-.562.664-.797.286-.234.627-.419 1.023-.554.401-.141.841-.211 1.32-.211.605 0 1.136.101 1.594.304.464.203.826.508 1.086.914.261.407.391.917.391 1.532v4.086c0 .291.021.593.062.906.047.312.112.57.196.773v.094h-.993c-.062-.188-.112-.422-.148-.703-.031-.287-.047-.557-.047-.813zm.219-3.406.016.719h-1.836c-.48 0-.909.044-1.29.133-.374.083-.692.208-.953.375-.26.161-.461.356-.601.586-.136.229-.203.489-.203.781 0 .302.075.578.226.828.157.25.375.451.657.602.286.145.624.218 1.015.218.521 0 .979-.096 1.375-.289.401-.192.732-.445.992-.758.261-.312.435-.653.524-1.023l.406.539c-.068.26-.193.529-.375.805-.177.271-.409.526-.695.765-.287.235-.625.427-1.016.579-.385.145-.823.218-1.312.218-.553 0-1.034-.104-1.446-.312-.406-.209-.724-.492-.953-.852-.224-.364-.336-.776-.336-1.234 0-.417.089-.789.266-1.117.177-.334.432-.615.765-.844.339-.235.745-.412 1.219-.531.479-.125 1.016-.188 1.61-.188zm5.058-3.531v8.453h-.93v-8.453zm-1.094-2.445c0-.178.055-.326.164-.446.115-.125.271-.187.469-.187s.354.062.468.187c.12.12.18.268.18.446 0 .171-.06.32-.18.445-.114.12-.27.18-.468.18s-.354-.06-.469-.18c-.109-.125-.164-.274-.164-.445zm5.487-1.102v12h-.929v-12zm6.843 15.088c1.456-2.352 2.336-4.896 2.336-8.016s-.88-5.68-2.336-8.032l-.576.304c1.392 2.256 2.112 4.96 2.112 7.728s-.72 5.488-2.112 7.728z" fill="#fff"/><rect height="68" rx="11.5" stroke="#000" width="159" x="380.5" y="329.5"/><path d="m419.88 362.58v1.44h-2.98v-1.44zm4.74 1.44h-3.14v-1.44h3.14zm-3.14 2.86v-1.5h3.14v1.5zm-4.58 0v-1.5h2.98v1.5zm0 1.4h2.98v3.08h1.6v-3.08h3.14v1.46c0 .24-.06.3-.32.32-.22 0-1 0-1.82-.02.2.4.42.98.48 1.42 1.24 0 2.08 0 2.62-.26.54-.24.72-.64.72-1.46v-8.56h-2.4c-.4-.22-.88-.46-1.42-.7 1.42-.76 2.8-1.74 3.82-2.72l-1.12-.9-.36.1h-9.46v1.42h7.78c-.66.48-1.46 1-2.24 1.4-.88-.4-1.8-.76-2.6-1.02l-1.18 1c1.02.38 2.22.92 3.3 1.42h-5.18v10.22h1.66zm-3.28-9.04c-.58-.8-1.68-2.06-2.6-3.02l-1.38.86c.9.98 2.02 2.36 2.54 3.18zm-.18 6.42-.3.04h-1.9c1.1-1.36 2.5-3.32 3.28-4.44l-1.18-.54-.24.1h-4.1v1.5h2.92c-.8 1.16-1.84 2.54-2.24 2.94-.36.4-.7.54-.98.62.18.34.52 1.16.62 1.58.16-.16.7-.3 1.2-.3h1.96c-.66 2.94-2.02 5.04-3.9 6.2.36.26.98.9 1.22 1.26 1-.68 1.88-1.58 2.6-2.8 1.54 2.06 3.94 2.46 7.72 2.46 2.22 0 4.74-.06 6.68-.18.1-.5.34-1.34.6-1.74-2.12.2-5.16.3-7.26.3-3.42 0-5.74-.3-7.02-2.26.56-1.26.96-2.72 1.24-4.4zm25.82.24v-1.76h-3.54c0-.2 0-.4 0-.58v-3h2.98v-1.74h-5.46c.2-.72.38-1.48.54-2.24l-1.78-.34c-.46 2.34-1.24 4.68-2.38 6.14.44.26 1.18.76 1.52 1.08.54-.8 1.06-1.8 1.48-2.9h1.22v2.98.6h-3.92v1.76h3.8c-.3 2.5-1.22 5.22-4.04 7.22.38.28 1.06 1.02 1.32 1.42 2.12-1.54 3.3-3.54 3.96-5.6 1.06 1.22 2.4 2.94 3.06 3.94l1.28-1.6c-.58-.66-2.88-3.26-3.88-4.24.08-.38.12-.76.18-1.14zm2.38 4.86v-11.06h3.64v11.06zm-1.8-12.82v16.06h1.8v-1.5h3.64v1.28h1.88v-15.84zm28.98 8.14v-1.84h-7.86v-3.04h6.46v-1.84h-6.46v-3.14h-1.96v3.14h-6.3v1.84h6.3v3.04h-7.74v1.84h6.76c-1.76 2.42-4.62 4.7-7.34 5.9.42.4 1.04 1.12 1.36 1.58 2.5-1.28 5.06-3.44 6.96-5.9v6.9h1.96v-6.98c1.9 2.48 4.46 4.74 6.98 6 .34-.48.92-1.22 1.36-1.6-2.72-1.18-5.6-3.48-7.38-5.9zm13.72 3.28c-1.3.9-2.62 1.8-3.56 2.38l-.04-.62-2.52.42v-5.26h2.4v-1.58h-2.4v-1.9h1.58v-1.56h-4.22c.7-.8 1.4-1.7 1.98-2.64 1.1 1.1 2.3 2.34 2.98 3.14l1.06-1.2c-.72-.84-2.14-2.16-3.3-3.26.1-.18.18-.38.28-.56l-1.42-.54c-.88 1.88-2.38 3.66-3.88 4.84.24.44.6 1.4.68 1.78.32-.28.68-.58 1.02-.94v.94h1.72v1.9h-2.82v1.58h2.82v5.5c-1.2.2-2.3.38-3.16.5l.42 1.68c1.9-.36 4.44-.86 6.86-1.36l-.02-.34.7 1.02c1.04-.74 2.28-1.66 3.4-2.58zm-10.34-2c.28 1.14.58 2.62.68 3.6l1.34-.36c-.14-.96-.46-2.42-.76-3.54zm5.9 3.34c.3-.9.62-2.3.96-3.48l-1.26-.34c-.14 1.04-.46 2.58-.7 3.52zm1.42-4.06c.76.78 1.68 1.9 2.1 2.58l1.3-1c-.46-.66-1.4-1.72-2.16-2.46zm2.82-5.74c.14-.48.28-1.02.42-1.54h3.74c-.08.46-.18 1-.3 1.54zm7.76 4.3v-1.62h-2.72c.42-1.78.84-3.88 1.1-5.56l-1.28-.18-.3.08h-3.78c.12-.52.24-1.04.34-1.52l-1.72-.2c-.42 1.96-1.08 4.54-1.58 6.14h5.74c-.08.44-.16.84-.26 1.24h-6.52v1.62h4.56v7.52c0 .2-.06.26-.3.28-.2 0-.94 0-1.66-.02.22.44.46 1.14.5 1.6 1.14 0 1.92-.04 2.48-.3.56-.24.7-.7.7-1.54v-7.54zm-2.94 4.08c.78-.64 1.8-1.62 2.64-2.52l-1.26-1.06c-.6.84-1.66 1.96-2.4 2.64zm-1.44 1.12c1.16.84 2.74 2.1 3.46 2.88l1.04-1.28c-.76-.74-2.34-1.92-3.5-2.72zm15.76-11.26h.82v1.54h6.34c-.42 2.62-1.16 4.92-2.16 6.82-1-1.98-1.7-4.28-2.16-6.76l-1.8.36c.64 3.14 1.54 5.92 2.84 8.22-1.1 1.52-2.4 2.7-3.88 3.48zm-5.22 10.74v-2.64h3.42v2.16zm3.42-10.74v2.32h-3.42v-2.32zm-3.42 3.98h3.42v2.44h-3.42zm13.22-4.32-.32.06h-6.34v-1.44h-9.8v1.72h1.46v10.98c-.7.08-1.32.18-1.88.24l.34 1.86c1.86-.3 4.32-.7 6.74-1.1v3.42h1.8v-1.64c.4.36.9 1 1.16 1.44 1.44-.86 2.74-1.94 3.82-3.32 1.04 1.38 2.28 2.5 3.76 3.36.26-.46.86-1.16 1.28-1.52-1.56-.82-2.84-2.02-3.88-3.5 1.54-2.58 2.6-5.94 3.06-10.24z" fill="#000"/><rect fill="#000" height="60" rx="12" width="160" y="439"/><path d="m67.14 468.02c-.28.76-.74 1.8-1.18 2.6h-2.36l.96-.32c-.14-.6-.52-1.56-.94-2.28zm-.86 4.18h3v-1.58h-1.7c.38-.68.8-1.52 1.18-2.26l-1.3-.34h2.2v-1.58h-3.38v-1.72h2.9v-1.56h-2.9v-1.88h-1.72v1.88h-3v1.56h3v1.72h-3.58v1.58h2.48l-1.24.38c.36.68.72 1.58.86 2.22h-1.68v1.58h3.16v1.92h-3.58v1.58h3.58v3.8h1.72v-3.8h3.4v-1.58h-3.4zm5.74-1.72c.56 1.9 1.34 3.66 2.32 5.16-.66.92-1.44 1.72-2.32 2.38zm4.68-.1c-.3 1.3-.76 2.56-1.4 3.72-.72-1.12-1.32-2.38-1.76-3.72zm.86-1.58-.32.08h-5.22v-5.12h4.48v2.12c0 .22-.08.28-.4.3-.28.02-1.34.02-2.48-.02.24.44.48 1.12.56 1.6 1.5 0 2.52 0 3.18-.28.68-.24.86-.72.86-1.58v-3.78h-7.9v17.42h1.7v-.8c.3.28.58.58.76.86 1-.68 1.88-1.52 2.62-2.5.82.96 1.74 1.76 2.76 2.34.28-.46.82-1.16 1.24-1.48-1.12-.56-2.1-1.38-2.98-2.36 1.12-1.88 1.86-4.06 2.28-6.38zm10.9 4.34h3.78v-1.62h-3.78v-1.98h-1.76v1.98h-3.78v1.62h3.78v3.08c-1.68.3-3.26.56-4.46.72l.4 1.76c2.64-.5 6.4-1.2 9.92-1.88l-.1-1.62c-1.34.24-2.68.48-4 .7zm-6.04-9.06h2.86c-.56 1.26-1.24 2.34-1.48 2.68-.34.48-.64.82-.96.9.22.46.48 1.32.6 1.7.54-.22 1.3-.32 7.2-.82.24.38.42.78.58 1.1l1.44-.92c-.58-1.16-1.84-2.96-2.92-4.26l-1.34.78c.44.54.88 1.18 1.32 1.82l-4.42.34c.74-.98 1.46-2.16 2.04-3.32h5.34v-1.62h-10.26zm12.94-1.1h-1.74v12h1.74zm2.12-1.48v15.48c0 .34-.1.44-.44.44-.32.02-1.42.02-2.54-.02.28.48.58 1.32.66 1.8 1.5 0 2.58-.04 3.26-.34.64-.28.88-.82.88-1.88v-15.48z" fill="#fff"/><path d="m80 329v-20h380v20" stroke="#000"/><path d="m80.5 438 2.8868-5h-5.7736zm-.5-40v35.5h1v-35.5z" fill="#000"/></svg>