<svg width="100" height="100" viewBox="0 0 100 100" fill="none" xmlns="http://www.w3.org/2000/svg">
<path d="M89.9018 46.6336H89.8002L89.4613 46.6125C89.0298 46.5865 88.6245 46.3966 88.3284 46.0816C88.0323 45.7666 87.8678 45.3504 87.8686 44.9181C87.8686 41.7962 84.9034 39.2547 81.2182 39.2547C77.5329 39.2547 74.5678 41.7962 74.5678 44.9181C74.5678 45.3675 74.3893 45.7984 74.0715 46.1162C73.7538 46.4339 73.3228 46.6125 72.8734 46.6125C72.424 46.6125 71.9931 46.4339 71.6753 46.1162C71.3576 45.7984 71.179 45.3675 71.179 44.9181C71.179 41.7962 68.2139 39.2547 64.5286 39.2547C60.8434 39.2547 57.8825 41.7962 57.8825 44.9181C57.8825 45.3675 57.704 45.7984 57.3862 46.1162C57.0685 46.4339 56.6375 46.6125 56.1881 46.6125C55.7387 46.6125 55.3078 46.4339 54.99 46.1162C54.6722 45.7984 54.4937 45.3675 54.4937 44.9181C54.4937 41.7962 51.5074 39.2547 47.8433 39.2547C44.1793 39.2547 41.1929 41.7962 41.1929 44.9181C41.1957 45.3356 41.0442 45.7395 40.7674 46.0522C40.4907 46.365 40.1082 46.5644 39.6934 46.6125C39.2799 46.6656 38.8614 46.562 38.5204 46.3222C38.1794 46.0823 37.9405 45.7234 37.8508 45.3163C37.717 44.6856 37.6194 44.0477 37.5585 43.4059C36.7791 41.021 34.2037 39.2673 31.1538 39.2673C27.4897 39.2673 24.5034 41.8089 24.5034 44.9308C24.5042 45.3631 24.3397 45.7794 24.0436 46.0943C23.7475 46.4093 23.3422 46.5992 22.9107 46.6251L22.5718 46.6463C22.1264 46.6731 21.6884 46.5231 21.3529 46.2289C21.0174 45.9346 20.8116 45.5199 20.78 45.0748C20.7334 44.4013 20.708 43.7236 20.708 43.0458C20.708 25.6785 36.6224 11.5517 56.1881 11.5517C75.7538 11.5517 91.664 25.67 91.664 43.0373C91.664 43.7151 91.6385 44.3928 91.592 45.0663C91.5599 45.4926 91.3679 45.891 91.0545 46.1817C90.741 46.4723 90.3293 46.6338 89.9018 46.6336ZM64.5286 35.8659C66.1365 35.8428 67.7277 36.1944 69.1761 36.8929C70.6245 37.5914 71.8903 38.6175 72.8734 39.89C73.8567 38.6178 75.1226 37.5918 76.571 36.8934C78.0193 36.1949 79.6104 35.8431 81.2182 35.8659C83.588 35.8507 85.8954 36.6257 87.7754 38.0686C85.1872 25.4032 72.8819 15.6478 57.8825 14.9616V38.1406C59.7763 36.6516 62.1196 35.8496 64.5286 35.8659ZM54.5064 16.6984C43.493 23.1581 41.0489 32.4772 40.7524 38.5261C42.6457 36.8791 45.052 35.9403 47.5604 35.87C50.0688 35.7997 52.5239 36.6023 54.5064 38.1406V16.6984ZM50.2493 15.4276C37.2196 17.5752 26.9518 26.6401 24.6093 38.0855C26.4557 36.6878 28.7003 35.9163 31.0159 35.8836C33.3315 35.8508 35.597 36.5584 37.4823 37.9034C37.9143 31.5114 40.4516 22.2813 50.2366 15.4107L50.2493 15.4276Z" fill="url(#paint0_linear_338_4806)"/>
<path d="M74.5215 45.3035L71.2217 44.5368C71.4038 43.7532 75.3856 25.2083 55.4386 15.381L56.9339 12.3396C79.342 23.3784 74.5765 45.0875 74.5215 45.3035Z" fill="url(#paint1_linear_338_4806)"/>
<path d="M57.8785 9.16687H54.4897V72.5871H57.8785V9.16687Z" fill="url(#paint2_linear_338_4806)"/>
<path d="M86.1747 82.6855H31.9295C30.147 82.6928 28.3925 82.2415 26.8347 81.375C25.277 80.5086 23.9681 79.2562 23.034 77.738L9.14867 55.3511C8.5264 54.1223 8.38725 52.7048 8.75868 51.3785C9.13011 50.0521 9.98514 48.913 11.1551 48.1861C12.325 47.4591 13.725 47.197 15.0787 47.4515C16.4324 47.7059 17.6416 48.4585 18.4677 49.5606L32.2006 71.706H86.1747C87.5562 71.8147 88.8459 72.4401 89.7866 73.4577C90.7273 74.4752 91.2498 75.8101 91.2498 77.1958C91.2498 78.5815 90.7273 79.9164 89.7866 80.9339C88.8459 81.9514 87.5562 82.5769 86.1747 82.6855ZM13.8421 50.3527C13.4513 50.3546 13.0687 50.4646 12.7365 50.6704C12.2664 50.9672 11.9319 51.437 11.8051 51.9782C11.6783 52.5195 11.7694 53.0889 12.0588 53.5636L25.9441 75.9504C26.5739 76.9769 27.4573 77.8239 28.5093 78.41C29.5613 78.9961 30.7464 79.3015 31.9507 79.2968H86.1747C86.686 79.2317 87.156 78.9825 87.4967 78.5957C87.8374 78.2089 88.0253 77.7112 88.0253 77.1958C88.0253 76.6804 87.8374 76.1826 87.4967 75.7959C87.156 75.4091 86.686 75.1598 86.1747 75.0948H31.9295C31.4415 75.0958 30.9614 74.9718 30.535 74.7345C30.1086 74.4972 29.7501 74.1545 29.4938 73.7393L15.6085 51.3482C15.4188 51.0448 15.1554 50.7944 14.8429 50.6203C14.5303 50.4462 14.1787 50.3542 13.8209 50.3527H13.8421Z" fill="url(#paint3_linear_338_4806)"/>
<path d="M57.828 80.6862H54.4393V90.4966H57.828V80.6862Z" fill="url(#paint4_linear_338_4806)"/>
<path d="M26.1551 79.8762L20.8097 89.6843L23.7853 91.306L29.1306 81.4979L26.1551 79.8762Z" fill="url(#paint5_linear_338_4806)"/>
<path d="M86.2878 80.2302L83.3105 81.8488L88.4635 91.3275L91.4408 89.709L86.2878 80.2302Z" fill="url(#paint6_linear_338_4806)"/>
<defs>
<linearGradient id="paint0_linear_338_4806" x1="50.1093" y1="9.16687" x2="50.1093" y2="91.3275" gradientUnits="userSpaceOnUse">
<stop stop-color="#00B2A1"/>
<stop offset="1" stop-color="#835DD0"/>
</linearGradient>
<linearGradient id="paint1_linear_338_4806" x1="50.1093" y1="9.16687" x2="50.1093" y2="91.3275" gradientUnits="userSpaceOnUse">
<stop stop-color="#00B2A1"/>
<stop offset="1" stop-color="#835DD0"/>
</linearGradient>
<linearGradient id="paint2_linear_338_4806" x1="50.1093" y1="9.16687" x2="50.1093" y2="91.3275" gradientUnits="userSpaceOnUse">
<stop stop-color="#00B2A1"/>
<stop offset="1" stop-color="#835DD0"/>
</linearGradient>
<linearGradient id="paint3_linear_338_4806" x1="50.1093" y1="9.16687" x2="50.1093" y2="91.3275" gradientUnits="userSpaceOnUse">
<stop stop-color="#00B2A1"/>
<stop offset="1" stop-color="#835DD0"/>
</linearGradient>
<linearGradient id="paint4_linear_338_4806" x1="50.1093" y1="9.16687" x2="50.1093" y2="91.3275" gradientUnits="userSpaceOnUse">
<stop stop-color="#00B2A1"/>
<stop offset="1" stop-color="#835DD0"/>
</linearGradient>
<linearGradient id="paint5_linear_338_4806" x1="50.1093" y1="9.16687" x2="50.1093" y2="91.3275" gradientUnits="userSpaceOnUse">
<stop stop-color="#00B2A1"/>
<stop offset="1" stop-color="#835DD0"/>
</linearGradient>
<linearGradient id="paint6_linear_338_4806" x1="50.1093" y1="9.16687" x2="50.1093" y2="91.3275" gradientUnits="userSpaceOnUse">
<stop stop-color="#00B2A1"/>
<stop offset="1" stop-color="#835DD0"/>
</linearGradient>
</defs>
</svg>
