<svg width="100" height="100" viewBox="0 0 100 100" fill="none" xmlns="http://www.w3.org/2000/svg">
<path d="M82.1267 91.675H18.5546C18.1125 91.675 17.6886 91.4994 17.3759 91.1868C17.0633 90.8742 16.8877 90.4502 16.8877 90.0081V45.8348H20.2215V88.3412H80.4597V45.8348H83.7936V90.0081C83.7936 90.4502 83.6179 90.8742 83.3053 91.1868C82.9927 91.4994 82.5688 91.675 82.1267 91.675Z" fill="url(#paint0_linear_338_4289)"/>
<path d="M88.1821 47.4767H57.6942V44.1429H86.511V34.4915H14.1668V44.1429H42.9836V47.4767H12.4999C12.0578 47.4767 11.6338 47.3011 11.3212 46.9885C11.0086 46.6759 10.833 46.2519 10.833 45.8098V32.8246C10.833 32.3825 11.0086 31.9585 11.3212 31.6459C11.6338 31.3333 12.0578 31.1576 12.4999 31.1576H88.1821C88.6242 31.1576 89.0482 31.3333 89.3608 31.6459C89.6734 31.9585 89.849 32.3825 89.849 32.8246V45.8098C89.849 46.2519 89.6734 46.6759 89.3608 46.9885C89.0482 47.3011 88.6242 47.4767 88.1821 47.4767Z" fill="url(#paint1_linear_338_4289)"/>
<path d="M58.2147 39.3172H54.8809V90.0123H58.2147V39.3172Z" fill="url(#paint2_linear_338_4289)"/>
<path d="M45.801 39.3172H42.4671V90.0123H45.801V39.3172Z" fill="url(#paint3_linear_338_4289)"/>
<path d="M39.8626 34.5415C38.6936 34.5415 37.536 34.3109 36.4562 33.8629C35.3764 33.4149 34.3956 32.7582 33.5699 31.9306C32.7443 31.103 32.0899 30.1206 31.6444 29.0398C31.199 27.9589 30.9711 26.8008 30.9738 25.6318C30.976 23.2422 31.9265 20.9512 33.6166 19.2619C35.3066 17.5727 37.5981 16.6232 39.9877 16.6221C41.3691 16.6264 42.7305 16.9531 43.9633 17.5764C44.1817 17.6849 44.3737 17.8401 44.5256 18.0309C44.6775 18.2217 44.7857 18.4436 44.8426 18.6808C45.0382 19.4846 45.4084 20.2355 45.927 20.8801C46.4456 21.5247 47.0997 22.0472 47.843 22.4105L46.3637 25.3984C44.2491 24.3534 42.6308 22.5181 41.8588 20.2893C38.1457 18.935 34.3202 21.8771 34.3202 25.6318C34.3153 26.3764 34.4603 27.1143 34.7467 27.8016C35.0331 28.489 35.4549 29.1116 35.9871 29.6324C36.5256 30.1516 37.1624 30.558 37.8601 30.8278C38.5579 31.0976 39.3025 31.2253 40.0502 31.2035H60.8033C61.5187 31.2317 62.2323 31.1111 62.8987 30.8493C63.5651 30.5875 64.1699 30.1901 64.6747 29.6824C65.217 29.1569 65.6476 28.5272 65.9405 27.8311C66.2334 27.135 66.3825 26.387 66.3791 25.6318C66.3791 21.6604 62.0701 18.6474 58.2029 20.5644L56.7235 17.5764C58.6445 16.6224 60.8431 16.386 62.923 16.9098C65.003 17.4337 66.8273 18.6834 68.0672 20.4336C69.3071 22.1838 69.8809 24.3193 69.6852 26.4553C69.4896 28.5912 68.5373 30.587 67 32.0828C66.1779 32.8936 65.2004 33.5301 64.1263 33.954C63.0521 34.3779 61.9035 34.5806 60.7491 34.5498H39.8543L39.8626 34.5415Z" fill="url(#paint4_linear_338_4289)"/>
<path d="M55.1938 24.2982L51.9558 23.5106C52.5125 21.2126 53.955 19.2279 55.9689 17.989C55.9982 17.7749 56.0135 17.5591 56.0147 17.343C56.0283 16.5324 55.8682 15.7283 55.5451 14.9847C55.2221 14.2412 54.7436 13.5754 54.1418 13.0321C53.5401 12.4888 52.829 12.0806 52.0564 11.835C51.2838 11.5894 50.4675 11.512 49.6625 11.608C48.8575 11.7041 48.0824 11.9713 47.3893 12.3919C46.6962 12.8124 46.1011 13.3764 45.6441 14.046C45.1871 14.7156 44.8786 15.4753 44.7396 16.274C44.6006 17.0727 44.6342 17.8919 44.8381 18.6766L41.6001 19.4642C41.2623 18.1338 41.2329 16.7439 41.5139 15.4004C41.795 14.0569 42.3792 12.7953 43.222 11.7119C44.0647 10.6285 45.1437 9.7519 46.3767 9.14889C47.6097 8.54588 48.9642 8.23242 50.3368 8.23242C51.7093 8.23242 53.0638 8.54588 54.2968 9.14889C55.5298 9.7519 56.6089 10.6285 57.4516 11.7119C58.2943 12.7953 58.8785 14.0569 59.1596 15.4004C59.4407 16.7439 59.4113 18.1338 59.0735 19.4642C59.0161 19.7006 58.9077 19.9216 58.7557 20.1117C58.6038 20.3018 58.4122 20.4562 58.1942 20.5643C57.451 20.9288 56.7969 21.4521 56.2784 22.0974C55.7599 22.7426 55.3896 23.494 55.1938 24.2982Z" fill="url(#paint5_linear_338_4289)"/>
<defs>
<linearGradient id="paint0_linear_338_4289" x1="50.341" y1="8.23242" x2="50.341" y2="91.675" gradientUnits="userSpaceOnUse">
<stop stop-color="#00B2A1"/>
<stop offset="1" stop-color="#835DD0"/>
</linearGradient>
<linearGradient id="paint1_linear_338_4289" x1="50.341" y1="8.23242" x2="50.341" y2="91.675" gradientUnits="userSpaceOnUse">
<stop stop-color="#00B2A1"/>
<stop offset="1" stop-color="#835DD0"/>
</linearGradient>
<linearGradient id="paint2_linear_338_4289" x1="50.341" y1="8.23242" x2="50.341" y2="91.675" gradientUnits="userSpaceOnUse">
<stop stop-color="#00B2A1"/>
<stop offset="1" stop-color="#835DD0"/>
</linearGradient>
<linearGradient id="paint3_linear_338_4289" x1="50.341" y1="8.23242" x2="50.341" y2="91.675" gradientUnits="userSpaceOnUse">
<stop stop-color="#00B2A1"/>
<stop offset="1" stop-color="#835DD0"/>
</linearGradient>
<linearGradient id="paint4_linear_338_4289" x1="50.341" y1="8.23242" x2="50.341" y2="91.675" gradientUnits="userSpaceOnUse">
<stop stop-color="#00B2A1"/>
<stop offset="1" stop-color="#835DD0"/>
</linearGradient>
<linearGradient id="paint5_linear_338_4289" x1="50.341" y1="8.23242" x2="50.341" y2="91.675" gradientUnits="userSpaceOnUse">
<stop stop-color="#00B2A1"/>
<stop offset="1" stop-color="#835DD0"/>
</linearGradient>
</defs>
</svg>
