<svg width="540" height="463" viewBox="0 0 540 463" fill="none" xmlns="http://www.w3.org/2000/svg">
<path d="M41.8609 329.108L294.671 183.7C305.284 177.601 317.297 174.393 329.522 174.393C341.747 174.393 353.76 177.601 364.373 183.7L507.884 266.344C512.024 268.694 515.37 272.234 517.493 276.509C519.615 280.785 520.417 285.601 519.795 290.339C519.621 291.312 519.39 292.273 519.104 293.219C518.342 296.347 516.954 299.286 515.025 301.857C513.096 304.428 510.666 306.577 507.884 308.174L255.074 453.582C244.463 459.687 232.449 462.899 220.223 462.899C207.996 462.899 195.982 459.687 185.372 453.582L41.8609 371.015C39.0788 369.418 36.6492 367.269 34.7202 364.698C32.7912 362.127 31.4031 359.188 30.6405 356.06C30.3546 355.115 30.1239 354.153 29.9497 353.18C29.3115 348.43 30.1055 343.598 32.2289 339.306C34.3523 335.015 37.7075 331.463 41.8609 329.108Z" fill="#D5CEF8"/>
<path d="M159.286 400.104C174.845 409.132 192.495 413.886 210.462 413.886C228.428 413.886 246.079 409.132 261.638 400.104L510.252 249.153V255.583C510.261 261.829 508.631 267.967 505.527 273.379C502.422 278.79 497.953 283.283 492.571 286.405L253.77 424.33C240.61 431.964 225.682 435.984 210.487 435.984C195.293 435.984 180.365 431.964 167.205 424.33L37.7039 349.157C32.3284 346.036 27.8647 341.548 24.761 336.145C21.6574 330.741 20.0232 324.612 20.0226 318.373V308.6L159.286 400.104Z" fill="#C2BBE6"/>
<path d="M32.1256 290.533L284.936 145.125C295.549 139.026 307.562 135.818 319.787 135.818C332.012 135.818 344.025 139.026 354.638 145.125L498.149 227.769C502.289 230.118 505.635 233.658 507.757 237.934C509.88 242.21 510.682 247.026 510.06 251.763C509.886 252.736 509.655 253.698 509.369 254.644C508.606 257.771 507.218 260.71 505.289 263.281C503.36 265.852 500.931 268.002 498.149 269.598L245.338 415.006C234.728 421.111 222.714 424.323 210.487 424.323C198.261 424.323 186.247 421.111 175.636 415.006L32.1256 332.44C29.3434 330.843 26.9138 328.693 24.9848 326.122C23.0558 323.551 21.6677 320.612 20.9052 317.485C20.6192 316.539 20.3885 315.577 20.2143 314.604C19.5762 309.855 20.3701 305.022 22.4935 300.731C24.6169 296.44 27.9722 292.887 32.1256 290.533Z" fill="#F2F1F6"/>
<path d="M107.995 314.27L318.239 191.815C322.569 189.325 327.471 188.015 332.46 188.015C337.448 188.015 342.35 189.325 346.68 191.815L373.484 208.326C375.176 209.28 376.545 210.723 377.411 212.467C378.278 214.212 378.604 216.178 378.345 218.111C378.282 218.512 378.188 218.908 378.064 219.294C377.754 220.571 377.188 221.77 376.401 222.818C375.613 223.866 374.62 224.741 373.484 225.389L163.252 347.87C158.922 350.36 154.02 351.67 149.032 351.67C144.043 351.67 139.141 350.36 134.811 347.87L107.943 331.359C106.811 330.704 105.824 329.823 105.043 328.771C104.262 327.718 103.703 326.516 103.402 325.239C103.288 324.854 103.194 324.463 103.12 324.068C102.867 322.133 103.197 320.165 104.065 318.419C104.934 316.673 106.302 315.228 107.995 314.27Z" fill="#D5CEF8"/>
<path d="M113.291 163.333C113.298 156.594 115.062 149.974 118.407 144.133C121.751 138.292 126.56 133.433 132.354 130.041L133.902 129.141L267.945 208.107L233.696 235.111L113.291 164.182V163.333Z" fill="#9067E9"/>
<path d="M133.903 129.141L351.811 2.63562C354.377 1.11532 357.263 0.225118 360.235 0.0374271C363.208 -0.150264 366.182 0.369854 368.917 1.55547C372.573 3.3568 376.119 5.37491 379.536 7.59914C382.259 9.32909 384.501 11.7254 386.052 14.5636C387.603 17.4018 388.411 20.5891 388.402 23.827V175.562C388.407 182.337 386.635 188.995 383.266 194.864C379.897 200.733 375.05 205.607 369.211 208.995L278.553 261.587L233.773 235.188L268.023 208.185L133.903 129.141Z" fill="#623EAF"/>
<path d="M278.501 261.536L149.806 336.195C147.144 337.744 144.146 338.619 141.073 338.745C137.999 338.87 134.941 338.242 132.163 336.915C131.95 336.837 131.748 336.734 131.561 336.606C131.101 336.375 130.64 336.105 130.192 335.847C127.723 334.382 123.463 331.99 121.928 331.038C119.26 329.298 117.071 326.911 115.562 324.098C114.053 321.285 113.272 318.135 113.292 314.939V164.207L278.501 261.536Z" fill="#623EAF"/>
<path d="M141.106 334.073C143.468 334.07 145.786 333.436 147.823 332.234L367.164 204.931C372.144 202.052 376.284 197.907 379.167 192.913C382.05 187.918 383.576 182.249 383.592 176.475V24.74C383.572 21.1337 382.135 17.6812 379.596 15.1335C377.056 12.5857 373.618 11.1489 370.03 11.1354C367.647 11.139 365.309 11.7875 363.262 13.0128L143.793 140.418C138.857 143.32 134.761 147.467 131.911 152.45C129.061 157.432 127.556 163.076 127.545 168.824V320.43C127.551 324.044 128.982 327.508 131.523 330.065C134.065 332.622 137.51 334.063 141.106 334.073Z" fill="#F4F6FB"/>
<path d="M142.295 208.429V208.043C142.294 207.455 142.448 206.876 142.739 206.366C143.031 205.856 143.452 205.432 143.958 205.137L169.853 189.706C170.053 189.569 170.287 189.492 170.529 189.483C170.771 189.475 171.01 189.535 171.219 189.658C171.428 189.78 171.598 189.96 171.709 190.175C171.821 190.391 171.869 190.634 171.849 190.876V191.262C171.852 191.853 171.7 192.434 171.407 192.946C171.115 193.459 170.694 193.885 170.186 194.181L144.291 209.612C144.09 209.75 143.854 209.827 143.611 209.836C143.368 209.844 143.128 209.782 142.919 209.658C142.709 209.534 142.539 209.352 142.429 209.135C142.318 208.917 142.272 208.672 142.295 208.429Z" fill="#00C7A1"/>
<path d="M162.254 207.928V207.542C162.25 206.953 162.401 206.373 162.694 205.862C162.986 205.351 163.408 204.928 163.917 204.636L169.79 201.202C169.989 201.066 170.222 200.989 170.462 200.98C170.703 200.971 170.941 201.031 171.149 201.152C171.357 201.272 171.528 201.45 171.64 201.664C171.753 201.877 171.803 202.119 171.786 202.36V202.758C171.79 203.347 171.638 203.927 171.346 204.438C171.054 204.949 170.631 205.372 170.122 205.664L164.25 209.085C164.051 209.221 163.818 209.298 163.578 209.307C163.337 209.316 163.099 209.257 162.891 209.136C162.682 209.015 162.512 208.837 162.399 208.624C162.287 208.41 162.236 208.169 162.254 207.928Z" fill="#8A59D7"/>
<path d="M142.129 220.568V220.182C142.127 219.593 142.28 219.014 142.572 218.504C142.864 217.994 143.285 217.57 143.792 217.276L157.699 208.84C157.898 208.704 158.131 208.627 158.371 208.618C158.612 208.609 158.85 208.669 159.058 208.79C159.267 208.91 159.437 209.088 159.549 209.301C159.662 209.515 159.712 209.756 159.695 209.998V210.396C159.694 210.984 159.54 211.562 159.248 212.072C158.957 212.582 158.537 213.006 158.032 213.302L144.124 221.725C143.926 221.861 143.693 221.938 143.452 221.947C143.212 221.956 142.974 221.897 142.765 221.776C142.557 221.655 142.387 221.477 142.274 221.264C142.161 221.05 142.111 220.809 142.129 220.568Z" fill="#4B84E4"/>
<path d="M221.106 138.271L235.179 129.27C238.262 139.351 234.859 150.796 229.793 159.63L219.673 153.804C219.673 153.804 220.952 151.31 221.093 150.911C221.467 149.973 221.779 149.011 222.027 148.031C222.743 144.778 222.897 141.036 221.106 138.271Z" fill="#D5DAE5"/>
<path d="M186.844 159.45C187.331 152.051 189.554 144.873 193.33 138.502L203.463 144.34C199.356 151.503 199.625 159.385 204.116 161.957C209.144 164.863 216.014 159.964 219.622 153.676L229.742 159.501C224.407 168.811 215.912 176.745 207.493 179.252C205.42 179.966 203.222 180.237 201.039 180.049C198.856 179.861 196.736 179.217 194.814 178.159C189.121 174.893 186.46 167.846 186.844 159.45Z" fill="#8A59D7"/>
<path d="M228.258 119.87C230.103 120.953 231.678 122.443 232.864 124.229L232.967 124.396C233.715 125.556 234.329 126.799 234.796 128.1C234.873 128.305 235.091 129 235.129 129.141L221.055 138.142C220.525 137.267 219.786 136.538 218.906 136.021C214.441 133.449 207.507 137.139 203.4 144.276L193.267 138.438C202.568 122.416 218.202 114.07 228.258 119.87Z" fill="#4B84E4"/>
<path d="M203.72 175.832C211.307 175.832 220.775 170.225 227.645 158.254C232.622 149.587 234.413 140.058 232.455 132.755C232.045 130.93 231.274 129.207 230.188 127.687C229.102 126.167 227.724 124.882 226.135 123.908C217.358 118.841 203.733 125.991 195.775 139.853C190.798 148.52 189.007 158.048 190.964 165.352C191.375 167.177 192.146 168.9 193.232 170.419C194.318 171.939 195.696 173.224 197.285 174.199C199.25 175.303 201.469 175.866 203.72 175.832ZM219.751 123.651C221.745 123.62 223.711 124.126 225.444 125.116C226.874 126 228.112 127.163 229.086 128.537C230.06 129.911 230.749 131.468 231.112 133.115C232.98 140.071 231.24 149.201 226.442 157.547C219.841 169.119 207.072 178.236 197.976 172.977C196.548 172.091 195.311 170.927 194.337 169.554C193.364 168.18 192.674 166.625 192.308 164.979C190.44 158.022 192.193 148.892 196.978 140.547C202.952 130.157 212.151 123.651 219.751 123.651Z" fill="white"/>
<path d="M219.111 239.406V262.488L227.158 257.858V234.712L219.111 239.406Z" fill="#4B84E4"/>
<path d="M193.113 264.918V277.61C195.851 276.028 198.55 274.459 201.16 272.916V260.237L193.113 264.918Z" fill="#4B84E4"/>
<path d="M179.616 248.24V285.466L187.663 280.786V243.572L179.616 248.24Z" fill="#8A59D7"/>
<path d="M166.092 268.827V293.259L174.14 288.565V264.134L166.092 268.827Z" fill="#4B84E4"/>
<path d="M152.607 251.107V301.141C154.027 300.292 156.867 298.659 160.68 296.46V246.439L152.607 251.107Z" fill="#8A59D7"/>
<path d="M206.599 204.34V269.792C209.465 268.094 212.164 266.512 214.672 265.085V199.672L206.599 204.34Z" fill="#FFCA4C"/>
<path d="M321.603 76.5485V75.8155C321.61 74.7063 321.902 73.6177 322.452 72.6555C323.001 71.6934 323.789 70.8905 324.738 70.3248L363.222 47.6289C363.61 47.4038 364.05 47.285 364.498 47.2843C364.946 47.2836 365.386 47.4011 365.774 47.625C366.163 47.8489 366.486 48.1713 366.712 48.5601C366.938 48.9489 367.058 49.3905 367.061 49.8406V50.5864C367.056 51.7025 366.761 52.7981 366.207 53.7653C365.653 54.7325 364.858 55.5381 363.9 56.1029L325.442 78.7731C325.053 78.9987 324.612 79.1175 324.163 79.1176C323.714 79.1177 323.273 78.9991 322.884 78.7737C322.495 78.5483 322.172 78.224 321.947 77.8334C321.722 77.4428 321.604 76.9997 321.603 76.5485Z" fill="#8A59D7"/>
<path d="M263.442 111.435V110.702C263.442 109.586 263.734 108.49 264.288 107.524C264.843 106.558 265.641 105.756 266.602 105.198L308.349 80.0332C308.737 79.8081 309.177 79.6893 309.625 79.6886C310.073 79.6879 310.513 79.8054 310.901 80.0293C311.29 80.2532 311.613 80.5756 311.839 80.9644C312.065 81.3532 312.185 81.7948 312.187 82.2449V82.9779C312.189 84.0968 311.896 85.1962 311.339 86.1648C310.782 87.1335 309.98 87.9371 309.015 88.4943L267.28 113.633C266.893 113.858 266.455 113.977 266.008 113.978C265.561 113.979 265.122 113.863 264.734 113.641C264.346 113.418 264.022 113.098 263.795 112.71C263.569 112.323 263.447 111.884 263.442 111.435Z" fill="#4B84E4"/>
<path d="M310.857 201.125V200.392C310.856 199.277 311.148 198.181 311.703 197.215C312.258 196.249 313.056 195.446 314.017 194.889L363.671 165.866C364.057 165.642 364.496 165.523 364.943 165.521C365.39 165.52 365.829 165.637 366.217 165.859C366.605 166.081 366.929 166.402 367.155 166.789C367.382 167.176 367.504 167.616 367.509 168.065V168.824C367.51 169.939 367.219 171.036 366.664 172.002C366.109 172.968 365.311 173.771 364.349 174.327L314.695 203.337C314.307 203.562 313.867 203.681 313.419 203.681C312.972 203.682 312.531 203.565 312.143 203.341C311.754 203.117 311.431 202.794 311.205 202.406C310.98 202.017 310.859 201.575 310.857 201.125Z" fill="#00C7A1"/>
<path d="M359.704 77.6157C360.285 77.5962 360.849 77.4232 361.342 77.1142C362.421 76.3693 363.304 75.371 363.912 74.2057C364.521 73.0405 364.838 71.7436 364.835 70.4276C364.897 69.8559 364.812 69.2778 364.588 68.7486C364.364 68.2195 364.008 67.757 363.555 67.4057C363.147 67.2123 362.696 67.1306 362.247 67.169C361.797 67.2074 361.366 67.3645 360.996 67.6243C359.894 68.3797 358.991 69.394 358.367 70.5794C357.743 71.7648 357.416 73.0854 357.414 74.4267C357.355 74.985 357.442 75.5491 357.667 76.0632C357.891 76.5774 358.245 77.0238 358.694 77.3585C359.003 77.5294 359.351 77.6179 359.704 77.6157Z" fill="#8A59D7"/>
<path d="M347.281 85.1509C347.857 85.1292 348.417 84.9563 348.906 84.6494C349.988 83.907 350.872 82.9091 351.481 81.7434C352.09 80.5776 352.405 79.2795 352.399 77.9628C352.46 77.3913 352.374 76.8136 352.15 76.2846C351.926 75.7557 351.572 75.2932 351.119 74.941C350.712 74.7476 350.26 74.6659 349.811 74.7043C349.361 74.7427 348.93 74.8998 348.561 75.1596C347.458 75.9149 346.555 76.9293 345.931 78.1147C345.307 79.3001 344.98 80.6207 344.978 81.9619C344.918 82.5204 345.005 83.0849 345.229 83.5993C345.454 84.1137 345.808 84.56 346.258 84.8938C346.567 85.0766 346.923 85.1658 347.281 85.1509Z" fill="#8A59D7"/>
<path d="M334.833 92.2361C335.413 92.2166 335.978 92.0436 336.47 91.7346C337.551 90.9906 338.434 89.9924 339.042 88.827C339.651 87.6616 339.967 86.3643 339.963 85.048C340.028 84.4762 339.944 83.8972 339.72 83.3676C339.496 82.838 339.139 82.3758 338.684 82.0262C338.276 81.8328 337.824 81.7511 337.375 81.7895C336.926 81.8279 336.494 81.985 336.125 82.2448C335.024 82.9989 334.122 84.0113 333.498 85.1942C332.874 86.3772 332.546 87.6952 332.543 89.0343C332.483 89.5945 332.569 90.1608 332.794 90.6772C333.018 91.1936 333.372 91.6423 333.822 91.979C334.13 92.1538 334.479 92.2426 334.833 92.2361Z" fill="#8A59D7"/>
<path d="M362.173 191.661C362.749 191.639 363.309 191.466 363.798 191.159C364.878 190.415 365.76 189.416 366.369 188.251C366.977 187.086 367.294 185.789 367.291 184.473C367.354 183.901 367.27 183.322 367.046 182.793C366.822 182.264 366.466 181.801 366.012 181.451C365.606 181.248 365.153 181.161 364.702 181.2C364.25 181.238 363.818 181.401 363.453 181.67C362.347 182.42 361.441 183.431 360.815 184.615C360.188 185.798 359.859 187.118 359.858 188.459C359.798 189.019 359.884 189.586 360.109 190.102C360.333 190.618 360.687 191.067 361.137 191.404C361.453 191.582 361.811 191.671 362.173 191.661Z" fill="#8A59D7"/>
<path d="M349.738 199.196C350.314 199.176 350.875 199.003 351.363 198.695C352.443 197.95 353.327 196.952 353.938 195.787C354.548 194.622 354.868 193.325 354.868 192.008C354.933 191.436 354.849 190.857 354.625 190.328C354.401 189.798 354.044 189.336 353.589 188.986C353.184 188.783 352.73 188.696 352.279 188.735C351.828 188.773 351.396 188.936 351.03 189.205C349.927 189.957 349.024 190.968 348.399 192.152C347.775 193.335 347.448 194.655 347.448 195.994C347.387 196.555 347.473 197.121 347.697 197.638C347.922 198.155 348.277 198.603 348.727 198.939C349.036 199.111 349.385 199.2 349.738 199.196Z" fill="#8A59D7"/>
<path d="M337.303 206.281C337.879 206.261 338.44 206.088 338.928 205.78C340.007 205.034 340.89 204.036 341.501 202.871C342.111 201.706 342.431 200.41 342.433 199.093C342.499 198.521 342.416 197.942 342.192 197.412C341.967 196.882 341.61 196.42 341.154 196.071C340.747 195.876 340.296 195.792 339.847 195.829C339.397 195.865 338.966 196.019 338.595 196.277C337.491 197.032 336.588 198.046 335.964 199.232C335.339 200.417 335.013 201.738 335.013 203.08C334.949 203.64 335.033 204.208 335.258 204.725C335.483 205.242 335.839 205.69 336.292 206.024C336.601 206.197 336.949 206.285 337.303 206.281Z" fill="#8A59D7"/>
<path d="M142.756 172.617L142.462 172.745H142.296C142.125 172.743 141.958 172.697 141.81 172.612C141.662 172.526 141.539 172.404 141.451 172.257C141.387 172.145 141.346 172.021 141.33 171.893C141.315 171.765 141.325 171.635 141.362 171.511C141.429 171.266 141.59 171.058 141.809 170.932L171.364 153.894C171.589 153.766 171.854 153.729 172.106 153.791C172.229 153.826 172.345 153.884 172.446 153.964C172.547 154.043 172.631 154.142 172.694 154.254C172.819 154.482 172.851 154.749 172.784 155C172.711 155.242 172.552 155.449 172.336 155.579L142.756 172.617Z" fill="#8A59D7"/>
<path d="M157.546 169.364C157.772 169.237 158.038 169.204 158.288 169.274C158.531 169.342 158.738 169.503 158.864 169.724C158.928 169.833 158.969 169.955 158.984 170.081C159 170.207 158.989 170.335 158.953 170.457C158.922 170.58 158.866 170.696 158.789 170.798C158.712 170.9 158.616 170.985 158.505 171.048L142.782 180.049L142.487 180.178H142.295C142.079 180.185 141.867 180.118 141.693 179.989C141.519 179.86 141.394 179.675 141.338 179.465C141.281 179.255 141.297 179.032 141.383 178.832C141.468 178.633 141.619 178.468 141.809 178.365L157.546 169.364Z" fill="#8A59D7"/>
<path d="M162.19 168.926L161.909 169.042H161.73C161.575 169.044 161.422 169.008 161.283 168.939C161.145 168.869 161.025 168.767 160.933 168.641C160.842 168.515 160.782 168.369 160.758 168.215C160.734 168.061 160.747 167.904 160.796 167.756C160.863 167.508 161.024 167.296 161.244 167.165L171.364 161.417C171.589 161.288 171.854 161.251 172.106 161.314C172.231 161.345 172.348 161.403 172.449 161.483C172.55 161.562 172.634 161.663 172.694 161.777C172.821 162.004 172.853 162.272 172.784 162.523C172.715 162.763 172.554 162.966 172.336 163.088L162.19 168.926Z" fill="#8A59D7"/>
<path d="M171.364 168.913C171.472 168.847 171.592 168.802 171.717 168.782C171.842 168.762 171.97 168.768 172.093 168.798C172.344 168.871 172.558 169.037 172.694 169.261C172.819 169.488 172.851 169.756 172.784 170.006C172.711 170.249 172.552 170.455 172.336 170.585L142.756 187.636L142.462 187.752H142.296C142.125 187.75 141.958 187.704 141.81 187.618C141.662 187.532 141.539 187.41 141.451 187.263C141.386 187.154 141.345 187.032 141.329 186.906C141.314 186.78 141.325 186.652 141.362 186.53C141.393 186.406 141.449 186.29 141.526 186.189C141.603 186.087 141.699 186.002 141.809 185.939L171.364 168.913Z" fill="#8A59D7"/>
<path d="M171.376 176.397C171.602 176.271 171.868 176.238 172.118 176.307C172.24 176.341 172.354 176.4 172.454 176.478C172.553 176.557 172.636 176.655 172.698 176.766C172.76 176.877 172.799 176.999 172.814 177.126C172.829 177.253 172.818 177.381 172.783 177.503C172.753 177.626 172.697 177.741 172.62 177.84C172.543 177.94 172.446 178.022 172.335 178.082L154.423 188.369L154.129 188.498H153.937C153.769 188.502 153.602 188.461 153.455 188.377C153.309 188.293 153.188 188.17 153.106 188.022C153.036 187.912 152.991 187.789 152.973 187.66C152.956 187.531 152.966 187.4 153.003 187.276C153.07 187.028 153.231 186.816 153.451 186.684L171.376 176.397Z" fill="#8A59D7"/>
<path d="M149.677 188.909C149.786 188.844 149.907 188.802 150.032 188.787C150.158 188.771 150.285 188.782 150.407 188.819C150.529 188.849 150.644 188.902 150.745 188.977C150.846 189.053 150.931 189.147 150.995 189.256C151.106 189.477 151.13 189.731 151.064 189.969C150.998 190.207 150.845 190.412 150.637 190.542L142.781 195.069L142.487 195.197H142.295C142.079 195.204 141.867 195.138 141.693 195.008C141.519 194.879 141.394 194.694 141.337 194.484C141.281 194.274 141.297 194.051 141.383 193.852C141.468 193.652 141.618 193.487 141.809 193.384L149.677 188.909Z" fill="#8A59D7"/>
<path d="M292.754 81.6149H292.562C292.39 81.6127 292.221 81.5652 292.073 81.4772C291.925 81.3893 291.802 81.2638 291.717 81.1134C291.656 81.0053 291.616 80.886 291.601 80.7624C291.585 80.6387 291.595 80.5133 291.628 80.3933C291.657 80.2686 291.712 80.1516 291.789 80.0496C291.866 79.9477 291.964 79.8633 292.076 79.8018L366.486 36.3388C366.706 36.2097 366.968 36.1728 367.215 36.2359C367.341 36.2694 367.459 36.3275 367.562 36.407C367.665 36.4864 367.752 36.5856 367.816 36.6989C367.935 36.9236 367.967 37.1848 367.906 37.4318C367.876 37.5544 367.82 37.6693 367.743 37.769C367.666 37.8687 367.569 37.951 367.458 38.0105L293.048 81.4734L292.754 81.6149Z" fill="#8A59D7"/>
<path d="M367.266 145.498C367.392 145.529 367.511 145.586 367.615 145.666C367.718 145.746 367.804 145.846 367.867 145.96C367.98 146.182 368.004 146.438 367.935 146.677C367.866 146.916 367.709 147.12 367.496 147.246L343.827 160.89L343.533 161.031H343.341C343.171 161.033 343.004 160.989 342.858 160.903C342.711 160.817 342.591 160.692 342.509 160.542C342.391 160.325 342.361 160.069 342.426 159.83C342.49 159.59 342.644 159.385 342.855 159.257L366.537 145.6C366.757 145.471 367.019 145.434 367.266 145.498Z" fill="#8A59D7"/>
<path d="M338.683 161.288C338.901 161.168 339.157 161.138 339.397 161.205C339.636 161.272 339.839 161.432 339.963 161.648C340.027 161.76 340.069 161.884 340.084 162.012C340.099 162.14 340.089 162.27 340.052 162.394C339.985 162.639 339.824 162.847 339.605 162.973L285.806 193.976L285.511 194.104H285.32C285.171 194.106 285.024 194.072 284.89 194.007C284.757 193.942 284.64 193.846 284.55 193.727C284.459 193.609 284.397 193.471 284.369 193.324C284.34 193.178 284.346 193.027 284.386 192.883C284.417 192.759 284.473 192.643 284.55 192.541C284.627 192.439 284.723 192.354 284.833 192.291L338.683 161.288Z" fill="#8A59D7"/>
<path d="M279.959 194.85C280.07 194.784 280.193 194.742 280.321 194.727C280.449 194.711 280.578 194.723 280.701 194.76C280.819 194.792 280.93 194.847 281.027 194.922C281.123 194.997 281.204 195.09 281.264 195.197C281.398 195.421 281.439 195.689 281.38 195.943C281.302 196.19 281.139 196.4 280.919 196.534L264.491 205.998L264.184 206.14H263.992C263.823 206.139 263.657 206.094 263.511 206.008C263.365 205.922 263.244 205.799 263.161 205.651C263.047 205.431 263.021 205.176 263.087 204.937C263.154 204.699 263.308 204.494 263.519 204.365L279.959 194.85Z" fill="#8A59D7"/>
<path d="M366.537 151.837C366.646 151.772 366.766 151.73 366.892 151.712C367.017 151.695 367.144 151.702 367.266 151.734C367.392 151.768 367.51 151.826 367.613 151.905C367.716 151.985 367.803 152.084 367.868 152.197C367.93 152.307 367.97 152.429 367.985 152.554C368 152.68 367.991 152.808 367.957 152.93C367.923 153.052 367.864 153.167 367.785 153.266C367.706 153.366 367.608 153.448 367.497 153.509L294.916 195.351L294.609 195.48H294.417C294.248 195.479 294.082 195.434 293.936 195.348C293.79 195.262 293.669 195.139 293.585 194.991C293.518 194.883 293.475 194.762 293.457 194.636C293.439 194.509 293.448 194.381 293.483 194.258C293.517 194.134 293.576 194.018 293.655 193.916C293.734 193.815 293.832 193.73 293.944 193.667L366.537 151.837Z" fill="#8A59D7"/>
<path d="M366.537 29.4334C366.756 29.3191 367.009 29.2927 367.247 29.3596C367.485 29.4264 367.688 29.5815 367.816 29.7935C367.933 30.0128 367.961 30.2691 367.894 30.5088C367.827 30.7484 367.671 30.9529 367.458 31.0793L263.826 91.516L263.532 91.6446H263.34C263.17 91.645 263.003 91.6015 262.856 91.5181C262.708 91.4348 262.584 91.3145 262.495 91.1688C262.382 90.9488 262.355 90.6935 262.422 90.4548C262.489 90.216 262.643 90.0116 262.854 89.8829L366.537 29.4334Z" fill="#8A59D7"/>
<path d="M263.441 168.939V170.984L272.116 181.901L299.853 123.432L316.383 156.196L329.177 134.606L346.603 128.717L356.608 102.292L367.47 107.68V106.252L355.942 100.53L345.63 127.688L328.307 133.552L316.473 153.547L299.828 120.526L271.86 179.522L263.441 168.939Z" fill="#8A59D7"/>
<path d="M296.272 120.268C298.076 117.131 301.134 115.498 303.091 116.629C305.049 117.761 305.176 121.233 303.373 124.345C301.799 127.109 298.779 129.257 296.566 127.984C294.596 126.826 294.468 123.355 296.272 120.268Z" fill="#00C7A1"/>
<path d="M314.401 153.702C315.399 151.953 317.1 151.053 318.239 151.683C319.378 152.313 319.403 154.254 318.405 155.978C317.523 157.521 315.847 158.704 314.567 157.996C313.288 157.289 313.403 155.489 314.401 153.702Z" fill="#8A59D7"/>
<path d="M270.094 179.625C271.092 177.889 272.781 176.976 273.933 177.606C275.084 178.236 275.084 180.178 274.086 181.901C273.203 183.444 271.527 184.64 270.248 183.92C268.969 183.2 269.084 181.374 270.094 179.625Z" fill="#8A59D7"/>
<path d="M326.452 132.935C327.655 130.839 329.689 129.758 331.007 130.504C332.325 131.25 332.389 133.577 331.199 135.648C330.137 137.499 328.128 138.927 326.657 138.078C325.186 137.229 325.263 135.031 326.452 132.935Z" fill="#4B84E4"/>
<path d="M344.044 126.492C345.042 124.743 346.744 123.843 347.882 124.473C349.021 125.103 349.047 127.045 348.036 128.768C347.166 130.298 345.477 131.494 344.198 130.787C342.918 130.08 343.046 128.228 344.044 126.492Z" fill="#8A59D7"/>
<path d="M354.459 100.414C355.47 98.6656 357.159 97.7655 358.298 98.3956C359.436 99.0256 359.462 100.967 358.464 102.69C357.581 104.221 355.905 105.417 354.626 104.709C353.346 104.002 353.461 102.163 354.459 100.414Z" fill="#4B84E4"/>
<path d="M174.037 389.957C181.323 393.091 189.142 394.785 197.066 394.946C209.924 395.371 222.13 392.375 229.716 386.845C232.992 384.466 236.804 380.609 236.305 375.774C235.806 370.939 230.74 365.641 222.756 362.041C215.47 358.907 207.651 357.214 199.727 357.051C186.869 356.627 174.676 359.623 167.09 365.152C163.814 367.531 160.002 371.389 160.488 376.224C160.974 381.059 166.092 386.357 174.037 389.957Z" fill="#D5CEF8"/>
<path d="M209.055 226.007C209.055 226.007 172.489 239.509 165.734 232.141C162.702 228.836 169.687 188.909 169.687 188.909L172.489 183.418L182.443 184.447C183.722 184.576 185.245 182.338 185.245 182.338C184.58 187.713 180.844 214.01 179.961 220.182C179.82 221.146 208.108 218.099 208.108 218.099C206.086 219.063 206.905 225.48 209.055 226.007Z" fill="#00C7A1"/>
<path opacity="0.1" d="M209.055 226.007C209.055 226.007 172.489 239.509 165.734 232.141C162.702 228.836 169.687 188.909 169.687 188.909L172.489 183.418L182.443 184.447C183.722 184.576 185.245 182.338 185.245 182.338C184.58 187.713 180.844 214.01 179.961 220.182C179.82 221.146 208.108 218.099 208.108 218.099C206.086 219.063 206.905 225.48 209.055 226.007Z" fill="black"/>
<path opacity="0.1" d="M209.055 226.007C209.055 226.007 172.489 239.509 165.734 232.141C162.702 228.836 169.687 188.909 169.687 188.909L172.489 183.418L182.443 184.447C183.722 184.576 185.245 182.338 185.245 182.338C184.58 187.713 180.844 214.01 179.961 220.182C179.82 221.146 208.108 218.099 208.108 218.099C206.086 219.063 206.905 225.48 209.055 226.007Z" fill="black"/>
<path d="M261.074 206.089L251.811 239.766C251.731 240.068 251.586 240.349 251.387 240.59C251.188 240.83 250.939 241.025 250.658 241.159C250.377 241.294 250.071 241.365 249.759 241.369C249.448 241.373 249.14 241.308 248.856 241.18L230.509 232.861C229.996 232.622 229.586 232.207 229.351 231.69C229.116 231.174 229.073 230.59 229.23 230.045L238.672 196.277C238.752 195.98 238.894 195.704 239.089 195.467C239.284 195.23 239.527 195.037 239.802 194.902C240.077 194.767 240.377 194.692 240.683 194.683C240.989 194.674 241.293 194.731 241.576 194.85L259.782 203.26C260.299 203.496 260.715 203.913 260.952 204.432C261.189 204.952 261.233 205.54 261.074 206.089Z" fill="#8A59D7"/>
<path d="M249.599 239.123C249.726 239.111 249.845 239.06 249.941 238.977C250.037 238.894 250.106 238.784 250.137 238.66L259.093 206.114C259.142 205.921 259.122 205.717 259.038 205.537C258.954 205.356 258.811 205.21 258.632 205.124L241.053 196.998C240.948 196.973 240.838 196.973 240.733 196.998C240.609 197.01 240.492 197.06 240.396 197.14C240.3 197.22 240.231 197.327 240.196 197.448L231.061 230.083C231.003 230.278 231.018 230.488 231.103 230.672C231.188 230.857 231.336 231.004 231.521 231.086L249.254 239.072C249.36 239.126 249.482 239.144 249.599 239.123Z" fill="#282A35"/>
<path d="M193.062 360.215C193.062 360.215 193.062 363.07 189.583 365.642C189.084 366.015 188.418 366.465 187.702 366.928C185.428 368.456 183.288 370.177 181.305 372.071C180.396 373.018 179.169 373.591 177.863 373.678C175.727 373.781 173.82 373.1 174.115 369.821C174.115 369.615 174.115 369.216 174.204 368.831C174.204 368.663 174.204 368.483 174.268 368.316C174.332 368.149 174.447 362.093 174.46 361.964C174.729 363.044 176.213 358.814 177.147 358.775C178.541 358.711 178.349 362.067 179.296 361.18C180.998 359.559 182.814 360.292 187.484 357.901L188.38 357.759C192.001 357.322 192.551 358.531 192.922 359.637C192.982 359.826 193.029 360.019 193.062 360.215Z" fill="#282A35"/>
<path d="M220.377 374.99C220.377 374.99 217.089 374.668 215.989 374.63C213.43 374.527 207.762 372.907 205.996 374.128C203.988 375.517 199.535 376.7 199.471 372.92L196.913 373.755C196.913 374.553 196.631 379.208 196.618 379.503C196.504 380.89 196.831 382.277 197.552 383.464C199.241 386.151 204.487 384.583 207.493 383.978L216.449 382.77C217.791 382.539 219.05 381.96 220.1 381.089C221.151 380.218 221.956 379.086 222.437 377.806C222.51 377.162 222.338 376.514 221.956 375.992C221.574 375.47 221.01 375.112 220.377 374.99Z" fill="#282A35"/>
<path opacity="0.2" d="M193.062 360.215C193.062 360.215 193.062 363.07 189.583 365.642C189.084 366.015 188.418 366.465 187.702 366.928C185.428 368.456 183.288 370.177 181.305 372.071C180.396 373.018 179.169 373.591 177.863 373.678C175.727 373.781 173.82 373.1 174.115 369.821C174.115 369.615 174.115 369.216 174.204 368.831C174.204 368.663 174.204 368.483 174.268 368.316C174.332 368.149 174.447 362.093 174.46 361.964C174.729 363.044 176.213 358.814 177.147 358.775C178.541 358.711 178.349 362.067 179.296 361.18C180.998 359.559 182.814 360.292 187.484 357.901L188.38 357.759C192.001 357.322 192.551 358.531 192.922 359.637C192.982 359.826 193.029 360.019 193.062 360.215Z" fill="black"/>
<path opacity="0.2" d="M220.377 374.99C220.377 374.99 217.089 374.668 215.989 374.63C213.43 374.527 207.762 372.907 205.996 374.128C203.988 375.517 199.535 376.7 199.471 372.92L196.913 373.755C196.913 374.553 196.631 379.208 196.618 379.503C196.504 380.89 196.831 382.277 197.552 383.464C199.241 386.151 204.487 384.583 207.493 383.978L216.449 382.77C217.791 382.539 219.05 381.96 220.1 381.089C221.151 380.218 221.956 379.086 222.437 377.806C222.51 377.162 222.338 376.514 221.956 375.992C221.574 375.47 221.01 375.112 220.377 374.99Z" fill="black"/>
<path d="M172.809 245.565L171.747 249.423C171.491 250.393 171.311 251.382 171.21 252.38C170.762 257.061 170.711 261.772 171.056 266.461L174.127 361.051C173.897 364.433 185.155 364.78 185.117 360.716L190.708 272.633L194.342 313.563L196.619 373.254C196.619 376.739 207.865 377.111 207.967 372.868C207.967 372.868 213.737 312.92 213.737 309.242C213.737 303.533 213.737 287.987 211.677 256.804C210.948 245.732 191.911 248.69 191.911 248.214L202.312 240.049L172.809 245.565Z" fill="#282A35"/>
<path opacity="0.2" d="M190.709 272.685L186.871 270.306C186.647 270.166 186.39 270.091 186.127 270.086C185.864 270.082 185.604 270.149 185.376 270.281C185.148 270.413 184.959 270.604 184.83 270.835C184.702 271.066 184.637 271.327 184.645 271.592L186.154 341.287L190.709 272.685Z" fill="black"/>
<path d="M172.63 229.247C172.711 227.682 172.677 226.114 172.528 224.554L169.38 191.661C169.086 183.431 175.189 179.278 181.304 178.969C181.871 178.931 182.439 178.931 183.006 178.969C184.474 179.061 185.919 179.378 187.292 179.908C187.817 180.101 191.783 177.748 192.307 178.005C192.307 178.005 206.381 185.604 206.905 185.887C213.456 189.745 219.021 194.336 219.303 202.077L212.663 218.6L211.882 254.013C212.023 257.961 172.042 257.64 171.53 248.086L172.63 229.247Z" fill="#00C7A1"/>
<path d="M207.903 170.019C206.074 179.136 200.048 179.998 194.38 177.259C188.072 174.198 184.145 166.74 183.825 161.288C183.249 152.981 188.456 147.568 195.339 147.143C210.871 145.986 208.543 166.869 207.903 170.019Z" fill="#E9BE9A"/>
<path d="M187.663 165.725L188.303 183.83C188.303 184.679 189.135 185.463 190.58 185.939C191.859 186.344 193.206 186.483 194.539 186.346C195.872 186.209 197.164 185.799 198.334 185.141C198.638 184.971 198.893 184.726 199.077 184.429C199.261 184.132 199.366 183.793 199.383 183.444L198.781 165.326L187.663 165.725Z" fill="#E9BE9A"/>
<path opacity="0.1" d="M205.089 184.897C204.372 183.488 203.277 182.307 201.929 181.489C200.15 180.756 186.857 182.711 186.921 180.628C186.921 180.319 188.201 179.676 188.201 179.676L188.137 177.889C187.199 178.276 186.303 178.758 185.463 179.329C185.077 179.674 184.764 180.094 184.543 180.563C184.323 181.032 184.198 181.541 184.178 182.06C184.158 182.579 184.242 183.096 184.425 183.581C184.609 184.067 184.888 184.51 185.245 184.884C190.529 190.105 205.089 184.897 205.089 184.897Z" fill="black"/>
<path d="M193.65 144.7C197.766 143.92 202.024 144.635 205.664 146.719C210.193 149.291 209.886 155.888 207.851 157.701C207.391 158.112 206.252 158.061 205.51 158.987C205.177 163.551 203.246 167.306 199.113 171.743C197.452 173.627 195.269 174.97 192.844 175.6C188.814 176.513 184.208 173.504 182.609 167.885C181.79 164.863 174.612 146.423 193.65 144.7Z" fill="#282A35"/>
<path d="M203.438 168.116C204.947 169.994 205.19 172.295 203.975 173.26C202.759 174.224 200.572 173.517 199.062 171.64C197.552 169.762 197.322 167.461 198.537 166.496C199.753 165.532 201.915 166.252 203.438 168.116Z" fill="#E9BE9A"/>
<path opacity="0.1" d="M212.15 238.789L203.975 209.766L204.103 220.336C204.116 221.629 204.227 222.918 204.436 224.194C205.894 232.989 207.634 239.509 211.997 245.604L212.15 238.789Z" fill="black"/>
<path d="M228.782 230.353C233.759 229.35 239.35 228.052 242.395 227.332L244.672 226.791C248.511 226.701 254.908 216.504 256.328 220.131C256.328 220.131 262.021 221.056 259.053 226.483C258.285 227.91 254.959 229.839 252.426 230.919C250.849 231.621 249.167 232.055 247.449 232.205C247.196 232.226 246.944 232.26 246.694 232.308C241.625 235.516 236.336 238.361 230.868 240.82L228.782 230.353Z" fill="#E9BE9A"/>
<path d="M219.302 202.076C219.302 202.076 222.667 226.611 223.396 229.762C223.511 230.289 243.086 225.724 243.086 225.724C245.837 227.254 247.257 232.591 245.747 235.368C245.747 235.368 219.865 246.002 214.67 243.353C211.996 241.99 203.501 211.399 203.655 206.487L208.913 192.342C211.549 193.872 218.701 198.476 219.302 202.076Z" fill="#00C7A1"/>
<path d="M438.055 271.836C438.72 266.873 434.933 262.835 431.658 260.263C424.058 254.348 411.623 250.825 398.394 250.825C390.271 250.718 382.205 252.185 374.635 255.145C366.306 258.579 360.933 263.671 360.242 268.789C359.551 273.906 363.351 277.79 366.639 280.362C374.238 286.264 386.674 289.787 399.903 289.787C408.03 289.885 416.1 288.414 423.675 285.454C431.991 282.046 437.326 276.941 438.055 271.836Z" fill="#D5CEF8"/>
<path d="M415.729 262.835C416.446 263.619 417.879 264.995 417.009 265.96C414.59 268.531 410.343 267.811 403.37 262.732C402.526 262.115 401.272 262.308 399.903 261.575C398.718 260.994 397.801 259.976 397.344 258.733C397.1 258.142 397.055 257.487 397.216 256.868C397.323 256.28 397.509 255.71 397.766 255.171C397.841 254.996 397.901 254.816 397.945 254.631C398.287 253.201 398.488 251.741 398.547 250.272C398.547 250.272 398.623 209.02 402.385 193.127L399.071 158.987L419.196 155.605L416.561 193.654C416.561 193.654 405.635 248.51 405.443 251.442C405.225 254.862 410.317 258.733 413.452 261.047C414.245 261.598 415.005 262.195 415.729 262.835Z" fill="#E0A37F"/>
<path d="M383.514 160.761L388.491 195.982L388.171 201.717C382.542 219.526 384.448 245.012 384.601 257.408C384.601 262.333 381.889 265.278 381.889 272.299C381.889 275.861 383.45 279.744 387.915 279.667C392.38 279.59 391.753 267.94 390.563 261.112C390.391 260.22 390.391 259.303 390.563 258.411L400.799 208.12L402.756 204.263C403.229 202.978 403.472 201.62 403.473 200.251V159.681L383.514 160.761Z" fill="#E9BE9A"/>
<path d="M391.267 267.155C391.267 267.155 391.625 272.62 386.737 272.62C383.053 272.62 382.17 269.856 382.528 266.589C381.679 269.614 381.622 272.807 382.362 275.861C383.13 278.432 384.921 279.885 388.094 279.783C388.762 279.846 389.429 279.652 389.959 279.239C390.489 278.825 390.842 278.224 390.947 277.558C391.769 274.15 391.878 270.608 391.267 267.155Z" fill="#282A35"/>
<path d="M416.958 265.959C414.54 268.531 410.292 267.811 403.32 262.732C402.475 262.114 401.221 262.307 399.852 261.574C398.667 260.994 397.75 259.976 397.294 258.733C397.05 258.142 397.005 257.487 397.166 256.868C397.273 256.28 397.458 255.709 397.716 255.171C397.797 254.998 397.857 254.817 397.895 254.631C398.471 257.884 409.947 263.825 411.968 263.876C413.99 263.928 414.412 262.372 413.337 261.034C414.155 261.584 414.937 262.185 415.679 262.835C416.446 263.619 417.879 264.995 416.958 265.959Z" fill="#282A35"/>
<path d="M461.135 105.146C461.173 105.25 461.189 105.36 461.183 105.471C461.177 105.581 461.148 105.689 461.099 105.787C461.05 105.886 460.981 105.974 460.897 106.045C460.813 106.116 460.716 106.169 460.61 106.201L452.678 109.223C450.974 109.784 449.24 110.248 447.484 110.611C447.484 110.611 443.134 113.826 437.645 117.35L435.393 110.059C439.551 108.335 443.236 106.767 443.236 106.767C444.558 106.226 445.712 105.338 446.575 104.195L447.369 103.128C447.762 102.601 448.237 102.141 448.776 101.765L452.806 98.9485C453.177 98.5499 454.367 98.0741 454.84 98.9485C454.961 99.2562 454.98 99.5948 454.895 99.9143C454.81 100.234 454.625 100.517 454.367 100.723C453.893 101.147 452.678 102.318 452.397 102.626C453.1 102.395 461.352 99.72 461.877 102.266C461.875 102.732 461.767 103.191 461.561 103.608C461.355 104.025 461.056 104.389 460.687 104.671C460.791 104.712 460.884 104.779 460.957 104.864C461.031 104.949 461.083 105.05 461.109 105.159L461.135 105.146Z" fill="#E9BE9A"/>
<path d="M445.297 112.18C445.297 112.18 422.536 129.27 416.28 125.515C413.478 123.83 409.614 92.0818 409.614 92.0818C409.566 91.8561 409.563 91.6229 409.606 91.3962C409.65 91.1694 409.738 90.9536 409.865 90.7617C409.993 90.5698 410.158 90.4057 410.35 90.279C410.542 90.1523 410.757 90.0657 410.983 90.0244L418.135 88.6871C419.082 88.507 419.658 86.6296 419.658 86.6296C420.31 90.4873 423.138 109.686 423.79 114.186C423.88 114.881 442.981 106.857 442.981 106.857C441.779 107.963 443.723 112.27 445.297 112.18Z" fill="#00C7A1"/>
<path opacity="0.1" d="M445.297 112.18C445.297 112.18 422.536 129.27 416.28 125.515C413.478 123.83 409.614 92.0818 409.614 92.0818C409.566 91.8561 409.563 91.6229 409.606 91.3962C409.65 91.1694 409.738 90.9536 409.865 90.7617C409.993 90.5698 410.158 90.4057 410.35 90.279C410.542 90.1523 410.757 90.0657 410.983 90.0244L418.135 88.6871C419.082 88.507 419.658 86.6296 419.658 86.6296C420.31 90.4873 423.138 109.686 423.79 114.186C423.88 114.881 442.981 106.857 442.981 106.857C441.779 107.963 443.723 112.27 445.297 112.18Z" fill="black"/>
<path d="M420.771 140.573L418.698 191.905C416.945 200.906 386.713 200.984 385.305 195.416L383.757 165.75C379.83 152.428 380.52 145.626 384.128 137.384C384.397 136.754 384.691 136.098 384.998 135.468C384.998 135.468 385.28 134.979 385.676 134.246C386.906 132.051 387.636 129.609 387.813 127.097C387.832 126.767 387.832 126.436 387.813 126.106C387.813 125.939 387.813 125.759 387.813 125.579C387.789 124.125 387.574 122.681 387.173 121.284C387.031 120.73 386.856 120.184 386.649 119.651L384.435 113.993L380.009 98.807C380.009 91.6832 383.604 88.6099 389.553 84.958L391.485 83.8007L400.697 78.4514C401.157 78.22 404.624 80.1488 405.072 79.9559C406.131 79.5032 407.246 79.1961 408.386 79.043C414.169 78.2971 419.901 81.7176 419.901 89.6001L419.542 92.6348C419.286 94.6256 419.465 96.6486 420.067 98.5627C420.273 99.1918 420.427 99.837 420.527 100.492C420.822 102.376 420.689 104.302 420.14 106.128C419.591 107.954 418.638 109.631 417.355 111.036L416.152 121.323C416.101 121.991 416.101 122.661 416.152 123.329C416.152 123.727 416.152 124.113 416.267 124.512C416.34 125 416.451 125.482 416.6 125.952C416.813 126.707 417.109 127.436 417.482 128.125C419.571 131.943 420.7 136.216 420.771 140.573Z" fill="#00C7A1"/>
<path d="M416.637 125.952C412.466 127.984 405.915 128.794 400.529 128.833H400.145C395.966 128.949 391.798 128.363 387.812 127.097C387.831 126.767 387.831 126.436 387.812 126.106C387.812 125.939 387.812 125.759 387.812 125.579C391.879 126.995 396.179 127.611 400.478 127.392C407.067 127.392 412.901 126.235 416.266 124.512C416.351 125.001 416.475 125.483 416.637 125.952Z" fill="#282A35"/>
<path opacity="0.1" d="M416.012 138.271L413.85 143.247C413.007 142.381 411.868 141.871 410.664 141.82C403.144 141.472 395.672 140.439 388.338 138.734C387.819 138.597 387.338 138.342 386.932 137.989C386.526 137.636 386.207 137.194 385.998 136.697C385.789 136.2 385.696 135.661 385.727 135.123C385.758 134.584 385.912 134.06 386.176 133.59C387.532 131.237 389.144 128.704 389.694 128.884L415.577 137.448L416.012 138.271Z" fill="black"/>
<path d="M394.158 59.2017C392.825 59.7405 391.384 59.9493 389.954 59.8105C388.525 59.6718 387.149 59.1895 385.944 58.4044C384.723 57.6022 383.787 56.4317 383.27 55.0611C381.748 51.0749 384.166 46.4328 388.656 44.7097C390.436 43.9461 392.422 43.818 394.284 44.3467C396.147 44.8755 397.773 46.0292 398.892 47.6158C399.139 47.9954 399.345 48.4006 399.506 48.8246C401.067 52.8365 398.649 57.4786 394.158 59.2017Z" fill="#282A35"/>
<path d="M395.259 130.208C395.259 128.382 395.438 120.346 395.374 117.774C395.22 110.303 391.177 103.166 391.971 97.6112L387.186 127.547C388.043 128.987 391.267 129.9 395.259 130.208Z" fill="#00C7A1"/>
<path d="M205.089 184.897C204.372 183.488 203.277 182.307 201.929 181.489C200.15 180.756 186.857 182.711 186.921 180.628C186.921 180.319 188.201 179.676 188.201 179.676L188.137 177.889C187.199 178.276 186.303 178.758 185.463 179.329C185.077 179.674 184.764 180.094 184.543 180.563C184.323 181.032 184.198 181.541 184.178 182.06C184.158 182.579 184.242 183.096 184.425 183.581C184.609 184.067 184.888 184.51 185.245 184.884C190.529 190.105 205.089 184.897 205.089 184.897Z" fill="#00C7A1"/>
<path d="M212.15 238.789L203.975 209.766L204.103 220.336C204.116 221.629 204.227 222.918 204.436 224.194C205.894 232.989 207.634 239.509 211.997 245.604L212.15 238.789Z" fill="#00C7A1"/>
<path d="M395.259 130.208C395.259 128.382 395.438 120.346 395.374 117.774C395.22 110.303 391.177 103.166 391.971 97.6112L387.186 127.547C388.043 128.987 391.267 129.9 395.259 130.208Z" fill="#00C7A1"/>
<path opacity="0.1" d="M205.089 184.897C204.372 183.488 203.277 182.307 201.929 181.489C200.15 180.756 186.857 182.711 186.921 180.628C186.921 180.319 188.201 179.676 188.201 179.676L188.137 177.889C187.199 178.276 186.303 178.758 185.463 179.329C185.077 179.674 184.764 180.094 184.543 180.563C184.323 181.032 184.198 181.541 184.178 182.06C184.158 182.579 184.242 183.096 184.425 183.581C184.609 184.067 184.888 184.51 185.245 184.884C190.529 190.105 205.089 184.897 205.089 184.897Z" fill="black"/>
<path opacity="0.1" d="M212.15 238.789L203.975 209.766L204.103 220.336C204.116 221.629 204.227 222.918 204.436 224.194C205.894 232.989 207.634 239.509 211.997 245.604L212.15 238.789Z" fill="black"/>
<path opacity="0.1" d="M395.259 130.208C395.259 128.382 395.438 120.346 395.374 117.774C395.22 110.303 391.177 103.166 391.971 97.6112L387.186 127.547C388.043 128.987 391.267 129.9 395.259 130.208Z" fill="black"/>
<path d="M387.186 121.053L387.301 121.927L387.429 121.554C387.318 121.404 387.235 121.234 387.186 121.053Z" fill="#343C6B"/>
<path d="M407.605 83.4149C407.742 83.7098 407.84 84.0209 407.899 84.3407C408.081 85.4862 407.937 86.6597 407.485 87.727C407.034 88.7943 406.292 89.712 405.345 90.3751C404.398 91.0381 403.285 91.4196 402.132 91.4758C400.98 91.5321 399.835 91.2608 398.828 90.693C396.8 89.647 394.909 88.3512 393.199 86.8354C392.896 86.5316 392.668 86.1609 392.532 85.7529C392.397 85.3449 392.358 84.9108 392.419 84.485C392.48 84.0593 392.639 83.6537 392.883 83.3005C393.127 82.9473 393.45 82.6563 393.826 82.4505L400.517 78.5928L402.782 78.2714C405.584 79.12 406.62 81.3446 407.605 83.4149Z" fill="#E9BE9A"/>
<path d="M405.111 66.8141V83.4277C405.111 84.2121 404.408 84.9579 403.09 85.4337C401.933 85.85 400.703 86.0225 399.477 85.9407C398.252 85.8588 397.055 85.5243 395.964 84.9579C395.679 84.8112 395.436 84.5935 395.259 84.3255C395.082 84.0576 394.977 83.7484 394.953 83.4277V66.8141H405.111Z" fill="#E9BE9A"/>
<path d="M405.111 67.5471V79.0429C405.113 79.5024 405.002 79.9552 404.787 80.3607C404.573 80.7663 404.261 81.112 403.881 81.3669C403.5 81.6217 403.063 81.7778 402.608 81.821C402.153 81.8643 401.694 81.7934 401.273 81.6147C399.2 80.5924 397.371 79.1317 395.912 77.3327C395.31 76.6116 394.975 75.7026 394.966 74.7609V67.5471H405.111Z" fill="#E0A37F"/>
<path d="M411.815 72.3822C409.845 80.6762 404.292 81.2677 399.187 78.5673C393.507 75.5583 390.232 68.6017 390.027 63.5996C389.771 55.9743 394.709 51.1779 401.004 50.9593C415.333 50.4707 412.493 69.5147 411.815 72.3822Z" fill="#E9BE9A"/>
<path d="M389.566 49.8405C393.762 46.3172 400.709 46.6258 406.083 47.6031C408.225 48.0047 410.138 49.2005 411.444 50.9535C412.75 52.7065 413.352 54.8886 413.132 57.0672C412.94 59.0089 412.697 61.0534 412.378 62.8408C412.173 61.0942 411.8 59.3716 411.264 57.6973C410.475 58.2552 409.561 58.6085 408.603 58.726C404.01 59.5104 397.012 55.9356 396.372 62.5836C396.318 63.3591 396.085 64.1112 395.692 64.7807C395.299 65.4502 394.757 66.0187 394.108 66.4413L393.903 66.5827C393.11 65.554 390.308 64.3196 390.065 65.0397C389.451 66.9428 394.555 74.8767 394.555 74.8767C384.461 74.7481 384.013 54.5211 389.566 49.8405Z" fill="#282A35"/>
<path d="M393.826 66.4799C395.105 68.2416 395.285 70.3376 394.146 71.2249C393.007 72.1121 391.024 71.3534 389.706 69.5918C388.389 67.8301 388.248 65.7341 389.386 64.834C390.525 63.9339 392.547 64.7183 393.826 66.4799Z" fill="#E9BE9A"/>
<path d="M417.059 152.609L416.432 150.988C416.313 151.119 416.157 151.209 415.984 151.246C415.869 151.272 415.75 151.275 415.634 151.254C415.517 151.233 415.406 151.189 415.307 151.124C415.208 151.059 415.123 150.975 415.057 150.877C414.991 150.778 414.945 150.668 414.922 150.551L413.336 142.99C412.949 142.419 412.45 141.934 411.869 141.565C411.288 141.195 410.638 140.95 409.958 140.843L408.474 140.586C406.696 140.277 404.367 138.785 401.821 138.22L404.828 134.285C406.875 135.211 409.408 134.285 411.302 135.172L415.345 136.985C418.671 138.477 420.769 140.56 422.548 145.292C423.034 146.578 424.07 150.256 424.07 150.256C424.927 153.213 418.3 155.348 417.059 152.609Z" fill="#E9BE9A"/>
<path d="M411.903 135.378L390.448 125.708C389.999 125.506 389.625 125.168 389.377 124.741C389.129 124.315 389.02 123.821 389.066 123.329C389.309 120.886 392.597 93.4707 392.597 93.4707L380.046 98.8071C380.046 98.8071 377.487 127.161 379.675 130.106C385.215 137.397 409.101 140.663 409.101 140.663C407.694 140.084 409.575 134.619 411.903 135.378Z" fill="#00C7A1"/>
<path d="M489.244 357.412C489.03 357.435 488.816 357.376 488.642 357.248C488.469 357.119 488.351 356.93 488.31 356.717C488.114 355.377 488.273 354.009 488.769 352.75C489.266 351.49 490.084 350.385 491.141 349.544C492.198 348.704 493.456 348.158 494.79 347.961C496.123 347.764 497.485 347.924 498.738 348.423C499.716 348.827 500.784 348.965 501.833 348.821C502.881 348.678 503.874 348.259 504.71 347.607C505.545 346.954 506.195 346.092 506.593 345.106C506.991 344.121 507.124 343.047 506.977 341.994C506.946 341.777 507.003 341.557 507.133 341.383C507.264 341.208 507.459 341.092 507.674 341.062C507.89 341.031 508.108 341.088 508.282 341.219C508.456 341.35 508.571 341.546 508.602 341.762C508.786 343.103 508.616 344.47 508.108 345.724C507.601 346.978 506.774 348.075 505.711 348.907C504.648 349.738 503.386 350.274 502.052 350.46C500.718 350.646 499.359 350.476 498.111 349.966C497.124 349.565 496.049 349.433 494.995 349.583C493.941 349.734 492.945 350.161 492.109 350.823C491.272 351.485 490.625 352.357 490.232 353.352C489.839 354.346 489.714 355.428 489.871 356.486C489.902 356.691 489.855 356.901 489.739 357.072C489.622 357.244 489.446 357.365 489.244 357.412Z" fill="#D5CEF8"/>
<path d="M34.1601 184.28C33.2432 183.737 32.1985 183.451 31.1344 183.451C30.0702 183.451 29.0255 183.737 28.1085 184.28C27.9168 184.386 27.6912 184.41 27.4813 184.349C27.2713 184.287 27.0943 184.145 26.9891 183.952C26.8839 183.759 26.8592 183.532 26.9203 183.321C26.9815 183.11 27.1236 182.933 27.3153 182.827C28.4902 182.145 29.8239 181.788 31.1806 181.793C32.5372 181.797 33.8685 182.163 35.0387 182.853C36.2089 183.543 37.1762 184.533 37.8422 185.721C38.5082 186.909 38.849 188.253 38.83 189.616C38.8204 190.686 39.0924 191.74 39.6185 192.67C40.1446 193.6 40.9061 194.374 41.8257 194.914C42.7454 195.453 43.7905 195.738 44.8551 195.74C45.9198 195.743 46.9661 195.462 47.8881 194.927C47.9814 194.873 48.0843 194.838 48.191 194.824C48.2977 194.81 48.4062 194.817 48.5101 194.845C48.6141 194.873 48.7115 194.922 48.7969 194.987C48.8822 195.053 48.9538 195.135 49.0076 195.229C49.0614 195.323 49.0963 195.426 49.1102 195.534C49.1242 195.641 49.117 195.75 49.0891 195.854C49.0612 195.959 49.0131 196.057 48.9475 196.143C48.8819 196.228 48.8002 196.3 48.707 196.354C47.5434 197.042 46.2186 197.406 44.8687 197.409C43.5187 197.395 42.1957 197.027 41.0305 196.342C39.8499 195.666 38.8711 194.684 38.1961 193.499C37.521 192.314 37.1744 190.969 37.1923 189.603C37.2096 188.524 36.9371 187.46 36.4035 186.523C35.8699 185.586 35.095 184.811 34.1601 184.28Z" fill="#D5CEF8"/>
<path d="M478.957 52.1937C480.124 52.8766 481.089 53.8597 481.752 55.0417C482.415 56.2237 482.754 57.562 482.732 58.9189C482.726 59.9874 483 61.0385 483.527 61.9665C484.054 62.8945 484.815 63.6665 485.734 64.2049C486.652 64.7433 487.695 65.029 488.758 65.0334C489.822 65.0377 490.867 64.7605 491.79 64.2296C491.88 64.1732 491.982 64.1361 492.087 64.1206C492.193 64.1051 492.301 64.1116 492.404 64.1396C492.51 64.1661 492.611 64.2139 492.699 64.2802C492.787 64.3464 492.86 64.4298 492.916 64.5254C493.019 64.7174 493.045 64.9423 492.988 65.153C492.931 65.3638 492.795 65.5443 492.609 65.6569C491.445 66.343 490.12 66.7047 488.77 66.7047C487.421 66.7047 486.096 66.343 484.932 65.6569C483.749 64.9843 482.768 64.0035 482.092 62.8177C481.417 61.632 481.072 60.2851 481.094 58.9189C481.098 57.8616 480.827 56.8217 480.308 55.9021C479.789 54.9825 479.04 54.2151 478.135 53.6759C477.23 53.1368 476.201 52.8445 475.149 52.8281C474.097 52.8117 473.059 53.0718 472.138 53.5825C472.044 53.6364 471.94 53.671 471.832 53.6842C471.725 53.6975 471.616 53.6891 471.511 53.6596C471.406 53.6323 471.308 53.584 471.223 53.5177C471.137 53.4515 471.065 53.3685 471.012 53.2739C470.906 53.0809 470.881 52.8539 470.94 52.6419C471 52.43 471.141 52.2505 471.332 52.1423C472.497 51.4824 473.814 51.1401 475.151 51.1491C476.489 51.1581 477.801 51.5182 478.957 52.1937Z" fill="#D5CEF8"/>
<path d="M362.801 403.562C364.237 403.562 365.628 404.063 366.737 404.978C367.847 405.894 368.606 407.168 368.886 408.583C369.166 409.998 368.949 411.467 368.272 412.739C367.595 414.012 366.5 415.009 365.173 415.561C363.847 416.112 362.371 416.185 360.997 415.766C359.624 415.347 358.437 414.462 357.64 413.262C356.842 412.062 356.484 410.622 356.625 409.186C356.766 407.75 357.398 406.408 358.413 405.388C358.988 404.807 359.672 404.347 360.425 404.033C361.178 403.72 361.986 403.559 362.801 403.562ZM359.577 413.052C360.31 413.813 361.282 414.296 362.329 414.417C363.376 414.539 364.433 414.292 365.319 413.718C366.205 413.144 366.865 412.279 367.188 411.271C367.51 410.262 367.475 409.172 367.088 408.187C366.7 407.202 365.985 406.382 365.063 405.868C364.142 405.354 363.071 405.176 362.035 405.366C360.998 405.557 360.058 406.102 359.377 406.91C358.696 407.718 358.314 408.739 358.298 409.798C358.286 410.399 358.393 410.995 358.613 411.554C358.833 412.112 359.16 412.621 359.577 413.052Z" fill="#D5CEF8"/>
<path d="M502.882 186.042C503.752 186.915 504.345 188.029 504.585 189.241C504.826 190.454 504.703 191.711 504.232 192.853C503.762 193.995 502.965 194.971 501.942 195.658C500.92 196.345 499.717 196.712 498.487 196.712C497.257 196.712 496.055 196.345 495.032 195.658C494.009 194.971 493.212 193.995 492.742 192.853C492.272 191.711 492.149 190.454 492.389 189.241C492.63 188.029 493.222 186.915 494.092 186.042C494.669 185.46 495.354 184.999 496.108 184.684C496.862 184.37 497.671 184.208 498.487 184.208C499.304 184.208 500.112 184.37 500.866 184.684C501.621 184.999 502.305 185.46 502.882 186.042ZM495.205 193.757C495.943 194.528 496.923 195.019 497.98 195.144C499.037 195.27 500.105 195.022 501 194.445C501.896 193.867 502.564 192.994 502.89 191.976C503.217 190.958 503.182 189.858 502.79 188.863C502.399 187.868 501.676 187.041 500.746 186.522C499.815 186.004 498.734 185.826 497.687 186.02C496.64 186.214 495.693 186.767 495.007 187.584C494.321 188.402 493.939 189.434 493.926 190.504C493.933 191.705 494.411 192.856 495.257 193.705L495.205 193.757Z" fill="#D5CEF8"/>
<path d="M93.5497 90.0373C93.5501 88.5945 94.0481 87.1964 94.9591 86.0812C95.87 84.9661 97.1375 84.2029 98.5455 83.9217C99.9536 83.6405 101.415 83.8587 102.681 84.5391C103.947 85.2195 104.939 86.32 105.488 87.6531C106.037 88.9863 106.109 90.4695 105.692 91.8501C105.275 93.2308 104.395 94.4234 103.201 95.2248C102.008 96.0262 100.574 96.3868 99.1457 96.2451C97.717 96.1034 96.3815 95.4683 95.3665 94.4479C94.7898 93.8691 94.3324 93.1815 94.0207 92.4246C93.7089 91.6678 93.5489 90.8565 93.5497 90.0373ZM99.7677 94.6279C100.832 94.6178 101.861 94.2362 102.676 93.5484C103.492 92.8606 104.045 91.9093 104.24 90.8572C104.435 89.8051 104.26 88.7176 103.745 87.7807C103.231 86.8438 102.408 86.1157 101.418 85.721C100.429 85.3262 99.3333 85.2894 98.3196 85.6167C97.3058 85.944 96.4366 86.6152 95.8608 87.5154C95.285 88.4156 95.0382 89.4889 95.1628 90.5517C95.2873 91.6146 95.7754 92.6009 96.5436 93.342C96.9697 93.7599 97.4741 94.0888 98.0275 94.3095C98.5809 94.5302 99.1724 94.6384 99.7677 94.6279Z" fill="#D5CEF8"/>
</svg>
