<svg width="445" height="200" viewBox="0 0 445 200" fill="none" xmlns="http://www.w3.org/2000/svg">
<g clip-path="url(#clip0_861_5313)">
<path opacity="0.3" d="M326 177.7C326 181.7 281.227 185 226 185C170.773 185 126 181.73 126 177.7C126 173.67 170.773 170.39 226 170.39C281.227 170.39 326 173.66 326 177.7Z" fill="#002C77"/>
<path d="M365.229 134.47C358.409 134.47 350.349 122 343.229 110.99C338.569 103.78 334.039 96.7701 329.229 91.7101H345.229V84.0001H325.599C329.099 80.0001 332.409 74.8901 335.809 69.6301C341.159 61.3701 347.809 51.0801 352.889 51.0801H367.889V43.3601H352.889C343.609 43.3601 336.679 54.0801 329.339 65.4401C323.999 73.7001 317.339 84.0001 312.259 84.0001H141.449C136.369 84.0001 129.719 73.7101 124.369 65.4501C116.999 54.0801 110.099 43.3601 100.819 43.3601H85.8193V51.0701H100.819C105.899 51.0701 112.549 61.3601 117.899 69.6201C121.299 74.8801 124.609 80.0001 128.109 84.0001H58.7793V91.7201H136.549C131.729 96.7801 127.199 103.79 122.549 111C115.439 122 107.379 134.48 100.549 134.48H72.1693V142.19H100.529C111.529 142.19 120.029 129.08 129.009 115.19C136.119 104.19 144.189 91.7201 151.009 91.7201H314.759C321.579 91.7201 329.639 104.19 336.759 115.19C345.759 129.08 354.209 142.19 365.229 142.19H393.599V134.48L365.229 134.47Z" fill="#002C77"/>
<g opacity="0.4">
<path opacity="0.4" d="M322.049 89.8601L321.639 90.4601C327.329 94.3801 332.699 102.28 338.639 111.46L339.249 111.07C333.259 101.82 327.849 93.8601 322.049 89.8601Z" fill="white"/>
<path opacity="0.4" d="M346.749 122.41L346.159 122.82C348.694 126.632 351.612 130.174 354.869 133.39L355.369 132.86C352.144 129.682 349.256 126.18 346.749 122.41Z" fill="white"/>
<path opacity="0.4" d="M340.479 114.29C341.729 116.22 342.979 118.14 344.229 120L344.829 119.6C343.579 117.74 342.329 115.82 341.089 113.9L340.479 114.29Z" fill="white"/>
<path opacity="0.4" d="M357.999 135L357.579 135.59C359.768 137.355 362.469 138.365 365.279 138.47H384.419V137.74H365.229C362.588 137.624 360.054 136.663 357.999 135Z" fill="white"/>
<path opacity="0.4" d="M393.599 137.75H387.809V138.47H393.599V137.75Z" fill="white"/>
<path opacity="0.4" d="M64.5693 87.28H58.7793V88H64.5693V87.28Z" fill="white"/>
<path opacity="0.4" d="M92.5999 87.28H70.1699V88H92.5999V87.28Z" fill="white"/>
<path opacity="0.4" d="M98.2188 87.2803V88.0003H143.089V87.2803H141.449C139.578 87.2205 137.767 86.6043 136.249 85.5103L135.849 86.1103C136.529 86.5644 137.248 86.956 137.999 87.2803H98.2188Z" fill="white"/>
<path opacity="0.4" d="M283.289 87.28H260.859V88H283.289V87.28Z" fill="white"/>
<path opacity="0.4" d="M333.769 88.0003V87.2803H315.699C316.453 86.9565 317.176 86.5649 317.859 86.1103L317.459 85.5103C315.94 86.6043 314.13 87.2205 312.259 87.2803H288.909V88.0003H314.759C316.135 88.0126 317.495 88.2982 318.759 88.8402L319.029 88.1803C318.869 88.1103 318.709 88.0603 318.549 88.0003H333.769Z" fill="white"/>
<path opacity="0.4" d="M255.259 87.28H244.039V88H255.259V87.28Z" fill="white"/>
<path opacity="0.4" d="M238.429 87.28H193.559V88H238.429V87.28Z" fill="white"/>
<path opacity="0.4" d="M345.169 87.28H339.379V88H345.169V87.28Z" fill="white"/>
<path opacity="0.4" d="M331.259 70.0001L330.659 69.6101C327.659 74.2201 324.149 79.4301 320.659 82.8901L321.169 83.4101C324.709 79.9101 328.239 74.6601 331.259 70.0001Z" fill="white"/>
<path opacity="0.4" d="M352.889 47.3601H357.889V46.6401H352.889C345.529 46.6401 338.839 56.9801 332.889 66.1001L333.499 66.4901C339.339 57.5301 345.919 47.3601 352.889 47.3601Z" fill="white"/>
<path opacity="0.4" d="M367.859 46.6401H362.069V47.3601H367.859V46.6401Z" fill="white"/>
<path opacity="0.4" d="M133.079 82.9001C129.559 79.4401 126.079 74.2301 123.079 69.6201L122.479 70.0101C125.479 74.6601 129.029 79.9101 132.599 83.4201L133.079 82.9001Z" fill="white"/>
<path opacity="0.4" d="M120.169 66.4901L120.779 66.1001C114.869 56.9801 108.179 46.6401 100.779 46.6401H95.7793V47.3601H100.779C107.789 47.3601 114.369 57.5301 120.169 66.4901Z" fill="white"/>
<path opacity="0.4" d="M91.6396 46.6401H85.8496V47.3601H91.6396V46.6401Z" fill="white"/>
<path opacity="0.4" d="M165.519 87.28H163.809V88H165.519H169.599H187.949V87.28H169.599H165.519Z" fill="white"/>
<path opacity="0.4" d="M126.52 111.05L127.13 111.44C133.06 102.28 138.44 94.3801 144.13 90.4401L143.72 89.8401C137.92 93.8601 132.5 101.82 126.52 111.05Z" fill="white"/>
<path opacity="0.4" d="M150.999 87.28H148.679V87.56C148.015 87.7088 147.366 87.9162 146.739 88.18L147.019 88.84C148.283 88.2959 149.643 88.0103 151.019 88H160.409V87.28H150.999Z" fill="white"/>
<path opacity="0.4" d="M100.529 137.75H81.3994V138.48H100.529C103.343 138.376 106.047 137.366 108.239 135.6L107.819 135.01C105.747 136.684 103.191 137.645 100.529 137.75Z" fill="white"/>
<path opacity="0.4" d="M120.939 119.6L121.539 120C122.789 118.14 124.039 116.22 125.289 114.29L124.679 113.9C123.429 115.82 122.189 117.74 120.939 119.6Z" fill="white"/>
<path opacity="0.4" d="M110.399 132.86L110.889 133.39C114.153 130.177 117.075 126.635 119.609 122.82L119.019 122.41C116.51 126.178 113.621 129.68 110.399 132.86Z" fill="white"/>
<path opacity="0.4" d="M77.9599 137.75H72.1699V138.47H77.9599V137.75Z" fill="white"/>
</g>
<path d="M100.87 119.69H93.7898C92.9715 119.695 92.167 119.901 91.4469 120.29C90.7268 120.679 90.1132 121.239 89.6598 121.92L88.6598 123.48C88.2388 124.099 87.672 124.605 87.0094 124.954C86.3468 125.303 85.6086 125.483 84.8598 125.48H66.5898C65.7942 125.48 65.0311 125.796 64.4685 126.359C63.9059 126.921 63.5898 127.684 63.5898 128.48V157H104.71V125.52L104.35 122.78C104.239 121.932 103.826 121.153 103.187 120.585C102.547 120.017 101.725 119.7 100.87 119.69Z" fill="#5C27CA"/>
<path opacity="0.2" d="M100.87 119.69H93.7898C92.9715 119.695 92.167 119.901 91.4469 120.29C90.7268 120.679 90.1132 121.239 89.6598 121.92L88.6598 123.48C88.2388 124.099 87.672 124.605 87.0094 124.954C86.3468 125.303 85.6086 125.483 84.8598 125.48H66.5898C65.7942 125.48 65.0311 125.796 64.4685 126.359C63.9059 126.921 63.5898 127.684 63.5898 128.48V157H104.71V125.52L104.35 122.78C104.239 121.932 103.826 121.153 103.187 120.585C102.547 120.017 101.725 119.7 100.87 119.69Z" fill="white"/>
<path d="M101.67 129.11H66.7197V153.01H101.67V129.11Z" fill="#002C77"/>
<path opacity="0.9" d="M101.67 129.11H66.7197V153.01H101.67V129.11Z" fill="white"/>
<path d="M104.75 157H63.6296L57.6296 135C57.5237 134.612 57.5085 134.205 57.5853 133.81C57.6621 133.415 57.8288 133.043 58.0725 132.723C58.3162 132.403 58.6303 132.143 58.9905 131.964C59.3507 131.785 59.7473 131.691 60.1496 131.69H93.8496C94.9984 131.689 96.1155 132.067 97.0283 132.765C97.941 133.462 98.5987 134.441 98.8996 135.55L104.75 157Z" fill="#5C27CA"/>
<path opacity="0.6" d="M104.75 157H63.6296L57.6296 135C57.5237 134.612 57.5085 134.205 57.5853 133.81C57.6621 133.415 57.8288 133.043 58.0725 132.723C58.3162 132.403 58.6303 132.143 58.9905 131.964C59.3507 131.785 59.7473 131.691 60.1496 131.69H93.8496C94.9984 131.689 96.1155 132.067 97.0283 132.765C97.941 133.462 98.5987 134.441 98.8996 135.55L104.75 157Z" fill="white"/>
<path d="M55.4295 15H63.0495C63.9347 15.0007 64.8059 15.2201 65.5858 15.6388C66.3657 16.0575 67.0299 16.6626 67.5195 17.4L68.6295 19.08C69.0761 19.7564 69.6835 20.3114 70.3973 20.6953C71.1111 21.0793 71.909 21.2802 72.7195 21.28H92.3995C93.2482 21.28 94.0621 21.6172 94.6622 22.2173C95.2624 22.8174 95.5995 23.6313 95.5995 24.48V52.59C95.5995 53.2805 95.3259 53.9429 94.8386 54.432C94.3513 54.9212 93.69 55.1974 92.9995 55.2H53.8395C53.1473 55.2 52.4834 54.925 51.9939 54.4356C51.5045 53.9461 51.2295 53.2822 51.2295 52.59V21.28L51.6195 18.28C51.7541 17.3666 52.2134 16.5322 52.9131 15.9299C53.6128 15.3275 54.5062 14.9974 55.4295 15Z" fill="#5C27CA"/>
<path opacity="0.6" d="M55.4295 15H63.0495C63.9347 15.0007 64.8059 15.2201 65.5858 15.6388C66.3657 16.0575 67.0299 16.6626 67.5195 17.4L68.6295 19.08C69.0761 19.7564 69.6835 20.3114 70.3973 20.6953C71.1111 21.0793 71.909 21.2802 72.7195 21.28H92.3995C93.2482 21.28 94.0621 21.6172 94.6622 22.2173C95.2624 22.8174 95.5995 23.6313 95.5995 24.48V52.59C95.5995 53.2805 95.3259 53.9429 94.8386 54.432C94.3513 54.9212 93.69 55.1974 92.9995 55.2H53.8395C53.1473 55.2 52.4834 54.925 51.9939 54.4356C51.5045 53.9461 51.2295 53.2822 51.2295 52.59V21.28L51.6195 18.28C51.7541 17.3666 52.2134 16.5322 52.9131 15.9299C53.6128 15.3275 54.5062 14.9974 55.4295 15Z" fill="white"/>
<path d="M87.6197 21.28H83.6797V48.6H87.6197V21.28Z" fill="#002C77"/>
<path opacity="0.5" d="M87.6197 21.28H83.6797V48.6H87.6197V21.28Z" fill="white"/>
<path d="M85.7602 22.5801H82.7402V24.8301H85.7602V22.5801Z" fill="#002C77"/>
<path d="M85.7602 27.48H82.7402V29.73H85.7602V27.48Z" fill="#002C77"/>
<path d="M85.7602 32.3801H82.7402V34.6301H85.7602V32.3801Z" fill="#002C77"/>
<path d="M85.7602 37.28H82.7402V39.53H85.7602V37.28Z" fill="#002C77"/>
<path d="M85.7602 42.1699H82.7402V44.4199H85.7602V42.1699Z" fill="#002C77"/>
<path opacity="0.7" d="M85.7602 22.5801H82.7402V24.8301H85.7602V22.5801Z" fill="white"/>
<path opacity="0.7" d="M85.7602 27.48H82.7402V29.73H85.7602V27.48Z" fill="white"/>
<path opacity="0.7" d="M85.7602 32.3801H82.7402V34.6301H85.7602V32.3801Z" fill="white"/>
<path opacity="0.7" d="M85.7602 37.28H82.7402V39.53H85.7602V37.28Z" fill="white"/>
<path opacity="0.7" d="M85.7602 42.1699H82.7402V44.4199H85.7602V42.1699Z" fill="white"/>
<path d="M88.6899 24.8301H85.6699V27.0801H88.6899V24.8301Z" fill="#002C77"/>
<path d="M88.6899 29.73H85.6699V31.98H88.6899V29.73Z" fill="#002C77"/>
<path d="M88.6899 34.6301H85.6699V36.8801H88.6899V34.6301Z" fill="#002C77"/>
<path d="M88.6899 39.52H85.6699V41.77H88.6899V39.52Z" fill="#002C77"/>
<path d="M88.6899 44.4199H85.6699V46.6699H88.6899V44.4199Z" fill="#002C77"/>
<g opacity="0.8">
<path opacity="0.8" d="M88.6899 24.8301H85.6699V27.0801H88.6899V24.8301Z" fill="white"/>
<path opacity="0.8" d="M88.6899 29.73H85.6699V31.98H88.6899V29.73Z" fill="white"/>
<path opacity="0.8" d="M88.6899 34.6301H85.6699V36.8801H88.6899V34.6301Z" fill="white"/>
<path opacity="0.8" d="M88.6899 39.52H85.6699V41.77H88.6899V39.52Z" fill="white"/>
<path opacity="0.8" d="M88.6899 44.4202H85.6699V46.6702H88.6899V44.4202Z" fill="white"/>
</g>
<path d="M81.4297 46.6699V55.6699H90.0997V46.6699H81.4297ZM88.7097 53.9999H82.9997V48.2999H88.7497L88.7097 53.9999Z" fill="#002C77"/>
<path opacity="0.7" d="M81.4297 46.6699V55.6699H90.0997V46.6699H81.4297ZM88.7097 53.9999H82.9997V48.2999H88.7497L88.7097 53.9999Z" fill="white"/>
<path d="M83.8699 66.6599H43.6699V75.6199L52.6199 84.5699H92.8099V75.6099L83.8699 66.6599Z" fill="#5C27CA"/>
<path opacity="0.3" d="M83.8699 66.6599H43.6699V75.6199L52.6199 84.5699H92.8099V75.6099L83.8699 66.6599Z" fill="white"/>
<path d="M92.8101 84.5601H52.6201V93.5201H92.8101V84.5601Z" fill="#5C27CA"/>
<path opacity="0.3" d="M92.8101 84.5601H52.6201V93.5201H92.8101V84.5601Z" fill="white"/>
<path d="M92.8101 93.52H52.6201V102.48H92.8101V93.52Z" fill="#5C27CA"/>
<path opacity="0.6" d="M92.8101 93.52H52.6201V102.48H92.8101V93.52Z" fill="white"/>
<path d="M92.8101 75.6101H52.6201V84.5701H92.8101V75.6101Z" fill="#5C27CA"/>
<path d="M67.7798 102.48H76.7998V75.6099L67.8598 66.6599H58.8398L67.7798 75.6099V102.48Z" fill="#5C27CA"/>
<path opacity="0.2" d="M67.7798 102.48H76.7998V75.6099L67.8598 66.6599H58.8398L67.7798 75.6099V102.48Z" fill="black"/>
<path d="M65.3799 82V96.08H78.9999V82H65.3799ZM76.7999 93.52H67.7999V84.52H76.7999V93.52Z" fill="#002C77"/>
<path opacity="0.5" d="M65.3799 82V96.08H78.9999V82H65.3799ZM76.7999 93.52H67.7999V84.52H76.7999V93.52Z" fill="white"/>
<path d="M43.6699 66.6599V75.6199L52.6199 84.5699V75.6099L43.6699 66.6599Z" fill="#002C77"/>
<path opacity="0.5" d="M43.6699 66.6599V75.6199L52.6199 84.5699V75.6099L43.6699 66.6599Z" fill="white"/>
<path d="M43.6699 75.6201V84.5801L52.6199 93.5201V84.5601L43.6699 75.6201Z" fill="#002C77"/>
<path opacity="0.6" d="M43.6699 75.6201V84.5801L52.6199 93.5201V84.5601L43.6699 75.6201Z" fill="white"/>
<path d="M43.6699 84.5701V93.5301L52.6199 102.48V93.5201L43.6699 84.5701Z" fill="#002C77"/>
<path opacity="0.8" d="M43.6699 84.5701V93.5301L52.6199 102.48V93.5201L43.6699 84.5701Z" fill="white"/>
<path d="M401.33 107.87H357.49V166.86H401.33V107.87Z" fill="#00B2A1"/>
<path opacity="0.7" d="M401.33 107.87H357.49V166.86H401.33V107.87Z" fill="white"/>
<path opacity="0.7" d="M398.46 110.74H360.35V126.1H398.46V110.74Z" fill="white"/>
<path opacity="0.7" d="M398.46 129.69H360.35V145.05H398.46V129.69Z" fill="white"/>
<path d="M398.46 119.02L394.91 114.69L390.51 120.04L386.13 113.73L381.47 118.39L376.9 115.82L372.74 122.73L368.58 115.82L363.87 118.49L360.35 116.5V118.15L363.87 120.13L368.08 117.75L372.74 125.5L377.41 117.75L381.71 120.17L385.93 115.96L390.42 122.41L394.91 116.95L398.46 121.28V119.02Z" fill="#00B2A1"/>
<path opacity="0.5" d="M398.46 119.02L394.91 114.69L390.51 120.04L386.13 113.73L381.47 118.39L376.9 115.82L372.74 122.73L368.58 115.82L363.87 118.49L360.35 116.5V118.15L363.87 120.13L368.08 117.75L372.74 125.5L377.41 117.75L381.71 120.17L385.93 115.96L390.42 122.41L394.91 116.95L398.46 121.28V119.02Z" fill="white"/>
<path d="M398.46 134.35L394.88 136.38L390.16 133.71L386 140.61L381.85 133.71L377.28 136.28L372.62 131.62L368.23 137.93L363.84 132.58L360.35 136.83V139.08L363.84 134.83L368.33 140.3L372.81 133.85L377.03 138.06L381.34 135.64L386 143.39L390.67 135.64L394.88 138.02L398.46 136V134.35Z" fill="#00B2A1"/>
<path opacity="0.5" d="M398.46 134.35L394.88 136.38L390.16 133.71L386 140.61L381.85 133.71L377.28 136.28L372.62 131.62L368.23 137.93L363.84 132.58L360.35 136.83V139.08L363.84 134.83L368.33 140.3L372.81 133.85L377.03 138.06L381.34 135.64L386 143.39L390.67 135.64L394.88 138.02L398.46 136V134.35Z" fill="white"/>
<path d="M376.09 149.36H397.93C398.105 149.339 398.267 149.255 398.384 149.123C398.501 148.991 398.566 148.821 398.566 148.645C398.566 148.469 398.501 148.298 398.384 148.167C398.267 148.035 398.105 147.951 397.93 147.93H376.09C375.915 147.951 375.754 148.035 375.637 148.167C375.52 148.298 375.455 148.469 375.455 148.645C375.455 148.821 375.52 148.991 375.637 149.123C375.754 149.255 375.915 149.339 376.09 149.36Z" fill="#002C77"/>
<path d="M376.09 153.26H395.09C395.265 153.239 395.427 153.155 395.544 153.023C395.661 152.892 395.726 152.721 395.726 152.545C395.726 152.369 395.661 152.199 395.544 152.067C395.427 151.935 395.265 151.851 395.09 151.83H376.09C375.915 151.851 375.754 151.935 375.637 152.067C375.52 152.199 375.455 152.369 375.455 152.545C375.455 152.721 375.52 152.892 375.637 153.023C375.754 153.155 375.915 153.239 376.09 153.26Z" fill="#002C77"/>
<path d="M376.09 157.16H395.09C395.281 157.16 395.464 157.084 395.599 156.949C395.734 156.814 395.81 156.631 395.81 156.44C395.81 156.249 395.734 156.066 395.599 155.931C395.464 155.796 395.281 155.72 395.09 155.72H376.09C375.899 155.72 375.716 155.796 375.581 155.931C375.446 156.066 375.37 156.249 375.37 156.44C375.37 156.631 375.446 156.814 375.581 156.949C375.716 157.084 375.899 157.16 376.09 157.16Z" fill="#002C77"/>
<path d="M376.09 161.05H396C396.175 161.029 396.337 160.945 396.454 160.813C396.571 160.682 396.636 160.511 396.636 160.335C396.636 160.159 396.571 159.989 396.454 159.857C396.337 159.725 396.175 159.641 396 159.62H376.09C375.915 159.641 375.754 159.725 375.637 159.857C375.52 159.989 375.455 160.159 375.455 160.335C375.455 160.511 375.52 160.682 375.637 160.813C375.754 160.945 375.915 161.029 376.09 161.05Z" fill="#002C77"/>
<g opacity="0.4">
<path opacity="0.4" d="M376.09 149.36H397.93C398.105 149.339 398.267 149.255 398.384 149.123C398.501 148.991 398.566 148.821 398.566 148.645C398.566 148.469 398.501 148.298 398.384 148.167C398.267 148.035 398.105 147.951 397.93 147.93H376.09C375.915 147.951 375.754 148.035 375.637 148.167C375.52 148.298 375.455 148.469 375.455 148.645C375.455 148.821 375.52 148.991 375.637 149.123C375.754 149.255 375.915 149.339 376.09 149.36Z" fill="white"/>
<path opacity="0.4" d="M376.09 153.26H395.09C395.265 153.239 395.427 153.155 395.544 153.023C395.661 152.891 395.726 152.721 395.726 152.545C395.726 152.369 395.661 152.198 395.544 152.067C395.427 151.935 395.265 151.851 395.09 151.83H376.09C375.915 151.851 375.754 151.935 375.637 152.067C375.52 152.198 375.455 152.369 375.455 152.545C375.455 152.721 375.52 152.891 375.637 153.023C375.754 153.155 375.915 153.239 376.09 153.26Z" fill="white"/>
<path opacity="0.4" d="M376.09 157.16H395.09C395.281 157.16 395.464 157.084 395.599 156.949C395.734 156.814 395.81 156.631 395.81 156.44C395.81 156.249 395.734 156.066 395.599 155.931C395.464 155.796 395.281 155.72 395.09 155.72H376.09C375.899 155.72 375.716 155.796 375.581 155.931C375.446 156.066 375.37 156.249 375.37 156.44C375.37 156.631 375.446 156.814 375.581 156.949C375.716 157.084 375.899 157.16 376.09 157.16Z" fill="white"/>
<path opacity="0.4" d="M376.09 161.05H396C396.175 161.029 396.337 160.945 396.454 160.813C396.571 160.681 396.636 160.511 396.636 160.335C396.636 160.159 396.571 159.988 396.454 159.857C396.337 159.725 396.175 159.641 396 159.62H376.09C375.915 159.641 375.754 159.725 375.637 159.857C375.52 159.988 375.455 160.159 375.455 160.335C375.455 160.511 375.52 160.681 375.637 160.813C375.754 160.945 375.915 161.029 376.09 161.05Z" fill="white"/>
</g>
<path d="M399.08 17.1401H359.23V70.7701H399.08V17.1401Z" fill="#00B2A1"/>
<path opacity="0.6" d="M399.08 17.1401H359.23V70.7701H399.08V17.1401Z" fill="white"/>
<path opacity="0.7" d="M396.48 19.74H361.84V33.7H396.48V19.74Z" fill="white"/>
<path d="M376.25 37.9001H396.1C396.26 37.8803 396.407 37.8028 396.513 37.6822C396.62 37.5615 396.679 37.4061 396.679 37.2451C396.679 37.0841 396.62 36.9286 396.513 36.808C396.407 36.6874 396.26 36.6099 396.1 36.5901H376.25C376.09 36.6099 375.943 36.6874 375.836 36.808C375.73 36.9286 375.671 37.0841 375.671 37.2451C375.671 37.4061 375.73 37.5615 375.836 37.6822C375.943 37.8028 376.09 37.8803 376.25 37.9001Z" fill="#002C77"/>
<path d="M376.25 41.4401H393.49C393.662 41.4401 393.827 41.3717 393.949 41.2498C394.071 41.1279 394.14 40.9625 394.14 40.7901C394.14 40.6177 394.071 40.4524 393.949 40.3305C393.827 40.2086 393.662 40.1401 393.49 40.1401H376.25C376.077 40.1401 375.912 40.2086 375.79 40.3305C375.668 40.4524 375.6 40.6177 375.6 40.7901C375.6 40.9625 375.668 41.1279 375.79 41.2498C375.912 41.3717 376.077 41.4401 376.25 41.4401Z" fill="#002C77"/>
<path d="M376.25 45H393.49C393.662 45 393.827 44.9315 393.949 44.8096C394.071 44.6877 394.14 44.5223 394.14 44.3499C394.14 44.1776 394.071 44.0122 393.949 43.8903C393.827 43.7684 393.662 43.7 393.49 43.7H376.25C376.077 43.7 375.912 43.7684 375.79 43.8903C375.668 44.0122 375.6 44.1776 375.6 44.3499C375.6 44.5223 375.668 44.6877 375.79 44.8096C375.912 44.9315 376.077 45 376.25 45Z" fill="#002C77"/>
<path d="M376.25 48.53H394.36C394.52 48.5102 394.667 48.4327 394.773 48.3121C394.88 48.1914 394.939 48.036 394.939 47.875C394.939 47.714 394.88 47.5585 394.773 47.4379C394.667 47.3173 394.52 47.2398 394.36 47.22H376.25C376.09 47.2398 375.943 47.3173 375.836 47.4379C375.73 47.5585 375.671 47.714 375.671 47.875C375.671 48.036 375.73 48.1914 375.836 48.3121C375.943 48.4327 376.09 48.5102 376.25 48.53Z" fill="#002C77"/>
<path d="M376.25 52.07H390.89C391.062 52.07 391.227 52.0015 391.349 51.8796C391.471 51.7577 391.54 51.5924 391.54 51.42C391.54 51.2476 391.471 51.0823 391.349 50.9604C391.227 50.8385 391.062 50.77 390.89 50.77H376.25C376.077 50.77 375.912 50.8385 375.79 50.9604C375.668 51.0823 375.6 51.2476 375.6 51.42C375.6 51.5924 375.668 51.7577 375.79 51.8796C375.912 52.0015 376.077 52.07 376.25 52.07Z" fill="#002C77"/>
<path d="M376.25 55.6101H396.1C396.272 55.6101 396.437 55.5416 396.559 55.4197C396.681 55.2978 396.75 55.1324 396.75 54.9601C396.75 54.7877 396.681 54.6223 396.559 54.5004C396.437 54.3785 396.272 54.3101 396.1 54.3101H376.25C376.077 54.3101 375.912 54.3785 375.79 54.5004C375.668 54.6223 375.6 54.7877 375.6 54.9601C375.6 55.1324 375.668 55.2978 375.79 55.4197C375.912 55.5416 376.077 55.6101 376.25 55.6101Z" fill="#002C77"/>
<path d="M376.25 59.1601H393.49C393.65 59.1403 393.797 59.0628 393.903 58.9422C394.01 58.8215 394.069 58.6661 394.069 58.5051C394.069 58.3441 394.01 58.1887 393.903 58.068C393.797 57.9474 393.65 57.8699 393.49 57.8501H376.25C376.09 57.8699 375.943 57.9474 375.836 58.068C375.73 58.1887 375.671 58.3441 375.671 58.5051C375.671 58.6661 375.73 58.8215 375.836 58.9422C375.943 59.0628 376.09 59.1403 376.25 59.1601Z" fill="#002C77"/>
<path d="M376.25 62.6999H393.49C393.662 62.6999 393.827 62.6314 393.949 62.5095C394.071 62.3876 394.14 62.2223 394.14 62.0499C394.14 61.8775 394.071 61.7122 393.949 61.5903C393.827 61.4684 393.662 61.3999 393.49 61.3999H376.25C376.077 61.3999 375.912 61.4684 375.79 61.5903C375.668 61.7122 375.6 61.8775 375.6 62.0499C375.6 62.2223 375.668 62.3876 375.79 62.5095C375.912 62.6314 376.077 62.6999 376.25 62.6999Z" fill="#002C77"/>
<path d="M376.25 66.2399H394.36C394.532 66.2399 394.697 66.1715 394.819 66.0496C394.941 65.9277 395.01 65.7623 395.01 65.5899C395.01 65.4175 394.941 65.2522 394.819 65.1303C394.697 65.0084 394.532 64.9399 394.36 64.9399H376.25C376.077 64.9399 375.912 65.0084 375.79 65.1303C375.668 65.2522 375.6 65.4175 375.6 65.5899C375.6 65.7623 375.668 65.9277 375.79 66.0496C375.912 66.1715 376.077 66.2399 376.25 66.2399Z" fill="#002C77"/>
<g opacity="0.4">
<path opacity="0.4" d="M376.25 37.9001H396.1C396.26 37.8803 396.407 37.8028 396.513 37.6822C396.62 37.5615 396.679 37.4061 396.679 37.2451C396.679 37.0841 396.62 36.9286 396.513 36.808C396.407 36.6874 396.26 36.6099 396.1 36.5901H376.25C376.09 36.6099 375.943 36.6874 375.836 36.808C375.73 36.9286 375.671 37.0841 375.671 37.2451C375.671 37.4061 375.73 37.5615 375.836 37.6822C375.943 37.8028 376.09 37.8803 376.25 37.9001Z" fill="white"/>
</g>
<g opacity="0.4">
<path opacity="0.4" d="M376.25 41.4401H393.49C393.662 41.4401 393.827 41.3717 393.949 41.2498C394.071 41.1279 394.14 40.9625 394.14 40.7901C394.14 40.6177 394.071 40.4524 393.949 40.3305C393.827 40.2086 393.662 40.1401 393.49 40.1401H376.25C376.077 40.1401 375.912 40.2086 375.79 40.3305C375.668 40.4524 375.6 40.6177 375.6 40.7901C375.6 40.9625 375.668 41.1279 375.79 41.2498C375.912 41.3717 376.077 41.4401 376.25 41.4401Z" fill="white"/>
</g>
<g opacity="0.4">
<path opacity="0.4" d="M376.25 45H393.49C393.662 45 393.827 44.9315 393.949 44.8096C394.071 44.6877 394.14 44.5223 394.14 44.3499C394.14 44.1776 394.071 44.0122 393.949 43.8903C393.827 43.7684 393.662 43.7 393.49 43.7H376.25C376.077 43.7 375.912 43.7684 375.79 43.8903C375.668 44.0122 375.6 44.1776 375.6 44.3499C375.6 44.5223 375.668 44.6877 375.79 44.8096C375.912 44.9315 376.077 45 376.25 45Z" fill="white"/>
</g>
<g opacity="0.4">
<path opacity="0.4" d="M376.25 48.53H394.36C394.52 48.5102 394.667 48.4327 394.773 48.3121C394.88 48.1914 394.939 48.036 394.939 47.875C394.939 47.714 394.88 47.5585 394.773 47.4379C394.667 47.3173 394.52 47.2398 394.36 47.22H376.25C376.09 47.2398 375.943 47.3173 375.836 47.4379C375.73 47.5585 375.671 47.714 375.671 47.875C375.671 48.036 375.73 48.1914 375.836 48.3121C375.943 48.4327 376.09 48.5102 376.25 48.53Z" fill="white"/>
</g>
<g opacity="0.4">
<path opacity="0.4" d="M376.25 52.07H390.89C391.062 52.07 391.227 52.0015 391.349 51.8796C391.471 51.7577 391.54 51.5924 391.54 51.42C391.54 51.2476 391.471 51.0823 391.349 50.9604C391.227 50.8385 391.062 50.77 390.89 50.77H376.25C376.077 50.77 375.912 50.8385 375.79 50.9604C375.668 51.0823 375.6 51.2476 375.6 51.42C375.6 51.5924 375.668 51.7577 375.79 51.8796C375.912 52.0015 376.077 52.07 376.25 52.07Z" fill="white"/>
</g>
<g opacity="0.4">
<path opacity="0.4" d="M376.25 55.6101H396.1C396.272 55.6101 396.437 55.5416 396.559 55.4197C396.681 55.2978 396.75 55.1324 396.75 54.9601C396.75 54.7877 396.681 54.6223 396.559 54.5004C396.437 54.3785 396.272 54.3101 396.1 54.3101H376.25C376.077 54.3101 375.912 54.3785 375.79 54.5004C375.668 54.6223 375.6 54.7877 375.6 54.9601C375.6 55.1324 375.668 55.2978 375.79 55.4197C375.912 55.5416 376.077 55.6101 376.25 55.6101Z" fill="white"/>
</g>
<g opacity="0.4">
<path opacity="0.4" d="M376.25 59.1601H393.49C393.65 59.1403 393.797 59.0628 393.903 58.9422C394.01 58.8215 394.069 58.6661 394.069 58.5051C394.069 58.3441 394.01 58.1887 393.903 58.068C393.797 57.9474 393.65 57.8699 393.49 57.8501H376.25C376.09 57.8699 375.943 57.9474 375.836 58.068C375.73 58.1887 375.671 58.3441 375.671 58.5051C375.671 58.6661 375.73 58.8215 375.836 58.9422C375.943 59.0628 376.09 59.1403 376.25 59.1601Z" fill="white"/>
</g>
<g opacity="0.4">
<path opacity="0.4" d="M376.25 62.6999H393.49C393.662 62.6999 393.827 62.6314 393.949 62.5095C394.071 62.3876 394.14 62.2223 394.14 62.0499C394.14 61.8775 394.071 61.7122 393.949 61.5903C393.827 61.4684 393.662 61.3999 393.49 61.3999H376.25C376.077 61.3999 375.912 61.4684 375.79 61.5903C375.668 61.7122 375.6 61.8775 375.6 62.0499C375.6 62.2223 375.668 62.3876 375.79 62.5095C375.912 62.6314 376.077 62.6999 376.25 62.6999Z" fill="white"/>
</g>
<g opacity="0.4">
<path opacity="0.4" d="M376.25 66.2399H394.36C394.532 66.2399 394.697 66.1715 394.819 66.0496C394.941 65.9277 395.01 65.7623 395.01 65.5899C395.01 65.4175 394.941 65.2522 394.819 65.1303C394.697 65.0084 394.532 64.9399 394.36 64.9399H376.25C376.077 64.9399 375.912 65.0084 375.79 65.1303C375.668 65.2522 375.6 65.4175 375.6 65.5899C375.6 65.7623 375.668 65.9277 375.79 66.0496C375.912 66.1715 376.077 66.2399 376.25 66.2399Z" fill="white"/>
</g>
<path d="M371.61 37.25H361.84V47.02H371.61V37.25Z" fill="#00B2A1"/>
<path opacity="0.3" d="M371.61 37.25H361.84V47.02H371.61V37.25Z" fill="white"/>
<path d="M372.55 27.1499H369.91V32.4399H372.55V27.1499Z" fill="#00B2A1"/>
<path d="M377.829 24.51H375.189V32.44H377.829V24.51Z" fill="#00B2A1"/>
<path d="M383.119 25.8301H380.479V32.4401H383.119V25.8301Z" fill="#00B2A1"/>
<path d="M388.41 21.8601H385.77V32.4301H388.41V21.8601Z" fill="#00B2A1"/>
<path d="M379.57 61.6899H339.72V115.32H379.57V61.6899Z" fill="#00B2A1"/>
<path opacity="0.8" d="M379.57 61.6899H339.72V115.32H379.57V61.6899Z" fill="white"/>
<path d="M356.73 67.4401H376.58C376.752 67.4401 376.918 67.3717 377.04 67.2498C377.162 67.1279 377.23 66.9625 377.23 66.7901C377.23 66.6177 377.162 66.4524 377.04 66.3305C376.918 66.2086 376.752 66.1401 376.58 66.1401H356.73C356.558 66.1401 356.392 66.2086 356.27 66.3305C356.149 66.4524 356.08 66.6177 356.08 66.7901C356.08 66.9625 356.149 67.1279 356.27 67.2498C356.392 67.3717 356.558 67.4401 356.73 67.4401Z" fill="#002C77"/>
<path d="M356.73 71H374C374.172 71 374.338 70.9315 374.46 70.8096C374.582 70.6877 374.65 70.5223 374.65 70.35C374.65 70.1776 374.582 70.0122 374.46 69.8903C374.338 69.7684 374.172 69.7 374 69.7H356.73C356.558 69.7 356.392 69.7684 356.27 69.8903C356.149 70.0122 356.08 70.1776 356.08 70.35C356.08 70.5223 356.149 70.6877 356.27 70.8096C356.392 70.9315 356.558 71 356.73 71Z" fill="#002C77"/>
<path d="M356.729 74.53H373.999C374.159 74.5102 374.306 74.4327 374.413 74.312C374.519 74.1914 374.578 74.036 374.578 73.875C374.578 73.714 374.519 73.5585 374.413 73.4379C374.306 73.3173 374.159 73.2398 373.999 73.22H356.729C356.57 73.2398 356.422 73.3173 356.316 73.4379C356.209 73.5585 356.15 73.714 356.15 73.875C356.15 74.036 356.209 74.1914 356.316 74.312C356.422 74.4327 356.57 74.5102 356.729 74.53Z" fill="#002C77"/>
<path d="M356.73 78.07H374.85C375.022 78.07 375.188 78.0015 375.31 77.8796C375.432 77.7577 375.5 77.5924 375.5 77.42C375.5 77.2476 375.432 77.0823 375.31 76.9604C375.188 76.8385 375.022 76.77 374.85 76.77H356.73C356.558 76.77 356.392 76.8385 356.27 76.9604C356.149 77.0823 356.08 77.2476 356.08 77.42C356.08 77.5924 356.149 77.7577 356.27 77.8796C356.392 78.0015 356.558 78.07 356.73 78.07Z" fill="#002C77"/>
<path d="M356.73 81.6101H371.38C371.552 81.6101 371.718 81.5416 371.84 81.4197C371.962 81.2978 372.03 81.1325 372.03 80.9601C372.03 80.7877 371.962 80.6223 371.84 80.5004C371.718 80.3785 371.552 80.3101 371.38 80.3101H356.73C356.558 80.3101 356.392 80.3785 356.27 80.5004C356.149 80.6223 356.08 80.7877 356.08 80.9601C356.08 81.1325 356.149 81.2978 356.27 81.4197C356.392 81.5416 356.558 81.6101 356.73 81.6101Z" fill="#002C77"/>
<path d="M356.73 85.1601H376.58C376.752 85.1601 376.918 85.0916 377.04 84.9697C377.162 84.8478 377.23 84.6825 377.23 84.5101C377.23 84.3377 377.162 84.1724 377.04 84.0505C376.918 83.9286 376.752 83.8601 376.58 83.8601H356.73C356.558 83.8601 356.392 83.9286 356.27 84.0505C356.149 84.1724 356.08 84.3377 356.08 84.5101C356.08 84.6825 356.149 84.8478 356.27 84.9697C356.392 85.0916 356.558 85.1601 356.73 85.1601Z" fill="#002C77"/>
<path d="M356.73 88.6999H374C374.172 88.6999 374.338 88.6314 374.46 88.5095C374.582 88.3876 374.65 88.2223 374.65 88.0499C374.65 87.8775 374.582 87.7122 374.46 87.5903C374.338 87.4684 374.172 87.3999 374 87.3999H356.73C356.558 87.3999 356.392 87.4684 356.27 87.5903C356.149 87.7122 356.08 87.8775 356.08 88.0499C356.08 88.2223 356.149 88.3876 356.27 88.5095C356.392 88.6314 356.558 88.6999 356.73 88.6999Z" fill="#002C77"/>
<path d="M356.73 92.2399H374C374.172 92.2399 374.338 92.1715 374.46 92.0496C374.582 91.9277 374.65 91.7623 374.65 91.5899C374.65 91.4175 374.582 91.2522 374.46 91.1303C374.338 91.0084 374.172 90.9399 374 90.9399H356.73C356.558 90.9399 356.392 91.0084 356.27 91.1303C356.149 91.2522 356.08 91.4175 356.08 91.5899C356.08 91.7623 356.149 91.9277 356.27 92.0496C356.392 92.1715 356.558 92.2399 356.73 92.2399Z" fill="#002C77"/>
<path d="M356.73 99.33H371.38C371.552 99.33 371.718 99.2615 371.84 99.1396C371.962 99.0177 372.03 98.8524 372.03 98.68C372.03 98.5076 371.962 98.3423 371.84 98.2204C371.718 98.0985 371.552 98.03 371.38 98.03H356.73C356.558 98.03 356.392 98.0985 356.27 98.2204C356.149 98.3423 356.08 98.5076 356.08 98.68C356.08 98.8524 356.149 99.0177 356.27 99.1396C356.392 99.2615 356.558 99.33 356.73 99.33Z" fill="#002C77"/>
<path d="M356.73 102.88H376.58C376.752 102.88 376.918 102.812 377.04 102.69C377.162 102.568 377.23 102.402 377.23 102.23C377.23 102.058 377.162 101.892 377.04 101.77C376.918 101.649 376.752 101.58 376.58 101.58H356.73C356.558 101.58 356.392 101.649 356.27 101.77C356.149 101.892 356.08 102.058 356.08 102.23C356.08 102.402 356.149 102.568 356.27 102.69C356.392 102.812 356.558 102.88 356.73 102.88Z" fill="#002C77"/>
<path d="M356.73 106.42H374C374.172 106.42 374.338 106.352 374.46 106.23C374.582 106.108 374.65 105.943 374.65 105.77C374.65 105.598 374.582 105.432 374.46 105.31C374.338 105.189 374.172 105.12 374 105.12H356.73C356.558 105.12 356.392 105.189 356.27 105.31C356.149 105.432 356.08 105.598 356.08 105.77C356.08 105.943 356.149 106.108 356.27 106.23C356.392 106.352 356.558 106.42 356.73 106.42Z" fill="#002C77"/>
<path d="M356.73 110H374C374.172 110 374.338 109.931 374.46 109.81C374.582 109.688 374.65 109.522 374.65 109.35C374.65 109.178 374.582 109.012 374.46 108.89C374.338 108.768 374.172 108.7 374 108.7H356.73C356.558 108.7 356.392 108.768 356.27 108.89C356.149 109.012 356.08 109.178 356.08 109.35C356.08 109.522 356.149 109.688 356.27 109.81C356.392 109.931 356.558 110 356.73 110Z" fill="#002C77"/>
<path d="M356.73 95.79H374.85C375.022 95.79 375.188 95.7215 375.31 95.5996C375.432 95.4777 375.5 95.3124 375.5 95.14C375.5 94.9676 375.432 94.8023 375.31 94.6804C375.188 94.5585 375.022 94.49 374.85 94.49H356.73C356.558 94.49 356.392 94.5585 356.27 94.6804C356.149 94.8023 356.08 94.9676 356.08 95.14C356.08 95.3124 356.149 95.4777 356.27 95.5996C356.392 95.7215 356.558 95.79 356.73 95.79Z" fill="#002C77"/>
<g opacity="0.4">
<path opacity="0.4" d="M356.73 67.4401H376.58C376.752 67.4401 376.918 67.3717 377.04 67.2498C377.162 67.1279 377.23 66.9625 377.23 66.7901C377.23 66.6177 377.162 66.4524 377.04 66.3305C376.918 66.2086 376.752 66.1401 376.58 66.1401H356.73C356.558 66.1401 356.392 66.2086 356.27 66.3305C356.149 66.4524 356.08 66.6177 356.08 66.7901C356.08 66.9625 356.149 67.1279 356.27 67.2498C356.392 67.3717 356.558 67.4401 356.73 67.4401Z" fill="white"/>
<path opacity="0.4" d="M356.73 71.0002H374C374.172 71.0002 374.338 70.9317 374.46 70.8098C374.582 70.6879 374.65 70.5226 374.65 70.3502C374.65 70.1778 374.582 70.0125 374.46 69.8906C374.338 69.7687 374.172 69.7002 374 69.7002H356.73C356.558 69.7002 356.392 69.7687 356.27 69.8906C356.149 70.0125 356.08 70.1778 356.08 70.3502C356.08 70.5226 356.149 70.6879 356.27 70.8098C356.392 70.9317 356.558 71.0002 356.73 71.0002Z" fill="white"/>
<path opacity="0.4" d="M356.73 74.5302H374C374.16 74.5104 374.307 74.4329 374.414 74.3123C374.52 74.1917 374.579 74.0362 374.579 73.8752C374.579 73.7142 374.52 73.5588 374.414 73.4381C374.307 73.3175 374.16 73.24 374 73.2202H356.73C356.571 73.24 356.423 73.3175 356.317 73.4381C356.21 73.5588 356.151 73.7142 356.151 73.8752C356.151 74.0362 356.21 74.1917 356.317 74.3123C356.423 74.4329 356.571 74.5104 356.73 74.5302Z" fill="white"/>
<path opacity="0.4" d="M356.73 78.07H374.85C375.022 78.07 375.188 78.0015 375.31 77.8796C375.432 77.7577 375.5 77.5924 375.5 77.42C375.5 77.2476 375.432 77.0823 375.31 76.9604C375.188 76.8385 375.022 76.77 374.85 76.77H356.73C356.558 76.77 356.392 76.8385 356.27 76.9604C356.149 77.0823 356.08 77.2476 356.08 77.42C356.08 77.5924 356.149 77.7577 356.27 77.8796C356.392 78.0015 356.558 78.07 356.73 78.07Z" fill="white"/>
<path opacity="0.4" d="M356.73 81.6101H371.38C371.552 81.6101 371.718 81.5416 371.84 81.4197C371.962 81.2978 372.03 81.1325 372.03 80.9601C372.03 80.7877 371.962 80.6223 371.84 80.5004C371.718 80.3785 371.552 80.3101 371.38 80.3101H356.73C356.558 80.3101 356.392 80.3785 356.27 80.5004C356.149 80.6223 356.08 80.7877 356.08 80.9601C356.08 81.1325 356.149 81.2978 356.27 81.4197C356.392 81.5416 356.558 81.6101 356.73 81.6101Z" fill="white"/>
<path opacity="0.4" d="M356.73 85.1601H376.58C376.752 85.1601 376.918 85.0916 377.04 84.9697C377.162 84.8478 377.23 84.6825 377.23 84.5101C377.23 84.3377 377.162 84.1724 377.04 84.0505C376.918 83.9286 376.752 83.8601 376.58 83.8601H356.73C356.558 83.8601 356.392 83.9286 356.27 84.0505C356.149 84.1724 356.08 84.3377 356.08 84.5101C356.08 84.6825 356.149 84.8478 356.27 84.9697C356.392 85.0916 356.558 85.1601 356.73 85.1601Z" fill="white"/>
<path opacity="0.4" d="M356.73 88.7001H374C374.172 88.7001 374.338 88.6317 374.46 88.5098C374.582 88.3879 374.65 88.2225 374.65 88.0501C374.65 87.8778 374.582 87.7124 374.46 87.5905C374.338 87.4686 374.172 87.4001 374 87.4001H356.73C356.558 87.4001 356.392 87.4686 356.27 87.5905C356.149 87.7124 356.08 87.8778 356.08 88.0501C356.08 88.2225 356.149 88.3879 356.27 88.5098C356.392 88.6317 356.558 88.7001 356.73 88.7001Z" fill="white"/>
<path opacity="0.4" d="M356.73 92.2402H374C374.172 92.2402 374.338 92.1717 374.46 92.0498C374.582 91.9279 374.65 91.7626 374.65 91.5902C374.65 91.4178 374.582 91.2525 374.46 91.1306C374.338 91.0087 374.172 90.9402 374 90.9402H356.73C356.558 90.9402 356.392 91.0087 356.27 91.1306C356.149 91.2525 356.08 91.4178 356.08 91.5902C356.08 91.7626 356.149 91.9279 356.27 92.0498C356.392 92.1717 356.558 92.2402 356.73 92.2402Z" fill="white"/>
<path opacity="0.4" d="M356.73 99.33H371.38C371.552 99.33 371.718 99.2615 371.84 99.1396C371.962 99.0177 372.03 98.8524 372.03 98.68C372.03 98.5076 371.962 98.3423 371.84 98.2204C371.718 98.0985 371.552 98.03 371.38 98.03H356.73C356.558 98.03 356.392 98.0985 356.27 98.2204C356.149 98.3423 356.08 98.5076 356.08 98.68C356.08 98.8524 356.149 99.0177 356.27 99.1396C356.392 99.2615 356.558 99.33 356.73 99.33Z" fill="white"/>
<path opacity="0.4" d="M356.73 102.88H376.58C376.752 102.88 376.918 102.812 377.04 102.69C377.162 102.568 377.23 102.402 377.23 102.23C377.23 102.058 377.162 101.892 377.04 101.77C376.918 101.649 376.752 101.58 376.58 101.58H356.73C356.558 101.58 356.392 101.649 356.27 101.77C356.149 101.892 356.08 102.058 356.08 102.23C356.08 102.402 356.149 102.568 356.27 102.69C356.392 102.812 356.558 102.88 356.73 102.88Z" fill="white"/>
<path opacity="0.4" d="M356.73 106.42H374C374.172 106.42 374.338 106.352 374.46 106.23C374.582 106.108 374.65 105.943 374.65 105.77C374.65 105.598 374.582 105.432 374.46 105.31C374.338 105.189 374.172 105.12 374 105.12H356.73C356.558 105.12 356.392 105.189 356.27 105.31C356.149 105.432 356.08 105.598 356.08 105.77C356.08 105.943 356.149 106.108 356.27 106.23C356.392 106.352 356.558 106.42 356.73 106.42Z" fill="white"/>
<path opacity="0.4" d="M356.73 110H374C374.172 110 374.338 109.932 374.46 109.81C374.582 109.688 374.65 109.523 374.65 109.35C374.65 109.178 374.582 109.012 374.46 108.891C374.338 108.769 374.172 108.7 374 108.7H356.73C356.558 108.7 356.392 108.769 356.27 108.891C356.149 109.012 356.08 109.178 356.08 109.35C356.08 109.523 356.149 109.688 356.27 109.81C356.392 109.932 356.558 110 356.73 110Z" fill="white"/>
<path opacity="0.4" d="M356.73 95.7902H374.85C375.022 95.7902 375.188 95.7218 375.31 95.5999C375.432 95.478 375.5 95.3126 375.5 95.1402C375.5 94.9678 375.432 94.8025 375.31 94.6806C375.188 94.5587 375.022 94.4902 374.85 94.4902H356.73C356.558 94.4902 356.392 94.5587 356.27 94.6806C356.149 94.8025 356.08 94.9678 356.08 95.1402C356.08 95.3126 356.149 95.478 356.27 95.5999C356.392 95.7218 356.558 95.7902 356.73 95.7902Z" fill="white"/>
</g>
<path d="M345.83 85.3901L344.26 83.8201C343.14 84.9434 342.511 86.4642 342.51 88.0501H344.73C344.729 87.5561 344.826 87.0668 345.014 86.6103C345.203 86.1538 345.48 85.7391 345.83 85.3901Z" fill="#5C27CA"/>
<path d="M348.49 91.81C347.493 91.81 346.536 91.4139 345.831 90.7088C345.126 90.0036 344.73 89.0473 344.73 88.05H342.51C342.51 89.6413 343.142 91.1675 344.267 92.2927C345.392 93.4179 346.918 94.05 348.51 94.05L348.49 91.81Z" fill="#5C27CA"/>
<path opacity="0.3" d="M348.49 91.81C347.493 91.81 346.536 91.4139 345.831 90.7088C345.126 90.0036 344.73 89.0473 344.73 88.05H342.51C342.51 89.6413 343.142 91.1675 344.267 92.2927C345.392 93.4179 346.918 94.05 348.51 94.05L348.49 91.81Z" fill="white"/>
<path d="M345.83 85.3901C346.179 85.0406 346.594 84.7635 347.05 84.5747C347.507 84.3859 347.996 84.2892 348.49 84.2901V82.0701C346.904 82.0715 345.383 82.7006 344.26 83.8201L345.83 85.3901Z" fill="#5C27CA"/>
<path opacity="0.5" d="M345.83 85.3901C346.179 85.0406 346.594 84.7635 347.05 84.5747C347.507 84.3859 347.996 84.2892 348.49 84.2901V82.0701C346.904 82.0715 345.383 82.7006 344.26 83.8201L345.83 85.3901Z" fill="black"/>
<path d="M352.25 88.05C352.25 89.0472 351.854 90.0036 351.149 90.7087C350.444 91.4139 349.487 91.81 348.49 91.81V94C350.082 94 351.608 93.3679 352.733 92.2426C353.858 91.1174 354.49 89.5913 354.49 88C354.49 86.4087 353.858 84.8826 352.733 83.7574C351.608 82.6321 350.082 82 348.49 82V84.22C348.99 84.2199 349.485 84.3194 349.945 84.5128C350.406 84.7061 350.824 84.9893 351.174 85.3459C351.524 85.7025 351.8 86.1253 351.984 86.5896C352.169 87.0539 352.26 87.5504 352.25 88.05Z" fill="#5C27CA"/>
<path opacity="0.2" d="M351.15 90.71L352.72 92.28C353.279 91.7266 353.723 91.0677 354.025 90.3416C354.327 89.6154 354.482 88.8365 354.48 88.05H352.25C352.251 88.544 352.155 89.0333 351.966 89.4898C351.777 89.9463 351.5 90.361 351.15 90.71Z" fill="black"/>
<path d="M345.83 74.0901L344.26 75.6701C345.383 76.7895 346.904 77.4187 348.49 77.4201V75.1901C347.996 75.191 347.507 75.0943 347.05 74.9055C346.594 74.7167 346.179 74.4396 345.83 74.0901Z" fill="#5C27CA"/>
<path d="M352.25 71.4299C352.25 72.4271 351.854 73.3835 351.149 74.0886C350.444 74.7938 349.487 75.1899 348.49 75.1899V77.4199C350.082 77.4199 351.608 76.7878 352.733 75.6626C353.858 74.5373 354.49 73.0112 354.49 71.4199L352.25 71.4299Z" fill="#5C27CA"/>
<path opacity="0.3" d="M352.25 71.4299C352.25 72.4271 351.854 73.3835 351.149 74.0886C350.444 74.7938 349.487 75.1899 348.49 75.1899V77.4199C350.082 77.4199 351.608 76.7878 352.733 75.6626C353.858 74.5373 354.49 73.0112 354.49 71.4199L352.25 71.4299Z" fill="white"/>
<path d="M345.83 74.0899C345.48 73.7409 345.203 73.3262 345.014 72.8697C344.826 72.4132 344.729 71.9239 344.73 71.4299H342.51C342.509 73.0193 343.138 74.5442 344.26 75.6699L345.83 74.0899Z" fill="#5C27CA"/>
<path opacity="0.5" d="M345.83 74.0899C345.48 73.7409 345.203 73.3262 345.014 72.8697C344.826 72.4132 344.729 71.9239 344.73 71.4299H342.51C342.509 73.0193 343.138 74.5442 344.26 75.6699L345.83 74.0899Z" fill="black"/>
<path d="M348.489 67.6799C348.983 67.6786 349.471 67.7746 349.928 67.9625C350.384 68.1504 350.798 68.4264 351.148 68.7747C351.497 69.1231 351.774 69.5369 351.963 69.9926C352.152 70.4482 352.249 70.9366 352.249 71.4299H354.479C354.479 69.8386 353.847 68.3125 352.722 67.1873C351.597 66.0621 350.071 65.4299 348.479 65.4299C346.888 65.4299 345.362 66.0621 344.237 67.1873C343.112 68.3125 342.479 69.8386 342.479 71.4299H344.699C344.701 70.9345 344.8 70.4441 344.991 69.9872C345.183 69.5302 345.463 69.1155 345.815 68.767C346.167 68.4185 346.585 68.1431 347.044 67.9565C347.503 67.77 347.994 67.676 348.489 67.6799Z" fill="#5C27CA"/>
<path opacity="0.2" d="M351.15 68.78L352.72 67.2C351.597 66.0805 350.076 65.4513 348.49 65.45V67.68C348.984 67.6791 349.474 67.7758 349.93 67.9646C350.386 68.1533 350.801 68.4304 351.15 68.78Z" fill="black"/>
<path d="M351.15 102L352.72 100.42C353.843 101.542 354.476 103.063 354.48 104.65H352.25C352.251 104.158 352.153 103.67 351.965 103.215C351.776 102.76 351.499 102.347 351.15 102Z" fill="#5C27CA"/>
<path d="M348.49 108.42C349.488 108.42 350.444 108.024 351.149 107.319C351.854 106.613 352.25 105.657 352.25 104.66H354.48C354.48 106.251 353.848 107.777 352.723 108.903C351.598 110.028 350.072 110.66 348.48 110.66L348.49 108.42Z" fill="#5C27CA"/>
<path opacity="0.3" d="M348.49 108.42C349.488 108.42 350.444 108.024 351.149 107.319C351.854 106.613 352.25 105.657 352.25 104.66H354.48C354.48 106.251 353.848 107.777 352.723 108.903C351.598 110.028 350.072 110.66 348.48 110.66L348.49 108.42Z" fill="white"/>
<path d="M351.15 102C350.802 101.649 350.387 101.37 349.931 101.18C349.474 100.989 348.985 100.891 348.49 100.89V98.6799C350.076 98.6813 351.597 99.3105 352.72 100.43L351.15 102Z" fill="#5C27CA"/>
<path opacity="0.5" d="M351.15 102C350.802 101.649 350.387 101.37 349.931 101.18C349.474 100.989 348.985 100.891 348.49 100.89V98.6799C350.076 98.6813 351.597 99.3105 352.72 100.43L351.15 102Z" fill="black"/>
<path d="M344.73 104.66C344.73 105.657 345.126 106.613 345.832 107.319C346.537 108.024 347.493 108.42 348.49 108.42V110.65C346.899 110.65 345.373 110.018 344.248 108.893C343.122 107.767 342.49 106.241 342.49 104.65C342.49 103.059 343.122 101.532 344.248 100.407C345.373 99.282 346.899 98.6499 348.49 98.6499V100.87C347.994 100.871 347.504 100.97 347.046 101.162C346.588 101.353 346.173 101.633 345.824 101.985C345.475 102.337 345.198 102.754 345.01 103.213C344.823 103.672 344.728 104.164 344.73 104.66Z" fill="#5C27CA"/>
<path opacity="0.2" d="M345.83 107.32L344.26 108.9C343.138 107.774 342.509 106.249 342.51 104.66H344.73C344.729 105.154 344.826 105.643 345.014 106.1C345.203 106.556 345.48 106.971 345.83 107.32Z" fill="black"/>
<path d="M236 168.47H259.32C259.996 168.47 260.645 168.739 261.123 169.217C261.601 169.695 261.87 170.344 261.87 171.02V172.44C261.87 173.116 261.601 173.765 261.123 174.243C260.645 174.721 259.996 174.99 259.32 174.99H236V168.46V168.47Z" fill="#002C77"/>
<path d="M239.99 168.47H190.37C189.056 168.47 187.99 169.536 187.99 170.85V172.62C187.99 173.934 189.056 175 190.37 175H239.99C241.305 175 242.37 173.934 242.37 172.62V170.85C242.37 169.536 241.305 168.47 239.99 168.47Z" fill="black"/>
<path opacity="0.5" d="M239.99 168.47H190.37C189.056 168.47 187.99 169.536 187.99 170.85V172.62C187.99 173.934 189.056 175 190.37 175H239.99C241.305 175 242.37 173.934 242.37 172.62V170.85C242.37 169.536 241.305 168.47 239.99 168.47Z" fill="white"/>
<path d="M229.1 168.47H241.67L233.62 138.4H229.1V168.47Z" fill="#002C77"/>
<path d="M239.84 168.47H214.17L211.62 138.4H231.79L239.84 168.47Z" fill="black"/>
<path opacity="0.3" d="M239.84 168.47H214.17L211.62 138.4H231.79L239.84 168.47Z" fill="white"/>
<path d="M304.49 52.0001H292.82L283.82 155.24H295.49C296.695 155.217 297.849 154.754 298.735 153.937C299.622 153.121 300.178 152.009 300.3 150.81L308.56 56.4201C308.62 55.8547 308.559 55.283 308.38 54.7432C308.202 54.2033 307.91 53.7078 307.525 53.2895C307.14 52.8712 306.67 52.5399 306.147 52.3175C305.623 52.0952 305.059 51.987 304.49 52.0001Z" fill="#002C77"/>
<path d="M292.77 155.19H151.53C150.967 155.193 150.409 155.077 149.893 154.85C149.377 154.623 148.916 154.289 148.538 153.871C148.16 153.453 147.875 152.959 147.702 152.423C147.528 151.887 147.469 151.32 147.53 150.76L155.78 56.3701C155.915 55.1873 156.473 54.0933 157.352 53.2901C158.23 52.4868 159.37 52.0286 160.56 52.0001H301.8C302.363 51.997 302.92 52.1125 303.434 52.3393C303.949 52.5661 304.41 52.8989 304.788 53.316C305.165 53.7331 305.451 54.2252 305.625 54.7601C305.8 55.2949 305.859 55.8606 305.8 56.4201L297.55 150.81C297.417 151.995 296.86 153.091 295.981 153.896C295.102 154.702 293.962 155.161 292.77 155.19Z" fill="#002C77"/>
<path opacity="0.7" d="M292.77 155.19H151.53C150.967 155.193 150.409 155.077 149.893 154.85C149.377 154.623 148.916 154.289 148.538 153.871C148.16 153.453 147.875 152.959 147.702 152.423C147.528 151.887 147.469 151.32 147.53 150.76L155.78 56.3701C155.915 55.1873 156.473 54.0933 157.352 53.2901C158.23 52.4868 159.37 52.0286 160.56 52.0001H301.8C302.363 51.997 302.92 52.1125 303.434 52.3393C303.949 52.5661 304.41 52.8989 304.788 53.316C305.165 53.7331 305.451 54.2252 305.625 54.7601C305.8 55.2949 305.859 55.8606 305.8 56.4201L297.55 150.81C297.417 151.995 296.86 153.091 295.981 153.896C295.102 154.702 293.962 155.161 292.77 155.19Z" fill="white"/>
<path opacity="0.9" d="M289 143.14H157.41C156.918 143.149 156.43 143.053 155.979 142.858C155.527 142.663 155.123 142.375 154.791 142.011C154.46 141.648 154.21 141.218 154.058 140.751C153.906 140.283 153.856 139.789 153.91 139.3L160.77 60.87C160.868 59.8253 161.347 58.8533 162.116 58.1394C162.885 57.4256 163.891 57.02 164.94 57H296.53C297.021 56.9914 297.509 57.0876 297.96 57.2822C298.412 57.4768 298.817 57.7654 299.148 58.1287C299.479 58.4921 299.729 58.9218 299.881 59.3893C300.033 59.8569 300.084 60.3514 300.03 60.84L293.17 139.27C293.072 140.315 292.592 141.287 291.823 142.001C291.054 142.714 290.049 143.12 289 143.14Z" fill="#FAF8F8"/>
<path d="M254.549 84.73H249.939L250.749 75.52H255.349L254.549 84.73Z" fill="#5C27CA"/>
<path opacity="0.2" d="M254.549 84.73H249.939L250.749 75.52H255.349L254.549 84.73Z" fill="black"/>
<path d="M263.75 84.7299H259.15L260.36 70.9199H264.96L263.75 84.7299Z" fill="#5C27CA"/>
<path d="M272.96 84.73H268.36L269.36 73.22H273.97L272.96 84.73Z" fill="#5C27CA"/>
<path d="M282.171 84.7301H277.561L279.181 66.3101H283.781L282.171 84.7301Z" fill="#5C27CA"/>
<path opacity="0.4" d="M282.171 84.7301H277.561L279.181 66.3101H283.781L282.171 84.7301Z" fill="black"/>
<path d="M286.77 83.88H246.27L247.8 66.31C247.9 65.23 246.2 65.23 246.1 66.31C245.574 72.45 245.037 78.59 244.49 84.73C244.493 84.9546 244.583 85.1693 244.742 85.3282C244.901 85.487 245.116 85.5774 245.34 85.58H286.77C286.996 85.58 287.212 85.4904 287.371 85.331C287.531 85.1716 287.62 84.9554 287.62 84.73C287.62 84.5046 287.531 84.2884 287.371 84.129C287.212 83.9696 286.996 83.88 286.77 83.88Z" fill="#5C27CA"/>
<path opacity="0.5" d="M286.77 83.88H246.27L247.8 66.31C247.9 65.23 246.2 65.23 246.1 66.31C245.574 72.45 245.037 78.59 244.49 84.73C244.493 84.9546 244.583 85.1693 244.742 85.3282C244.901 85.487 245.116 85.5774 245.34 85.58H286.77C286.996 85.58 287.212 85.4904 287.371 85.331C287.531 85.1716 287.62 84.9554 287.62 84.73C287.62 84.5046 287.531 84.2884 287.371 84.129C287.212 83.9696 286.996 83.88 286.77 83.88Z" fill="white"/>
<path d="M178.61 79.74L175.61 82.5C176.519 83.4862 177.626 84.2701 178.858 84.8008C180.089 85.3314 181.419 85.5969 182.76 85.58L183.1 81.68C182.258 81.6901 181.422 81.5225 180.649 81.1883C179.875 80.854 179.181 80.3605 178.61 79.74Z" fill="#5C27CA"/>
<path opacity="0.5" d="M178.61 79.74L175.61 82.5C176.519 83.4862 177.626 84.2701 178.858 84.8008C180.089 85.3314 181.419 85.5969 182.76 85.58L183.1 81.68C182.258 81.6901 181.422 81.5225 180.649 81.1883C179.875 80.854 179.181 80.3605 178.61 79.74Z" fill="black"/>
<path d="M190.27 75.0801C190.089 76.8669 189.259 78.5254 187.938 79.7417C186.617 80.9579 184.895 81.6476 183.1 81.6801L182.76 85.5801C185.618 85.5289 188.358 84.4322 190.462 82.4974C192.567 80.5626 193.889 77.9239 194.18 75.0801H190.27Z" fill="#5C27CA"/>
<path opacity="0.1" d="M190.27 75.0801C190.089 76.8669 189.259 78.5254 187.938 79.7417C186.617 80.9579 184.895 81.6476 183.1 81.6801L182.76 85.5801C185.618 85.5289 188.358 84.4322 190.462 82.4974C192.567 80.5626 193.889 77.9239 194.18 75.0801H190.27Z" fill="black"/>
<path d="M178.61 79.7401C178.046 79.1118 177.618 78.3731 177.355 77.5709C177.092 76.7687 176.998 75.9205 177.08 75.0801H173.18C173.044 76.418 173.191 77.7694 173.609 79.0474C174.028 80.3254 174.709 81.5015 175.61 82.5001L178.61 79.7401Z" fill="#5C27CA"/>
<path d="M184.26 68.4901C185.103 68.4765 185.939 68.6425 186.713 68.9771C187.487 69.3116 188.18 69.807 188.748 70.4304C189.315 71.0537 189.744 71.7908 190.005 72.5925C190.265 73.3942 190.352 74.2422 190.26 75.0801H194.17C194.315 73.7438 194.174 72.3919 193.756 71.1142C193.339 69.8366 192.654 68.6623 191.748 67.6693C190.842 66.6763 189.736 65.8874 188.501 65.3548C187.267 64.8222 185.934 64.5581 184.59 64.5801C181.732 64.6313 178.992 65.728 176.887 67.6628C174.783 69.5976 173.46 72.2364 173.17 75.0801H177.07C177.253 73.2918 178.087 71.6329 179.412 70.4183C180.737 69.2036 182.462 68.5175 184.26 68.4901Z" fill="#5C27CA"/>
<path opacity="0.2" d="M184.26 68.4901C185.103 68.4765 185.939 68.6425 186.713 68.9771C187.487 69.3116 188.18 69.807 188.748 70.4304C189.315 71.0537 189.744 71.7908 190.005 72.5925C190.265 73.3942 190.352 74.2422 190.26 75.0801H194.17C194.315 73.7438 194.174 72.3919 193.756 71.1142C193.339 69.8366 192.654 68.6623 191.748 67.6693C190.842 66.6763 189.736 65.8874 188.501 65.3548C187.267 64.8222 185.934 64.5581 184.59 64.5801C181.732 64.6313 178.992 65.728 176.887 67.6628C174.783 69.5976 173.46 72.2364 173.17 75.0801H177.07C177.253 73.2918 178.087 71.6329 179.412 70.4183C180.737 69.2036 182.462 68.5175 184.26 68.4901Z" fill="white"/>
<path opacity="0.6" d="M188.75 70.4201L191.75 67.6601C190.841 66.6739 189.734 65.89 188.502 65.3593C187.271 64.8287 185.941 64.5632 184.6 64.5801L184.26 68.4901C185.102 68.4787 185.937 68.6447 186.71 68.9772C187.484 69.3097 188.179 69.8014 188.75 70.4201Z" fill="white"/>
<path d="M207.84 79.74L204.84 82.5C205.751 83.486 206.859 84.2697 208.093 84.8002C209.326 85.3308 210.657 85.5964 212 85.58L212.34 81.68C211.495 81.6915 210.658 81.5246 209.883 81.1903C209.107 80.856 208.411 80.3618 207.84 79.74Z" fill="#5C27CA"/>
<path opacity="0.5" d="M207.84 79.74L204.84 82.5C205.751 83.486 206.859 84.2697 208.093 84.8002C209.326 85.3308 210.657 85.5964 212 85.58L212.34 81.68C211.495 81.6915 210.658 81.5246 209.883 81.1903C209.107 80.856 208.411 80.3618 207.84 79.74Z" fill="black"/>
<path d="M219.51 75.0801C219.327 76.866 218.497 78.5233 217.176 79.7392C215.855 80.9551 214.135 81.6454 212.34 81.6801L212 85.5801C214.856 85.5264 217.594 84.4287 219.696 82.4941C221.799 80.5596 223.12 77.9222 223.41 75.0801H219.51Z" fill="#5C27CA"/>
<path opacity="0.1" d="M219.51 75.0801C219.327 76.866 218.497 78.5233 217.176 79.7392C215.855 80.9551 214.135 81.6454 212.34 81.6801L212 85.5801C214.856 85.5264 217.594 84.4287 219.696 82.4941C221.799 80.5596 223.12 77.9222 223.41 75.0801H219.51Z" fill="black"/>
<path d="M207.84 79.7401C207.273 79.1141 206.844 78.3754 206.583 77.5724C206.321 76.7693 206.231 75.9201 206.32 75.0801H202.42C202.283 76.4173 202.428 77.7683 202.845 79.0462C203.262 80.3242 203.941 81.5007 204.84 82.5001L207.84 79.7401Z" fill="#5C27CA"/>
<path d="M213.49 68.49C214.331 68.486 215.162 68.6584 215.931 68.9961C216.701 69.3338 217.39 69.8294 217.956 70.4506C218.522 71.0718 218.951 71.8049 219.215 72.6024C219.479 73.3999 219.573 74.244 219.49 75.08H223.39C223.539 73.7431 223.4 72.3899 222.984 71.1108C222.567 69.8316 221.883 68.656 220.976 67.6623C220.07 66.6686 218.962 65.8797 217.726 65.3482C216.49 64.8167 215.155 64.5548 213.81 64.58C210.954 64.6337 208.216 65.7314 206.114 67.666C204.012 69.6005 202.691 72.2379 202.4 75.08H206.3C206.484 73.2917 207.317 71.6329 208.643 70.4182C209.968 69.2035 211.693 68.5174 213.49 68.49Z" fill="#5C27CA"/>
<path opacity="0.2" d="M213.49 68.49C214.331 68.486 215.162 68.6584 215.931 68.9961C216.701 69.3338 217.39 69.8294 217.956 70.4506C218.522 71.0718 218.951 71.8049 219.215 72.6024C219.479 73.3999 219.573 74.244 219.49 75.08H223.39C223.539 73.7431 223.4 72.3899 222.984 71.1108C222.567 69.8316 221.883 68.656 220.976 67.6623C220.07 66.6686 218.962 65.8797 217.726 65.3482C216.49 64.8167 215.155 64.5548 213.81 64.58C210.954 64.6337 208.216 65.7314 206.114 67.666C204.012 69.6005 202.691 72.2379 202.4 75.08H206.3C206.484 73.2917 207.317 71.6329 208.643 70.4182C209.968 69.2035 211.693 68.5174 213.49 68.49Z" fill="white"/>
<path opacity="0.6" d="M218 70.4201L221 67.6601C220.089 66.6741 218.98 65.8904 217.747 65.3598C216.514 64.8293 215.183 64.5636 213.84 64.5801L213.5 68.4901C214.344 68.4773 215.18 68.6426 215.956 68.9751C216.731 69.3077 217.428 69.8001 218 70.4201Z" fill="white"/>
<path d="M251.77 118.88H246.27L246.75 113.38H252.25L251.77 118.88ZM247.57 117.69H250.67L250.95 114.58H247.84L247.57 117.69Z" fill="#5C27CA"/>
<path d="M251 127.24H245.51L245.99 121.75H251.48L251 127.24ZM246.81 126.05H249.91L250.18 122.94H247.08L246.81 126.05Z" fill="#5C27CA"/>
<path d="M250.3 135.61H244.8L245.28 130.12H250.78L250.3 135.61ZM246.1 134.42H249.21L249.48 131.31H246.38L246.1 134.42Z" fill="#5C27CA"/>
<path d="M255.58 117.6C255.408 117.602 255.238 117.568 255.08 117.5C254.923 117.432 254.781 117.332 254.665 117.205C254.549 117.079 254.461 116.929 254.406 116.766C254.352 116.603 254.333 116.431 254.35 116.26C254.389 115.897 254.558 115.561 254.827 115.315C255.096 115.068 255.445 114.928 255.81 114.92H274.2C274.371 114.916 274.542 114.949 274.7 115.016C274.858 115.084 275 115.185 275.115 115.312C275.231 115.439 275.318 115.589 275.37 115.753C275.423 115.916 275.44 116.089 275.42 116.26C275.384 116.617 275.221 116.949 274.96 117.195C274.699 117.441 274.358 117.585 274 117.6H255.58Z" fill="#5C27CA"/>
<path opacity="0.7" d="M255.58 117.6C255.408 117.602 255.238 117.568 255.08 117.5C254.923 117.432 254.781 117.332 254.665 117.205C254.549 117.079 254.461 116.929 254.406 116.766C254.352 116.603 254.333 116.431 254.35 116.26C254.389 115.897 254.558 115.561 254.827 115.315C255.096 115.068 255.445 114.928 255.81 114.92H274.2C274.371 114.916 274.542 114.949 274.7 115.016C274.858 115.084 275 115.185 275.115 115.312C275.231 115.439 275.318 115.589 275.37 115.753C275.423 115.916 275.44 116.089 275.42 116.26C275.384 116.617 275.221 116.949 274.96 117.195C274.699 117.441 274.358 117.585 274 117.6H255.58Z" fill="white"/>
<path d="M254.12 134.21C253.948 134.213 253.777 134.178 253.619 134.11C253.461 134.041 253.319 133.939 253.204 133.812C253.088 133.684 253.002 133.533 252.949 133.369C252.897 133.205 252.88 133.031 252.9 132.86C252.939 132.497 253.108 132.161 253.377 131.915C253.646 131.668 253.995 131.528 254.36 131.52H269.77C269.941 131.518 270.111 131.552 270.268 131.62C270.425 131.688 270.566 131.789 270.681 131.915C270.797 132.042 270.884 132.192 270.937 132.355C270.99 132.518 271.008 132.69 270.99 132.86C270.953 133.225 270.785 133.563 270.516 133.812C270.247 134.061 269.896 134.202 269.53 134.21H254.12Z" fill="#5C27CA"/>
<path opacity="0.4" d="M254.12 134.21C253.948 134.213 253.777 134.178 253.619 134.11C253.461 134.041 253.319 133.939 253.204 133.812C253.088 133.684 253.002 133.533 252.949 133.369C252.897 133.205 252.88 133.031 252.9 132.86C252.939 132.497 253.108 132.161 253.377 131.915C253.646 131.668 253.995 131.528 254.36 131.52H269.77C269.941 131.518 270.111 131.552 270.268 131.62C270.425 131.688 270.566 131.789 270.681 131.915C270.797 132.042 270.884 132.192 270.937 132.355C270.99 132.518 271.008 132.69 270.99 132.86C270.953 133.225 270.785 133.563 270.516 133.812C270.247 134.061 269.896 134.202 269.53 134.21H254.12Z" fill="white"/>
<path d="M254.86 125.84C254.688 125.842 254.518 125.808 254.36 125.74C254.203 125.672 254.061 125.572 253.945 125.445C253.829 125.319 253.741 125.169 253.687 125.006C253.632 124.843 253.613 124.671 253.63 124.5C253.669 124.137 253.838 123.801 254.107 123.555C254.376 123.308 254.725 123.168 255.09 123.16H269.31C269.481 123.158 269.651 123.192 269.808 123.26C269.965 123.328 270.106 123.429 270.222 123.555C270.337 123.682 270.424 123.832 270.477 123.995C270.53 124.157 270.548 124.33 270.53 124.5C270.491 124.863 270.321 125.199 270.053 125.445C269.784 125.692 269.435 125.832 269.07 125.84H254.86Z" fill="#5C27CA"/>
<path opacity="0.2" d="M254.86 125.84C254.688 125.842 254.518 125.808 254.36 125.74C254.203 125.672 254.061 125.572 253.945 125.445C253.829 125.319 253.741 125.169 253.687 125.006C253.632 124.843 253.613 124.671 253.63 124.5C253.669 124.137 253.838 123.801 254.107 123.555C254.376 123.308 254.725 123.168 255.09 123.16H269.31C269.481 123.158 269.651 123.192 269.808 123.26C269.965 123.328 270.106 123.429 270.222 123.555C270.337 123.682 270.424 123.832 270.477 123.995C270.53 124.157 270.548 124.33 270.53 124.5C270.491 124.863 270.321 125.199 270.053 125.445C269.784 125.692 269.435 125.832 269.07 125.84H254.86Z" fill="white"/>
<path d="M209.3 126.84L205.14 121.16C205.072 121.048 204.98 120.954 204.87 120.883C204.76 120.812 204.636 120.766 204.506 120.75C204.376 120.734 204.245 120.747 204.121 120.788C203.997 120.83 203.884 120.899 203.79 120.99C202.32 122.61 200.86 124.23 199.39 125.84L195.92 120.15C195.853 120.038 195.761 119.942 195.652 119.87C195.543 119.798 195.418 119.752 195.289 119.734C195.159 119.717 195.027 119.729 194.902 119.77C194.778 119.811 194.664 119.879 194.57 119.97C193.05 121.37 191.57 122.82 190.01 124.17C189.54 123.92 189.09 123.63 188.64 123.36L186.12 121.87C185.922 121.762 185.691 121.734 185.473 121.792C185.256 121.85 185.068 121.989 184.95 122.18C183.47 124.33 181.95 126.48 180.5 128.64L177.18 122.18C177.062 121.986 176.873 121.845 176.653 121.787C176.433 121.73 176.199 121.759 176 121.87L173.88 123C173.091 123.386 172.324 123.813 171.58 124.28C170.985 123.878 170.368 123.511 169.73 123.18L167.5 121.85C167.303 121.736 167.068 121.705 166.847 121.764C166.627 121.823 166.439 121.968 166.325 122.165C166.211 122.363 166.18 122.597 166.239 122.818C166.298 123.038 166.443 123.226 166.64 123.34C167.87 124.07 170.07 126.1 171.52 126.1C172.97 126.1 174.71 124.71 176.09 123.81L179.65 130.72C179.728 130.846 179.837 130.95 179.967 131.023C180.096 131.095 180.242 131.133 180.39 131.133C180.538 131.133 180.684 131.095 180.814 131.023C180.943 130.95 181.052 130.846 181.13 130.72L185.94 123.72L189.68 125.94C189.842 126.019 190.023 126.049 190.202 126.024C190.38 125.999 190.547 125.921 190.68 125.8L194.94 121.88C196.107 123.807 197.28 125.737 198.46 127.67C198.528 127.782 198.621 127.877 198.73 127.948C198.84 128.019 198.964 128.064 199.094 128.08C199.224 128.097 199.356 128.083 199.48 128.042C199.604 128 199.717 127.931 199.81 127.84L204.28 122.91L207.77 127.67C208.47 128.59 210 127.73 209.3 126.84Z" fill="#5C27CA"/>
<path d="M207.91 133.89H166.91L168.47 116.13C168.56 115.03 166.84 115.03 166.75 116.13L165.12 134.75C165.123 134.977 165.214 135.194 165.375 135.355C165.536 135.516 165.753 135.607 165.98 135.61H207.88C208.108 135.614 208.329 135.527 208.493 135.369C208.657 135.21 208.751 134.993 208.755 134.765C208.759 134.537 208.672 134.317 208.514 134.152C208.355 133.988 208.138 133.894 207.91 133.89Z" fill="#5C27CA"/>
<path opacity="0.5" d="M207.91 133.89H166.91L168.47 116.13C168.56 115.03 166.84 115.03 166.75 116.13L165.12 134.75C165.123 134.977 165.214 135.194 165.375 135.355C165.536 135.516 165.753 135.607 165.98 135.61H207.88C208.108 135.614 208.329 135.527 208.493 135.369C208.657 135.21 208.751 134.993 208.755 134.765C208.759 134.537 208.672 134.317 208.514 134.152C208.355 133.988 208.138 133.894 207.91 133.89Z" fill="white"/>
<path d="M262.35 108.65H189.229L190.869 89.99H263.98L262.35 108.65Z" fill="#00B2A1"/>
<path opacity="0.9" d="M262.35 108.65H189.229L190.869 89.99H263.98L262.35 108.65Z" fill="white"/>
<path d="M263.639 110.07H187.689L189.569 88.5701H265.569L263.639 110.07ZM190.779 107.23H261.049L262.429 91.4201H192.159L190.779 107.23Z" fill="#00B2A1"/>
<path d="M199.31 96.608C199.931 96.608 200.469 96.7136 200.923 96.9248C201.377 97.136 201.723 97.44 201.96 97.8368C202.203 98.2336 202.325 98.704 202.325 99.248C202.325 99.4976 202.302 99.7376 202.257 99.968C202.136 100.646 201.886 101.235 201.509 101.734C201.131 102.234 200.651 102.618 200.069 102.886C199.486 103.149 198.84 103.28 198.129 103.28H195.95L197.131 96.608H199.31ZM198.283 102.445C199.057 102.445 199.691 102.224 200.184 101.782C200.683 101.341 201 100.736 201.134 99.968C201.173 99.744 201.192 99.536 201.192 99.344C201.192 98.7552 201.019 98.3008 200.673 97.9808C200.328 97.6544 199.822 97.4912 199.157 97.4912H198.072L197.198 102.445H198.283ZM205.032 96.608L203.851 103.28H202.757L203.937 96.608H205.032ZM205.518 99.9296C205.633 99.2768 205.886 98.6912 206.277 98.1728C206.673 97.6544 207.157 97.2512 207.726 96.9632C208.302 96.6688 208.901 96.5216 209.521 96.5216C210.232 96.5216 210.833 96.6976 211.326 97.0496C211.825 97.3952 212.142 97.888 212.277 98.528H210.961C210.84 98.1952 210.641 97.9456 210.366 97.7792C210.091 97.6064 209.752 97.52 209.349 97.52C208.907 97.52 208.494 97.6192 208.11 97.8176C207.733 98.016 207.413 98.2976 207.15 98.6624C206.894 99.0272 206.725 99.4496 206.641 99.9296C206.609 100.141 206.593 100.32 206.593 100.467C206.593 101.043 206.766 101.501 207.112 101.84C207.457 102.179 207.918 102.349 208.494 102.349C209.089 102.349 209.605 102.182 210.04 101.85C210.475 101.51 210.782 101.053 210.961 100.477H208.456L208.609 99.6224H212.286L212.133 100.477C211.973 100.995 211.704 101.472 211.326 101.907C210.949 102.342 210.497 102.691 209.973 102.954C209.454 103.21 208.904 103.338 208.321 103.338C207.771 103.338 207.278 103.222 206.843 102.992C206.408 102.762 206.069 102.438 205.825 102.022C205.582 101.606 205.461 101.126 205.461 100.582C205.461 100.378 205.48 100.16 205.518 99.9296ZM214.988 96.608L213.807 103.28H212.713L213.894 96.608H214.988ZM220.735 96.608L220.582 97.4624H218.806L217.778 103.28H216.684L217.711 97.4624H215.926L216.079 96.608H220.735ZM222.938 96.608L221.757 103.28H220.663L221.844 96.608H222.938ZM224.423 102.33H227.524L227.351 103.28H222.954L223.108 102.426L227.053 97.5584H223.962L224.135 96.608H228.532L228.378 97.4624L224.423 102.33ZM232.81 101.917H230.016L229.296 103.28H228.154L231.725 96.5984H232.992L234.202 103.28H233.05L232.81 101.917ZM232.666 101.062L232.118 97.9232L230.467 101.062H232.666ZM240.732 96.608L240.579 97.4624H238.803L237.775 103.28H236.681L237.708 97.4624H235.923L236.076 96.608H240.732ZM242.935 96.608L241.754 103.28H240.66L241.84 96.608H242.935ZM246.263 103.347C245.7 103.347 245.204 103.229 244.775 102.992C244.346 102.755 244.013 102.422 243.777 101.994C243.54 101.565 243.421 101.078 243.421 100.534C243.421 99.7728 243.591 99.088 243.93 98.48C244.276 97.8656 244.749 97.3856 245.351 97.04C245.959 96.6944 246.637 96.5216 247.386 96.5216C247.956 96.5216 248.455 96.64 248.884 96.8768C249.313 97.1136 249.645 97.4464 249.882 97.8752C250.119 98.2976 250.237 98.7808 250.237 99.3248C250.237 100.086 250.065 100.774 249.719 101.389C249.38 102.003 248.906 102.483 248.298 102.829C247.697 103.174 247.018 103.347 246.263 103.347ZM246.417 102.358C246.941 102.358 247.405 102.224 247.809 101.955C248.218 101.686 248.535 101.328 248.759 100.88C248.989 100.426 249.105 99.9328 249.105 99.4016C249.105 98.8192 248.938 98.3616 248.605 98.0288C248.279 97.6896 247.821 97.52 247.233 97.52C246.708 97.52 246.241 97.6544 245.831 97.9232C245.428 98.1856 245.114 98.5408 244.89 98.9888C244.666 99.4368 244.554 99.9296 244.554 100.467C244.554 101.05 244.717 101.51 245.044 101.85C245.377 102.189 245.834 102.358 246.417 102.358ZM256.201 103.28H255.106L252.697 98.2976L251.813 103.28H250.719L251.9 96.5984H252.994L255.413 101.571L256.287 96.5984H257.381L256.201 103.28Z" fill="#00B2A1"/>
<path d="M323.43 54.9999C323.13 54.0699 322.78 53.1299 322.43 52.2099C321.5 51.8599 320.56 51.5099 319.63 51.2099C320.56 50.9099 321.5 50.5599 322.43 50.2099C322.77 49.2799 323.12 48.3399 323.43 47.4099C323.74 48.3399 324.08 49.2799 324.43 50.2099C325.36 50.5499 326.29 50.8999 327.22 51.2099C326.29 51.5099 325.36 51.8599 324.43 52.2099C324.08 53.1399 323.74 54.0799 323.43 54.9999Z" fill="#00B2A1"/>
<path d="M312.29 43.9999C311.99 43.0699 311.64 42.1299 311.29 41.2099C310.37 40.8599 309.43 40.5099 308.5 40.2099C309.43 39.9099 310.37 39.5599 311.29 39.2099C311.64 38.2899 311.99 37.3499 312.29 36.4199C312.59 37.3499 312.94 38.2899 313.29 39.2099C314.21 39.5599 315.15 39.9099 316.08 40.2099C315.15 40.5099 314.21 40.8599 313.29 41.2099C312.94 42.1499 312.59 43.0899 312.29 43.9999Z" fill="#00B2A1"/>
<g opacity="0.54">
<path opacity="0.54" d="M320 41.34C319.38 39.46 318.68 37.56 318 35.69C316.12 34.99 314.23 34.28 312.35 33.69C314.23 33.08 316.12 32.37 318 31.69C318.7 29.81 319.4 27.92 320 26.04C320.61 27.92 321.32 29.81 322 31.69C323.88 32.38 325.77 33.09 327.65 33.69C325.77 34.3 323.88 35.01 322 35.69C321.28 37.56 320.57 39.46 320 41.34Z" fill="#00B2A1"/>
</g>
</g>
<defs>
<clipPath id="clip0_861_5313">
<rect width="445" height="170" fill="white" transform="translate(0 15)"/>
</clipPath>
</defs>
</svg>
