<svg width="445" height="200" viewBox="0 0 445 200" fill="none" xmlns="http://www.w3.org/2000/svg">
<path d="M156.357 53.3341L160.05 50.5601L157.26 43.6412L152.576 44.2435C151.992 43.5589 151.353 42.9227 150.666 42.3414L151.34 37.5861L144.46 34.6854L141.488 38.5451C140.642 38.4777 139.791 38.4777 138.944 38.5451L136.004 34.6299L129.093 37.4434L129.719 42.3018C129.078 42.8395 128.482 43.4279 127.936 44.0612L123.054 43.3717L120.153 50.251L123.973 53.1914C123.886 54.0604 123.87 54.9352 123.925 55.8068L120.05 58.6996L122.863 65.6186L127.5 65.0162C128.092 65.7381 128.744 66.4089 129.449 67.0214L128.784 71.6499L135.663 74.5506L138.437 70.9524C139.419 71.0555 140.408 71.0715 141.393 71L144.12 74.6299L151.039 71.8163L150.46 67.3622C151.232 66.7266 151.943 66.0209 152.584 65.254L157.07 65.896L159.971 59.0166L156.341 56.2189C156.433 55.2598 156.438 54.2942 156.357 53.3341ZM144.286 64.9608C142.27 65.7806 140.057 65.9843 137.926 65.5461C135.794 65.1079 133.841 64.0474 132.312 62.4988C130.783 60.9501 129.748 58.983 129.338 56.8461C128.928 54.7092 129.16 52.4986 130.006 50.4938C130.852 48.489 132.274 46.7802 134.091 45.5835C135.908 44.3868 138.04 43.7558 140.216 43.7706C142.391 43.7853 144.514 44.445 146.315 45.6663C148.116 46.8875 149.514 48.6154 150.333 50.6315C151.428 53.3338 151.407 56.3603 150.273 59.0468C149.139 61.7332 146.986 63.8602 144.286 64.9608Z" fill="#002C77"/>
<path d="M137.953 49.3873C136.887 49.8224 135.974 50.564 135.33 51.5182C134.686 52.4725 134.339 53.5964 134.334 54.7478C134.329 55.8992 134.666 57.0261 135.302 57.986C135.937 58.9459 136.844 59.6955 137.906 60.1399C138.968 60.5843 140.138 60.7036 141.268 60.4825C142.398 60.2615 143.437 59.7101 144.253 58.8982C145.07 58.0863 145.627 57.0504 145.854 55.9216C146.081 54.7929 145.969 53.6221 145.53 52.5575C144.942 51.1355 143.815 50.0039 142.395 49.4099C140.976 48.8159 139.379 48.8078 137.953 49.3873ZM141.211 57.3921C140.691 57.5977 140.122 57.6447 139.575 57.5272C139.029 57.4097 138.529 57.1329 138.14 56.7319C137.751 56.3308 137.489 55.8234 137.388 55.2737C137.286 54.724 137.35 54.1565 137.571 53.6431C137.792 53.1296 138.16 52.693 138.628 52.3884C139.097 52.0839 139.646 51.925 140.205 51.9318C140.764 51.9386 141.308 52.1108 141.769 52.4267C142.23 52.7426 142.587 53.188 142.796 53.7067C142.935 54.0527 143.004 54.4227 142.999 54.7955C142.995 55.1682 142.917 55.5364 142.769 55.8789C142.622 56.2214 142.408 56.5314 142.141 56.791C141.873 57.0507 141.557 57.255 141.211 57.3921Z" fill="#002C77"/>
<path d="M352.67 170.13C352.25 170.131 351.834 170.056 351.44 169.91C350.58 169.579 349.887 168.92 349.512 168.078C349.137 167.237 349.111 166.281 349.44 165.42L382.23 78.8999C382.476 78.2489 382.911 77.6866 383.48 77.2855C384.049 76.8844 384.725 76.663 385.42 76.6499C386.111 76.6591 386.785 76.8641 387.364 77.2412C387.943 77.6182 388.403 78.1518 388.69 78.7799L425.32 165.29C425.53 165.716 425.65 166.181 425.674 166.656C425.697 167.13 425.624 167.605 425.458 168.05C425.291 168.495 425.036 168.901 424.707 169.244C424.378 169.587 423.983 169.86 423.545 170.044C423.108 170.229 422.637 170.323 422.162 170.319C421.686 170.315 421.217 170.215 420.782 170.023C420.347 169.832 419.956 169.554 419.632 169.206C419.309 168.858 419.06 168.448 418.9 168L385.66 89.4899L355.93 167.88C355.68 168.542 355.234 169.112 354.652 169.514C354.069 169.916 353.378 170.131 352.67 170.13Z" fill="#002C77"/>
<path d="M434.42 78.3399C434.42 88.0193 431.55 97.4814 426.172 105.53C420.795 113.578 413.151 119.85 404.209 123.555C395.266 127.259 385.426 128.228 375.932 126.34C366.439 124.451 357.719 119.79 350.874 112.946C344.03 106.101 339.369 97.3811 337.48 87.8876C335.592 78.3942 336.561 68.554 340.265 59.6114C343.97 50.6688 350.242 43.0254 358.29 37.6478C366.339 32.2702 375.801 29.3999 385.48 29.3999C391.907 29.3999 398.271 30.6658 404.209 33.1252C410.146 35.5847 415.541 39.1896 420.086 43.7341C424.63 48.2786 428.235 53.6737 430.695 59.6114C433.154 65.549 434.42 71.913 434.42 78.3399Z" fill="white"/>
<path d="M423.3 40.5301C414.544 31.7923 403.029 26.3606 390.718 25.1603C378.406 23.9601 366.06 27.0655 355.781 33.9476C345.502 40.8297 337.928 51.0627 334.348 62.9031C330.768 74.7436 331.404 87.459 336.148 98.8831C340.891 110.307 349.449 119.733 360.363 125.555C371.277 131.377 383.872 133.235 396.002 130.812C408.133 128.39 419.048 121.836 426.888 112.268C434.728 102.7 439.008 90.7099 439 78.3401C439.001 71.3145 437.614 64.3579 434.92 57.8695C432.226 51.381 428.277 45.4885 423.3 40.5301ZM416.88 109.74C409.615 117.01 400.054 121.535 389.826 122.546C379.599 123.556 369.337 120.988 360.79 115.281C352.244 109.573 345.94 101.078 342.955 91.2441C339.97 81.4099 340.487 70.8447 344.418 61.3489C348.349 51.8532 355.452 44.0145 364.515 39.1685C373.578 34.3226 384.041 32.7693 394.121 34.7734C404.202 36.7775 413.275 42.2149 419.795 50.1591C426.316 58.1033 429.879 68.0627 429.88 78.3401C429.889 84.1725 428.746 89.9493 426.515 95.3382C424.284 100.727 421.009 105.622 416.88 109.74Z" fill="#8A59D7"/>
<path d="M413.76 78.3401C413.762 83.9337 412.105 89.4024 408.999 94.0543C405.893 98.7063 401.477 102.333 396.309 104.475C391.142 106.616 385.456 107.178 379.969 106.088C374.483 104.998 369.443 102.305 365.487 98.3506C361.531 94.396 358.836 89.357 357.744 83.8709C356.652 78.3848 357.212 72.6982 359.352 67.5301C361.492 62.362 365.117 57.9447 369.768 54.8368C374.418 51.7289 379.887 50.0701 385.48 50.0701C389.194 50.0688 392.871 50.799 396.302 52.2191C399.733 53.6392 402.85 55.7214 405.477 58.3466C408.103 60.9719 410.186 64.0888 411.607 67.5193C413.029 70.9498 413.76 74.6268 413.76 78.3401Z" fill="white"/>
<path d="M408.69 55.14C403.322 49.7725 396.26 46.4323 388.705 45.6883C381.151 44.9443 373.573 46.8427 367.261 51.06C360.95 55.2772 356.296 61.5524 354.092 68.8164C351.889 76.0803 352.272 83.8835 355.177 90.8964C358.082 97.9094 363.329 103.698 370.023 107.276C376.718 110.855 384.446 112.001 391.891 110.52C399.336 109.039 406.037 105.022 410.852 99.1545C415.668 93.2867 418.3 85.9307 418.3 78.34C418.302 74.031 417.454 69.7639 415.805 65.7829C414.156 61.802 411.738 58.1853 408.69 55.14ZM402.27 95.14C398.376 99.0122 393.26 101.415 387.794 101.938C382.327 102.462 376.849 101.075 372.29 98.0121C367.732 94.9497 364.377 90.4017 362.795 85.1429C361.214 79.8841 361.505 74.2398 363.618 69.1712C365.731 64.1027 369.536 59.9235 374.385 57.3454C379.233 54.7674 384.826 53.95 390.209 55.0324C395.593 56.1148 400.435 59.0302 403.91 63.2819C407.386 67.5335 409.28 72.8586 409.27 78.35C409.265 81.47 408.644 84.5584 407.443 87.4379C406.242 90.3175 404.484 92.9315 402.27 95.13V95.14Z" fill="#8A59D7"/>
<path d="M395.21 78.3401C395.212 80.2649 394.643 82.1471 393.575 83.7485C392.507 85.3499 390.988 86.5986 389.21 87.3366C387.433 88.0746 385.476 88.2687 383.588 87.8944C381.7 87.5201 379.965 86.5942 378.603 85.2338C377.242 83.8734 376.314 82.1397 375.938 80.252C375.561 78.3643 375.754 76.4074 376.49 74.6289C377.226 72.8504 378.473 71.3302 380.073 70.2606C381.674 69.191 383.555 68.6201 385.48 68.6201C388.059 68.6201 390.532 69.6439 392.357 71.4664C394.181 73.289 395.207 75.7613 395.21 78.3401Z" fill="white"/>
<path d="M395.57 68.26C393.238 65.9229 390.166 64.4671 386.881 64.1407C383.595 63.8143 380.297 64.6376 377.55 66.4702C374.804 68.3028 372.777 71.0313 371.817 74.1906C370.857 77.35 371.022 80.7446 372.284 83.7958C373.546 86.8471 375.828 89.3662 378.739 90.9237C381.651 92.4812 385.013 92.9807 388.251 92.3372C391.49 91.6936 394.405 89.9468 396.5 87.3944C398.595 84.842 399.74 81.6421 399.74 78.34C399.742 76.4681 399.375 74.6143 398.659 72.8846C397.944 71.1549 396.894 69.5833 395.57 68.26ZM389.15 82C388.302 82.8465 387.187 83.373 385.995 83.4897C384.803 83.6065 383.607 83.3063 382.611 82.6403C381.615 81.9744 380.881 80.9838 380.533 79.8372C380.185 78.6907 380.246 77.4591 380.704 76.3523C381.163 75.2454 381.991 74.3316 383.047 73.7666C384.104 73.2016 385.323 73.0203 386.499 73.2535C387.674 73.4867 388.732 74.12 389.492 75.0456C390.253 75.9713 390.669 77.1319 390.67 78.33C390.667 79.7058 390.121 81.0248 389.15 82Z" fill="#8A59D7"/>
<path d="M376.396 75.0808L378.329 72.7603L326.247 29.3827L324.315 31.7033L376.396 75.0808Z" fill="#6680AD"/>
<path d="M318.46 33.3499L324.54 29.6699L339.36 41.9999C338.035 43.7117 336.21 44.9685 334.139 45.5957C332.067 46.2229 329.852 46.1894 327.8 45.4999L320.62 42.9999C319.531 42.6245 318.558 41.9743 317.794 41.1124C317.03 40.2505 316.502 39.2059 316.26 38.0799C316.099 37.1611 316.223 36.2151 316.617 35.3693C317.01 34.5235 317.653 33.8187 318.46 33.3499Z" fill="#335692"/>
<path d="M327.05 23.0001L324.54 29.6401L339.36 42.0001C340.8 40.3855 341.702 38.3627 341.94 36.2123C342.178 34.062 341.742 31.8908 340.69 30.0001L337 23.4001C336.433 22.3971 335.617 21.5573 334.631 20.9617C333.645 20.3661 332.522 20.0349 331.37 20.0001C330.429 19.9943 329.508 20.2794 328.735 20.8163C327.962 21.3533 327.373 22.116 327.05 23.0001Z" fill="#6680AD"/>
<path d="M377.27 73.8399L378.18 72.6499L385.48 80.1399L376.35 75.0299L377.27 73.8399Z" fill="#6680AD"/>
<path d="M368.608 69.8914L372.096 65.7036L353.086 49.8706L349.598 54.0584L368.608 69.8914Z" fill="#335692"/>
<path opacity="0.5" d="M445 172.7C445 176.7 345.38 180 222.5 180C99.62 180 0 176.73 0 172.7C0 168.67 99.62 165.39 222.5 165.39C345.38 165.39 445 168.66 445 172.7Z" fill="#002C77"/>
<path d="M440.81 51.7099C440.51 50.7799 440.16 49.8399 439.81 48.9199C438.89 48.5699 437.95 48.2199 437.02 47.9199C437.95 47.6199 438.89 47.2699 439.81 46.9199C440.16 45.9999 440.51 45.0599 440.81 44.1299C441.11 45.0599 441.46 45.9999 441.81 46.9199C442.73 47.2699 443.67 47.6199 444.6 47.9199C443.67 48.2199 442.73 48.5699 441.81 48.9199C441.46 49.8399 441.11 50.7799 440.81 51.7099Z" fill="white"/>
<path d="M156.88 99.46H133.69V170.4H156.88V99.46Z" fill="#99E0D9"/>
<g style="mix-blend-mode:multiply">
<g style="mix-blend-mode:multiply">
<path d="M156.88 99.46H150.06V170.4H156.88V99.46Z" fill="#66D1C7"/>
</g>
</g>
<path d="M128.69 88.8201H105.5V170.4H128.69V88.8201Z" fill="#99E0D9"/>
<g style="mix-blend-mode:multiply">
<g style="mix-blend-mode:multiply">
<path d="M128.69 88.71H121.87V170.4H128.69V88.71Z" fill="#66D1C7"/>
</g>
</g>
<path d="M58.3794 160.64H51.6994L48.6394 147.28H50.9994V142.65H43.1594L41.8194 117.08H47.0794V112.45H41.9994C44.2458 110.885 45.9343 108.644 46.8192 106.054C47.704 103.463 47.739 100.657 46.919 98.0455C46.099 95.4335 44.4668 93.1514 42.2601 91.5312C40.0533 89.911 37.387 89.0374 34.6494 89.0374C31.9117 89.0374 29.2455 89.911 27.0387 91.5312C24.8319 93.1514 23.1998 95.4335 22.3798 98.0455C21.5598 100.657 21.5948 103.463 22.4796 106.054C23.3644 108.644 25.0529 110.885 27.2994 112.45H22.1394V117.08H27.3894L26.0594 142.65H18.2094V147.28H20.5794L17.5194 160.64H10.8294L8.35938 170H60.8494L58.3794 160.64Z" fill="#002C77"/>
<path d="M83.7901 162.77H38.3301L43.4801 144.26H78.6401L83.7901 162.77Z" fill="#8095BB"/>
<path d="M76.3105 58.73L74.7905 54.29H47.2605L45.7305 58.73L50.6405 82.29H71.4805L76.3905 58.73H76.3105Z" fill="#8095BB"/>
<path d="M73.34 148.53H48.79L51.63 85.99H70.49L73.34 148.53Z" fill="#8095BB"/>
<path d="M58.0401 54.5901H64.0801V37.3801H58.0401V54.5901Z" fill="#6680AD"/>
<path d="M52.4502 42.97V49.01H69.6602V42.97H52.4502Z" fill="#6680AD"/>
<path d="M75.3198 89.79H46.7998V94.69H75.3198V89.79Z" fill="#6680AD"/>
<path d="M77.1702 81.01H44.9502V85.91H77.1702V81.01Z" fill="#6680AD"/>
<path d="M80.8498 141.01H41.2598V145.91H80.8498V141.01Z" fill="#6680AD"/>
<path d="M90.6507 169.91H31.4707L34.2607 160.04H87.8707L90.6507 169.91Z" fill="#6680AD"/>
<g style="mix-blend-mode:multiply" opacity="0.4">
<g style="mix-blend-mode:multiply" opacity="0.4">
<path d="M77.1705 81.0099H71.7505L76.3905 58.7299H76.3105L74.7905 54.2899H64.0805V49.0099H69.6605V42.9699H64.0805V37.3799H61.0605V42.9699V49.0099V54.2899V54.5899V81.0099V82.2899V85.9099H77.1705V81.0099Z" fill="#335692"/>
</g>
<g style="mix-blend-mode:multiply" opacity="0.4">
<path d="M87.8705 160.04H83.0305L79.1005 145.91H80.8605V141.01H72.9905L70.8905 94.69H75.3205V89.79H70.6605L70.4905 85.99H61.0605V89.79V94.69V141.01V144.26V145.91V148.53V160.04V162.77V169.91H90.6505L87.8705 160.04Z" fill="#335692"/>
</g>
</g>
<path d="M100.49 128.86H77.2998V170.4H100.49V128.86Z" fill="#99E0D9"/>
<g style="mix-blend-mode:multiply">
<g style="mix-blend-mode:multiply">
<path d="M100.49 128.86H93.6699V170.4H100.49V128.86Z" fill="#66D1C7"/>
</g>
</g>
<path d="M402.47 73.2499C402.16 72.3199 401.82 71.3899 401.47 70.4599C400.54 70.1199 399.61 69.7699 398.68 69.4599C399.61 69.1599 400.54 68.8099 401.47 68.4599C401.82 67.5299 402.16 66.5899 402.47 65.6599C402.77 66.5899 403.12 67.5299 403.47 68.4599C404.39 68.7999 405.33 69.1499 406.26 69.4599C405.33 69.7699 404.39 70.1199 403.47 70.4599C403.12 71.3899 402.77 72.3199 402.47 73.2499Z" fill="white"/>
<path d="M429.67 40.7199C429.36 39.7899 429.01 38.8499 428.67 37.9199C427.74 37.5799 426.8 37.2299 425.88 36.9199C426.8 36.6199 427.74 36.2699 428.67 35.9199C429.01 34.9999 429.36 34.0599 429.67 33.1299C429.97 34.0599 430.32 34.9999 430.67 35.9199C431.6 36.2699 432.54 36.6199 433.47 36.9199C432.54 37.2199 431.6 37.5699 430.67 37.9199C430.32 38.8499 430 39.7899 429.67 40.7199Z" fill="white"/>
<g opacity="0.54">
<path opacity="0.54" d="M437.33 38C436.72 36.12 436.01 34.2199 435.33 32.3499C433.45 31.6499 431.56 30.94 429.68 30.35C431.56 29.74 433.45 29.03 435.33 28.35C436.02 26.47 436.73 24.57 437.33 22.7C437.95 24.57 438.65 26.47 439.33 28.35C441.21 29.04 443.1 29.75 444.98 30.35C443.1 30.96 441.21 31.6699 439.33 32.3499C438.65 34.2599 438 36.16 437.33 38Z" fill="white"/>
</g>
<g style="mix-blend-mode:multiply" opacity="0.63">
<path d="M163.471 166.6H354.091V168.46C354.091 170.126 353.429 171.723 352.251 172.901C351.074 174.078 349.476 174.74 347.811 174.74H169.751C168.085 174.74 166.488 174.078 165.31 172.901C164.132 171.723 163.471 170.126 163.471 168.46V166.6Z" fill="#A3AEAF"/>
</g>
<path d="M337.15 159.76H180.41V64.38C180.413 62.5481 181.142 60.7921 182.437 59.4968C183.732 58.2015 185.488 57.4726 187.32 57.47H330.24C332.073 57.47 333.83 58.198 335.126 59.4939C336.422 60.7897 337.15 62.5473 337.15 64.38V159.76Z" fill="white"/>
<path d="M330.08 69.9299H187.48V153.16H330.08V69.9299Z" fill="#E8EFEF"/>
<g style="mix-blend-mode:screen" opacity="0.39">
<g style="mix-blend-mode:screen" opacity="0.39">
<path d="M239.97 57.47L193.84 158.78H219.32L265.46 57.47H239.97Z" fill="#F1F2F2"/>
</g>
<g style="mix-blend-mode:screen" opacity="0.39">
<path d="M273.46 57.47L227.32 158.78H239.14L285.27 57.47H273.46Z" fill="#F1F2F2"/>
</g>
</g>
<path d="M258.78 65.7001C260.398 65.7001 261.71 64.3883 261.71 62.7701C261.71 61.1519 260.398 59.8401 258.78 59.8401C257.161 59.8401 255.85 61.1519 255.85 62.7701C255.85 64.3883 257.161 65.7001 258.78 65.7001Z" fill="#1A2144"/>
<path d="M199 75.1399C199.001 75.5834 198.872 76.0174 198.627 76.3871C198.382 76.7568 198.033 77.0454 197.624 77.2165C197.215 77.3876 196.764 77.4334 196.329 77.3481C195.893 77.2628 195.493 77.0502 195.179 76.7374C194.865 76.4245 194.651 76.0254 194.563 75.5906C194.476 75.1558 194.52 74.7049 194.689 74.295C194.858 73.8851 195.145 73.5347 195.514 73.2881C195.883 73.0415 196.316 72.9099 196.76 72.9099C197.352 72.9099 197.92 73.1445 198.34 73.5624C198.76 73.9804 198.997 74.5476 199 75.1399Z" fill="#00B2A1"/>
<path d="M207.33 75.1399C207.332 75.5838 207.202 76.0183 206.956 76.3882C206.711 76.7581 206.361 77.0467 205.951 77.2175C205.542 77.3883 205.091 77.4335 204.655 77.3474C204.22 77.2612 203.82 77.0477 203.506 76.7338C203.192 76.42 202.978 76.0199 202.892 75.5845C202.806 75.149 202.851 74.6978 203.022 74.2881C203.193 73.8784 203.481 73.5286 203.851 73.2833C204.221 73.0379 204.656 72.908 205.1 72.9099C205.691 72.9099 206.258 73.1449 206.676 73.5631C207.095 73.9813 207.33 74.5485 207.33 75.1399Z" fill="#8A59D7"/>
<path d="M215.681 75.1399C215.681 75.581 215.55 76.0121 215.305 76.3788C215.06 76.7456 214.712 77.0314 214.304 77.2002C213.897 77.3689 213.448 77.4131 213.016 77.3271C212.583 77.241 212.186 77.0286 211.874 76.7168C211.562 76.4049 211.35 76.0075 211.264 75.575C211.178 75.1424 211.222 74.694 211.39 74.2865C211.559 73.879 211.845 73.5308 212.212 73.2857C212.578 73.0407 213.01 72.9099 213.451 72.9099C214.042 72.9099 214.609 73.1449 215.028 73.5631C215.446 73.9813 215.681 74.5485 215.681 75.1399Z" fill="#002C77"/>
<path d="M163.471 159H354.091V165.56C354.091 166.984 353.525 168.35 352.518 169.357C351.511 170.364 350.145 170.93 348.721 170.93H168.841C167.416 170.93 166.051 170.364 165.044 169.357C164.036 168.35 163.471 166.984 163.471 165.56V159Z" fill="#CEDBDD"/>
<path opacity="0.63" d="M354.091 159.03H163.471V162.59H354.091V159.03Z" fill="white"/>
<path d="M317.579 143.31C317.319 142.5 317.009 141.68 316.709 140.88C315.909 140.58 315.089 140.27 314.279 140.01C315.089 139.74 315.909 139.44 316.709 139.14C317.009 138.33 317.319 137.51 317.579 136.71C317.849 137.51 318.149 138.33 318.449 139.14C319.259 139.44 320.079 139.74 320.879 140.01C320.079 140.27 319.259 140.58 318.449 140.88C318.149 141.68 317.849 142.5 317.579 143.31Z" fill="white"/>
<path d="M326.07 79.71H191.31V149.54H326.07V79.71Z" fill="#DFEAEA"/>
<path d="M311.28 87.4099H253.67V140.61H311.28V87.4099Z" fill="white"/>
<path d="M246.761 87.4099H205.141V140.61H246.761V87.4099Z" fill="white"/>
<path d="M291.11 93.0701H260.42V95.1901H291.11V93.0701Z" fill="#DDDDDD"/>
<path d="M291.11 97.8301H260.42V99.9501H291.11V97.8301Z" fill="#DDDDDD"/>
<path d="M291.11 102.59H260.42V104.71H291.11V102.59Z" fill="#DDDDDD"/>
<path d="M291.11 107.35H260.42V109.47H291.11V107.35Z" fill="#DDDDDD"/>
<path d="M291.11 112.11H260.42V114.23H291.11V112.11Z" fill="#DDDDDD"/>
<path d="M291.11 116.87H260.42V118.99H291.11V116.87Z" fill="#BCBEC0"/>
<path d="M291.11 121.63H260.42V123.75H291.11V121.63Z" fill="#BCBEC0"/>
<path d="M291.11 126.39H260.42V128.51H291.11V126.39Z" fill="#BCBEC0"/>
<path d="M217.63 129.61H211.88V134.35H217.63V129.61Z" fill="#4B84E4"/>
<path d="M225.59 126.73H219.84V134.35H225.59V126.73Z" fill="#4B84E4"/>
<path d="M233.55 124.88H227.8V134.35H233.55V124.88Z" fill="#4B84E4"/>
<path d="M241.51 119.53H235.76V134.35H241.51V119.53Z" fill="#4B84E4"/>
<path d="M241.51 105.85H233.57V108.86H241.51V105.85Z" fill="#DDDDDD"/>
<path d="M241.51 101.39H233.57V104.4H241.51V101.39Z" fill="#DDDDDD"/>
<path d="M299.82 97.49L296.65 93.96L298.05 92.7L299.75 94.59L302.53 91.2L303.99 92.39L299.82 97.49Z" fill="#4B84E4"/>
<path d="M299.82 106.8L296.65 103.27L298.05 102L299.75 103.9L302.53 100.5L303.99 101.7L299.82 106.8Z" fill="#4B84E4"/>
<path d="M299.82 116.11L296.65 112.57L298.05 111.31L299.75 113.2L302.53 109.81L303.99 111L299.82 116.11Z" fill="#4B84E4"/>
<g style="mix-blend-mode:multiply">
<path d="M224.57 115.85C224.85 115.56 225.12 115.26 225.37 114.96L225.61 114.66C225.87 114.34 226.11 114.01 226.34 113.66C226.409 113.567 226.472 113.47 226.53 113.37C226.76 113.02 226.98 112.65 227.19 112.28L227.33 112.02C227.53 111.627 227.72 111.227 227.9 110.82L227.99 110.59C228.16 110.16 228.32 109.72 228.46 109.28C228.464 109.22 228.464 109.16 228.46 109.1C228.606 108.63 228.726 108.153 228.82 107.67C228.825 107.63 228.825 107.59 228.82 107.55C228.922 107.041 228.999 106.527 229.05 106.01C229.045 105.99 229.045 105.97 229.05 105.95C229.1 105.41 229.12 104.86 229.12 104.31C229.104 100.496 227.77 96.8046 225.344 93.8613C222.918 90.9179 219.549 88.9034 215.808 88.159C212.068 87.4145 208.184 87.9858 204.816 89.7761C201.449 91.5664 198.803 94.4657 197.328 97.983C195.852 101.5 195.638 105.419 196.721 109.077C197.803 112.734 200.117 115.904 203.27 118.052C206.422 120.199 210.22 121.19 214.019 120.858C217.819 120.526 221.387 118.891 224.12 116.23L224.23 116.12L224.57 115.85Z" fill="#DFEAEA"/>
</g>
<path d="M242.57 134.35H210.35V136.5H242.57V134.35Z" fill="#DFEAEA"/>
<path d="M229.2 101.31C229.216 104.574 228.263 107.769 226.463 110.491C224.663 113.214 222.095 115.341 219.086 116.604C216.076 117.867 212.76 118.209 209.556 117.588C206.352 116.966 203.404 115.407 201.086 113.11C198.768 110.813 197.183 107.879 196.532 104.681C195.881 101.483 196.193 98.1636 197.429 95.1428C198.664 92.1219 200.768 89.5354 203.474 87.7104C206.18 85.8854 209.366 84.9039 212.63 84.89C217.004 84.8714 221.207 86.5906 224.314 89.6697C227.421 92.7488 229.179 96.9357 229.2 101.31Z" fill="#FFCA4C"/>
<path d="M196.199 101.47C196.223 105.845 197.983 110.032 201.092 113.111C204.2 116.19 208.404 117.909 212.779 117.89L212.629 84.8899C210.462 84.8991 208.317 85.3353 206.318 86.1736C204.319 87.0119 202.505 88.2359 200.979 89.7756C199.453 91.3154 198.246 93.1406 197.426 95.1472C196.606 97.1537 196.189 99.3022 196.199 101.47Z" fill="#4B84E4"/>
<path d="M212.63 84.89L212.7 101.39L229.2 101.31C229.179 96.9357 227.421 92.7488 224.314 89.6697C221.207 86.5906 217.004 84.8714 212.63 84.89Z" fill="#66D1C7"/>
<path d="M229.2 101.31C229.215 103.533 228.779 105.736 227.92 107.786C227.061 109.836 225.795 111.692 224.2 113.24L212.73 101.87V101.39L229.2 101.31Z" fill="#99E0D9"/>
</svg>
