<svg width="160" height="160" viewBox="0 0 160 160" fill="none" xmlns="http://www.w3.org/2000/svg">
<path d="M97.5676 70.3379C96.8429 70.3379 96.25 69.745 96.25 69.0203C96.25 68.2957 96.8429 67.7028 97.5676 67.7028H108.547C109.272 67.7028 109.865 68.2957 109.865 69.0203C109.865 69.745 109.272 70.3379 108.547 70.3379H97.5676Z" fill="url(#paint0_linear_61_1750)"/>
<path d="M29.4932 145C21.5132 144.991 15.0088 138.487 15 130.507V60.2365C15 52.2433 21.5 45.7433 29.4932 45.7433C37.4865 45.7433 43.9865 52.2433 43.9865 60.2365V67.7027H51.4527C52.1774 67.7027 52.7703 68.2957 52.7703 69.0203C52.7703 69.745 52.1774 70.3379 51.4527 70.3379H43.9865V130.507C43.9865 131.231 43.3936 131.824 42.6689 131.824C41.9443 131.824 41.3514 131.231 41.3514 130.507C41.3514 123.967 36.0328 118.649 29.4932 118.649C22.9537 118.649 17.6351 123.967 17.6351 130.507C17.6351 137.046 22.9537 142.365 29.4932 142.365H142.365V69.0203C142.365 68.2957 142.958 67.7027 143.682 67.7027C144.407 67.7027 145 68.2957 145 69.0203V143.682C145 144.407 144.407 145 143.682 145H29.4932ZM29.4932 48.3784C22.9537 48.3784 17.6351 53.697 17.6351 60.2365V121.903L19.1416 120.362C19.2206 120.282 19.2953 120.203 19.3743 120.124C22.0973 117.467 25.6899 116 29.4889 116C33.4196 116 37.0956 117.546 39.8405 120.357L41.347 121.899V60.2365C41.3514 53.697 36.0328 48.3784 29.4932 48.3784Z" fill="url(#paint1_linear_61_1750)"/>
<path d="M126.115 116.457C125.57 116.457 125.092 116.132 124.89 115.627L116.106 93.6676C116.058 93.5446 116.031 93.3997 116.031 93.2504L116.022 93.101L116.014 93.0703V25.1014C116.014 19.5324 120.546 15 126.115 15C131.684 15 136.216 19.5324 136.216 25.1014V47.0608C136.216 47.7855 135.623 48.3784 134.899 48.3784C134.174 48.3784 133.581 47.7855 133.581 47.0608V39.5946H127.433V91.8581H133.581V55.8446C133.581 55.1199 134.174 54.527 134.899 54.527C135.623 54.527 136.216 55.1199 136.216 55.8446V93.0527L136.208 93.0791L136.199 93.2635C136.199 93.3997 136.168 93.549 136.115 93.6852L127.336 115.627C127.204 115.965 126.932 116.233 126.598 116.365C126.444 116.426 126.282 116.457 126.115 116.457ZM126.115 111.591L129.44 103.277H122.79L126.115 111.591ZM121.736 100.642H130.494L132.953 94.4933H119.277L121.736 100.642ZM118.649 91.8581H124.797V39.5946H118.649V91.8581ZM118.649 36.9595H133.581V30.8108H118.649V36.9595ZM126.115 17.6351C122 17.6351 118.649 20.9861 118.649 25.1014V28.1757H133.581V25.1014C133.581 20.9861 130.23 17.6351 126.115 17.6351Z" fill="url(#paint2_linear_61_1750)"/>
<path d="M62.2479 109.865C57.6628 109.865 53.6881 106.755 52.5902 102.302C51.9533 99.7239 52.3574 97.0492 53.732 94.7743C55.1067 92.4993 57.2851 90.8962 59.8631 90.2594L63.2141 89.4205C66.5959 88.5773 69.6834 86.8293 72.1429 84.3567L73.1486 83.3465L71.7915 82.903C66.7277 81.2428 63.3195 76.5479 63.3108 71.2205V70.1884L62.7223 69.982C61.0753 69.4111 59.806 68.1374 59.2351 66.4949C58.2074 63.5435 59.7709 60.3023 62.7223 59.2746L63.3108 59.0682V56.9952L63.0165 56.7317C56.3496 50.7543 54.8081 40.8199 59.3493 33.1033C62.7266 27.3675 68.9631 23.8013 75.63 23.8013C78.9766 23.8013 82.2837 24.706 85.1868 26.4144C85.8104 26.7834 86.0212 27.5915 85.6523 28.2195C85.4151 28.6192 84.9804 28.8695 84.5148 28.8695C84.282 28.8695 84.0493 28.808 83.8472 28.6851C81.3439 27.2006 78.4847 26.4188 75.5817 26.4188C70.6057 26.4188 65.9766 28.6499 62.876 32.5367C60.175 35.9273 58.954 40.1699 59.4415 44.4783C59.929 48.7867 62.0635 52.6472 65.454 55.3526C65.7658 55.603 65.9459 55.9763 65.9459 56.3803V58.9276H69.7449L67.7114 40.6266C67.6895 40.4378 67.7114 40.2445 67.7729 40.0644C67.953 39.5242 68.4537 39.1641 69.0246 39.1641C69.1652 39.1641 69.3057 39.1861 69.4418 39.2344L75.6124 41.2942L81.7831 39.2344C81.9192 39.1905 82.0554 39.1685 82.2003 39.1685C82.2486 39.1685 82.2969 39.1729 82.3452 39.1773C82.6966 39.2168 83.0084 39.3881 83.228 39.6648C83.4476 39.9415 83.5486 40.284 83.5091 40.6354L81.4756 58.9364H85.2746V56.3847C85.2746 55.9807 85.4547 55.6074 85.7665 55.357C92.0513 50.3459 93.6983 41.3557 89.5962 34.4428C89.4162 34.1398 89.3679 33.784 89.4557 33.4459C89.5435 33.1077 89.7587 32.8178 90.0618 32.6378C90.2638 32.5192 90.4966 32.4533 90.7293 32.4533C91.1949 32.4533 91.6297 32.7036 91.8668 33.1033C96.4432 40.8286 94.9016 50.7719 88.204 56.7492L87.9097 57.0128V59.0945L88.4983 59.3009C90.1452 59.8719 91.4145 61.1455 91.9854 62.7881C93.0131 65.7394 91.4496 68.9807 88.4983 70.0084L87.9097 70.2148V71.2425C87.901 77.6547 83.0787 82.9205 76.6841 83.4871L76.2888 83.5222L76.0516 83.8428C73.0651 87.8878 68.7304 90.7908 63.8554 92.0117L60.5087 92.8462C57.25 93.6631 54.975 96.5793 54.9706 99.9347C54.9706 101.889 55.726 103.725 57.1094 105.108C58.4885 106.492 60.3243 107.252 62.2787 107.256H66.8243C67.5489 107.256 68.1418 107.849 68.1418 108.574C68.1418 109.298 67.5489 109.891 66.8243 109.891H62.2479V109.865ZM65.9459 71.2161C65.9459 76.5435 70.2807 80.8783 75.6081 80.8783C80.9354 80.8783 85.2702 76.5435 85.2702 71.2161V70.3378H65.9459V71.2161ZM64.6283 61.554C62.9331 61.554 61.554 62.933 61.554 64.6283C61.554 66.3236 62.9331 67.7026 64.6283 67.7026H86.5878C88.2831 67.7026 89.6621 66.3236 89.6621 64.6283C89.6621 62.933 88.2831 61.554 86.5878 61.554H64.6283ZM72.4064 58.9188H78.8185L80.6587 42.3746L76.0253 43.9205C75.8935 43.9644 75.753 43.9864 75.6081 43.9864C75.4631 43.9864 75.327 43.9644 75.1908 43.9205L70.5574 42.3746L72.4064 58.9188Z" fill="url(#paint3_linear_61_1750)"/>
<path d="M49.2565 43.9865C49.9842 43.9865 50.5741 43.3966 50.5741 42.6689C50.5741 41.9412 49.9842 41.3513 49.2565 41.3513C48.5289 41.3513 47.939 41.9412 47.939 42.6689C47.939 43.3966 48.5289 43.9865 49.2565 43.9865Z" fill="url(#paint4_linear_61_1750)"/>
<path d="M101.96 43.9865C102.687 43.9865 103.277 43.3966 103.277 42.6689C103.277 41.9412 102.687 41.3513 101.96 41.3513C101.232 41.3513 100.642 41.9412 100.642 42.6689C100.642 43.3966 101.232 43.9865 101.96 43.9865Z" fill="url(#paint5_linear_61_1750)"/>
<path d="M75.6076 17.6351C76.3353 17.6351 76.9252 17.0452 76.9252 16.3176C76.9252 15.5899 76.3353 15 75.6076 15C74.8799 15 74.29 15.5899 74.29 16.3176C74.29 17.0452 74.8799 17.6351 75.6076 17.6351Z" fill="url(#paint6_linear_61_1750)"/>
<path d="M52.788 30.8108C52.5596 30.8108 52.3312 30.7493 52.1292 30.6351C51.5012 30.2706 51.286 29.4625 51.6461 28.8344C51.8789 28.426 52.3181 28.1757 52.788 28.1757C53.0164 28.1757 53.2447 28.2371 53.4468 28.3513C53.7498 28.527 53.9694 28.8125 54.0616 29.1507C54.1539 29.4888 54.1056 29.8446 53.9299 30.152C53.6927 30.5605 53.2579 30.8108 52.788 30.8108Z" fill="url(#paint7_linear_61_1750)"/>
<path d="M98.4281 57.1621C98.1997 57.1621 97.9714 57.1006 97.7693 56.9864C97.1413 56.6219 96.9261 55.8138 97.2862 55.1858C97.519 54.7773 97.9582 54.527 98.4281 54.527C98.6565 54.527 98.8849 54.5885 99.0869 54.7027C99.3899 54.8783 99.6095 55.1638 99.7018 55.502C99.794 55.8402 99.7457 56.1959 99.57 56.5033C99.3328 56.9118 98.8981 57.1621 98.4281 57.1621Z" fill="url(#paint8_linear_61_1750)"/>
<path d="M88.7883 21.1531C88.1954 21.1531 87.6728 20.749 87.5147 20.1781C87.3258 19.4754 87.743 18.7507 88.4457 18.5619C88.5599 18.5311 88.6741 18.5179 88.7883 18.5179C89.3812 18.5179 89.9039 18.922 90.062 19.4973C90.2508 20.2 89.8336 20.9247 89.1309 21.1136C89.0211 21.1399 88.9069 21.1531 88.7883 21.1531Z" fill="url(#paint9_linear_61_1750)"/>
<path d="M98.4279 30.8108C97.958 30.8108 97.5188 30.5605 97.286 30.152C97.1104 29.849 97.062 29.4932 97.1543 29.1507C97.2465 28.8125 97.4617 28.527 97.7691 28.3513C97.9712 28.2371 98.1952 28.1757 98.4279 28.1757C98.8979 28.1757 99.337 28.4304 99.5698 28.8344C99.9343 29.4625 99.7148 30.2706 99.0867 30.6351C98.8847 30.7493 98.6607 30.8108 98.4279 30.8108Z" fill="url(#paint10_linear_61_1750)"/>
<path d="M52.7878 57.1621C52.3178 57.1621 51.8787 56.9074 51.6459 56.5033C51.4702 56.2003 51.4219 55.8445 51.5141 55.502C51.6064 55.1638 51.8216 54.8783 52.129 54.7027C52.331 54.5885 52.555 54.527 52.7878 54.527C53.2577 54.527 53.6969 54.7817 53.9297 55.1858C54.2942 55.8138 54.0746 56.6219 53.4466 56.9864C53.2445 57.1006 53.0206 57.1621 52.7878 57.1621Z" fill="url(#paint11_linear_61_1750)"/>
<path d="M62.4325 21.1661C61.9626 21.1661 61.5234 20.9114 61.2906 20.5074C60.9261 19.8793 61.1457 19.0712 61.7737 18.7067C61.9758 18.5925 62.1997 18.531 62.4325 18.531C62.9025 18.531 63.3416 18.7857 63.5744 19.1898C63.7501 19.4928 63.7984 19.8486 63.7062 20.1911C63.6139 20.5293 63.3987 20.8148 63.0913 20.9905C62.8893 21.1047 62.6653 21.1661 62.4325 21.1661Z" fill="url(#paint12_linear_61_1750)"/>
<path d="M86.5878 127.432C85.8631 127.432 85.2702 126.839 85.2702 126.115V121.868L84.7651 121.631C84.0668 121.301 83.3861 120.91 82.7492 120.471L82.2925 120.155L78.6165 122.276C78.3969 122.399 78.1729 122.461 77.9489 122.461C77.4746 122.461 77.0354 122.206 76.8026 121.793C76.6269 121.486 76.583 121.13 76.6753 120.792C76.7675 120.454 76.9871 120.168 77.2945 119.997L81.7611 117.414C81.9631 117.3 82.1871 117.239 82.4198 117.239C82.7317 117.239 83.0391 117.353 83.2763 117.555C84.3874 118.504 85.6479 119.228 87.0226 119.716C87.5452 119.9 87.9009 120.401 87.9009 120.959V124.797H94.0584V120.954C94.0584 120.397 94.4097 119.9 94.9367 119.716C96.3114 119.228 97.5719 118.504 98.683 117.555C98.9202 117.349 99.2276 117.239 99.5394 117.239C99.7722 117.239 99.9962 117.3 100.198 117.414L103.519 119.334L106.593 114.011L103.273 112.091C102.789 111.815 102.535 111.257 102.636 110.712C102.917 109.281 102.917 107.818 102.636 106.378C102.539 105.837 102.794 105.284 103.277 105.007L106.588 103.088L103.514 97.7651L100.194 99.6844C99.9962 99.7986 99.7678 99.8601 99.535 99.8601C99.2188 99.8601 98.9158 99.7459 98.6786 99.5439C97.5675 98.5952 96.307 97.8706 94.9323 97.3831C94.4097 97.1986 94.054 96.6979 94.054 96.1401V92.3016H87.9053V96.1445C87.9053 96.7023 87.5496 97.1986 87.0226 97.3831C85.6435 97.8706 84.383 98.5952 83.2719 99.5439C83.0347 99.7503 82.7273 99.8601 82.4155 99.8601C82.1827 99.8601 81.9587 99.7986 81.7567 99.6844L78.4364 97.7651L75.3621 103.088L78.6823 105.007C79.1655 105.284 79.4202 105.842 79.3192 106.386C79.0381 107.818 79.0381 109.281 79.3192 110.721C79.4158 111.261 79.1611 111.815 78.678 112.091L74.2246 114.67C74.005 114.793 73.781 114.854 73.557 114.854C73.0827 114.854 72.6435 114.599 72.4107 114.186C72.2351 113.879 72.1911 113.523 72.2834 113.185C72.3756 112.847 72.5952 112.561 72.9026 112.39L76.5786 110.264L76.5303 109.707C76.4952 109.32 76.482 108.929 76.482 108.543C76.482 108.156 76.4996 107.77 76.5303 107.379L76.5786 106.821L72.907 104.7C72.5996 104.524 72.3844 104.239 72.2921 103.901C72.1999 103.562 72.2482 103.207 72.4239 102.899L76.8158 95.2925C77.0486 94.8841 77.4878 94.6337 77.9577 94.6337C78.1861 94.6337 78.4144 94.6952 78.6165 94.8094L82.2925 96.9307L82.7492 96.6145C83.3861 96.1753 84.0624 95.7844 84.7651 95.455L85.2702 95.2178V90.9709C85.2702 90.2462 85.8631 89.6533 86.5878 89.6533H95.3715C96.0962 89.6533 96.6891 90.2462 96.6891 90.9709V95.2178L97.1942 95.455C97.8925 95.7844 98.5732 96.1753 99.2101 96.6145L99.6668 96.9307L103.343 94.8094C103.545 94.6952 103.769 94.6337 103.997 94.6337C104.467 94.6337 104.906 94.8885 105.139 95.2925L109.531 102.899C109.707 103.202 109.755 103.558 109.663 103.901C109.571 104.239 109.355 104.524 109.048 104.7L105.376 106.821L105.425 107.379C105.46 107.765 105.473 108.156 105.473 108.543C105.473 108.929 105.455 109.316 105.425 109.707L105.376 110.264L109.048 112.386C109.355 112.561 109.571 112.847 109.663 113.185C109.755 113.523 109.707 113.879 109.531 114.186L105.139 121.793C104.906 122.202 104.467 122.452 103.997 122.452C103.769 122.452 103.54 122.39 103.338 122.276L99.6624 120.155L99.2057 120.471C98.5688 120.91 97.8925 121.301 97.1898 121.631L96.6847 121.868V126.115C96.6847 126.839 96.0918 127.432 95.3671 127.432H86.5878Z" fill="url(#paint13_linear_61_1750)"/>
<path d="M90.9795 114.257C87.8305 114.257 85.27 111.696 85.27 108.547C85.27 105.398 87.8305 102.838 90.9795 102.838C94.1285 102.838 96.6889 105.398 96.6889 108.547C96.6889 111.696 94.1285 114.257 90.9795 114.257ZM90.9795 105.473C89.2842 105.473 87.9052 106.852 87.9052 108.547C87.9052 110.242 89.2842 111.622 90.9795 111.622C92.6747 111.622 94.0538 110.242 94.0538 108.547C94.0538 106.852 92.6747 105.473 90.9795 105.473Z" fill="url(#paint14_linear_61_1750)"/>
<path d="M93.176 136.216C92.4513 136.216 91.8584 135.623 91.8584 134.899C91.8584 134.174 92.4513 133.581 93.176 133.581H119.527C122.435 133.581 124.798 131.218 124.798 128.311V123.919C124.798 123.194 125.39 122.601 126.115 122.601C126.84 122.601 127.433 123.194 127.433 123.919V128.311C127.433 132.672 123.884 136.216 119.527 136.216H93.176Z" fill="url(#paint15_linear_61_1750)"/>
<path d="M60.2363 134.02C57.0873 134.02 54.5269 131.46 54.5269 128.311C54.5269 125.162 57.0873 122.601 60.2363 122.601C63.3853 122.601 65.9458 125.162 65.9458 128.311C65.9458 131.46 63.3853 134.02 60.2363 134.02ZM60.2363 125.236C58.541 125.236 57.162 126.616 57.162 128.311C57.162 130.006 58.541 131.385 60.2363 131.385C61.9316 131.385 63.3106 130.006 63.3106 128.311C63.3106 126.616 61.9316 125.236 60.2363 125.236Z" fill="url(#paint16_linear_61_1750)"/>
<defs>
<linearGradient id="paint0_linear_61_1750" x1="98.4911" y1="68.5689" x2="99.2044" y2="72.2557" gradientUnits="userSpaceOnUse">
<stop stop-color="#00B2A1"/>
<stop offset="1" stop-color="#835DD0"/>
</linearGradient>
<linearGradient id="paint1_linear_61_1750" x1="36.3987" y1="78.3669" x2="105.881" y2="169.409" gradientUnits="userSpaceOnUse">
<stop stop-color="#00B2A1"/>
<stop offset="1" stop-color="#835DD0"/>
</linearGradient>
<linearGradient id="paint2_linear_61_1750" x1="119.339" y1="48.3468" x2="147.556" y2="53.9679" gradientUnits="userSpaceOnUse">
<stop stop-color="#00B2A1"/>
<stop offset="1" stop-color="#835DD0"/>
</linearGradient>
<linearGradient id="paint3_linear_61_1750" x1="59.2408" y1="52.0972" x2="108.633" y2="76.3139" gradientUnits="userSpaceOnUse">
<stop stop-color="#00B2A1"/>
<stop offset="1" stop-color="#835DD0"/>
</linearGradient>
<linearGradient id="paint4_linear_61_1750" x1="48.3727" y1="42.2174" x2="50.2852" y2="44.1307" gradientUnits="userSpaceOnUse">
<stop stop-color="#00B2A1"/>
<stop offset="1" stop-color="#835DD0"/>
</linearGradient>
<linearGradient id="paint5_linear_61_1750" x1="101.076" y1="42.2174" x2="102.988" y2="44.1307" gradientUnits="userSpaceOnUse">
<stop stop-color="#00B2A1"/>
<stop offset="1" stop-color="#835DD0"/>
</linearGradient>
<linearGradient id="paint6_linear_61_1750" x1="74.7238" y1="15.8661" x2="76.6362" y2="17.7794" gradientUnits="userSpaceOnUse">
<stop stop-color="#00B2A1"/>
<stop offset="1" stop-color="#835DD0"/>
</linearGradient>
<linearGradient id="paint7_linear_61_1750" x1="51.9056" y1="29.0418" x2="53.818" y2="30.9555" gradientUnits="userSpaceOnUse">
<stop stop-color="#00B2A1"/>
<stop offset="1" stop-color="#835DD0"/>
</linearGradient>
<linearGradient id="paint8_linear_61_1750" x1="97.5457" y1="55.3931" x2="99.4581" y2="57.3068" gradientUnits="userSpaceOnUse">
<stop stop-color="#00B2A1"/>
<stop offset="1" stop-color="#835DD0"/>
</linearGradient>
<linearGradient id="paint9_linear_61_1750" x1="87.9035" y1="19.3841" x2="89.8159" y2="21.2995" gradientUnits="userSpaceOnUse">
<stop stop-color="#00B2A1"/>
<stop offset="1" stop-color="#835DD0"/>
</linearGradient>
<linearGradient id="paint10_linear_61_1750" x1="97.5426" y1="29.0418" x2="99.455" y2="30.9569" gradientUnits="userSpaceOnUse">
<stop stop-color="#00B2A1"/>
<stop offset="1" stop-color="#835DD0"/>
</linearGradient>
<linearGradient id="paint11_linear_61_1750" x1="51.9025" y1="55.3931" x2="53.8149" y2="57.3083" gradientUnits="userSpaceOnUse">
<stop stop-color="#00B2A1"/>
<stop offset="1" stop-color="#835DD0"/>
</linearGradient>
<linearGradient id="paint12_linear_61_1750" x1="61.5484" y1="19.3971" x2="63.4609" y2="21.3123" gradientUnits="userSpaceOnUse">
<stop stop-color="#00B2A1"/>
<stop offset="1" stop-color="#835DD0"/>
</linearGradient>
<linearGradient id="paint13_linear_61_1750" x1="78.4045" y1="102.071" x2="105.822" y2="129.277" gradientUnits="userSpaceOnUse">
<stop stop-color="#00B2A1"/>
<stop offset="1" stop-color="#835DD0"/>
</linearGradient>
<linearGradient id="paint14_linear_61_1750" x1="87.1496" y1="106.591" x2="95.4368" y2="114.882" gradientUnits="userSpaceOnUse">
<stop stop-color="#00B2A1"/>
<stop offset="1" stop-color="#835DD0"/>
</linearGradient>
<linearGradient id="paint15_linear_61_1750" x1="97.7141" y1="127.076" x2="104.309" y2="144.315" gradientUnits="userSpaceOnUse">
<stop stop-color="#00B2A1"/>
<stop offset="1" stop-color="#835DD0"/>
</linearGradient>
<linearGradient id="paint16_linear_61_1750" x1="56.4065" y1="126.354" x2="64.6937" y2="134.645" gradientUnits="userSpaceOnUse">
<stop stop-color="#00B2A1"/>
<stop offset="1" stop-color="#835DD0"/>
</linearGradient>
</defs>
</svg>
